<?xml version="1.0" encoding="utf-8"?>
<!-- Generator: Adobe Illustrator 26.1.0, SVG Export Plug-In . SVG Version: 6.00 Build 0)  -->
<svg version="1.1" id="Layer_1" xmlns="http://www.w3.org/2000/svg" xmlns:xlink="http://www.w3.org/1999/xlink" x="0px" y="0px"
	 viewBox="0 0 43 48.5" style="enable-background:new 0 0 43 48.5;" xml:space="preserve">
<style type="text/css">
	.st0{stroke:#88051d;stroke-width:0.5987;stroke-miterlimit:10;}
	.st1{stroke:#88051d;stroke-width:0.25;stroke-miterlimit:10;}
	.st2{stroke:#88051d;stroke-width:0.3672;stroke-miterlimit:10;}
</style>
<g style='fill:#88051d;'>
	<path class="st2" d="M16.6,0.2c0.1,0,0.2,0.1,0.3,0.1c0.2,0,0.3,0.1,0.5,0.1c0.3,0.1,0.5,0.1,0.8,0.2c0.3,0,0.5,0.1,0.8,0.1
		c0.2,0,0.5,0.1,0.7,0.2C20.1,1,20.5,1.1,21,1.3c0.5,0.2,0.9,0.4,1.4,0.5c0.8,0.3,1.5,0.7,2.2,1.2c0.5,0.4,1,0.7,1.5,1.1
		C26.5,4.4,27,4.7,27.3,5c0.4,0.4,0.8,0.9,1.2,1.3c0.4,0.5,0.8,1,1,1.5c0.1,0.3,0.3,0.6,0.4,0.9c0.1,0.3,0.2,0.6,0.3,1
		c0,0.2,0.1,0.3,0.2,0.4c0.1,0.1,0.2,0.1,0.3,0.1c0.2,0,0.3,0.1,0.4,0.2c0.2,0.2,0.3,0.4,0.4,0.6c0.1,0.2,0.3,0.4,0.4,0.6
		c0.1,0.2,0.4,0.3,0.6,0.4c0.5,0.2,0.9,0.5,1.2,0.9c0.4,0.4,0.8,0.8,1.2,1.3c0.2,0.2,0.3,0.3,0.5,0.5c0.1,0.1,0.2,0.3,0.3,0.4
		c0.3,0.3,0.6,0.6,0.8,1c0.2,0.4,0.4,0.7,0.6,1.1c0,0,0.1,0,0.1,0.1c0.3,0.1,0.5,0.4,0.5,0.7c0.1,0.4,0.2,0.7,0.3,1.1
		c0.1,0.3,0.2,0.5,0.2,0.8c0.1,0.2,0.1,0.4,0.2,0.6c0.2,0.6,0.3,1.1,0.5,1.7c0.1,0.3,0.2,0.6,0.2,0.9c0.1,0.3,0.1,0.6,0.1,0.9
		c0,0.2,0.1,0.4,0.1,0.5c0,0.2,0,0.5,0.1,0.7c0,0.2,0,0.4,0,0.5c0,0.1,0,0.1,0,0.2c0,0.2,0.1,0.4,0.1,0.7c0,0.3,0.1,0.6,0,0.9
		c-0.1,0.2,0,0.4,0,0.7c0,0.1,0,0.2,0,0.3c-0.1,0.3-0.1,0.6-0.2,0.9c-0.1,0.5-0.3,0.9-0.5,1.3c-0.2,0.5-0.3,0.9-0.5,1.4
		c-0.1,0.3-0.2,0.6-0.3,0.9c-0.1,0.2-0.1,0.4-0.1,0.7c-0.1,0.2-0.1,0.4-0.2,0.7c-0.1,0.3-0.1,0.6-0.1,0.9c0,0.4,0.1,0.7,0.3,1
		c0.1,0.2,0.3,0.4,0.4,0.6c0.5,0.5,0.8,1.1,1.2,1.6c0.2,0.4,0.5,0.7,0.7,1.1c0.4,0.6,0.7,1.1,1.1,1.7c0.2,0.4,0.4,0.7,0.6,1.1
		c0.1,0.3,0.2,0.6,0.4,0.9c0.1,0.2,0.1,0.3,0.1,0.5c0,0.2,0.1,0.5,0.1,0.7c0,0.2,0.1,0.4,0.1,0.6c0,0.1,0,0.2,0,0.2c0,0,0,0,0,0
		c0,0.1,0,0.1,0,0.1c0,0.3-0.1,0.5-0.3,0.7c-0.3,0.2-0.7,0.4-1,0.6c-0.5,0.3-1,0.6-1.5,0.9c-0.3,0.2-0.5,0.3-0.8,0.4
		c-0.2,0-0.4,0.1-0.6,0.2c0,0,0,0,0,0c-0.1,0-0.3,0-0.4,0c0,0,0,0,0,0c-0.2-0.1-0.4-0.2-0.6-0.4c-0.3-0.2-0.4-0.5-0.5-0.8
		c-0.2-0.4-0.5-0.9-0.7-1.3c-0.3-0.6-0.7-1.2-1-1.8c-0.4-0.8-0.7-1.6-1-2.5c-0.2-0.6-0.6-1.2-1.1-1.6c-0.3-0.2-0.5-0.4-0.8-0.5
		c-0.1-0.1-0.3,0-0.5-0.1c-0.1,0-0.2-0.1-0.3-0.1c-0.2-0.1-0.4-0.3-0.5-0.4c-0.1,0-0.2-0.1-0.2-0.1c-0.2-0.1-0.3-0.2-0.4-0.3
		C30,38,29.6,37.7,29,37.6c-0.2,0-0.5-0.1-0.7-0.1c-0.7,0-1.3,0-2,0c-0.2,0-0.4,0-0.6,0c-0.3,0-0.6,0-0.9,0c-0.3,0-0.5-0.1-0.8-0.1
		c-0.4,0-0.8-0.2-1.2-0.3c-0.3-0.1-0.6-0.2-0.9-0.3c-0.3-0.1-0.6-0.1-0.8-0.2c-0.3-0.1-0.7-0.3-0.9-0.5c-0.1-0.1-0.3-0.3-0.4-0.4
		c-0.3-0.3-0.6-0.5-0.9-0.8c-0.3-0.3-0.6-0.5-0.9-0.8c-0.1-0.1-0.2-0.3-0.4-0.4c-0.4-0.4-0.7-0.8-1.1-1.1c-0.2-0.2-0.4-0.2-0.6-0.2
		c-0.1,0-0.3-0.1-0.4-0.1c-0.2,0-0.5,0-0.7,0c-0.1,0-0.3,0-0.5,0c-0.2,0-0.5,0-0.7,0.1c-0.3,0.1-0.5,0.2-0.8,0.3
		c-0.2,0.1-0.4,0.2-0.6,0.2c0,0-0.1,0-0.1,0c-0.1,0.1-0.3,0.3-0.4,0.4c-0.1,0.1-0.2,0.2-0.4,0.4c-0.2,0.2-0.3,0.5-0.4,0.8
		c-0.1,0.2-0.2,0.5-0.2,0.7c-0.1,0.2-0.1,0.4-0.1,0.6c-0.1,0.2-0.2,0.4-0.2,0.6c-0.2,0.7-0.5,1.4-0.8,2.1c-0.2,0.5-0.4,1.1-0.6,1.6
		c-0.2,0.5-0.5,1-0.7,1.5c-0.2,0.5-0.4,1-0.6,1.6c-0.1,0.2-0.2,0.4-0.2,0.6c-0.1,0.2-0.1,0.4-0.2,0.7c-0.1,0.2-0.1,0.5-0.3,0.7
		c-0.2,0.2-0.4,0.3-0.6,0.4c-0.3,0.1-0.5,0.1-0.8,0.2c-0.3,0.1-0.6,0.1-0.9,0.2c-0.2,0-0.3,0.1-0.5,0c-0.3,0-0.6,0-0.8-0.1
		c-0.6-0.2-1.3-0.3-1.9-0.7C1,45,0.7,44.7,0.4,44.3c-0.1-0.1-0.2-0.2-0.2-0.4c0,0,0,0,0-0.1c0.2-0.2,0.4-0.4,0.5-0.7
		c0-0.1,0.1-0.3,0.1-0.4c0.1-0.6,0.3-1.1,0.6-1.5C1.6,40.8,1.8,40.4,2,40c0.2-0.4,0.4-0.7,0.6-1.1c0.2-0.4,0.4-0.8,0.6-1.3
		c0.2-0.3,0.3-0.7,0.4-1c0.4-0.7,0.8-1.3,1.1-2c0.3-0.7,0.7-1.3,0.9-2C5.9,32.2,6,32,6,31.7c0.1-0.2,0.1-0.4,0.2-0.7
		c0-0.2,0-0.4,0.1-0.6c0-0.1,0-0.3,0-0.4c0-0.2-0.1-0.5-0.1-0.7c-0.2-0.4-0.3-0.8-0.5-1.2c-0.3-0.5-0.6-1-1-1.5
		c-0.3-0.5-0.7-1-1.1-1.5c-0.5-0.6-0.8-1.3-1.1-2c-0.1-0.2-0.1-0.5-0.2-0.7c0-0.2-0.1-0.4-0.1-0.6c0-0.3,0-0.5-0.2-0.7
		C2,21,2,20.9,1.9,20.8c-0.2-0.3-0.2-0.6-0.3-0.9c0-0.1,0-0.2,0-0.3c0,0,0-0.1,0.1,0C1.8,19.7,1.9,19.8,2,20c0,0,0.1,0,0.1,0
		c0,0,0.1-0.1,0.1-0.1c0-0.1,0-0.2,0-0.3c0-0.1,0-0.1,0-0.2c0-0.2,0-0.4,0-0.6c0-0.2,0-0.4,0.1-0.6c0-0.1,0-0.1,0-0.2
		c0-0.2,0-0.5,0-0.7c0-0.1,0-0.3,0.1-0.4c0,0,0,0,0,0c0-0.1,0-0.2,0-0.3c0-0.1,0-0.2,0-0.4c0,0,0-0.1-0.1-0.1c0,0-0.1,0-0.1,0.1
		c0,0-0.1,0.1-0.1,0.1c-0.1,0.3-0.2,0.6-0.2,1c-0.1,0.3-0.1,0.6-0.1,1c0,0.2,0,0.3,0,0.5c0,0.1,0,0.2,0,0.2c0,0.2-0.1,0.2-0.2,0.4
		c0,0,0,0,0,0c0-0.1-0.1-0.1-0.1-0.2c0-0.3,0-0.5,0-0.8c0-0.2,0-0.5,0-0.7c0-0.3,0.1-0.6,0.2-1c0.1-0.3,0.2-0.6,0.3-0.9
		C2.2,15,2.4,14.5,2.6,14c0.3-0.6,0.6-1.2,0.8-1.8c0.3-0.5,0.5-1.1,0.8-1.6c0.2-0.5,0.5-1,0.8-1.5c0.2-0.3,0.3-0.6,0.5-0.9
		c0.2-0.5,0.5-1,0.7-1.4c0.3-0.5,0.7-1.1,1.1-1.6C7.6,4.8,8,4.4,8.4,3.9c0.3-0.4,0.7-0.7,1.1-1c0.2-0.2,0.5-0.4,0.7-0.6
		c0.3-0.2,0.7-0.5,1.1-0.7c0.5-0.3,1.1-0.6,1.7-0.8c0.4-0.1,0.8-0.3,1.2-0.3c0.1,0,0.2,0,0.2-0.1c0.2,0,0.3,0,0.5-0.1
		c0.1,0,0.3,0,0.4-0.1c0.2,0,0.4-0.1,0.5-0.1c0,0,0,0,0.1,0C16.1,0.2,16.3,0.2,16.6,0.2C16.5,0.2,16.5,0.2,16.6,0.2 M28.5,6.8
		c-0.1-0.1-0.1-0.1-0.2-0.2c-0.3-0.4-0.6-0.7-0.9-1c-0.4-0.3-0.7-0.6-1.1-0.9c-0.3-0.2-0.6-0.5-0.9-0.7c-0.4-0.3-0.7-0.6-1.1-0.8
		C24,3,23.6,2.7,23.1,2.5c-0.6-0.3-1.3-0.5-1.9-0.8c-0.4-0.1-0.7-0.3-1.1-0.4c-0.4-0.1-0.8-0.2-1.2-0.3C18.7,1,18.5,1,18.3,0.9
		c-0.1,0-0.3-0.1-0.4-0.1c-0.2,0-0.4-0.1-0.6-0.1c-0.2,0-0.3,0-0.5,0c-0.1,0-0.2,0-0.3,0c-0.3,0-0.5,0-0.8,0.1c-0.2,0-0.4,0-0.6,0
		c-0.1,0-0.1,0-0.2,0c-0.3,0-0.5,0-0.7,0.1c-0.7,0.2-1.4,0.5-2.2,0.7c-0.4,0.1-0.8,0.3-1.2,0.6C10.1,2.6,9.5,3.1,9,3.7
		C8.9,3.8,8.7,3.9,8.6,4C8.3,4.4,8,4.8,7.7,5.2C7.4,5.5,7.2,5.9,7.1,6.3c0,0,0,0.1,0,0.1c0,0,0.1,0,0.1,0c0.1,0,0.1-0.1,0.2-0.1
		c0.3-0.3,0.5-0.7,0.8-1c0.1-0.1,0.2-0.3,0.3-0.4c0.1-0.1,0.2-0.1,0.2-0.1c0,0.1,0,0.2,0,0.3C8.7,5.2,8.5,5.4,8.3,5.6
		C7.9,6,7.5,6.5,7.1,7c-0.4,0.4-0.7,0.9-1,1.4c-0.5,1-1,2-1.6,3.1c-0.4,0.8-0.8,1.5-1.2,2.3C3.2,14,3,14.4,3,14.8c0,0.2,0,0.4,0,0.6
		c0,0.2,0,0.4,0,0.6c0,0.2,0,0.3,0,0.5c0,0,0,0.1,0,0.1c0,0.2,0,0.4-0.1,0.7c0,0.2-0.1,0.3-0.1,0.5c0,0.2-0.1,0.4-0.1,0.7
		c0,0.1,0,0.2,0,0.3c0,0.2,0,0.4,0,0.6c-0.1,0.3,0,0.6,0,0.9c0,0.2,0.1,0.3,0.1,0.5c0,0.2,0.2,0.5,0.4,0.6c0.2,0.1,0.4,0.1,0.6,0.2
		c1.5,0.5,3,1,4.5,1.5c0.5,0.2,1,0.3,1.5,0.5c0.5,0.2,0.9,0.4,1.3,0.6c0.7,0.3,1.3,0.6,2,0.9c0.4,0.2,0.9,0.4,1.3,0.6
		c0.5,0.2,1,0.4,1.5,0.6c0.4,0.2,0.8,0.3,1.2,0.5c0.2,0.1,0.5,0.1,0.7,0.2c0.3,0.1,0.5,0.1,0.8,0.2c0.2,0,0.4,0.1,0.6,0.1
		c0.3,0.1,0.5,0.1,0.7,0.2c0.3,0.1,0.6,0.1,0.9,0.2c0.3,0.1,0.6,0.2,0.9,0.3c0.7,0.2,1.3,0.5,1.9,0.8c0.2,0.1,0.4,0.2,0.6,0.1
		c0.2-0.1,0.3-0.2,0.5-0.2c0.8-0.3,1.5-0.8,2.1-1.5c0.3-0.4,0.4-0.8,0.5-1.2c0-0.2,0.1-0.5,0.2-0.7c0.2-0.2,0.3-0.5,0.5-0.7
		c0.2-0.4,0.4-0.9,0.6-1.3c0.2-0.5,0.4-1,0.6-1.4c0.1-0.4,0.2-0.7,0.3-1.1c0-0.2,0.1-0.4,0.1-0.6c0-0.2,0-0.4,0-0.5
		c0-0.6,0-1.2,0.1-1.8c0-0.2,0-0.3,0-0.5c0-0.3,0.1-0.7,0.1-1c0-0.2,0.1-0.5,0.1-0.7c0-0.3,0-0.5,0-0.8c0-0.1,0-0.1,0-0.2
		c0-0.1,0-0.3,0-0.4c0-0.3,0.1-0.6,0-0.8c-0.1-0.3-0.2-0.5-0.3-0.8c-0.1-0.2-0.1-0.5-0.1-0.8c-0.1-0.3-0.2-0.6-0.3-1
		c-0.1-0.4-0.2-0.8-0.3-1.2c0-0.1-0.1-0.3-0.1-0.4c-0.1-0.3-0.1-0.5-0.2-0.8c0-0.1,0-0.1,0.1-0.1c0.1,0,0.1,0,0.1,0.1
		c0.2,0.3,0.3,0.5,0.5,0.8c0.2,0.4,0.3,0.9,0.5,1.3c0.1,0.3,0.3,0.6,0.3,1c0.1,0.3,0.1,0.6,0.1,0.9c0,0.3,0,0.6,0.1,0.9
		c0,0.3,0.1,0.5,0.1,0.8c0,0.1,0,0.2,0,0.2c0,0.1,0,0.3,0,0.4c0,0.2,0,0.4,0,0.6c0,0.2,0,0.5-0.1,0.7c0,0.2,0,0.4,0,0.6
		c0,0.1,0,0.2,0,0.3c0,0.2,0,0.3,0,0.5c0,0.2-0.1,0.4-0.1,0.6c0,0.1,0,0.2,0,0.3c0,0.1,0,0.3,0,0.4c0,0.1,0,0.2,0.1,0.2
		c0.1,0.1,0.1,0,0.1-0.1c0-0.2,0.1-0.4,0.1-0.6c0.2-0.7,0.4-1.3,0.5-2c0-0.2,0.1-0.3,0.1-0.5c0-0.1,0-0.3,0-0.4c0-0.2,0-0.4,0-0.5
		c0-0.1,0-0.2,0-0.3c0-0.2,0.1-0.4,0.1-0.7c-0.1-0.2,0-0.4-0.1-0.7c0-0.2,0-0.5-0.1-0.7c-0.1-0.4-0.2-0.8-0.3-1.2
		c-0.1-0.4-0.3-0.8-0.5-1.2c-0.4-0.8-0.7-1.5-1.1-2.3C28.8,7.3,28.6,7.1,28.5,6.8 M18.5,32.4c-0.1,0-0.3,0-0.4,0c-0.1,0-0.3,0-0.4,0
		c0,0-0.1,0.1-0.1,0.1c0,0.1,0.1,0.2,0.1,0.3c0.2,0.3,0.4,0.6,0.7,0.9c0.1,0.1,0.3,0.2,0.4,0.3c0.2,0.1,0.4,0,0.6-0.1
		c0.2-0.1,0.4-0.2,0.6-0.2c0.1,0,0.2,0.1,0.3,0.1c0,0.1-0.1,0.1-0.1,0.2c0,0-0.1,0.1-0.1,0.1c-0.2,0.1-0.3,0.1-0.5,0.2
		c-0.1,0-0.2,0.1-0.1,0.2c0,0.1,0.1,0.1,0.3,0.1c0,0,0.1,0,0.1,0c0.2,0,0.4,0,0.7-0.1c0.3-0.2,0.7-0.4,1-0.6c0.5-0.3,1-0.5,1.4-0.8
		c0.5-0.3,1-0.6,1.6-0.9c0.6-0.3,1.3-0.6,1.9-0.9c0.4-0.2,0.9-0.5,1.3-0.7c0.6-0.4,1.2-0.7,1.8-1.1c0.9-0.5,1.8-0.9,2.8-1.3
		c0.7-0.3,1.3-0.7,2-1.1c0.7-0.4,1.3-0.8,2-1.1c0.6-0.3,1.2-0.6,1.8-1c0.5-0.3,0.7-0.6,0.5-1.1c-0.1-0.4-0.2-0.8-0.3-1.2
		c-0.1-0.3-0.2-0.7-0.3-1c-0.1-0.2-0.1-0.5-0.2-0.7c-0.2-0.5-0.4-1.1-0.5-1.6c-0.1-0.2-0.2-0.4-0.2-0.6c-0.2-0.8-0.5-1.5-0.8-2.2
		c-0.2-0.4-0.4-0.8-0.7-1.1c-0.4-0.4-0.8-0.8-1.3-1.2c-0.4-0.4-0.7-0.7-1.1-1c-0.3-0.2-0.6-0.4-0.9-0.6c-0.3-0.2-0.7-0.3-1.1-0.3
		c-0.1,0-0.2,0-0.2,0c0,0.1-0.1,0.2,0,0.2c0,0.2,0.1,0.5,0.2,0.7c0,0.1,0.1,0.3,0.1,0.5c0,0.3,0,0.6-0.1,0.9c0,0.3,0,0.5,0,0.8
		c0,0.1,0,0.1,0,0.2c0,0.2,0,0.5-0.1,0.7c0,0.2-0.1,0.3-0.1,0.5c-0.1,0.3-0.1,0.6-0.2,0.8c0,0.2-0.1,0.3-0.2,0.5
		c-0.1,0.5-0.2,1-0.4,1.4c-0.1,0.2-0.1,0.5-0.2,0.7c-0.1,0.3-0.2,0.7-0.3,1c-0.2,0.5-0.4,1-0.6,1.5c-0.2,0.5-0.4,1-0.6,1.5
		c-0.2,0.5-0.4,1.1-0.7,1.6c-0.3,0.6-0.6,1.1-0.9,1.6c-0.2,0.5-0.4,1-0.7,1.4c-0.3,0.3-0.5,0.6-0.8,0.9c-0.4,0.3-0.9,0.6-1.3,0.9
		c-0.4,0.2-0.8,0.5-1.2,0.7c-0.7,0.3-1.4,0.5-2.1,0.7c-0.2,0.1-0.4,0.1-0.6,0.2c-0.3,0.1-0.6,0.2-1,0.2c-0.1,0-0.3,0-0.4,0.1
		C18.8,32.4,18.7,32.4,18.5,32.4 M36,26.8c-0.5,0.3-1,0.6-1.5,0.9c-0.4,0.3-0.8,0.5-1.3,0.7c-0.3,0.1-0.6,0.3-0.9,0.4
		c-0.5,0.2-1.1,0.5-1.6,0.7c-0.5,0.2-1,0.5-1.5,0.8c-0.5,0.2-0.9,0.5-1.4,0.8c-0.6,0.3-1.1,0.6-1.7,0.9c-0.6,0.3-1.1,0.6-1.7,0.9
		c-0.6,0.3-1.1,0.6-1.6,0.9c-0.6,0.4-1.3,0.7-1.9,1.1c-0.1,0.1-0.1,0.2-0.1,0.3c0,0,0.1,0.1,0.1,0.1c0.3,0.1,0.5,0.1,0.8,0.2
		c0.2,0,0.3,0.1,0.5,0.1c0.4,0.1,0.7,0.2,1.1,0.3c0.2,0,0.4,0,0.6,0.1c0.1,0,0.3,0,0.4,0c0.1,0,0.2,0,0.2,0c0.3,0,0.6,0,0.9,0.1
		c0.2,0,0.5,0,0.7,0c0.3,0,0.7-0.1,1-0.1c0.4,0,0.7,0,1.1,0.1c0.2,0,0.5,0,0.7,0c0.3,0,0.6,0.1,0.9,0.2c0.5,0.1,0.9,0.3,1.4,0.5
		c0.3,0.1,0.5,0.2,0.8,0.3c0.2,0.1,0.3,0,0.2-0.2c-0.1-0.2-0.2-0.4-0.3-0.6c-0.3-0.4-0.6-0.8-0.7-1.4c-0.1-0.4-0.1-0.8,0.2-1.1
		c0.2-0.3,0.6-0.5,0.9-0.7c0.2-0.1,0.5-0.2,0.8-0.3c0.3-0.2,0.6-0.4,0.9-0.5c0.3-0.2,0.7-0.2,1,0.1c0.2,0.2,0.3,0.4,0.5,0.6
		c0.4,0.4,0.8,0.8,1.2,1.3c0.2,0.2,0.4,0.1,0.4-0.1c0.1-0.3,0.1-0.6,0.1-0.9c0-0.1,0-0.2,0-0.2c0-0.1-0.1-0.1-0.3,0
		c0,0-0.1,0-0.1,0.1c0-0.1,0-0.1,0-0.2c0,0,0,0,0,0c0.1-0.2,0.1-0.2-0.1-0.3c-0.1,0-0.1,0-0.1-0.1c0.1-0.2,0.1-0.5,0.1-0.7
		c0-0.1-0.1-0.1-0.1-0.2c-0.1-0.1-0.2-0.2-0.3-0.3c-0.1-0.1-0.1-0.2-0.1-0.3c0-0.1,0.1-0.2,0.2-0.2c0.1,0,0.2,0.1,0.2,0.2
		c0,0.1,0,0.2,0,0.2c0,0.1,0.1,0,0.1,0c0.2-0.2,0.5-0.4,0.6-0.7c0.2-0.5,0.4-1,0.6-1.5c0.2-0.5,0.5-1,0.6-1.6
		c0.1-0.3,0.2-0.6,0.2-0.9c0-0.2,0-0.3-0.1-0.5c-0.1-0.3-0.2-0.3-0.5-0.2C37.5,26,36.8,26.4,36,26.8 M19.5,30.5c0.1,0,0.3,0,0.4-0.1
		c0.3-0.1,0.5-0.1,0.8-0.2c0.3-0.1,0.6-0.2,0.8-0.3c0.4-0.3,0.8-0.6,1.1-0.9c0,0,0.1-0.2,0-0.2c-0.1-0.1-0.3-0.2-0.4-0.3
		c-0.4-0.1-0.8-0.2-1.1-0.3c-0.2-0.1-0.4-0.1-0.7-0.2c-0.3-0.1-0.6-0.1-0.9-0.2c-0.2-0.1-0.5-0.1-0.7-0.2c-0.3-0.1-0.5-0.1-0.8-0.2
		c-0.3-0.1-0.7-0.2-1-0.3c-0.5-0.2-0.9-0.3-1.4-0.5c-0.7-0.3-1.4-0.6-2-0.8c-0.7-0.3-1.5-0.7-2.2-1c-0.5-0.2-1-0.5-1.5-0.7
		c-0.8-0.4-1.6-0.7-2.4-0.9C7.3,23.2,7,23.1,6.7,23c-0.4-0.1-0.7-0.2-1.1-0.3c-0.4-0.1-0.7-0.3-1.1-0.4c-0.3-0.1-0.7-0.2-1-0.3
		c-0.2-0.1-0.4-0.1-0.6-0.1c0,0-0.1,0-0.1,0c0,0.1,0,0.1,0.1,0.2c0.1,0.2,0.2,0.5,0.2,0.7c0.2,0.7,0.6,1.4,1.1,2
		c0.3,0.3,0.5,0.6,0.7,1c0.3,0.4,0.5,0.7,0.8,1.1c0.4,0.6,0.9,1.2,1.1,2c0.1,0.2,0.1,0.5,0.1,0.7c0,0.2,0.1,0.3,0.2,0.4
		c0,0,0.1,0,0.1,0c0.1-0.1,0.2-0.3,0.2-0.4c0.1-0.2,0.1-0.5,0.2-0.7c0.2-0.4,0.3-0.9,0.7-1.2c0.1-0.1,0.3-0.2,0.5-0.2
		c0.1,0,0.2,0,0.3,0c0.3,0,0.6,0.1,0.9,0.1c0.2,0,0.5,0.1,0.7,0.2c0.6,0.2,1.2,0.4,1.8,0.6c0.6,0.2,0.7,0.7,0.5,1.2
		c-0.1,0.3-0.3,0.5-0.4,0.9c0,0.2-0.1,0.3-0.1,0.5c0,0,0,0.1,0,0.1c0,0,0.1,0,0.1,0c0.1-0.1,0.2-0.2,0.2-0.2
		c0.3-0.3,0.7-0.5,1.2-0.5c0.2,0,0.3,0,0.5,0c0.2,0,0.3,0.1,0.5,0.1c0.3,0,0.6,0,0.9,0.1c0.1,0,0.2,0,0.3,0c0.2,0,0.4,0,0.6,0
		c0.3,0,0.6,0,0.8,0c0.2,0,0.4-0.1,0.5-0.1c0.3,0,0.6,0,0.9,0.1C19.1,30.6,19.3,30.6,19.5,30.5 M31.9,34.7c0.2,0.4,0.5,0.9,0.7,1.3
		c0.2,0.5,0.5,0.9,0.7,1.4c0.2,0.4,0.4,0.7,0.6,1.1c0.2,0.3,0.4,0.5,0.5,0.8c0.3,0.6,0.6,1.2,0.9,1.9c0.1,0.3,0.3,0.6,0.4,0.8
		c0.1,0.2,0.1,0.3,0,0.4c-0.2,0.2-0.2,0.4-0.1,0.7c0.1,0.2,0.1,0.3,0.2,0.5c0.4,0.6,0.7,1.3,1.1,1.9c0.2,0.3,0.3,0.6,0.5,0.9
		c0,0,0.1,0.1,0.2,0.1c0.2,0,0.4-0.1,0.6-0.2c0.6-0.4,1.1-0.7,1.8-1c0.4-0.1,0.7-0.2,1.1-0.4c0.2-0.1,0.5-0.1,0.7-0.2
		c0.1,0,0.3-0.2,0.3-0.4c0-0.2,0-0.4-0.1-0.6c-0.2-0.5-0.4-0.9-0.6-1.3c-0.1-0.3-0.3-0.7-0.4-1c-0.2-0.6-0.5-1.1-0.9-1.5
		c-0.3-0.4-0.7-0.7-1.1-1c-0.3-0.3-0.5-0.7-0.8-1c-0.2-0.4-0.5-0.7-0.8-0.9c-0.1-0.1-0.3-0.2-0.4-0.3c-0.2-0.3-0.4-0.6-0.6-0.9
		c-0.1-0.1-0.1-0.2-0.1-0.3c0-0.2,0.1-0.3,0.2-0.4c0.1-0.1,0.1-0.2,0.1-0.3c-0.1-0.2-0.5-0.5-0.7-0.4c-0.1,0-0.2,0-0.3-0.1
		c-0.3-0.3-0.5-0.7-0.8-1c-0.1-0.2-0.3-0.4-0.5-0.3c-0.2,0.1-0.4,0.1-0.6,0.2c-0.4,0.3-0.8,0.6-1.3,0.8
		C31.9,34.2,31.8,34.4,31.9,34.7 M4.4,36.5C4.2,37,4,37.4,3.8,37.8c-0.3,0.8-0.7,1.6-1.2,2.4c-0.2,0.3-0.3,0.6-0.5,0.9
		c-0.1,0.2,0,0.3,0.2,0.4c0.2,0,0.4,0.1,0.6,0.1c0.3,0,0.6,0.1,0.9,0.1c0.3,0,0.5,0.1,0.8,0.2c0.5,0.1,0.9,0.3,1.3,0.6
		c0.2,0.1,0.4,0.1,0.6-0.1c0.1-0.1,0.1-0.2,0.1-0.2c0.4-0.7,0.6-1.5,0.9-2.3c0.1-0.4,0.2-0.7,0.3-1.1C7.8,38.3,7.9,38,8,37.7
		c0.2-0.6,0.5-1.2,0.7-1.8c0.3-0.8,0.7-1.7,1-2.5c0.2-0.5,0.4-0.9,0.6-1.4c0.2-0.5,0.4-1,0.7-1.5c0.1-0.3,0.3-0.6,0.4-0.9
		c0.1-0.2,0.1-0.4-0.1-0.4c-0.1-0.1-0.3-0.1-0.4-0.1c-0.2,0-0.5-0.1-0.8-0.1c-0.3,0-0.5-0.1-0.8-0.1c-0.3-0.1-0.6-0.2-0.9-0.2
		c-0.1,0-0.3,0-0.4,0.1c-0.3,0.4-0.5,0.8-0.8,1.2c-0.2,0.4-0.4,0.7-0.5,1.1c-0.2,0.5-0.4,1-0.6,1.6c-0.3,0.8-0.6,1.6-1,2.3
		C5,35.5,4.7,36,4.4,36.5 M24.3,30.1c0.1,0,0.2,0,0.3-0.1c0.4-0.3,0.8-0.6,1.2-1c0,0,0-0.1,0-0.1c0-0.2-0.2-0.3-0.4-0.2
		c-0.2,0.1-0.4,0.2-0.6,0.3c-0.3,0.2-0.5,0.4-0.8,0.4c-0.2,0-0.4,0.1-0.6,0.1c-0.4,0.1-0.8,0.3-1.1,0.5c-0.3,0.2-0.5,0.4-0.8,0.5
		c-0.3,0.1-0.5,0.2-0.7,0.2c-0.3,0.1-0.6,0.2-0.9,0.2c-0.1,0-0.2,0.1-0.4,0.1c-0.2,0-0.4,0-0.6,0c-0.2,0-0.4,0.1-0.6,0.1
		c-0.4,0-0.7,0-1.1,0c0,0-0.1,0-0.1,0c-0.2,0-0.3,0-0.5,0c-0.2,0-0.4-0.1-0.6-0.1c-0.2,0-0.5-0.1-0.7-0.1c-0.1,0-0.3,0-0.4,0
		c-0.2,0-0.3,0-0.5,0c-0.3,0-0.6,0-0.9,0c-0.4,0-0.7,0.2-1,0.4c-0.4,0.2-0.7,0.5-0.8,1c0,0.2,0,0.4,0,0.5c0,0,0,0,0,0
		c0.1-0.1,0.2-0.2,0.3-0.3c0.2-0.2,0.4-0.4,0.6-0.6c0.2-0.1,0.4-0.2,0.6-0.3c0.2-0.1,0.4,0,0.6-0.1c0.3-0.1,0.6-0.1,0.9-0.1
		c0.1,0,0.3,0,0.4,0c0.1,0,0.2,0,0.4,0c0.1,0,0.3,0.1,0.4,0.1c0.2,0,0.4,0,0.6,0c0.2,0,0.4,0,0.6,0c0.4,0,0.8,0,1.2,0
		c0.3,0,0.5,0,0.8-0.1c0.3-0.1,0.6-0.1,0.8-0.1c0.2,0,0.4-0.1,0.7-0.2c0.3-0.1,0.6-0.1,0.9-0.2c0.4-0.1,0.7-0.2,1-0.4
		C23.1,30.6,23.7,30.3,24.3,30.1 M7.8,41.5c0.2-0.6,0.5-1.2,0.7-1.8c0.2-0.5,0.5-1,0.7-1.5c0.3-0.7,0.5-1.4,0.8-2.1
		c0.2-0.5,0.2-0.9,0.4-1.4c0.1-0.4,0.2-0.7,0.3-1.1c0-0.1-0.1-0.2-0.1-0.1c-0.1,0.1-0.3,0.2-0.4,0.3C10,34,9.9,34.3,9.8,34.5
		c-0.2,0.6-0.4,1.1-0.7,1.7c-0.3,0.7-0.5,1.4-0.7,2.1c-0.3,0.8-0.5,1.5-0.7,2.3c-0.2,0.6-0.5,1.2-0.8,1.8c-0.1,0.2-0.2,0.4-0.2,0.6
		c0,0.1,0.1,0.3,0.2,0.3c0.1,0,0.1-0.1,0.2-0.1c0,0,0-0.1,0-0.1c0.1-0.2,0.1-0.3,0.2-0.5C7.5,42.3,7.6,41.9,7.8,41.5 M5.2,42.9
		c-0.2-0.2-0.3-0.3-0.5-0.5c0,0-0.1,0-0.1,0c-0.2,0-0.4-0.1-0.6-0.1c-0.2,0-0.4,0-0.6-0.1c-0.1,0-0.2,0-0.3-0.1
		c-0.2,0-0.4,0-0.6-0.1c-0.2,0-0.3,0-0.5-0.1c-0.1,0-0.2,0.1-0.3,0.2c-0.1,0.2-0.1,0.3,0,0.5c0.2,0.5,0.7,0.8,1.2,0.9
		c0.3,0.1,0.7,0.2,1,0.2c0.3,0,0.6,0,0.9,0c0.2,0,0.4,0,0.5,0c0.2,0,0.4,0,0.5,0c0,0,0.1,0,0.1-0.1c0-0.1,0-0.3-0.1-0.4
		C5.6,43.3,5.4,43.1,5.2,42.9 M29.4,36.9c0,0,0.1,0,0.1,0c0.1,0,0.2-0.1,0.3-0.1c0,0,0.1,0,0.1,0c0,0,0-0.1,0-0.1
		c-0.1-0.1-0.1-0.1-0.2-0.1c-0.1,0-0.2,0-0.4,0c-0.3,0-0.6-0.1-0.9-0.1c-0.2,0-0.5-0.1-0.7-0.1c-0.6,0-1.1,0-1.7,0
		c-0.2,0-0.4,0-0.6,0c-0.5,0-0.9,0-1.4,0c-0.3,0-0.6,0-0.9,0c-0.2,0-0.5-0.1-0.7-0.2c-0.5-0.2-1-0.4-1.5-0.6
		c-0.2-0.1-0.5-0.2-0.8-0.1c-0.1,0-0.1,0.1-0.1,0.2c0.1,0.1,0.2,0.2,0.3,0.3c0.4,0.1,0.8,0.3,1.2,0.4c0.4,0.1,0.9,0.3,1.3,0.4
		c0.2,0,0.3,0.1,0.5,0.1c0.2,0,0.4,0.1,0.6,0.1c0.2,0,0.4,0,0.5,0c0.4,0.1,0.7,0,1.1,0c0.3,0,0.5-0.1,0.8-0.1c0.2,0,0.3,0,0.5,0
		c0.1,0,0.1,0,0.2,0c0.3,0,0.5,0,0.8,0C28.5,37,29,36.9,29.4,36.9 M4,45.1c0.2,0,0.4,0,0.6,0c0.2,0,0.4,0,0.7,0
		c0.2,0,0.5-0.1,0.7-0.1c0.3,0,0.4-0.1,0.5-0.2c0,0,0-0.1,0-0.1c-0.1-0.1-0.2-0.1-0.4,0c-0.2,0.1-0.4,0-0.5,0c-0.1,0-0.3,0-0.4,0
		c-0.2,0-0.5-0.1-0.7-0.1c-0.1,0-0.2,0-0.3,0c-0.1,0-0.3,0-0.4,0c-0.1,0-0.2,0-0.4-0.1c-0.2,0-0.5,0-0.7-0.1
		c-0.4-0.1-0.8-0.2-1.1-0.4c-0.1,0-0.1,0-0.2,0c0,0,0,0.1,0,0.1c0.3,0.2,0.4,0.6,0.8,0.7c0.1,0,0.2,0,0.3,0.1
		c0.3,0.1,0.7,0.3,1.1,0.2C3.7,45.1,3.8,45.2,4,45.1 M39.5,47.1c0.4-0.1,0.7-0.2,1-0.4c0.3-0.2,0.5-0.4,0.8-0.6
		c0.1-0.1,0.1-0.2,0.2-0.2c0,0,0-0.1,0-0.2c0,0-0.1,0-0.2,0c-0.1,0-0.2,0.1-0.3,0.1c-0.3,0.1-0.5,0.2-0.8,0.3
		c-0.6,0.2-1.1,0.6-1.5,1c-0.1,0.1,0,0.2,0.1,0.3c0.1,0,0.2,0,0.3,0C39.1,47.2,39.3,47.1,39.5,47.1 M31.7,38
		c0.1,0.1,0.2,0.2,0.3,0.3c0.2,0.2,0.4,0.3,0.5,0.5c0.1,0.1,0.3,0.2,0.5,0.3c0,0,0.1,0,0.1,0c0-0.1,0.1-0.2,0-0.3
		c-0.2-0.4-0.4-0.7-0.7-0.9c-0.3-0.2-0.5-0.3-0.8-0.5c-0.1-0.1-0.2-0.1-0.4-0.1c0,0-0.1,0-0.1,0c0,0,0,0.1,0,0.1
		c0,0.1,0.1,0.1,0.1,0.1C31.4,37.7,31.5,37.8,31.7,38 M11,32c-0.1,0.2-0.1,0.3-0.2,0.5c0,0,0,0.1,0,0.1c0,0,0.1-0.1,0.1-0.1
		c0.1-0.1,0.1-0.2,0.2-0.3c0.3-0.4,0.5-0.9,0.7-1.4c0.1-0.4,0.3-0.8,0.5-1.1c0.1-0.1,0-0.2,0-0.3c0,0,0,0,0-0.1
		c-0.1,0.1-0.3,0.1-0.4,0.2c-0.2,0.4-0.4,0.8-0.6,1.1c-0.1,0.2-0.2,0.5-0.3,0.8C11.1,31.6,11,31.8,11,32 M31,11.3
		c0.1,0.2,0.2,0.4,0.4,0.5c0,0,0.1,0,0.1,0c0-0.1,0-0.2,0-0.3c-0.1-0.2-0.3-0.3-0.5-0.5c0,0-0.1,0-0.1,0c0,0,0,0.1,0,0.1
		C31,11.1,31,11.2,31,11.3 M38.5,29.7c0,0.2-0.1,0.3-0.1,0.5c0,0,0,0.1,0,0.1c0,0,0.1-0.1,0.1-0.1c0.1-0.2,0.1-0.4,0.2-0.7
		c0,0,0-0.1,0-0.1c0,0-0.1,0.1-0.1,0.1C38.6,29.5,38.5,29.6,38.5,29.7z"/>
	<path class="st2" d="M36.3,1C37,1,37.7,1.2,38.4,1.5c0.4,0.1,0.8,0.4,1.1,0.7c0.3,0.4,0.5,0.7,0.6,1.2c0,0.2,0.1,0.5,0.1,0.7
		c0,0.3-0.1,0.6-0.2,0.9c-0.1,0.4-0.3,0.7-0.5,1.1c-0.4,0.6-0.8,1.1-1.5,1.3c-0.4,0.1-0.8,0.2-1.2,0.3c-0.2,0-0.4,0-0.7,0
		c-0.6-0.1-1.2-0.4-1.6-0.8c-0.4-0.4-0.7-0.7-1-1.2c-0.2-0.3-0.4-0.7-0.5-1.2c0-0.1,0-0.2,0.1-0.4c0.1-0.4,0.3-0.7,0.5-1.1
		c0.1-0.3,0.3-0.5,0.5-0.8c0.3-0.4,0.7-0.6,1.1-0.8C35.5,1.2,35.9,1.1,36.3,1 M38.4,2.1C38.2,2,38,1.9,37.9,1.8
		c-0.2-0.1-0.5-0.2-0.7-0.2c-0.1,0-0.2,0-0.3,0c-0.2,0-0.3,0-0.4,0c-0.2,0-0.4,0-0.6,0.1c-0.5,0.2-0.9,0.4-1.2,0.9
		c-0.4,0.5-0.7,0.9-0.7,1.5c0,0.2,0,0.3,0,0.5c0,0.2,0.1,0.5,0.2,0.7c0.2,0.4,0.5,0.7,0.8,0.9c0.3,0.2,0.6,0.4,1,0.5
		c0.3,0.1,0.5,0.1,0.8,0.1c0.2,0,0.5,0,0.7-0.1c0.2-0.1,0.5-0.1,0.7-0.2c0.5-0.3,1-0.7,1.3-1.2c0.3-0.4,0.4-0.8,0.5-1.2
		c0-0.3,0-0.6-0.2-0.9C39.3,2.7,38.9,2.4,38.4,2.1z"/>
	<path class="st2" d="M14.8,1.8c-0.2,0-0.4,0.1-0.6,0c0,0,0,0,0,0c0,0,0,0,0,0c0.2-0.1,0.4-0.1,0.6-0.2c0.2-0.1,0.5-0.1,0.7-0.1
		c0.2,0,0.4-0.1,0.6-0.1c0.2,0,0.4,0,0.6-0.1c0,0,0.1,0,0.1,0c0.1-0.1,0.2,0,0.2,0.1c0,0.1-0.1,0.2-0.1,0.2c-0.1,0-0.3,0-0.5,0
		c-0.1,0-0.2,0-0.3,0c-0.2,0-0.4,0.1-0.6,0.1C15.4,1.8,15.1,1.8,14.8,1.8z"/>
	<path class="st2" d="M22.3,3.1C22.2,3.1,22.1,3,22,3c0,0,0-0.1,0-0.1c0,0,0,0,0.1,0c0.1,0,0.3,0.1,0.4,0.1c0.2,0.1,0.3,0.1,0.5,0.2
		c0,0,0.1,0.1,0.1,0.1c-0.1,0-0.1,0.1-0.2,0.1C22.6,3.3,22.5,3.2,22.3,3.1z"/>
	<path class="st2" d="M12.7,2C12.8,2,12.8,2,12.9,2C12.9,2,13,2,13,2c0,0,0,0,0,0c-0.1,0-0.1,0.1-0.2,0.1C12.8,2.1,12.7,2.1,12.7,2
		c-0.1,0.1-0.1,0.1-0.1,0.1C12.6,2.1,12.7,2.1,12.7,2z"/>
	<path class="st2" d="M21.5,2.7C21.6,2.7,21.6,2.7,21.5,2.7c0.1,0.1,0.1,0.1,0.1,0.1C21.6,2.7,21.5,2.7,21.5,2.7
		C21.5,2.7,21.5,2.7,21.5,2.7C21.5,2.7,21.5,2.7,21.5,2.7z"/>
</g>
</svg>
