<?xml version="1.0" encoding="utf-8"?>
<!-- Generator: Adobe Illustrator 26.1.0, SVG Export Plug-In . SVG Version: 6.00 Build 0)  -->
<svg version="1.1" id="Layer_1" xmlns="http://www.w3.org/2000/svg" xmlns:xlink="http://www.w3.org/1999/xlink" x="0px" y="0px"
	 viewBox="0 0 75.1 102.6" style="enable-background:new 0 0 75.1 102.6;" xml:space="preserve">
<style type="text/css">
	.st0{stroke:#d8167b;stroke-width:0.5987;stroke-miterlimit:10;}
	.st1{stroke:#d8167b;stroke-width:0.25;stroke-miterlimit:10;}
</style>
<path style='fill:#d8167b' d="M39.9,29.2c0.1,0.1,0.2,0.1,0.2,0.2c0.1,0.1,0.1,0.1,0,0.3c0,0.1,0,0.2,0,0.2c0-0.1,0-0.2,0-0.2c0,0,0-0.1,0-0.1
	c0,0,0,0.1,0,0.1c0,0.3,0,0.5-0.1,0.8c0,0.3,0,0.6,0,0.9c0,1,0,2,0,3c0,0.6,0,1.2,0.1,1.8c0,0.1,0.1,0.2,0.1,0.2
	c0.2,0,0.1,0.2,0.1,0.3c0,0.4,0,0.7,0.1,1.1c0,0.1,0,0.2-0.1,0.3c-0.2,0.3-0.4,0.6-0.6,0.9c-0.1,0.1-0.2,0.3-0.2,0.5
	c0,0.3,0,0.6,0,0.9c0,0.2,0,0.3,0,0.5c0,0,0,0.2,0,0.3c0.1,0.5,0,1,0.1,1.5c0.1,0.6,0,1.1,0,1.7c0,0.9,0,1.8-0.1,2.6
	c0,0.6,0,1.1,0,1.7c0,0.3-0.1,0.6-0.1,0.9c0,0.1-0.1,0.1-0.1,0.1c0-0.1,0-0.1,0-0.2c0-0.5,0-1.1-0.2-1.5c0-0.1,0-0.3,0-0.5
	c-0.1-0.8-0.1-1.5,0-2.3c0-0.4,0-0.8,0-1.2c0.1-0.5,0-1.1,0.1-1.6c0-0.3,0-0.7,0-1c0-0.3,0.1-0.6,0.1-0.9c0-0.1,0-0.2,0-0.4
	c0-0.2,0-0.4,0-0.6c0-0.2,0-0.5-0.1-0.6c-0.2-0.2-0.3-0.4-0.5-0.5c-0.1-0.1-0.1-0.2-0.1-0.4c0-0.6,0-1.2,0-1.7c0-0.3,0-0.4,0.2-0.3
	c0.1,0,0.1,0,0.2,0c0,0,0-0.1,0-0.1c0-0.7-0.1-1.4-0.1-2.1c0-0.7-0.1-1.4,0-2.1c0-0.6,0-1.1,0.1-1.7c0-0.3,0-0.6,0.1-0.9
	c0-0.1,0-0.1,0-0.2c0,0-0.1,0.1-0.1,0.1c-0.2,0.3-0.2,0.4-0.4,0.1c-0.3-0.4-0.7-0.4-1-0.4c-0.2,0-0.5-0.1-0.7-0.2
	c-0.2,0-0.4-0.2-0.5-0.2c-0.2,0-0.3-0.3-0.5,0c0,0,0,0,0,0c-0.2-0.2-0.4-0.2-0.5-0.1c-0.3,0-0.6-0.1-0.9,0c-0.2,0-0.3-0.1-0.5-0.1
	c-0.1,0-0.3,0-0.4-0.1c0,0-0.1,0-0.1,0c-0.1,0-0.1,0.1-0.2,0c-0.2-0.2-0.4-0.1-0.5-0.2c-0.3-0.1-0.6-0.2-0.9-0.3
	c-0.1,0-0.2-0.1-0.3-0.1c-0.3-0.1-0.7-0.1-1-0.3c-0.3-0.1-0.6,0-0.8-0.2c-0.1-0.1-0.1,0-0.2,0c-0.3,0-0.5,0-0.7-0.2c0,0,0,0-0.1,0
	c-0.3,0-0.5-0.1-0.8-0.1c-0.4,0-0.9-0.1-1.3-0.2c-0.3-0.1-0.6-0.1-0.8-0.1c-0.2,0-0.3,0-0.5-0.1c-0.1-0.1-0.2,0-0.4,0
	c-0.3-0.1-0.6-0.1-1-0.1c-0.2,0-0.3,0-0.5-0.1C23,26,22.9,26.1,22.7,26c-0.2,0-0.3,0-0.5-0.1c-0.2-0.1-0.2,0.4-0.3,0.3
	c0,0-0.1,0-0.1,0.1c0-0.1,0-0.1,0-0.2c0-0.1,0-0.1,0.1-0.1c0-0.1,0-0.1,0-0.2c0,0-0.1,0-0.1,0c-0.1,0-0.1,0-0.2,0
	c-0.3-0.1-0.5-0.2-0.8-0.2c-0.4-0.1-0.8-0.2-1.1-0.3c-0.2,0-0.4-0.1-0.6-0.1c-0.3,0-0.7-0.1-1-0.2c-0.3-0.1-0.7,0-1,0
	c0,0-0.1,0-0.1,0c-0.2-0.2-0.4-0.1-0.6-0.2c-0.3-0.1-0.7,0-1-0.2c-0.3-0.2-0.6-0.1-0.9-0.2c-0.4-0.1-0.8-0.1-1.1-0.3
	c0,0-0.1,0.1-0.1,0.1c0,0.4,0,0.8-0.1,1.2c-0.1,1,0,2.1-0.1,3.1c0,0.5-0.1,0.9,0,1.3c0,0.4,0.1,0.8,0,1.2c-0.1,1.3,0,2.5,0,3.8
	c0,0.2,0.1,0.4,0,0.5c-0.1,0.2,0,0.4,0,0.5c0,0.2,0,0.3,0,0.5c0,0.1,0,0.2,0,0.3c0,0.1,0,0.1,0,0.2c-0.1,0.3,0,0.6,0,0.9
	c0,0.2,0,0.3,0,0.5c0,0.2,0,0.3,0,0.5c0.1,0.4,0.1,0.9,0,1.3c0,0.2,0,0.4,0,0.6c0,0.5,0,1,0,1.5c0,0,0,0.1,0,0.1
	c-0.1,0-0.1,0.1-0.1,0.2c0,0.2,0.1,0,0.1,0c0,0,0,0.1,0,0.2c0,0.4,0,0.8,0,1.3c0,0.7,0,1.5,0,2.2c0.1,0.8,0,1.6,0,2.5
	c0.1,1.3,0,2.6,0.1,3.9c0.1,1.1,0,2.2,0,3.3c0.1,2.5,0,4.9,0.1,7.4c0,0.1,0,0.2,0,0.4c0,0.1,0,0.3,0,0.4c-0.1,0.3,0,0.5,0,0.8
	c0,0.9,0,1.8-0.1,2.7c0,0.6-0.1,1.1-0.2,1.7c0,0.1,0,0.2,0,0.3c0,0.4,0,0.8,0,1.2c0,0.3,0.1,0.7,0,1c-0.1,0.2,0,0.4,0,0.7
	c0,0.2,0.1,0.4,0.1,0.7c-0.2,0.3,0.1,0.6-0.1,0.9c0,0,0,0.2,0,0.3c0,0.3,0,0.6,0,0.9c0,0.2,0,0.3-0.1,0.4c0,0,0,0.2,0,0.2
	c0.1,0.2,0.1,0.4,0,0.6c-0.1,0.2,0.1,0.3,0.1,0.3c0.2,0.1,0.4-0.1,0.6,0.1c0.1-0.2,0.2-0.2,0.2-0.4c0-0.1,0-0.2,0.1-0.3
	c0.1-0.1,0.1,0,0.1,0.1c0,0.4-0.1,0.8-0.1,1.2c0,0.1,0,0.2,0,0.3c0,0.7,0,1.4-0.1,2c0,0.4,0,0.8-0.1,1.3c-0.1,0.6,0,1.1-0.1,1.7
	c0,0.8-0.1,1.5-0.1,2.3c0,0.3,0,0.6,0.2,0.9c0.1,0.1,0.1,0.1-0.1,0.2c0,0-0.1,0.2-0.1,0.2c0,0.5,0,1,0,1.5c0,0.5,0,1,0,1.5
	c0,0.5,0,0.9,0.1,1.4c0,0.2,0,0.3,0,0.5c0,0.1,0,0.2,0,0.4c0,0.4,0,0.7,0,1.1c0,0.1,0,0.1,0,0.2c0,0.7,0,1.5,0,2.2
	c0,0.1,0,0.1,0,0.2c0,0,0.1-0.1,0.1-0.1c0.1-0.2,0.3-0.4,0.4-0.7c0,0,0.1,0,0.1,0c0,0,0,0.1,0,0.1c0,0.1-0.1,0.2-0.1,0.3
	c-0.1,0.1-0.1,0.3-0.2,0.3c-0.4,0.4-0.3,0.9-0.2,1.5c0,0.1,0,0.3-0.1,0.5c0,0.1-0.1,0.1-0.1,0.1c0.1,0.4,0,0.8,0,1.1
	c0,0.1,0,0.1,0.1,0.2c0.1,0.3,0.1,0.5,0.1,0.9c0,0.3-0.1,0.5-0.1,0.8c0,0.2,0,0.3-0.1,0.5c0,0.2,0,0.5,0,0.6
	c-0.2,0.2-0.4,0.4-0.6,0.5c-0.2,0.1-0.4,0.1-0.6,0.1c-0.5,0-1,0-1.5,0.1c-0.5,0.1-1,0.1-1.4,0.4c-0.2,0.1-0.3-0.1-0.3-0.4
	c0-0.2,0-0.5,0-0.7c0,0,0-0.1-0.1-0.1c-0.1,0-0.3,0-0.4,0.1c-0.2,0.1-0.4,0.1-0.6,0.2c-0.4,0.1-0.8,0.2-1.2,0.4c-0.1,0-0.3,0-0.4,0
	c0,0-0.1,0-0.1-0.1c0,0,0-0.1,0-0.1c0.1-0.1,0.2-0.1,0.3-0.2c0.4-0.1,0.9-0.2,1.3-0.5c0.3-0.2,0.6-0.3,0.9-0.5
	c0.1,0,0.1-0.1,0.2-0.1c0.1-0.1,0.1-0.2,0.1-0.3c-0.1,0-0.1-0.1-0.2-0.1c-0.1,0-0.2,0-0.4,0c0,0-0.1,0-0.1-0.1c0,0,0-0.1,0-0.1
	c0,0,0,0,0.1-0.1c0.2,0,0.3-0.1,0.5-0.1c0.2,0,0.2-0.1,0.2-0.4c-0.1-0.6,0-1.3-0.1-1.9c0-0.2,0-0.3,0-0.5c0-0.1,0-0.1,0-0.2
	c0-0.2-0.1-0.4,0-0.6c0-0.1,0.1-0.3,0.1-0.4c0-0.8,0-1.5,0-2.3c0-0.3,0-0.6,0-0.9c-0.1-0.9,0-1.8-0.1-2.6c0-0.5-0.1-0.9-0.1-1.4
	c0-0.6-0.1-1.1-0.1-1.6c0.1-0.4-0.1-0.7,0-1.1c0-0.1,0-0.2-0.1-0.3c-0.2-0.1-0.1-0.2,0-0.4c0.1-0.2,0.2-0.4,0.2-0.7
	c0-0.6,0-1.2,0.1-1.8c0.1-0.2,0-0.5,0-0.7c0.1-0.2,0-0.5,0-0.7c0-0.8,0.1-1.6,0.2-2.3c0-0.1,0-0.1,0-0.2c-0.1-0.4,0-0.7,0.1-1.1
	c0-0.2,0-0.5,0-0.7c0-0.2,0-0.3,0-0.5c0-0.3,0.1-0.3,0.3-0.2c0.2,0.2,0.2,0.2,0.2-0.1c0-0.4,0-0.8,0.1-1.2c0-0.3,0-0.7,0.1-1
	c0-0.3,0-0.7,0-1c0-0.4,0-0.7,0-1.1c0.1-0.7,0-1.4,0.1-2c0-0.4,0.1-0.7,0-1c0.1-0.5,0-1.1,0.1-1.7c0.1-0.3,0-0.7,0-1
	c0-0.2,0-0.3,0-0.5c0.1-0.3,0-0.7,0-1c0-0.7,0-1.4,0-2.1c0-0.7,0-1.4,0.1-2.1c0-0.4,0.1-0.8,0-1.2c0-0.5,0-1,0-1.4c0-0.5,0-1,0-1.5
	c0-0.6,0-1.2,0.1-1.8c0,0,0-0.1,0-0.1c0-0.7,0-1.3,0.1-2c0-0.3,0-0.7,0.1-1c0,0,0-0.1,0-0.1c0-0.5,0-0.9,0.1-1.4c0-1.1,0-2.1,0-3.2
	c0-0.4,0-0.8,0-1.3c0-0.2,0-0.4,0-0.6c0-0.2,0.1-0.3,0-0.5c-0.1-0.2-0.1-0.5,0-0.8c0-0.1,0-0.4,0-0.6c0-0.2,0-0.3,0-0.5
	c0-0.1,0-0.3,0-0.3c0.1-0.2,0.1-0.5,0-0.7c0-0.3,0-0.6,0-0.8c0-0.3,0-0.6,0-0.9c0-0.1,0-0.3,0-0.4c0-0.2,0-0.6,0-0.9
	c0-0.2,0-0.5,0-0.7c0-0.2,0.1-0.4,0-0.6c-0.1-0.2,0-0.4,0-0.6c0-0.2,0-0.4,0-0.6c0-0.1,0-0.2,0-0.2c0-0.5,0.2-1,0-1.6
	c0,0,0-0.1,0-0.1c0.1-0.4,0.1-0.8,0-1.3c0-0.2,0-0.4,0-0.6c-0.1-0.6,0-1.1-0.1-1.7c0-0.6-0.1-1.3-0.1-1.9c0-0.6,0-1.2,0-1.8
	c0-0.4,0-0.9,0-1.3c0-0.2,0.1-0.3,0.2-0.3c0,0,0.1,0,0.1,0.1c0,0.5,0.1,0,0.1,0c0.1-0.1,0.1-0.3,0.1-0.4c-0.1,0-0.2,0-0.2,0
	c-0.3,0.1-0.6,0.1-0.9,0.2c0,0-0.1,0-0.1,0.1c-0.1,0-0.1,0-0.1-0.1c0-0.4,0-0.9-0.1-1.3c0-0.2,0-0.5,0.1-0.7c0-0.2,0-0.5,0.1-0.7
	c0-0.1,0-0.2,0-0.3c0-0.1,0-0.1-0.1-0.1c-0.4,0.3-0.8,0.5-1.3,0.8c-0.4,0.3-0.8,0.6-1.2,0.8c-0.3,0.2-0.7,0.4-1,0.6
	c-0.4,0.2-0.7,0.4-1.1,0.5c-0.5,0.3-1,0.6-1.6,0.9c-0.2,0.1-0.5,0.2-0.7,0.3c-0.2,0.1-0.5,0.2-0.7,0.4c0,0,0,0.1-0.1,0.2
	c0.1,0.1,0,0.3,0,0.4c0,0.3,0,0.6,0.1,0.8c0,0.2,0.1,0.3,0.1,0.5c0,0.2,0,0.4-0.2,0.4c-0.2,0.1-0.2,0.2-0.2,0.5c0,0.7,0,1.3-0.1,2
	c-0.1,0.6,0,1.2-0.1,1.8c-0.1,0.5,0,1-0.1,1.4c0,0.1,0,0.2,0,0.4C2,36,2,37.1,2,38.2c0,0.7,0,1.4,0,2.1c0,0.5,0,1.1-0.1,1.6
	c-0.1,0.8,0,1.6,0,2.5c0,0.7,0,1.4-0.1,2.1c-0.1,0.7-0.1,1.4-0.1,2c0,0.5,0,0.9,0,1.4c-0.1,1-0.1,1.9-0.1,2.9c0,0.7-0.1,1.3-0.1,2
	c0,0.6,0,1.2-0.1,1.8c-0.1,0.6-0.1,1.2-0.2,1.7C1,58.6,1,59,1,59.4c0,0.2,0,0.5-0.1,0.7c0,0.2,0,0.4-0.1,0.6c0,0,0,0.1,0,0.1
	c0,0.5,0,1.1-0.1,1.6c-0.1,0.6,0,1.3-0.1,1.9c0.1,0.4,0,0.8,0,1.3c0,0.2,0,0.5,0,0.7c-0.1,0.3,0,0.6,0,0.9c0,1.8,0,3.7,0,5.5
	c0,0.3,0,0.6,0,1c-0.1,1.2,0,2.3-0.1,3.5c0,0.5,0,1.1-0.1,1.6c0,0.1,0.1,0.2,0,0.3c0,0.3,0,0.6,0,0.9c0,0.1,0,0.3,0,0.4
	c0,0.2,0,0.4,0,0.6c0,0.2,0.1,0.4,0,0.6c0.1,0.3,0,0.5,0,0.8c0,0.7,0,1.4-0.1,2.1c-0.2,1.3-0.1,2.5-0.1,3.8c0,0.3,0,0.5-0.1,0.8
	c0,0.2,0,0.4,0,0.6c0,0.1,0,0.2,0,0.3c-0.1,0.4,0,0.9-0.1,1.3c0,0.9-0.1,1.8-0.1,2.7c0,0.1,0,0.3,0,0.4c0.1,0.3,0,0.5,0.1,0.8
	c0,0.3,0,0.5,0,0.8c0,0.1,0,0.3,0,0.5c0,0.1,0,0.3,0,0.4c0,0.7,0,1.4,0,2.1c0,0.3,0,0.6-0.1,0.9c0,0,0,0.1,0,0.1c0,0,0-0.1,0.1-0.1
	c0-0.1,0.1-0.2,0.1-0.3c0,0,0-0.1,0-0.1c0,0,0,0.1,0,0.1c0,0.1,0,0.2-0.1,0.2c-0.1,0.3-0.1,0.7-0.2,1c0,0.1-0.1,0.2-0.1,0.2
	c0,0-0.1,0.1-0.1,0.1c0-0.1,0-0.1,0-0.2c0-0.3,0.1-0.7,0.1-1c0-1.6,0-3.2,0-4.8c0-0.2,0-0.4-0.1-0.5c-0.1-0.4-0.1-0.7,0-1.1
	c0-0.1,0-0.3,0-0.5c0-1.2,0-2.3,0.1-3.5c0-0.3,0-0.7,0-1c0-0.3,0-0.7,0-1.1c0-0.7,0-1.4,0.1-2.1c0-0.6,0.1-1.3,0.1-1.9
	c0-0.8,0-1.7,0-2.5c0-1.2,0-2.3,0.1-3.5c0-1,0-1.9,0.1-2.9c0.1-1.3,0-2.6,0-3.9c0-0.2,0-0.4,0-0.6c0-0.2,0-0.4,0-0.6
	c-0.1-0.5,0-1,0-1.4c0-0.5,0-1,0-1.5c0-0.1,0-0.2,0-0.3c0-0.2,0.1-0.3,0-0.5c-0.1-0.2-0.1-0.3,0-0.5c0,0,0-0.1,0-0.2
	c0-0.8,0.1-1.5,0.1-2.3c0-0.7,0.1-1.4,0.1-2c0-0.7,0.1-1.4,0.1-2.1c0-0.7,0.1-1.5,0.2-2.2c0-0.4,0.1-0.7,0.1-1.1
	c0-0.6,0-1.3,0.1-1.9c0.1-0.4,0-0.8,0.1-1.2c0-0.7,0-1.4,0.1-2.2c0.1-0.9,0.1-1.9,0.1-2.8c0.1-0.9,0.1-1.7,0.1-2.6c0-0.5,0-1,0-1.5
	c0-0.6,0-1.2,0.1-1.8c0.1-0.6,0-1.2,0.1-1.9c0-0.9,0-1.7,0.1-2.6c0-0.5,0-1,0.1-1.5c0.1-0.5,0-1,0.1-1.5C2,33,2,32,2,30.9
	c0-0.5,0-1.1,0.1-1.6c0-0.1,0-0.3-0.1-0.4c-0.1-0.1-0.1-0.4,0-0.6c0.1-0.5,0.1-1,0.3-1.4c0,0,0-0.1-0.1-0.1C2,26.9,1.8,27,1.6,27.1
	c-0.4,0.3-0.7,0.4-1.1,0.5c0,0-0.1,0.1-0.1,0.1c-0.1,0.1-0.1,0.1-0.2,0c0-0.1,0-0.2,0-0.3c0.1-0.1,0.1-0.3,0.3-0.3
	c0.1,0,0.2-0.1,0.3-0.2c0.3-0.3,0.7-0.5,1.1-0.7c0.1-0.1,0.2-0.1,0.3-0.2c0.1-0.1,0.1-0.2,0.1-0.3c0.1-0.5,0.2-1,0.2-1.4
	c0.1-0.5,0.2-1,0.2-1.5c0-0.4,0.1-0.9,0.2-1.3c0.1-0.5,0.1-1,0.2-1.4c0-0.2,0.1-0.4,0.1-0.7c0.1-0.5,0.2-1,0.3-1.6
	c0.1-0.2,0.1-0.5,0.1-0.8c0.1-0.4,0.1-0.7,0.2-1.1c0.1-0.5,0.1-1,0.2-1.5c0.1-0.6,0.1-1.2,0.3-1.7c0-0.1,0.1-0.2,0.1-0.4
	c0-0.7,0.1-1.3,0.2-1.9C4.7,9.8,4.8,9,4.9,8.3c0.1-0.6,0.2-1.3,0.3-1.9c0.1-0.5,0.2-1,0.3-1.5c0.1-0.3,0.1-0.6,0.2-1
	C5.8,3.6,5.9,3.1,6,2.7c0-0.1,0.1-0.2,0.1-0.3c0,0.1,0,0.3,0,0.4C6,3.3,5.9,3.9,5.8,4.4c0,0.3-0.1,0.5-0.1,0.8
	c-0.1,0.6-0.3,1.3-0.4,2C5.2,7.8,5.1,8.3,5,8.9c-0.2,0.9-0.3,1.8-0.5,2.8c0,0.3,0,0.5-0.1,0.8c0,0.2-0.1,0.4-0.1,0.6
	c-0.1,0.4-0.1,0.8-0.2,1.2C4,15,3.9,15.9,3.8,16.7c-0.1,0.7-0.2,1.3-0.3,2c-0.1,0.5-0.2,1-0.2,1.5c-0.1,0.5-0.1,1-0.2,1.5
	c-0.1,0.5-0.1,1-0.2,1.5c-0.1,0.7-0.2,1.3-0.3,2c0,0.1-0.1,0.3-0.1,0.4c0,0.1,0,0.2,0.1,0.2c0.1,0,0.1,0,0.2-0.1
	c0.3-0.2,0.6-0.5,1-0.7c0.2-0.2,0.5-0.3,0.7-0.5C4.6,24.4,4.8,24.1,5,24c0.5-0.3,1-0.6,1.4-1c0.7-0.5,1.3-1,2-1.4
	C8.6,21.4,8.8,21.2,9,21c0.2-0.2,0.4-0.2,0.6-0.4c0.1-0.1,0.3-0.2,0.4-0.4c0-0.1,0.1-0.1,0.1,0c0,0,0.2,0,0.2-0.1
	c0.2-0.2,0.4-0.4,0.5-0.6c0.1-0.1,0.2-0.3,0.3-0.2c0.1,0,0.2,0,0.1-0.3c-0.1-0.6-0.3-1.1-0.4-1.7c-0.2-0.7-0.3-1.4-0.5-2
	c-0.1-0.4-0.2-0.7-0.3-1.1c-0.2-0.7-0.4-1.3-0.6-2c-0.1-0.3-0.2-0.5-0.3-0.8c-0.2-0.6-0.3-1.1-0.5-1.7c-0.3-1-0.6-2.1-0.9-3.1
	C7.7,6.1,7.6,5.8,7.5,5.4C7.3,4.5,7,3.7,6.8,2.8c0-0.1-0.3-0.4-0.4-0.5C6.3,2.3,6.1,2.2,6,2.1c0,0,0-0.2,0-0.3
	c0-0.4,0.1-0.7,0.2-1.1c0-0.2,0.1-0.4,0.2-0.6C6.4,0,6.6,0,6.7,0.1c0.1,0.1,0.1,0.3,0.1,0.4c0,0.1,0.1,0.2,0.1,0.2
	c0.4,0.2,0.7,0.4,1.1,0.4c0,0,0.1,0.1,0.1,0.1c0.1,0,0.1,0,0.2,0c0.2-0.2,0.3-0.2,0.5,0C9,1.4,9.2,1.4,9.4,1.4c0.4,0,0.8,0,1.2,0.1
	c0.4,0.1,0.8,0,1.2,0.1c0.2,0,0.4,0.1,0.6,0.1c0.2,0,0.4,0,0.6,0.1c0.1,0,0.2,0,0.3,0c0.4,0,0.8,0.1,1.2,0.3
	c0.1,0.1,0.3,0.1,0.5,0.1c0.3,0,0.6,0,0.9,0.1c0.2,0,0.5,0.1,0.7,0.2c0.2,0,0.3,0.1,0.5,0.1c0.4,0.1,0.7,0.2,1.1,0.3
	c0.3,0.1,0.7,0.1,1,0.2c0.3,0.1,0.6,0.2,0.8,0.3c0.2,0.1,0.4,0.1,0.6,0.1c0.2,0,0.4,0.1,0.7,0.2c0.2,0,0.3,0.1,0.5,0.1
	c0.4,0.1,0.9,0.2,1.3,0.3C23.1,4,23.3,4,23.5,4c0.4,0.1,0.8,0.1,1.2,0.3c0.2,0.1,0.5,0.2,0.8,0.2c0.3,0.1,0.6,0.2,0.9,0.3
	c0.3,0.1,0.6,0.1,1,0.2c0.2,0.1,0.5,0.1,0.7,0.2c0.3,0.1,0.5,0.2,0.8,0.2c0.4,0.1,0.7,0.2,1.1,0.3c0.2,0.1,0.4,0.1,0.5,0.1
	C30.6,6,30.9,6,31.1,6.1c0.4,0.1,0.8,0.2,1.2,0.3c0.4,0.2,0.8,0.2,1.2,0.4c0.1,0,0.3,0.1,0.4,0.2c0.2,0.1,0.4,0.1,0.6,0
	c0.3-0.1,0.6,0,0.9,0.1c0.1,0,0.2,0,0.3,0c0.3,0,0.6,0.1,0.8,0.2c0.3,0.1,0.6,0.1,1,0.2c0.2,0.1,0.5,0.1,0.7,0.2
	c0.4,0.1,0.8,0.3,1.2,0.3c0.2,0,0.4,0.1,0.7,0.2c0,0,0.1,0,0.1-0.1c0-0.4,0.2-0.2,0.4-0.3c0.1-0.1,0.2,0,0.3,0c0.1,0,0.2,0,0.2,0.3
	c0,0,0.1,0.1,0.1,0.1c0.5,0,0.9,0.3,1.4,0.2c0.1,0,0.2,0.1,0.3,0.2c0.2,0.1,0.5,0.1,0.7,0.2c0.5,0.2,1,0.3,1.5,0.4
	c0.4,0.1,0.7,0.2,1.1,0.4c0.1,0,0.2,0.1,0.2,0c0.3-0.2,0.6-0.3,0.9-0.3c0.1,0,0.1,0,0.2-0.1c0.1-0.1,0.2,0,0.2,0.1
	c0.1,0.2,0.1,0.5,0.1,0.7c0,0.2,0.1,0.3,0.2,0.4c0.2,0.2,0.3,0.4,0.5,0.6c0,0,0,0.1,0,0.1c0.2,0,0.4,0.3,0.6,0.5
	c0.5,0.5,0.9,1,1.4,1.5c0.4,0.5,0.8,0.9,1.3,1.4c0.2,0.2,0.3,0.4,0.5,0.1c0-0.1,0.2-0.2,0.2,0.1c0,0.1,0.1,0.1,0.2,0.2
	c0.2,0.1,0.4,0.1,0.5,0.5c0,0.1,0.2,0.1,0.3,0.2c0.1,0,0.1,0,0.2,0c0,0,0.1,0.1,0.1,0.1c0,0-0.1,0.1-0.1,0.1c0,0-0.1,0-0.1,0
	c0,0,0,0-0.1,0c0,0,0,0.1,0.1,0.1c0.1,0,0.1,0.1,0.2,0.1c0.3,0.1,0.5,0.3,0.7,0.5c0.5,0.5,1,0.8,1.6,1.2c0.4,0.2,0.7,0.6,1.1,0.8
	c0.4,0.3,0.9,0.7,1.3,1c0.3,0.2,0.5,0.4,0.8,0.6c0.3,0.2,0.5,0.5,0.8,0.7c0.3,0.2,0.6,0.4,0.9,0.7c0.4,0.3,0.7,0.6,1.1,0.9
	c0.1,0.1,0.3,0.2,0.4,0.3c0.1,0.1,0.2,0.2,0.3,0.3c0.2,0.2,0.5,0.4,0.7,0.6c0.5,0.4,0.9,0.9,1.4,1.2c0.9,0.7,1.8,1.4,2.8,2.2
	c0.1,0.1,0.2,0.2,0.3,0.3c0.7,0.7,1.4,1.2,2.1,1.8c0.1,0.1,0.1,0.1,0.2,0.2c0.2,0.4,0.5,0.6,0.8,0.9c0.3,0.4,0.6,0.6,0.9,1
	c0.2,0.3,0.4,0.5,0.6,0.7c0.2,0.2,0.4,0.4,0.6,0.7c0.2,0.2,0.4,0.4,0.6,0.6c0.1,0.1,0.2,0.1,0.2,0c0.1-0.2,0.2,0,0.3,0.1
	c0.1,0.2,0.3,0.2,0.5,0.2c0.1,0,0.1,0,0.2,0c0.1,0,0.3,0.1,0.3,0.4c0.1,0.5,0.1,0.5-0.2,0.9c-0.1,0.1-0.2,0.3-0.3,0.4
	c-0.1,0.2-0.3,0.2-0.4,0c-0.1-0.2-0.2-0.1-0.3-0.1c-0.1,0-0.2,0.1-0.3,0.1c-0.2,0-0.4,0-0.7,0c-0.2,0-0.5,0-0.7,0
	c-0.2,0-0.5,0-0.7,0c-0.1,0-0.2,0-0.3-0.1c-0.1-0.1-0.3-0.2-0.5-0.2c-0.3,0-0.6,0-0.8-0.2c0,0-0.1,0-0.1,0c-0.4,0-0.7,0-1.1-0.1
	c-0.6-0.1-1.2-0.2-1.8-0.2c-0.4,0-0.8-0.2-1.1-0.3c-0.1,0-0.1,0-0.2,0c-0.3,0-0.6-0.1-0.9-0.2c-0.2-0.1-0.4-0.1-0.6-0.1
	c-0.3,0-0.6,0-1-0.1c-0.2-0.1-0.5,0-0.7-0.2c0,0-0.1,0-0.1,0c-0.5-0.1-1-0.1-1.5-0.2c-0.3-0.1-0.5-0.1-0.8-0.2
	c-0.2-0.1-0.4-0.1-0.6-0.1c-0.1,0-0.1,0-0.2-0.1c-0.1,0-0.2-0.1-0.3-0.1c-0.1,0-0.2,0-0.3,0.1c-0.1,0-0.1,0.2-0.1,0.3
	c0,0.1,0,0.1-0.1,0.2c0,0,0-0.1,0-0.1c-0.1-0.1-0.1-0.2,0-0.3c0-0.1,0.1-0.2,0.1-0.2c-0.1-0.1-0.2-0.1-0.2,0c0,0,0,0.1-0.1,0.1
	c-0.1,0.2-0.2,0.1-0.2,0c-0.2-0.2-0.3-0.3-0.5-0.3c-0.1,0-0.3-0.1-0.4-0.1c-0.1,0-0.3,0.1-0.4-0.1c0,0-0.1,0-0.1,0
	c-0.3,0-0.7-0.1-1-0.2C55.3,32,55,32.1,54.8,32c-0.1,0-0.1,0-0.2,0c-0.1,0-0.1,0-0.2-0.1c0,0.1,0.1,0.1,0.1,0.2
	c0.1,0.1,0.1,0.3,0.2,0.4c0,0,0.1,0.1,0.1,0.1c0,0,0-0.1,0.1-0.2c0,0,0,0,0,0.1c0,0.2,0,0.4-0.1,0.5c0,0-0.1,0-0.1-0.1
	c-0.2-0.3-0.3-0.6-0.5-0.9c-0.1-0.2-0.1-0.2-0.2-0.2c-0.3-0.1-0.6-0.1-1-0.1c-0.1,0-0.3-0.1-0.4-0.1c-0.1,0-0.1,0-0.1,0.1
	c0,0-0.1,0-0.1,0c-0.1-0.2-0.2-0.1-0.3-0.2c-0.1-0.2-0.2-0.1-0.3-0.1c-0.2,0-0.4-0.1-0.7-0.2c-0.2,0-0.3,0-0.5,0.2
	c-0.1,0.1-0.2,0.2-0.2,0.3c0,0-0.1,0-0.1,0c0,0,0-0.1,0-0.2c0.1-0.4,0.1-0.5-0.2-0.5c-0.3,0-0.6-0.2-0.8-0.2c-0.3,0-0.6-0.3-0.9,0
	c0,0-0.1,0-0.2-0.1c0,0,0-0.1,0-0.1c0,0,0-0.1,0.1-0.1c0.2,0,0.3-0.1,0.5-0.1c0,0,0.1-0.1,0.1-0.1c0,0-0.1-0.1-0.1-0.1
	c-0.4,0-0.7,0.1-1.1,0.1c-0.1,0-0.3,0.1-0.4-0.1c0,0-0.1,0-0.1,0c-0.3,0.2-0.6,0-0.9,0.2c0,0-0.1,0-0.1-0.1
	c-0.1-0.3-0.4-0.2-0.5-0.2c-0.2,0.1-0.3,0.1-0.4-0.1c-0.1-0.1-0.2-0.1-0.3-0.1c-0.2-0.1-0.4-0.2-0.6-0.2c-0.2,0-0.4-0.1-0.7-0.1
	c-0.4,0-0.8-0.2-1.1-0.3c0,0-0.1,0-0.1,0c-0.3,0-0.6,0-1-0.2c0,0-0.1,0-0.1,0c-0.2,0.2-0.4,0.1-0.6,0C40.6,29.2,40.3,29.2,39.9,29.2
	C40,29.1,39.9,29.1,39.9,29.2c-0.3-0.1-0.5-0.1-0.8-0.2c-0.1,0-0.1-0.1-0.1,0c0,0.1,0,0.2,0.1,0.3c0,0.1,0,0.2,0,0.3
	c0,0,0-0.1,0-0.1c0-0.1-0.1-0.1-0.1-0.2c0,0.1,0,0.1,0,0.2c0,0.2,0,0.3,0,0.5c-0.1,0.5-0.1,1-0.1,1.5c0,0.8,0,1.6,0,2.3
	c0,0.1,0,0.2,0.1,0.3c0.1,0.3,0.1,0.6,0.1,0.9c0,0.2,0,0.5,0,0.7c0,0.1,0,0.2,0.1,0.2c0.2,0.1,0.4,0.2,0.5,0.3
	c0.2,0.1,0.2,0,0.2-0.3c0-0.1,0-0.1,0-0.2C39.9,33.6,39.8,31.4,39.9,29.2 M12.5,23.3C12.5,23.3,12.5,23.3,12.5,23.3
	c-0.1,0.1-0.1,0.1-0.1,0.2C12.4,23.4,12.5,23.4,12.5,23.3C12.5,23.3,12.5,23.3,12.5,23.3c0.1,0,0.1-0.1,0.1-0.1c0,0,0-0.1,0-0.1
	C12.6,23.1,12.6,23.1,12.5,23.3C12.5,23.2,12.5,23.2,12.5,23.3 M31.3,25.9C31.3,26,31.3,26,31.3,25.9C31.3,26,31.3,26,31.3,25.9
	C31.4,25.9,31.4,25.9,31.3,25.9C31.3,25.9,31.3,25.9,31.3,25.9 M29.5,26.7C29.5,26.7,29.4,26.7,29.5,26.7c-0.2-0.3-0.3-0.4-0.4-0.6
	l-0.5-0.5c-0.2-0.1-0.4,0-0.5,0.2c-0.1,0.1-0.2,0.2-0.3,0.3c0,0.1-0.1,0.1-0.1,0.2c0,0,0.1,0,0.1,0c0.3,0,0.6,0.1,0.9,0.1
	c0,0,0.1,0,0.1,0C29,26.6,29.2,26.6,29.5,26.7C29.4,26.7,29.5,26.7,29.5,26.7C29.5,26.8,29.5,26.8,29.5,26.7
	C29.5,26.8,29.5,26.8,29.5,26.7 M11.1,40.8c0,0,0-0.1,0-0.1c0,0,0,0,0,0C11.1,40.7,11.1,40.7,11.1,40.8C11,40.8,11,40.9,11.1,40.8
	C11,40.9,11.1,40.8,11.1,40.8 M12.9,80C12.9,80,12.9,80,12.9,80C12.9,80,12.9,80,12.9,80c0-0.1,0-0.2,0-0.2c0,0-0.1-0.1-0.1-0.1
	C12.8,79.8,12.8,79.9,12.9,80C12.8,80,12.9,80,12.9,80 M13.2,66.5c0,0,0,0.1,0,0.1c0,0.1,0,0.2,0,0.3c0-0.1,0.1-0.2,0.1-0.3
	C13.3,66.6,13.3,66.5,13.2,66.5c0.1-0.1,0.1-0.2,0.1-0.3C13.3,66.3,13.3,66.3,13.2,66.5C13.2,66.4,13.3,66.4,13.2,66.5 M71.7,32.8
	c-0.1,0-0.1,0-0.2,0C71.6,32.8,71.7,32.8,71.7,32.8C71.7,32.8,71.7,32.8,71.7,32.8c0.1,0.1,0.1,0.2,0.2,0.2c0,0,0,0.2,0.1,0.1
	c0,0,0-0.2-0.1-0.2C71.9,32.8,71.8,32.8,71.7,32.8 M12.5,79.9C12.5,79.9,12.5,79.9,12.5,79.9C12.5,79.9,12.5,79.9,12.5,79.9
	c-0.1-0.2-0.1-0.3-0.2-0.3c0,0-0.1,0-0.1,0.1c0,0.1,0.1,0.2,0.1,0.2C12.3,79.9,12.4,79.9,12.5,79.9 M13.1,85.4
	C13.1,85.4,13,85.4,13.1,85.4C13,85.4,13.1,85.4,13.1,85.4c0,0.3,0,0.5,0,0.7c0,0,0,0.1,0,0.1c0,0,0.1,0,0.1-0.1
	c0.3-0.3,0.3-0.4,0-0.7C13.2,85.4,13.1,85.4,13.1,85.4 M7.7,1.2C7.7,1.2,7.7,1.2,7.7,1.2C7.7,1.2,7.7,1.2,7.7,1.2
	c0.3,0.3,0.6,0.4,1,0.5c0,0,0.1,0,0.1,0c0-0.1,0-0.1-0.1-0.2c0-0.1-0.1-0.1-0.1-0.1C8.3,1.4,8,1.3,7.7,1.2 M10.4,77.7
	C10.4,77.7,10.4,77.7,10.4,77.7C10.4,77.7,10.4,77.7,10.4,77.7c0.3,0.7,0.8,1.1,1.2,1.6c0,0,0.1,0,0.1,0c0,0,0-0.1,0-0.1
	c0-0.1-0.1-0.1-0.1-0.2c-0.3-0.3-0.6-0.6-0.8-0.9C10.7,78,10.6,77.7,10.4,77.7 M69,32.2c0.1,0.1,0.2,0.2,0.3,0.2c0,0,0.1,0,0.1-0.1
	c0-0.1-0.1-0.2-0.1-0.2C69.2,32.1,69.1,32.1,69,32.2c-0.1-0.1-0.1-0.2-0.2-0.2c-0.3-0.1-0.6-0.2-0.9-0.3c-0.2-0.1-0.4-0.1-0.6-0.1
	c0,0-0.1,0.1-0.1,0.1c-0.1,0.1,0,0.2,0,0.2c0.1,0.1,0.2,0.2,0.3,0.2c0.3,0.1,0.5,0.1,0.8,0.1c0,0,0.1,0,0.1,0
	C68.7,32.4,68.8,32.2,69,32.2 M63.5,33.1C63.5,33.1,63.5,33.1,63.5,33.1C63.5,33.2,63.5,33.2,63.5,33.1c0.2,0.1,0.3,0.2,0.5,0.2
	c0.1,0,0.3,0,0.4,0.1c0.1,0.1,0.2,0,0.3,0c0,0,0.1-0.1,0.1-0.2c0-0.2,0-0.4-0.1-0.5c-0.1-0.1-0.2-0.2-0.4-0.1
	C64.1,32.8,63.9,33.2,63.5,33.1 M65.8,33.7c0.2,0,0.4,0,0.5,0c0,0,0.1-0.1,0.1-0.1c0,0,0-0.1-0.1-0.1c-0.1,0-0.2,0-0.2-0.1
	c-0.1-0.2-0.2-0.2-0.2,0C65.9,33.5,65.9,33.6,65.8,33.7c-0.1-0.2-0.1-0.3,0-0.5c0-0.1,0.1-0.2,0-0.3c-0.1-0.3-0.2-0.5-0.4-0.8
	c0-0.1-0.1-0.1-0.2-0.1c0,0.1,0,0.2,0,0.3c0.1,0.3,0.2,0.6,0.3,1c0,0,0,0.1,0,0.2c0,0-0.1,0-0.1-0.1c-0.1-0.3-0.2-0.6-0.3-0.9
	c0-0.1,0-0.1-0.1-0.1c0,0,0,0.1,0,0.1c0,0.3,0,0.7-0.2,1c0,0.1,0,0.1,0.1,0.2C65.3,33.6,65.6,33.6,65.8,33.7 M18.6,25.1
	C18.7,25.1,18.7,25.1,18.6,25.1C18.7,25.1,18.7,25.1,18.6,25.1c-0.1-0.3-0.3-0.6-0.4-0.8c-0.1-0.3-0.3-0.2-0.4-0.3
	c0,0-0.1,0-0.2,0.1c-0.2,0.3-0.4,0.6-0.5,0.9c0,0,0,0.1,0,0.1c0,0,0.1,0,0.1,0c0.1-0.3,0.3-0.2,0.4-0.2c0.3,0,0.5,0.1,0.8,0.1
	c0,0,0.1,0,0.1,0.1C18.5,25.2,18.6,25,18.6,25.1 M19.1,21.7c-0.2,0.3-0.3,0.7-0.5,1c-0.1,0.2-0.2,0.5-0.4,0.7c0,0.1,0,0.2,0,0.2
	c0.2,0,0.5,0,0.7,0c0,0,0.1-0.1,0.1-0.1C19.1,22.9,19.1,22.3,19.1,21.7C19.2,21.7,19.2,21.7,19.1,21.7
	C19.2,21.7,19.2,21.7,19.1,21.7 M65.1,31.1C65.1,31.1,65.1,31.1,65.1,31.1c0.1,0.1,0.1,0.1,0.1,0.1c0,0,0-0.1,0-0.1
	C65.2,31.1,65.2,31.1,65.1,31.1C65.2,31,65.1,31,65.1,31.1c-0.3-0.2-0.6-0.3-0.8-0.3c-0.2,0-0.3-0.1-0.5-0.2c-0.1,0-0.1,0-0.2,0
	c0,0.1,0,0.3,0.1,0.4c0.3,0.5,0.5,0.7,0.9,0.6c0,0,0.1,0,0.1,0c0.1,0,0.2,0.1,0.3,0.1c0.1,0,0.1-0.1,0.1-0.3
	C65.1,31.3,64.9,31.1,65.1,31.1 M39.4,25.1c-0.1,0-0.1,0-0.2,0C39.3,25.1,39.3,25.1,39.4,25.1C39.4,25.1,39.4,25.1,39.4,25.1
	c0.1,0.2,0.1,0.3,0,0.3c0,0-0.1,0-0.2-0.1c-0.2-0.1-0.4-0.3-0.6-0.4c0,0-0.1,0-0.1,0c0,0.1,0.1,0.1,0.1,0.2c0,0.1,0.1,0.2,0.1,0.3
	c0.2,0.4,0.4,0.7,0.5,1.1c0.1,0.2,0.3,0.4,0.4,0.6c0.1,0.2,0.1,0.3,0.3,0c0.2-0.3,0.3-0.6,0.5-0.8c0.1-0.2,0.2-0.3,0.2-0.5
	c0-0.1,0.1-0.2,0.1-0.3c-0.1,0-0.1-0.1-0.2-0.1c0,0,0,0-0.1,0C40.1,25.3,39.8,25.2,39.4,25.1 M56,28.9C56,28.9,56,28.9,56,28.9
	c0.1,0.1,0.1,0.1,0.1,0.1c0,0,0-0.1,0-0.1C56.1,28.8,56.1,28.8,56,28.9C56,28.8,56,28.8,56,28.9c-0.3-0.3-0.5-0.5-0.8-0.7
	c-0.2-0.2-0.4-0.4-0.5-0.6c-0.3-0.5-0.6-1-0.9-1.5c-0.2-0.2-0.3-0.5-0.4-0.8c-0.2-0.3-0.4-0.6-0.6-1c-0.2-0.4-0.4-0.8-0.6-1.2
	c-0.2-0.3-0.3-0.7-0.5-1c-0.1-0.3-0.3-0.7-0.4-1c-0.2-0.6-0.5-1.2-0.7-1.8c-0.2-0.5-0.4-1.1-0.6-1.5c-0.2-0.4-0.3-0.8-0.4-1.2
	c-0.1-0.3-0.2-0.7-0.3-1c-0.1-0.3-0.2-0.5-0.2-0.8c-0.1-0.5-0.2-0.9-0.4-1.3c-0.2-0.7-0.5-1.3-0.7-2c0-0.1,0-0.1-0.1-0.2
	c0,0,0,0-0.1,0c0,0,0,0.1,0,0.1c0,0.6,0.2,1.1,0.3,1.6c0.2,0.8,0.4,1.7,0.5,2.5c0.2,0.8,0.5,1.6,0.7,2.3c0.1,0.2,0.2,0.5,0.3,0.7
	c0.1,0.1,0.1,0.2,0.2,0.4c0.2,0.8,0.5,1.5,0.8,2.3c0.2,0.6,0.5,1.1,0.7,1.6c0.3,0.6,0.5,1.2,0.8,1.7c0.2,0.4,0.4,0.8,0.7,1.2
	c0.2,0.4,0.4,0.7,0.7,1c0.4,0.4,0.8,0.9,1.2,1.3c0.2,0.2,0.3,0.4,0.5,0.5C55.3,28.7,55.6,28.9,56,28.9 M11.2,30.4c0,0.1,0,0.2,0,0.3
	c0,0.2,0.1,0.4-0.1,0.5c0,0,0,0.1,0,0.1c0.1,0.1,0.1,0.4,0.1,0.5c-0.2,0.2,0,0.5-0.1,0.7c0,0.3,0,0.7,0,1c0,0.3,0,0.7,0,1s0,0.7,0,1
	s0,0.7,0,1c0,0.3,0,0.6,0,0.9c0,0.3,0,0.5,0,0.8c0,0.2,0,0.5,0,0.7c0,0.2,0,0.3,0,0.5c0,0.2,0.1,0.4,0,0.5c0,0.3,0,0.6-0.1,0.9
	c0,0.3,0,0.7,0,1c0,1,0.1,2,0,3c-0.1,0.5-0.1,1.1-0.1,1.7c0,1.1,0,2.3,0,3.4c0,0.1,0,0.3,0,0.4c0,0.1,0,0.2,0,0.4
	c0,0.3,0,0.6-0.1,0.9c0.1,0.4,0.1,0.7,0,1.1c0,0.1,0,0.2,0,0.2c0.1,0.2,0.1,0.4,0,0.7c-0.1,0.2,0,0.5-0.1,0.7
	c-0.1,0.2-0.1,0.5-0.1,0.7c0.1,0.7,0,1.3,0,1.9c-0.1,0.2,0.1,0.3,0,0.5c-0.1,0.2-0.1,0.4-0.1,0.7c0,0.2,0,0.4,0,0.5
	c0,0.1,0,0.1,0,0.2c0,0.3,0.1,0.6,0,0.8c0,0.2,0,0.3,0,0.4c0,0.2-0.1,0.3,0,0.4c0,0.1,0,0.2,0,0.3c-0.1,0.7,0,1.4-0.1,2.1
	c0,0.2,0,0.4,0,0.7c0,0.2,0,0.5,0,0.7c0,0.8,0,1.6,0,2.3c0,0.6,0,1.2,0,1.8c-0.1,0.8,0,1.6-0.1,2.3c0,0.3,0,0.5,0,0.8
	c0,0.2,0,0.5,0,0.8c0,0.2,0,0.5,0,0.7c0,0.6,0,1.1-0.1,1.7c0,0,0,0.1,0,0.1c0,0.4-0.1,0.9,0,1.3c0,0.2,0,0.3,0,0.5
	c-0.1,0.3,0.1,0.6,0.3,0.6c0.1,0,0.3,0,0.4,0c0.2,0.1,0.4,0,0.6,0.1c0,0,0.1-0.1,0.1-0.1c0-0.1,0-0.2,0-0.2c-0.2,0-0.1-0.2-0.1-0.3
	c0-0.6,0.1-1.1,0.1-1.7c0-1,0-1.9,0.1-2.9c0-0.3,0-0.5,0-0.8c0-0.5,0-1.1,0-1.6c0-1-0.1-2,0-3c0-0.4,0.1-0.8,0.1-1.3
	c0-0.4,0.1-0.8,0.1-1.2c0-0.5,0.1-1,0.1-1.5c0-0.3,0-0.6,0.1-0.9c0.1-0.6,0.1-1.2,0.1-1.8c0-0.5,0.1-1.1,0-1.6c0,0,0,0,0,0
	c0-0.3,0.1-0.6,0.1-0.9c0-0.2,0-0.4,0-0.6c0-0.2,0-0.5,0-0.7c0.1-0.2,0-0.4,0-0.6c0-0.1,0-0.2,0-0.2c0.1-0.2,0-0.5,0.1-0.8
	c0-0.3,0-0.6,0-0.9c0-0.3,0-0.7,0-1c0-0.3,0-0.6,0-0.9c0-0.3,0-0.7,0-1c0-0.3,0-0.6,0-0.9c0-0.4,0.1-0.8,0.1-1.2
	c0-0.4,0-0.9-0.1-1.3c0-0.4,0-0.9,0-1.3c0-2.5,0.1-5.1-0.1-7.6c0-0.2,0-0.4,0-0.7c0-0.4,0-0.6,0.1-0.9c0,0,0-0.1,0-0.1
	c-0.2-0.3-0.2-0.7-0.2-1.1c0-0.2,0-0.3,0-0.5c-0.1-0.5-0.1-1-0.2-1.5c0-0.3,0-0.6-0.1-0.9c-0.1-0.4-0.1-0.8-0.1-1.2c0-0.5,0-1,0-1.5
	c0-0.4,0-0.8,0-1.3c0-0.1,0.1-0.3,0-0.4c-0.1-0.5-0.1-0.9,0-1.4c0.1-0.5,0-0.9,0-1.4c0,0,0-0.1,0-0.1c0,0-0.1,0-0.1,0.1
	c-0.1,0.1-0.1,0.3-0.2,0.4c-0.2,0.3-0.3,0.6-0.3,1c0,0.3,0,0.7,0,1c-0.1,0.4-0.1,0.7,0,1c0.1,0.4,0.1,0.8,0,1.1
	C11.1,30,11.1,30.2,11.2,30.4c-0.1,0-0.1,0.1-0.1,0.1c0,0,0,0,0,0C11.2,30.5,11.2,30.5,11.2,30.4 M10.2,20.7c0,0.2,0,0.4,0,0.7
	c0,0.1,0,0.3,0.1,0.3c0,0,0,0.1,0,0.1c0.1,0.2,0.2,0.5,0.3,0.7c0.1,0.3,0.2,0.5,0.4,0.8c0.1,0.2,0.2,0.4,0.3,0.6
	c0.1,0.3,0.2,0.5,0.4,0.7c0.1,0.1,0.1,0.1,0.2,0c0.1-0.3,0.3-0.5,0.4-0.8c0,0,0-0.1,0.1-0.1c0,0-0.1,0-0.1,0c-0.1,0.1-0.1,0-0.1-0.1
	c0.1-0.2,0.1-0.4,0-0.6c-0.1-0.3-0.1-0.6-0.1-0.9c-0.1-0.5-0.1-0.9-0.2-1.4c0-0.2-0.1-0.4-0.2-0.2c0,0-0.1-0.1-0.1-0.1
	c0-0.1,0.1-0.1,0.1-0.1c0.1,0,0.2,0,0.1-0.3c0,0,0-0.1,0-0.2c0,0,0.1,0,0.1,0.1c0,0,0,0.1,0,0.1c0.1,0.1,0.1,0.3,0.3,0.1
	c0.1-0.1,0.2-0.3,0.3-0.4c0,0,0.1,0,0.1,0c0,0,0,0.1,0,0.1c0,0.1-0.1,0.2-0.2,0.2c0.1,0,0.1,0,0.2,0c0,0,0.1,0,0.1,0
	c0.1,0.1,0.2,0.1,0.3,0.1c0.3-0.1,0.6,0,0.9,0c0.3,0,0.6,0,1,0c0.1,0,0.1,0,0.2,0c0.3,0.2,0.6,0.2,0.9,0.2c0.6,0.1,1.2,0.1,1.8,0.1
	c0,0,0,0,0,0c0.2,0,0.4,0,0.5,0c0.2,0.1,0.4,0.1,0.5,0.1c0.1,0,0.2,0.2,0.3,0c0.4,0.2,0.9,0.1,1.3,0.3c0.2,0.1,0.5,0.1,0.8,0.1
	c0.4,0,0.8,0.3,1.2,0.3c0.3,0,0.7,0.1,1,0.2c0.2,0,0.4,0.1,0.7,0.1c0.2,0,0.4,0.2,0.5,0.2c0.3,0.1,0.7,0.1,1,0.2
	c0.4,0,0.8,0.2,1.2,0.3c0.3,0.1,0.7,0.1,1,0.2c0.1,0,0.2,0.1,0.3,0.1c0.3,0,0.5,0.1,0.8,0.1c0,0,0.1,0,0.1,0
	c0.2,0.2,0.4,0.2,0.6,0.2c0.3,0,0.6,0.2,1,0.3c0.2,0.1,0.5,0.2,0.7,0.2c0.1,0,0.2,0.1,0.3,0.1c0.2-0.1,0.3-0.2,0.5-0.3
	c0.4-0.2,0.9-0.5,1.3-0.7c0.2-0.1,0.5-0.2,0.7-0.3c0,0,0-0.1,0.1-0.1c0,0,0-0.1-0.1-0.1c-0.3-0.3-0.7-0.6-1-0.9
	c-0.2-0.2-0.4-0.4-0.6-0.5c-0.3-0.2-0.6-0.4-0.9-0.6c-0.3-0.2-0.5-0.4-0.8-0.6c-0.2-0.1-0.3-0.2-0.5-0.4c-0.2-0.2-0.4-0.4-0.6-0.6
	c-0.3-0.3-0.7-0.6-1-0.9c-0.3-0.2-0.5-0.5-0.8-0.8c-0.6-0.5-1.2-0.9-1.8-1.4c-0.4-0.3-0.8-0.7-1.3-0.9c-0.5-0.3-1-0.5-1.5-0.9
	c-0.6-0.4-1.1-0.9-1.7-1.4c-0.2-0.2-0.5-0.4-0.7-0.6c-0.7-0.4-1.4-1-2.1-1.5c-0.4-0.2-0.7-0.5-1.1-0.8c-0.1-0.1-0.2-0.1-0.2,0
	c-0.1,0.3-0.3,0.2-0.5,0.1c-0.1-0.1-0.2-0.2-0.1-0.4c0.1-0.1,0-0.2,0-0.2c-0.1-0.1-0.1-0.1-0.2-0.1c-0.2-0.2-0.5-0.3-0.7-0.5
	c-0.2-0.1-0.3-0.3-0.5-0.4C15,7.3,14.6,7,14.2,6.7c-0.3-0.2-0.6-0.3-0.9-0.5c-0.3-0.3-0.6-0.6-0.9-0.9c-0.4-0.4-0.7-0.9-1.1-1.1
	c-0.6-0.3-1.1-0.7-1.7-1.1C9.2,2.8,8.8,2.4,8.3,2C8.2,1.9,8.2,1.7,8,1.7C7.7,1.6,7.4,1.4,7.1,1.2C7.1,1.1,7,1.1,7,1.1
	c-0.1,0-0.2,0.1-0.1,0.3C6.9,1.7,7,2,7.1,2.2c0.2,0.4,0.3,0.8,0.5,1.3c0.3,0.9,0.7,1.8,1,2.8C8.9,7,9.1,7.7,9.3,8.5
	c0.1,0.5,0.3,1,0.4,1.4c0.2,0.7,0.5,1.3,0.7,2c0.2,0.6,0.4,1.3,0.6,2c0.2,0.5,0.4,1.1,0.5,1.6c0.2,0.8,0.4,1.6,0.7,2.4
	c0.1,0.3,0.1,0.3,0.3,0.1c0,0,0.1-0.1,0.1-0.1c0.1-0.1,0.3-0.2,0.3,0c0,0.1-0.1,0.3-0.2,0.3c-0.1,0-0.1,0.1,0,0.2
	c0,0.1,0.1,0.2,0.1,0.2c0,0.4-0.2,0.7-0.1,1.1c0,0,0,0.1-0.1,0.1c0,0,0,0.1,0,0.1c0,0,0-0.1-0.1-0.1c-0.1-0.3-0.2-0.6-0.2-0.9
	c0-0.1-0.1-0.1-0.1-0.1c0,0.2-0.2,0.2-0.2,0.2c-0.4,0.4-0.9,0.7-1.4,1.1c-0.1,0.1-0.3,0.2-0.4,0.3c-0.4,0.3-0.9,0.6-1.3,0.9
	c-0.4,0.3-0.8,0.7-1.2,1c-0.6,0.4-1.2,0.9-1.8,1.3c-0.5,0.3-0.9,0.7-1.4,1c-0.6,0.5-1.3,1-1.9,1.4c-0.4,0.3-0.9,0.6-1.3,0.9
	c-0.1,0-0.1,0.1-0.2,0.1c0.1,0,0.1,0,0.2,0c0,0,0.1,0,0.1-0.1c0.5-0.3,1.1-0.7,1.6-1c0.2-0.1,0.3-0.2,0.5-0.3c0.1,0,0.3-0.1,0.4-0.2
	c0.4-0.3,0.9-0.6,1.4-0.8c0.4-0.2,0.7-0.4,1.1-0.5c0.2-0.1,0.4-0.3,0.6-0.3c0.4-0.2,0.8-0.4,1.1-0.6c0.3-0.2,0.6-0.4,0.9-0.6
	c0.1-0.1,0.2-0.1,0.2-0.2c0.3-0.2,0.6-0.4,0.8-0.5c0.1-0.1,0.1-0.1,0-0.2c-0.1-0.2-0.2-0.3-0.3-0.4c0-0.1,0-0.2,0-0.2
	c0.1,0,0.1,0,0.1,0c0,0.1,0.1,0.2,0.1,0.2c0,0,0.1,0,0.1,0.1c0,0,0-0.1,0-0.1c0-0.2,0-0.3,0-0.5C10.1,20.6,10.1,20.6,10.2,20.7
	 M37,7.7c-0.1,0-0.3-0.1-0.4-0.1c-0.3,0-0.6-0.1-0.9-0.1c0,0-0.1,0-0.1,0c-0.3-0.2-0.6-0.1-0.8-0.1c0,0,0,0-0.1,0c0,0,0,0,0.1,0
	c0.1,0.1,0.2,0.2,0.3,0.2c0,0,0,0.1,0,0.1c0,0-0.1,0-0.1,0c-0.1,0-0.2-0.1-0.3-0.2c-0.4-0.2-0.8-0.4-1.2-0.4c-0.3-0.1-0.6-0.3-1-0.3
	c-0.5-0.4-1.1-0.3-1.7-0.5c-0.3-0.1-0.7-0.1-1-0.2c-0.1,0-0.3-0.1-0.4-0.1c-0.2-0.1-0.5-0.2-0.7-0.3c-0.3-0.1-0.7-0.2-1-0.3
	c-0.3-0.1-0.6-0.2-0.9-0.3c-0.3-0.1-0.5-0.1-0.8-0.2c-0.3-0.1-0.6-0.2-0.8-0.3c-0.3-0.1-0.5-0.2-0.8-0.2c-0.3-0.1-0.6-0.1-0.9-0.2
	c-0.2,0-0.4,0-0.6-0.1C22.6,4,22.2,4,21.8,3.9c-0.3-0.1-0.5-0.2-0.8-0.2c-0.1,0-0.3,0-0.5-0.1c-0.4-0.1-0.7-0.2-1.1-0.3
	c-0.2,0-0.3,0-0.5-0.1C18.6,3,18.3,3.1,17.9,3c-0.2-0.1-0.4,0-0.6-0.1c-0.5-0.2-0.9-0.2-1.4-0.3c-0.3-0.1-0.7-0.2-1-0.2
	c-0.4,0-0.9-0.2-1.3-0.3C13.3,2,13,2,12.7,2c-0.3,0-0.6,0-0.8-0.1c-0.1,0-0.2-0.1-0.4,0c0,0-0.1,0-0.1,0c-0.1-0.1-0.1-0.1-0.2,0
	c0,0-0.1,0-0.2,0c-0.3-0.1-0.6-0.1-0.9-0.2C9.8,1.7,9.7,1.8,9.5,1.6c0,0-0.1,0-0.1,0c0,0,0,0.1,0.1,0.1c0,0,0.1,0.1,0.1,0.1
	c0,0,0.1,0,0.1,0.1c0,0-0.1,0.1-0.1,0.1C9.5,2,9.4,2,9.4,1.9C9.3,1.8,9.3,1.7,9.2,1.6c-0.1-0.1-0.2,0-0.4-0.1C8.9,1.7,9,1.8,9.1,1.9
	c0,0,0,0,0,0C9.4,2.1,9.7,2.3,10,2.4c0.2,0.1,0.4,0.2,0.5,0.4c0.3,0.4,0.7,0.7,1,1c0.1,0.1,0.3,0.2,0.4,0.3c0.2,0.1,0.3,0.2,0.5,0.3
	c0.4,0.2,0.8,0.6,1.2,0.9c0.4,0.3,0.8,0.6,1.1,1c0.1,0.2,0.3,0.3,0.5,0.4c0.3,0.3,0.6,0.6,0.9,0.9c0.2,0.2,0.5,0.4,0.7,0.6
	c0.1,0.1,0.2,0.1,0.4-0.1C17.3,8,17.4,8,17.5,8.2c0,0.1,0.1,0.1,0.1,0.1c0.1,0,0.1,0.1,0.1,0.3c-0.1,0.2,0,0.4,0.1,0.5
	c0.7,0.5,1.4,0.9,2,1.4c0.3,0.2,0.5,0.5,0.8,0.6c0.5,0.3,1,0.7,1.5,1.1c0.4,0.3,0.8,0.6,1.2,1c0.1,0.1,0.3,0.2,0.5,0.3
	c0.3,0.2,0.7,0.4,1,0.6c0.3,0.2,0.6,0.4,0.9,0.6c0.6,0.4,1.2,0.9,1.8,1.3c0.5,0.3,0.9,0.9,1.3,1.3c0.4,0.4,0.8,0.8,1.3,1.2
	c0.4,0.4,0.9,0.6,1.3,1c0.3,0.3,0.7,0.5,1,0.7c0.3,0.2,0.6,0.5,0.8,0.7c0.3,0.3,0.6,0.5,0.9,0.8c0.1,0.1,0.2,0.2,0.4,0.1
	c0.4-0.3,0.8-0.5,1.2-0.8c0.5-0.3,1-0.7,1.5-1c0.5-0.4,1.1-0.8,1.6-1.2c0.7-0.5,1.3-1.1,2-1.7c0.5-0.4,0.9-0.8,1.4-1.2
	c0.6-0.5,1.2-1,1.7-1.6c0.6-0.7,1.2-1.2,1.8-2c0.4-0.5,0.8-1,1.2-1.4c0.1-0.1,0.1-0.2,0.2-0.3c-0.1,0-0.2,0-0.3,0
	c-0.4-0.3-0.9-0.1-1.3-0.3c-0.2-0.1-0.3-0.1-0.5-0.1c-0.3-0.1-0.6-0.2-1-0.3c-0.2-0.1-0.5-0.1-0.7-0.2c-0.4-0.1-0.8-0.1-1.2-0.3
	C42.1,9.1,42,9.1,41.9,9C41.6,9,41.3,8.9,41,8.8c-0.1,0-0.2,0-0.2,0.1c0,0.3-0.2,0.2-0.3,0.2c-0.1,0-0.2-0.1-0.3-0.2
	c0,0-0.1-0.1-0.1-0.1c0-0.4-0.2-0.4-0.4-0.4c-0.3-0.1-0.6-0.1-0.9-0.2c-0.2-0.1-0.5-0.1-0.7-0.2C37.8,7.8,37.4,7.8,37,7.7 M48,11.6
	c0.1,0.3,0.2,0.7,0.3,1c0.1,0.3,0.2,0.6,0.3,0.9c0.1,0.5,0.2,1,0.3,1.4c0.1,0.3,0.2,0.6,0.3,0.9c0.1,0.4,0.2,0.8,0.3,1.2
	c0.2,0.6,0.4,1.2,0.7,1.7c0.2,0.4,0.3,0.8,0.5,1.2c0.2,0.6,0.4,1.2,0.7,1.7c0.2,0.4,0.4,0.9,0.6,1.3c0.3,0.5,0.5,1.1,0.8,1.6
	c0.3,0.5,0.6,1,0.9,1.5c0.3,0.4,0.5,0.9,0.8,1.3c0.2,0.3,0.4,0.6,0.7,0.8c0.4,0.3,0.8,0.5,1.1,0.9c0,0,0.1,0,0.1,0
	c0.4,0.1,0.7,0.2,1.1,0.3c0.3,0.1,0.6,0.2,0.8,0c0.1-0.1,0.2-0.1,0.3,0.1c0.1,0.1,0.1,0.2,0.2,0.1c0,0,0.1,0,0.1,0
	c0.3,0.2,0.5,0.1,0.8,0.2c0.2,0.1,0.5,0.1,0.7,0.1c0.2,0,0.3,0.1,0.4,0.1c0.2,0,0.4,0.1,0.6,0.1c0.1-0.1,0.3,0,0.4-0.1
	c0,0,0.1,0.1,0.1,0.1c0,0.2,0.1,0.3,0.2,0.2c0.1,0,0.2,0.1,0.3-0.2c0-0.1,0.1-0.1,0.1-0.2c0,0.1,0,0.1,0,0.2c0,0.1,0.1,0.1,0.1,0.2
	c0.1,0,0.3,0.1,0.4,0.1c0.3,0.1,0.7,0.2,1,0.2c0.2,0,0.4,0.2,0.6,0c0.1-0.1,0.3-0.1,0.4,0.2c0,0.1,0.1,0.1,0.2,0.2
	c0.2,0,0.4,0.1,0.5,0.1c0.2,0,0.4,0,0.6,0.1c0.4,0.2,0.8,0.1,1.2,0.3c0.4,0.2,0.7,0.3,1.1,0.4c0.1,0,0.1,0,0.2,0c0,0,0-0.1,0-0.2
	c0,0.1,0,0.2,0.1,0.2c0,0.1,0.1,0.1,0.2,0.1c0.5,0.3,1,0.3,1.5,0.4c0.2,0.1,0.4,0.1,0.7,0.2c0.1,0,0.1,0,0.2,0c0-0.1-0.1-0.2,0-0.2
	c0-0.1-0.2-0.2,0-0.3c0.1-0.1,0.1,0.1,0.1,0.2c0,0.1,0,0.2,0,0.2c0.1,0.1,0.1,0.4,0.2,0.3c0.3-0.1,0.5,0.1,0.8,0.2c0,0,0,0.2,0.1,0
	c0,0,0-0.1-0.1-0.1c-0.3-0.3-0.5-0.6-0.8-0.8c-0.5-0.4-1-1-1.4-1.5c-0.4-0.5-0.8-0.9-1.2-1.3c-0.5-0.4-1-0.9-1.5-1.3
	c-0.3-0.3-0.6-0.6-0.9-0.8c-0.5-0.3-0.9-0.8-1.4-1.1c-0.4-0.2-0.8-0.6-1.2-0.9c-0.6-0.5-1.2-1-1.8-1.5c-0.5-0.4-0.9-0.7-1.4-1.1
	c-0.3-0.2-0.6-0.5-0.9-0.7c-0.5-0.4-0.9-0.8-1.4-1.2c-0.2-0.2-0.4-0.3-0.6-0.4c-0.2-0.2-0.5-0.4-0.7-0.6c-0.3-0.3-0.6-0.5-0.9-0.8
	c-0.6-0.4-1.2-0.9-1.8-1.3c-0.6-0.4-1.1-0.8-1.7-1.3c-0.1-0.1-0.2-0.1-0.3,0c-0.1,0-0.1,0.1-0.2,0.1c0-0.1,0-0.2,0-0.3
	c0-0.2,0-0.3-0.2-0.4c-0.2-0.1-0.3,0-0.5-0.1c-0.2-0.1-0.3-0.2-0.3-0.4c0-0.2-0.1-0.3-0.1-0.4c-0.1-0.1-0.2-0.2-0.3-0.3
	c-0.2-0.2-0.4-0.4-0.6-0.6c-0.5-0.5-1-1.1-1.5-1.6c-0.3-0.4-0.7-0.7-1-1.1c-0.1-0.1-0.3-0.3-0.4-0.4c-0.1-0.1-0.2,0-0.2,0.1
	c-0.1,0.1,0,0.2,0,0.3C47.9,11.2,47.9,11.4,48,11.6 M37.1,23.8c0.2,0.1,0.3,0.2,0.5,0.3c0.2,0.1,0.3,0.2,0.5,0.3
	c0.2,0.2,0.3,0,0.5,0.1c0.2,0.2,0.4,0.2,0.7,0.2c0.4,0.1,0.7,0.1,1.1,0.2c0.2,0,0.3,0,0.5,0.1c0.3,0.2,0.7,0.2,1.1,0.3
	c0.2,0,0.3,0,0.5,0.1c0.2,0.1,0.4,0.1,0.6,0.2c0.2,0,0.4,0.1,0.6,0.1c0.2,0,0.4,0.2,0.6,0.2c0.1,0,0.3,0.1,0.4,0.1
	c0.2,0,0.5,0.1,0.7,0.1c0,0,0.1-0.1,0.1-0.1c0-0.4,0.1-0.8,0.1-1.2c0-0.6,0.2-1.2,0.2-1.8c0-0.5,0.1-0.9,0.2-1.4
	c0.1-0.4,0.1-0.8,0.2-1.3c0-0.6,0.2-1.1,0.2-1.6c0-0.2,0.1-0.4,0-0.6c0,0,0-0.1,0-0.2c0-0.1,0.1-0.2,0.1-0.3c0-0.3,0.1-0.5,0.1-0.8
	c0-0.2,0.1-0.5,0.1-0.7c0-0.7,0.2-1.4,0.3-2.1c0.1-0.4,0.1-0.8,0.2-1.2c0.1-0.4,0.1-0.7,0.2-1c0.1-0.4,0.2-0.7,0.1-1.1
	c0,0,0-0.1,0-0.1c0,0,0,0-0.1,0c-0.4,0.5-0.8,0.9-1.1,1.5c-0.5,0.7-1,1.1-1.5,1.7c-0.4,0.4-0.7,0.7-1.1,1.1c-0.7,0.6-1.3,1.2-2,1.8
	c-0.2,0.2-0.5,0.4-0.8,0.6c-0.2,0.2-0.4,0.4-0.7,0.6c-0.4,0.3-0.8,0.7-1.2,1c-0.7,0.5-1.4,1-2,1.5c-0.1,0.1-0.2,0.1-0.3,0.2
	c-0.3,0.2-0.7,0.5-1,0.7c-0.3,0.2-0.5,0.5-0.8,0.6c0,0,0,0-0.1,0.1c0,0,0,0.1,0.1,0.1c0.4,0.3,0.8,0.6,1.2,0.9
	C36.2,23.2,36.6,23.6,37.1,23.8 M52.9,26.6C52.6,26,52.3,25.5,52,25c-0.3-0.5-0.5-1-0.7-1.5c-0.2-0.6-0.5-1.1-0.7-1.7
	c-0.2-0.5-0.5-1-0.6-1.5c-0.2-0.8-0.6-1.6-0.8-2.4c-0.2-0.5-0.4-0.9-0.5-1.4c-0.3-1-0.5-2-0.7-3.1c-0.1-0.3-0.1-0.7-0.2-1
	c0,0-0.1-0.1-0.1-0.1c0,0,0,0.1,0,0.1c0,0.4,0,0.8-0.1,1.1c0,0.4-0.1,0.7-0.1,1c-0.1,0.4-0.1,0.9-0.1,1.4c0,0.5,0,0.9-0.1,1.4
	c0,0.2,0,0.3,0.1,0.4c0,0,0.1,0.1,0.1,0.1c0,0-0.1,0.1-0.1,0.1c-0.2,0-0.2,0.1-0.2,0.3c-0.1,0.6-0.1,1.1-0.2,1.7c0,0.2,0,0.3,0,0.5
	c0,0.2-0.1,0.5-0.1,0.7c-0.1,0.6-0.1,1.2-0.2,1.9c0,0.7-0.1,1.4-0.1,2.1c0,0.1,0,0.1,0,0.2c0,0.3-0.1,0.6-0.1,0.9
	c0,0.1,0.1,0.2,0.1,0.2c0.1,0,0.1,0,0.2,0c0.2,0,0.5,0,0.7,0.2c0.1,0.1,0.1,0,0.1,0c0.1-0.1,0.2-0.2,0.3-0.3c0,0,0.1,0,0.1,0
	c0,0,0,0.1,0,0.1c-0.1,0.1-0.1,0.2-0.2,0.3c-0.1,0.1-0.1,0.1,0,0.3c0.2,0.4,0.5,0.8,0.7,1.3c0.1,0.2,0.2,0.3,0.3,0.5
	c0.1,0.4,0.3,0.8,0.4,1.2c0.1,0.2,0.1,0.2,0.2,0.1c0.1-0.1,0.3-0.3,0.4-0.4c0.1-0.1,0.2-0.2,0.1-0.4c-0.1-0.1,0-0.2,0-0.2
	c0.1,0,0.1,0,0.2,0c0.1,0.1,0.1,0,0.2-0.1c0-0.1,0.1-0.1,0.1-0.2c0.1-0.1,0.3-0.3,0.5-0.4c0.2-0.2,0.5-0.4,0.4-0.9c0,0,0-0.1,0-0.1
	c0.1,0.1,0.2,0,0.3-0.1c0,0,0,0,0,0c0,0.3,0.2,0.3,0.3,0.3c0.2,0,0.5,0,0.7,0.1c0.3,0.1,0.6,0.1,0.8,0.3c0.2,0.1,0.4,0.2,0.5,0.2
	c0.3,0.1,0.6,0.1,0.8,0.3c0,0,0.1,0,0.1-0.1c0,0,0-0.1-0.1-0.1c-0.2-0.2-0.5-0.5-0.7-0.7C53.6,27.4,53.3,27,52.9,26.6 M13,45.6
	c0-0.2,0-0.4,0-0.6c0-0.2,0-0.4,0-0.6c0-0.2,0-0.4-0.1-0.6c0-1,0-2-0.1-3c0-0.4,0-0.7-0.1-1.1c0-0.1,0-0.2,0-0.3
	c0.1-0.1,0-0.3,0.1-0.5c0-0.2,0-0.4,0-0.7c0-0.7,0.1-1.5-0.1-2.2c0-0.1,0-0.2,0-0.3c0.1-0.1,0.1-0.2,0-0.3c0-0.1,0-0.2,0-0.3
	c0-0.3,0.1-0.7,0.1-1.1c0-0.3,0-0.6-0.1-0.9c0.1-0.3,0-0.7,0-1c0-0.4,0-0.8,0-1.2c0-0.2,0-0.5,0-0.7c0-0.2,0-0.4,0-0.6
	c0-1,0-2.1,0-3.1c0.1-0.6,0-1.2,0-1.9c0-0.3-0.1-0.4-0.3-0.5c-0.1,0-0.1,0-0.2,0c0,0-0.1-0.1-0.1-0.1c0,0,0-0.1,0-0.1
	c0.1-0.2,0.2-0.1,0.4-0.1c0.1,0,0.2,0,0.2-0.3c0-0.1,0-0.1,0-0.2c0,0,0.1-0.1,0.1-0.1c0,0,0.1,0.1,0.1,0.1c0,0.1,0,0.1,0,0.2
	c0,0.2,0.1,0.4,0.2,0.4c0.2,0,0.4,0.1,0.6,0.2c0.3,0.1,0.5,0.1,0.8,0.2c0.2,0,0.4,0,0.6,0.1c0.3,0.2,0.5,0.2,0.8,0.2
	c0.1,0,0.2,0,0.4,0c0.3,0.1,0.3,0.1,0.3-0.3c0,0,0-0.1,0-0.1c0-0.4-0.1-0.5-0.3-0.5c0,0-0.1,0-0.1,0c-0.2,0-0.4-0.3-0.7-0.1
	c-0.1,0-0.2,0-0.2,0c-0.2-0.2-0.5-0.2-0.7-0.2c-0.2,0-0.5,0-0.7-0.1c-0.4-0.1-0.8-0.2-1.1-0.2c-0.1,0-0.2,0-0.2,0.2
	c-0.2,0.4-0.4,0.8-0.7,1.3c0,0,0,0.1,0,0.1c0,0,0,0,0.1,0c0.1,0,0.2-0.1,0.3,0.1c0,0-0.2,0.1-0.2,0.2c0,0,0,0-0.1,0
	c-0.1,0-0.2,0.1-0.1,0.3c0,0.1,0,0.2,0,0.3c0-0.1,0-0.2,0-0.2c0-0.1,0.1-0.1,0.1-0.1c0,0,0,0.1,0,0.1C12,25.4,12,25.6,12,25.8
	c0,0.2-0.1,0.5-0.1,0.7c0,0.2,0,0.5,0.1,0.7c0,0.3,0.1,0.7-0.1,1c0,0,0,0.1,0,0.1c0.1,0.3,0,0.6,0,1c0,0.6,0,1.1,0.1,1.7
	c0,0.2,0.1,0.4,0,0.6c0,0,0,0.1,0,0.2c0.1,0.4,0,0.8,0.1,1.2c0.1,0.3,0,0.6,0.1,0.9c0.2,0.8,0.2,1.7,0.3,2.5c0.1,0.6,0,1.3,0.1,1.9
	c0,0.2,0,0.5,0,0.8c0,0.4,0,0.7,0,1.1c0,0.4,0,0.7,0,1.1c0,0.3,0.2,0.7,0,1c0,0,0,0,0,0c0,0.4,0,0.8,0,1.3c0,0.3,0,0.5,0,0.8
	c0,0.3,0.1,0.6,0,0.8c-0.1,0.4-0.1,0.8,0,1.1c0,0.4,0,0.8,0,1.1c0,0.1,0,0.3,0,0.5c0,0.2,0,0.4,0,0.5c0,0.4,0,0.9,0,1.3
	c0,0.4,0.1,0.7,0,1.1c0,0.2,0,0.4,0,0.6c0,0.2,0,0.5,0,0.7c0,0.3,0,0.6,0,0.9c0,0.2,0,0.4,0,0.6c0,1,0,1.9,0,2.9
	c-0.1,0.6,0,1.2-0.1,1.8c-0.1,0.7,0,1.4-0.1,2.1c0,0.3-0.1,0.5,0,0.8c0,0,0,0.1,0,0.1c-0.1,0.3,0,0.6-0.1,0.9c0,0.2-0.1,0.4-0.1,0.6
	c0,0.2,0,0.4,0,0.6c0,0.2,0,0.5-0.1,0.7c0,0.2,0.1,0.4,0,0.6c-0.1,0.3,0,0.5-0.1,0.8c0,0.4,0,0.9-0.1,1.3c0,0,0,0.1,0,0.1
	c-0.2,0.2-0.1,0.4,0,0.6c0,0,0,0.1,0,0.2c0,0.5-0.1,1.1-0.1,1.6c0,0.2,0,0.5,0,0.7c0,0.1-0.1,0.3,0,0.4c0,0.2,0,0.4,0,0.6
	c0,0.2,0,0.4,0,0.6c0,0.7,0.1,1.4,0,2.2c0,0.2,0,0.4,0,0.6c0,0.2-0.1,0.3,0,0.6c0.1,0.2,0,0.4,0,0.7c0,0.2,0,0.4,0,0.6
	c0,0.1,0.1,0.2,0,0.4c-0.1,0.2,0.1,0.3,0.2,0.3c0.1,0,0.2-0.1,0.3-0.1c0.3,0,0.2,0,0.3-0.4c0-1,0-1.9,0-2.9c0-0.6,0.1-1.1,0.1-1.7
	c0.1-0.6,0.1-1.1,0.1-1.7c0-0.6,0-1.3,0-1.9c0-1.2,0-2.3,0.1-3.5c0-1.6,0-3.2,0.1-4.8c0-0.1,0-0.3,0-0.4c0.1-0.2,0-0.3,0-0.4
	c0-0.3,0-0.7,0-1c0-0.3,0-0.6,0-1c-0.1-0.6,0-1.2-0.1-1.8c-0.1-0.7,0-1.5-0.1-2.2c0-0.1,0-0.3,0-0.4c0-0.3,0.1-0.5,0-0.7
	c0-0.2,0-0.3,0-0.5c0-0.5,0.1-1,0-1.5c0-0.1,0-0.3,0-0.4c0-0.4-0.1-0.9,0-1.3c0-0.1,0-0.2,0-0.2c-0.1-0.1,0-0.3-0.1-0.5
	C13,46.9,13,46.3,13,45.6 M12.2,95.7c-0.2-0.3-0.5-0.5-0.7-0.8c-0.2-0.2-0.3-0.2-0.5,0c-0.1,0.1-0.1,0.2-0.2,0.3
	c-0.1,0.1-0.3,0.2-0.4,0.4c-0.1,0.1-0.2,0.3-0.3,0.4c-0.3,0.3-0.3,0.3-0.3,0.8c0,0.2,0,0.4,0,0.6c0,0.4,0,0.9,0,1.3
	c0,0.2-0.1,0.5,0,0.7c0,0,0,0.1,0,0.1c0.2,0,0.4,0.1,0.6-0.1c0,0,0.1,0,0.1-0.1c0,0,0,0-0.1,0c-0.1,0-0.3,0-0.4,0
	c0,0-0.1-0.2-0.1-0.2c0,0,0.1-0.1,0.1-0.1c0.2,0,0.4,0.1,0.6,0.1c0.2,0.1,0.4,0.2,0.6,0.2c0.2,0,0.3-0.1,0.4-0.2
	c0.2-0.3,0.4-0.5,0.5-0.8c0.3-0.4,0.6-0.8,0.8-1.3c0,0,0-0.1,0-0.2c-0.1-0.2-0.1-0.3-0.2-0.4C12.6,96.3,12.4,96,12.2,95.7 M8.9,9.4
	c0.2,0.7,0.4,1.5,0.6,2.1c0.2,0.6,0.3,1.2,0.5,1.8c0.2,0.6,0.4,1.2,0.5,1.9c0.3,1.1,0.6,2.3,0.9,3.4c0.1,0.5,0.1,0.5,0.4,0.3
	c0.1-0.1,0.2-0.1,0.3-0.3c0.2-0.2,0.2-0.4,0.1-0.6c-0.1-0.4-0.3-0.7-0.4-1.1c-0.2-0.7-0.4-1.4-0.6-2.1c0-0.2-0.1-0.3-0.2-0.5
	c-0.2-0.7-0.4-1.3-0.6-2c-0.2-0.5-0.4-1.1-0.6-1.7c-0.3-1-0.6-2-0.9-3C8.7,6.9,8.4,6.2,8.2,5.5C8,4.9,7.7,4.2,7.5,3.6
	C7.2,3,7,2.5,6.9,1.9c0,0,0-0.1-0.1-0.1c0,0,0,0.1,0,0.1C6.9,2.5,7,3.2,7.2,3.8c0.2,0.5,0.3,1.1,0.5,1.6C7.9,6,8,6.6,8.2,7.2
	C8.4,7.9,8.6,8.6,8.9,9.4 M12.4,87.6c0.1-0.2,0.2-0.4,0.3-0.5c0.2-0.3,0.1-0.7,0.2-0.9c-0.2-0.2,0.1-0.5,0-0.7c0.1-0.1,0-0.2,0-0.3
	c-0.3-0.3-0.5-0.5-0.8-0.7c-0.1-0.1-0.1,0.1-0.1,0.1c0.1,0.6,0,1.2,0.1,1.8c0.1,0.3,0,0.7,0.1,1.1c0,0.1,0,0.3-0.1,0.1
	c0,0,0,0.1-0.1,0.1c0,0,0,0.1,0,0.2c0-0.1-0.1-0.1-0.1-0.2c0-0.4,0-0.8-0.1-1.3c0-0.2,0-0.4,0-0.6c0-0.2,0-0.4,0-0.6
	c0-0.2,0-0.3,0-0.5c0-0.2,0-0.4-0.1-0.6c-0.3-0.2-0.5-0.4-0.7-0.6c0,0-0.1,0-0.1,0c0,0,0,0.1,0,0.2c0,0.2,0,0.4,0,0.6
	c0,0.3,0,0.7,0,1c0.1,0.3,0,0.6,0,0.9c0,0,0,0.1-0.1,0.1c-0.1,0.1-0.2,0-0.2-0.2c0-0.2,0-0.4,0-0.5c0-0.5-0.1-0.9,0-1.4
	c0,0,0-0.1,0-0.1c0,0-0.1,0-0.1,0c0,0,0,0.1-0.1,0.1c-0.1,0.2-0.2,0.5-0.3,0.7c-0.2,0.3-0.4,0.6-0.4,1.1c0,0.1,0,0.1,0,0.2
	c-0.1,0.2,0,0.3,0.1,0.4c0.2,0.1,0.4,0.2,0.6,0.4c0.1,0.1,0.2,0.1,0.4,0.2c0.1,0.1,0.2,0.2,0.3,0.3c0.2,0.2,0.4,0.4,0.6,0.5
	c0.1,0.1,0.3,0.4,0.4,0.3c0.1,0,0.2-0.3,0.4-0.5C12.3,87.7,12.3,87.6,12.4,87.6 M11.9,93.5c0,0-0.1,0-0.1,0.1c0,0.2,0,0.2-0.1,0.2
	c-0.1,0.1-0.1,0.2-0.1,0.3c0,0.1,0,0.3-0.1,0.1c0,0,0,0-0.1,0.1c0,0,0,0.1,0,0.1c0.3,0.2,0.5,0.6,0.7,0.8c0.3,0.4,0.6,0.8,0.9,1.2
	c0.2,0.3,0.2,0.3,0.4,0c0.1-0.2,0.2-0.5,0.2-0.8c0-0.4-0.1-0.9,0-1.3c0.1-0.6,0-1.1,0.1-1.7c0.1-0.4,0-0.8,0-1.2
	c0-0.2-0.1-0.3-0.2-0.1c-0.4,0.6-0.8,1.1-1.2,1.7C12.1,93.1,12,93.3,11.9,93.5 M11.5,90.3c-0.1,0.1-0.1,0.3-0.2,0.4
	c-0.1,0.2-0.2,0.4-0.3,0.6c0,0.1-0.1,0.2-0.1,0.3c0-0.1-0.1-0.2-0.1-0.3c0,0,0-0.1,0-0.1c0,0,0-0.1,0-0.1c0,0-0.1,0.1-0.1,0.1
	c0,0.1,0,0.3,0,0.4c0,0.1,0,0.2,0,0.2c-0.1,0.2-0.2,0.4-0.3,0.5c-0.1,0.2,0,0.5-0.2,0.6c-0.1,0.1-0.1,0.3,0,0.4
	c0.1,0.1,0.2,0.2,0.2,0.2c0.2,0.2,0.4,0.3,0.6,0.5c0.1,0.1,0.1,0.1,0.2,0c0.2-0.3,0.5-0.7,0.7-1c0.3-0.4,0.6-0.9,0.9-1.3
	c0.1-0.2,0.3-0.4,0.4-0.6c0.1-0.1,0.1-0.2,0-0.3c-0.2-0.3-0.5-0.5-0.7-0.8c-0.1-0.1-0.2-0.2-0.3-0.4c-0.1-0.1-0.3-0.1-0.3,0.1
	C11.8,89.9,11.7,90.1,11.5,90.3 M11.1,100c-0.1,0-0.1,0.1-0.2,0.1c-0.2,0.1-0.4,0.2-0.6,0.2c-0.1,0-0.3,0.1-0.5,0.2
	c-0.1,0-0.2,0.1-0.1,0.3c0,0.2,0.1,0.1,0.2,0c0.4-0.2,0.9-0.4,1.3-0.6c0.1,0,0.2,0,0.2,0c0,0,0.1,0.1,0.1,0.1c0,0-0.1,0.1-0.1,0.1
	c-0.1,0.1-0.3,0.1-0.4,0.2c-0.4,0.2-0.8,0.4-1.1,0.6c-0.4,0.1-0.4,0.3-0.4,0.8c0,0.1,0,0.3,0.2,0.2c0.1-0.1,0.3-0.2,0.4-0.2
	c0.2-0.1,0.5-0.1,0.7,0c0.1,0,0.1,0,0.2,0c0.1-0.1,0.2-0.1,0.4-0.1c0.5,0,1-0.1,1.5-0.1c0.3,0,0.5-0.3,0.6-0.7c0-0.5,0-1.1,0.1-1.6
	c0-0.1-0.1-0.1-0.1-0.1c-0.2,0-0.5,0.1-0.7,0.1c0,0,0,0,0,0c0,0-0.1,0.1-0.1,0.1c0,0,0.1,0,0.1,0c0.1,0,0.3,0,0.4,0.1
	c0,0,0.1,0.1,0.1,0.1c0,0-0.1,0.1-0.1,0.1c0,0-0.1,0-0.1,0c-0.1-0.2-0.2,0-0.3,0c-0.1,0-0.3,0.1-0.4,0C11.9,99.7,11.5,99.8,11.1,100
	 M10,87.4c-0.1-0.2-0.3-0.2-0.3-0.4c0-0.1,0-0.1-0.1-0.2c0,0.1,0,0.2,0,0.2c0,0.7,0,1.5,0.1,2.2c0.1,0.7,0,1.5,0.1,2.3
	c0,0.4,0,0.7,0.1,1.1c0,0,0,0.1,0,0.1c0,0,0,0,0,0c0.1-0.3,0.3-0.5,0.4-0.7c0.2-0.4,0.4-0.9,0.6-1.3c0.2-0.5,0.5-0.9,0.7-1.3
	c0.1-0.1,0.2-0.3,0-0.4c-0.2-0.1-0.4-0.4-0.6-0.6C10.6,88,10.3,87.8,10,87.4 M12.8,22.6c0.2-0.4,0.5-0.7,0.7-1.1
	c0.2-0.3,0.3-0.5,0.5-0.8c0,0,0.1,0,0.1,0c0,0.1,0,0.1,0,0.1c-0.2,0.3-0.4,0.7-0.6,1c-0.1,0.2-0.3,0.4-0.4,0.6c0,0-0.1,0.2,0,0.2
	c0.1,0,0.3,0,0.4,0.1c0.4,0.2,0.9,0.2,1.3,0.3c0.1,0,0.3,0.1,0.4,0.1c0,0,0.1,0.1,0.1,0.1c0-0.1,0-0.2-0.1-0.2
	c-0.2-0.1-0.3-0.4-0.4-0.6c-0.2-0.3-0.3-0.8-0.5-1.1c-0.1-0.1-0.2-0.4-0.2-0.5c0-0.3-0.1-0.3-0.2-0.3c-0.3,0-0.5,0-0.8,0
	c-0.2,0-0.5-0.1-0.7,0c-0.1,0.1-0.3,0-0.4,0c0,0-0.1,0.1-0.1,0.2c0.1,0.6,0.2,1.1,0.2,1.7c0,0.1,0.1,0.2,0.1,0.3
	C12.5,22.6,12.6,22.6,12.8,22.6 M45.5,25.6c0,0.2,0,0.4,0,0.6c0.1,0,0.2-0.1,0.3-0.1c0.1,0,0.2,0.1,0.3,0.1c0.1,0,0.1,0,0.1-0.1
	c0-0.3,0-0.6,0.1-0.9c0-0.5,0.1-1,0.1-1.5c0-0.5,0.1-1,0.1-1.5c0.1-0.6,0.1-1.2,0.2-1.8c0.1-0.8,0.1-1.6,0.2-2.3c0,0,0-0.1,0-0.2
	c0-0.1-0.5,0.1-0.5,0.2c0,0,0,0.1,0,0.1c-0.1,0.6-0.2,1.2-0.2,1.9c-0.1,0.5-0.1,1.1-0.2,1.6c-0.1,0.5-0.1,1-0.2,1.5
	c0,0.3-0.1,0.6-0.1,1c0,0.2,0,0.4-0.1,0.6C45.6,25.1,45.6,25.3,45.5,25.6 M37.5,24.5c0.1,0,0.2,0.1,0.3,0.1c0,0,0,0,0,0
	c0,0,0,0,0-0.1c-0.1-0.1-0.2-0.2-0.4-0.3c-0.3-0.2-0.7-0.3-0.9-0.6c-0.7-0.6-1.4-1-2-1.5c-0.1-0.1-0.2-0.1-0.3-0.1
	c-0.3,0.2-0.6,0.3-0.9,0.5c-0.2,0.1-0.4,0.2-0.6,0.3c-0.2,0.1-0.4,0.3-0.6,0.2c0,0-0.1,0.1-0.1,0.1c0,0,0.1,0.1,0.1,0.1
	c0.1,0,0.2,0,0.4,0c0.4,0.1,0.7,0.2,1.1,0.3c0.2,0,0.4,0,0.6,0.1c0.1,0,0.3,0,0.3,0c0.3,0.2,0.7,0.1,1,0.2c0.2,0,0.4,0,0.6,0.1
	c0.2,0.2,0.5,0.2,0.8,0.2C37,24.3,37.2,24.3,37.5,24.5 M46,29c0-0.5-0.1-0.6-0.4-0.6c-0.2,0-0.3,0-0.5,0c-0.1,0-0.1,0-0.1,0.2
	c0,0.2-0.1,0.1-0.1,0.1c-0.1-0.1-0.2-0.1-0.2-0.2c-0.1-0.2-0.2-0.2-0.4,0c-0.1,0.1-0.1,0.4-0.3,0.2c0,0-0.1,0-0.1,0.1
	c0,0.1-0.1,0.2-0.1,0.3c-0.1,0.3-0.3,0.3-0.4,0c-0.1-0.2-0.1-0.3-0.2-0.5c-0.1-0.1-0.1-0.2-0.2-0.2c-0.2-0.1-0.4,0.1-0.6-0.1
	c0,0-0.2,0-0.1,0.2c0,0,0,0.2,0,0.2c-0.1,0.1-0.1,0.1-0.2,0.2c0,0-0.1-0.1-0.1-0.1c0,0,0-0.1,0-0.1c0,0,0.1-0.1,0.1-0.1
	c0,0,0,0,0-0.1c0,0,0,0,0,0c-0.1,0-0.1,0-0.2,0c-0.1,0.2-0.2,0.3-0.3,0.5c0,0,0,0.1-0.1,0.2c0,0,0.1,0,0.1,0c0.1,0,0.3-0.1,0.4-0.1
	c0.2,0.1,0.3,0.1,0.5,0.1c0.1,0,0.1,0,0.2,0c0.4,0.2,0.9,0.2,1.3,0.3c0.3,0.1,0.6,0.1,1,0.2c0.3,0.1,0.6,0.2,0.9,0.3
	c0,0,0.1,0,0.1-0.1c0.1-0.1,0.1-0.1,0.2,0c0,0,0,0.1,0,0.1c0,0,0-0.1,0-0.1C46.1,29.7,46,29.4,46,29 M13.1,80.6
	C13.1,80.6,13.1,80.5,13.1,80.6C13,80.5,13,80.5,13,80.4c0,0.1,0,0.1,0,0.1c0.1,0.2,0.2,0.3,0.3,0.5c0.1,0.1,0.2,0.1,0.2,0.2
	c0,0,0,0.1,0,0.2c0,0-0.1,0-0.1,0c-0.1,0-0.2-0.2-0.3-0.3c0,0,0,0-0.1-0.1c0,0.1,0,0.1,0,0.1c0.1,0.2,0.1,0.4,0.1,0.6
	c0,0.3,0,0.6-0.1,0.9c0,0.2,0,0.5,0.1,0.7c0.1,0.4-0.1,0.7,0,1c-0.1,0.2,0,0.3,0.1,0.4c0.2,0.2,0.2,0.2,0.3,0.6c0,0,0,0.1,0,0.1
	c0,0,0-0.1,0-0.1c0-0.3,0-0.6,0-0.9c0-0.3,0.2-0.6,0-0.9c0.1-0.4,0.1-0.8,0.1-1.2c0.1-0.7,0.1-1.4,0.1-2.1c0.1-0.7,0.1-1.5,0.1-2.2
	c0-0.1,0-0.1,0-0.2c0,0-0.1,0.1-0.1,0.1c0,0.1,0,0.2,0,0.2c-0.2,0.3-0.4,0.6-0.6,1c0,0.1-0.1,0.1-0.1,0.1c0.2,0.2-0.1,0.4,0,0.6
	c0,0.1,0.1,0.2,0.1,0.3c0,0,0,0.1,0.1,0.1c0,0,0-0.1,0-0.1c0-0.1-0.1-0.2,0.1-0.2c0,0,0,0.2,0,0.3c0,0,0,0.1,0,0.1
	c0,0.1,0,0.3,0,0.4C13.3,80.8,13.2,80.7,13.1,80.6 M14.8,21.6c0.2,0.5,0.4,0.9,0.6,1.4c0.1,0.2,0.1,0.1,0.2,0c0.4-0.7,0.8-1.3,1.2-2
	c0.1-0.1,0-0.2-0.1-0.2c-0.2,0-0.4-0.1-0.6-0.1c-0.3,0-0.6-0.1-0.9-0.1c0,0,0,0-0.1,0c-0.2-0.2-0.5,0-0.7-0.2
	c-0.2-0.1-0.2,0.1-0.1,0.3C14.5,21,14.6,21.3,14.8,21.6 M28.7,25.1c0.1,0.3,0.1,0.3,0.3,0.4c0.2,0,0.4,0.1,0.5,0.1
	c0.2,0,0.4,0,0.6,0.1c0.3,0.1,0.6,0.2,0.9,0.3c0.1,0,0.2-0.1,0.2-0.1c0,0,0-0.2-0.1-0.3c-0.1-0.2-0.2-0.4-0.3-0.6
	c-0.1-0.1-0.1-0.3-0.1-0.4c-0.1-0.2-0.2-0.3-0.2-0.5c-0.1-0.4-0.2-0.6-0.5-0.4c-0.1,0-0.2,0.1-0.3,0.2
	C29.4,24.1,29.1,24.6,28.7,25.1 M46.7,28.5c-0.2-0.1-0.3,0.2-0.5,0.2c0,0,0,0.1,0,0.1c0,0.1,0,0.2,0,0.3c0,0.2,0.1,0.4,0.1,0.6
	c0,0.3,0.1,0.3,0.3,0.3c0.6,0,1.2,0,1.8,0c0.1,0,0.2,0,0.4-0.1c-0.1-0.2-0.1-0.3-0.2-0.5c-0.2-0.4-0.3-0.8-0.7-0.8
	c-0.1,0-0.3,0-0.5-0.1C47.3,28.6,47,28.6,46.7,28.5 M25.6,24.4c0.2,0.3,0.2,0.3,0.4,0c0.2-0.5,0.5-0.9,0.7-1.4
	c0.1-0.1,0.2-0.2,0.1-0.3c-0.1-0.1-0.2-0.3-0.2-0.3c-0.3,0-0.5-0.1-0.8-0.2c-0.4-0.1-0.9-0.1-1.3-0.3c0,0-0.1,0-0.1,0.1
	c0,0,0,0.1,0.1,0.1c0,0,0,0,0.1,0.1C24.7,23,25.1,23.7,25.6,24.4 M27.5,23.4c0,0,0.1,0,0.1,0.1c0.2,0.5,0.6,0.9,0.8,1.5
	c0,0,0,0.1,0.1,0c0.1-0.2,0.3-0.4,0.5-0.6c0.3-0.3,0.5-0.7,0.8-1c0,0,0.1-0.1,0.1-0.1c0,0-0.1-0.1-0.1-0.1c-0.1,0-0.2-0.1-0.2-0.1
	c-0.1,0-0.2,0-0.2,0c-0.3-0.1-0.5-0.2-0.8-0.3c-0.4,0-0.9-0.2-1.3-0.3c0,0-0.1,0-0.1,0c0,0.1,0,0.1,0,0.1
	C27.2,22.9,27.4,23.1,27.5,23.4 M12.5,80.5C12.4,80.4,12.4,80.4,12.5,80.5c-0.2,0.1-0.3,0.3-0.4,0.4c0,0-0.1,0.1-0.1,0.2
	c0,0.3-0.1,0.6-0.1,0.9c0,0.2,0,0.4,0,0.6c0,0.2,0,0.4,0,0.6c0,0.1,0,0.2,0.1,0.3c0.3,0.3,0.5,0.6,0.8,0.9c0,0,0-0.1,0.1-0.1
	c0-0.5-0.1-0.9,0-1.4c0,0,0-0.1,0-0.2c0-0.1,0-0.2,0-0.2c0.1-0.5,0-1,0.1-1.4c0-0.1,0-0.2,0-0.2C12.7,80.7,12.6,80.6,12.5,80.5
	 M22.3,23c0.1,0.3,0.3,0.5,0.4,0.8c0.1,0.3,0.2,0.3,0.4,0c0,0,0-0.1,0.1-0.1c0.1-0.1,0.1-0.2,0-0.3c0,0-0.1-0.1-0.1-0.1
	c0,0-0.1-0.1-0.1-0.1c0-0.1,0.1-0.1,0.1-0.2c0.1,0,0.1,0,0.2,0.2c0.1,0.2,0.1,0.2,0.2,0c0.2-0.4,0.4-0.7,0.5-1.1
	c0.1-0.2,0.1-0.3-0.1-0.3c-0.3-0.1-0.5-0.2-0.8-0.2c-0.3,0-0.7-0.1-1-0.2c-0.1,0-0.2,0-0.2,0.1c0,0.1,0,0.2,0,0.3
	C22,22.2,22.1,22.5,22.3,23 M39.6,38.8c0-0.1,0.1-0.1,0.1-0.2c0.1-0.2,0.3-0.4,0.4-0.7c0.1-0.2,0-0.6,0-0.9c0,0,0-0.1,0-0.1
	c0-0.2,0-0.2-0.1-0.2c-0.1,0-0.3,0-0.4,0c-0.3-0.2-0.5-0.4-0.8-0.5c-0.2,0-0.2,0-0.2,0.2c0,0.4,0,0.7,0,1.1c0,0.2,0,0.5,0.2,0.6
	c0.1,0.1,0.3,0.3,0.4,0.5c0.1,0.1,0.1,0.1,0.1-0.1c0-0.1,0.1-0.1,0.1,0.1c0,0.1,0,0.1,0,0.2C39.5,38.9,39.5,38.8,39.6,38.8
	 M32.1,25.6C32,25.7,32,25.7,32.1,25.6c0.1,0.2,0.1,0.4,0.2,0.5c0.3,0.1,0.7,0.1,1,0.2c0.1,0,0.2,0,0.4,0c0.1,0,0.3,0,0.4-0.1
	c0.2-0.2,0.2-0.2,0.1-0.5c-0.3-0.5-0.6-0.9-0.9-1.4c-0.1-0.1-0.2-0.3-0.2-0.3c-0.1,0-0.1,0.2-0.2,0.3c0,0.1-0.1,0.1-0.1,0.2
	C32.5,24.9,32.3,25.2,32.1,25.6 M20.4,21.1C20.3,21.1,20.3,21.1,20.4,21.1C20.1,21,19.8,21,19.6,21c-0.1,0-0.2,0.2-0.2,0.3
	c0.2,0.3,0.3,0.6,0.4,1c0.1,0.3,0.3,0.7,0.4,1c0.1,0.2,0.1,0.1,0.2,0c0,0,0.1-0.1,0.1-0.1c0.3-0.5,0.6-1,0.9-1.6
	c0-0.1,0.1-0.2,0.1-0.2c0,0,0-0.1,0-0.1C21.1,21.2,20.8,21.2,20.4,21.1 M24,24.5c0,0,0.1,0.1,0.1,0.1c0.3,0,0.5,0,0.8,0.1
	c0.2,0,0.4,0.1,0.6,0.2c0,0,0.1,0,0.1,0c0,0,0-0.1,0-0.1c-0.2-0.3-0.4-0.6-0.6-1c-0.2-0.4-0.5-0.9-0.7-1.3c-0.1-0.1-0.1-0.1-0.2,0
	c-0.1,0.2-0.2,0.4-0.4,0.7c-0.2,0.3-0.3,0.6-0.5,0.9c0,0.1-0.1,0.2-0.1,0.2c0,0.1,0.1,0.1,0.2,0.2c0,0,0.1,0,0.2,0
	C23.6,24.5,23.8,24.5,24,24.5 M36.5,24.5c-0.2,0-0.4-0.1-0.5-0.1c0,0-0.1,0-0.1,0c0,0.1,0,0.1,0,0.2c0.1,0.2,0.2,0.4,0.2,0.6
	c0.3,0.5,0.5,1,0.8,1.5c0.1,0.3,0.3,0.3,0.4,0c0.2-0.3,0.3-0.7,0.5-1c0.1-0.2,0.2-0.6,0.4-0.7c0,0,0,0,0,0c0,0,0-0.1-0.1,0
	c-0.2,0-0.3,0.1-0.5,0c-0.2-0.1-0.5-0.1-0.7-0.1C36.9,24.7,36.7,24.6,36.5,24.5 M32.4,24.7c0.2-0.3,0.3-0.5,0.5-0.8
	c0,0,0-0.1,0.1-0.1c0,0-0.1,0-0.1,0c-0.2,0-0.4,0-0.6-0.1c-0.2-0.1-0.3,0-0.5-0.1c-0.2-0.1-0.3,0-0.5-0.1c-0.2,0-0.3-0.1-0.5-0.1
	c-0.1,0-0.1,0.1-0.1,0.2c0.2,0.7,0.5,1.4,0.8,2c0.1,0.2,0.1,0.2,0.2,0C31.9,25.4,32.1,25.1,32.4,24.7 M18.8,20.9
	c-0.2,0-0.4,0-0.5-0.1c-0.4-0.2-0.7,0-1.1-0.1c-0.1,0-0.1,0.1-0.1,0.2c0.1,0.3,0.2,0.6,0.3,0.9c0.1,0.2,0.1,0.5,0.2,0.6
	c0.1,0.2,0.2,0.3,0.2,0.5c0,0.1,0.1,0.1,0.1,0c0.2-0.3,0.3-0.5,0.5-0.8c0-0.1,0.1-0.1,0.1-0.1c0.1,0.1,0.1,0,0.1,0
	c0.1-0.1,0.1-0.3,0.2-0.4c0.1-0.1,0.1-0.3,0.1-0.5c0,0,0-0.1,0-0.1c0.1,0,0.1,0,0.2-0.1c-0.1,0-0.1,0-0.2,0
	C19,20.9,18.9,20.9,18.8,20.9 M26.7,23.4c-0.1,0.3-0.3,0.6-0.4,0.8c-0.1,0.1-0.1,0.2-0.2,0.3c0,0.2,0.2,0,0.2,0.2
	c0.1,0.4,0.3,0.3,0.4,0.3c0.2,0,0.4,0.1,0.6,0.1c0,0,0,0,0.1,0c0.2,0,0.5,0.1,0.7,0.1c0,0,0,0,0.1,0c0,0,0,0,0-0.1
	c0-0.1-0.1-0.1-0.1-0.2c-0.3-0.7-0.7-1.2-1.1-1.8c-0.1-0.2-0.2-0.2-0.3,0.1C26.8,23.3,26.7,23.3,26.7,23.4 M46.9,17.7
	c0.1-0.6,0.1-1.2,0.2-1.7c0-0.3,0-0.7,0.1-1c0-0.2,0-0.5,0.1-0.7c0.1-0.5,0.1-1.1,0.1-1.6c0-0.1,0-0.2,0-0.3c0-0.1,0-0.2,0-0.2
	c0.2-0.2,0.1-0.5,0.1-0.8c0,0,0-0.1,0-0.1c0,0-0.1,0.1-0.1,0.1c-0.1,0.3-0.1,0.6-0.2,0.9c-0.1,0.6-0.1,1.2-0.3,1.8
	c-0.1,0.4-0.2,0.9-0.2,1.4c-0.1,0.6-0.1,1.3-0.2,1.9c0,0.1,0,0.2,0.1,0.2c0,0,0.1,0,0.1,0c-0.1,0-0.1,0.1-0.2,0.1c0,0-0.1,0-0.1,0
	c0,0,0,0.1,0,0.2c0,0,0.1,0.1,0.1,0.1C46.6,17.8,46.8,17.8,46.9,17.7 M35.3,25.1c-0.2,0.3-0.3,0.6-0.5,0.9c-0.1,0.2,0,0.5,0.1,0.5
	c0.5,0.1,0.9,0.2,1.4,0.3c0.2,0,0.3,0.1,0.5,0.2c0,0,0.1,0,0.1,0c0-0.1,0-0.1-0.1-0.2c-0.1-0.1-0.2-0.3-0.3-0.4
	c-0.2-0.3-0.3-0.5-0.5-0.8c-0.1-0.2-0.2-0.6-0.4-0.8c0,0,0-0.1,0-0.2c0-0.2-0.1-0.1-0.1,0C35.5,24.8,35.4,24.9,35.3,25.1 M37.7,26.4
	c-0.1,0.2-0.1,0.3-0.2,0.5c0,0.1-0.1,0.2,0,0.2c0.2,0,0.4,0,0.6,0.1c0.2,0,0.5,0.1,0.7,0.2c0.2,0.1,0.4,0.1,0.7,0.2c0,0,0.1,0,0.1,0
	c0,0,0-0.1,0-0.1c-0.1-0.1-0.1-0.2-0.2-0.3c-0.3-0.6-0.7-1.1-1-1.8c-0.1-0.2-0.1-0.2-0.2,0C38,25.6,37.9,26,37.7,26.4 M34.9,25.5
	c0.2-0.4,0.4-0.7,0.6-1.1c0-0.1,0-0.2-0.1-0.2c-0.1,0-0.3,0-0.4,0c-0.2-0.1-0.5-0.2-0.7-0.2c-0.1,0-0.1,0-0.2,0
	c-0.2-0.2-0.5,0-0.7-0.2c0,0-0.1,0-0.1,0c0,0.1,0,0.1,0.1,0.2c0.3,0.5,0.6,1,1,1.5c0.1,0.1,0.2,0.4,0.3,0.1c0,0,0.1,0,0.2,0
	C34.8,25.6,34.8,25.6,34.9,25.5 M41.9,27.2c-0.3-0.5-0.6-0.9-0.9-1.4c-0.1-0.2-0.2-0.1-0.3,0c-0.2,0.4-0.4,0.9-0.5,1.3
	c0,0,0,0.1,0,0.1c0.1,0.1,0.2,0.2,0.3,0.3c0.2,0.1,0.4,0.1,0.6,0.1c0.3,0,0.7,0,1,0.2c0,0,0.1,0,0.1,0c0-0.1,0-0.1,0-0.2
	C42.1,27.6,42.1,27.4,41.9,27.2 M10.6,81c0.1-0.1,0.1-0.2,0.2-0.3c0,0,0,0,0.1,0c0,0,0,0.1,0,0.1c-0.1,0.2-0.2,0.5-0.3,0.7
	c0,0,0,0.1,0,0.2c0,0,0.1,0,0.1,0c0.3-0.5,0.7-1,1-1.6c0.2-0.3,0.1-0.4,0-0.6c-0.3-0.3-0.6-0.6-0.8-0.9c-0.1-0.1-0.1-0.2-0.2-0.3
	c0,0.2,0,0.3,0,0.5c0,0.1,0,0.1,0,0.2c0,0.2,0,0.4,0,0.6c0,0.3,0,0.5,0,0.8c0,0.1,0,0.2,0,0.2C10.4,80.7,10.6,80.9,10.6,81 M43.3,26
	c-0.2-0.1-0.4-0.1-0.6-0.2c-0.3-0.1-0.6-0.1-0.8-0.2c-0.2,0-0.4-0.1-0.6-0.2c-0.1,0-0.1,0-0.2,0c0,0.1,0.1,0.1,0.1,0.2
	c0.1,0.1,0.2,0.3,0.3,0.4c0.3,0.4,0.6,0.9,0.8,1.3c0.1,0.2,0.1,0.3,0.2,0C42.8,27,43,26.6,43.3,26 M12.3,89.2c0.4,0.5,0.9,1,1.3,1.5
	c0.1,0.1,0.1,0,0.1-0.1c0-0.3,0-0.7-0.1-1c0-0.9,0-1.8-0.1-2.8c0,0,0-0.1,0-0.1c0,0,0-0.1-0.1-0.1c0,0-0.1,0-0.1,0.1
	c0,0.3-0.1,0.4-0.2,0.5c0,0-0.1,0.2-0.1,0.2c0,0.5,0,1.1-0.1,1.6c0,0.3,0.1,0.4,0.2,0.5c0.1,0,0.1,0,0.2,0.1c0,0.1,0.1,0.2,0.1,0.3
	c0,0-0.1,0.1-0.1,0.1c-0.1,0-0.3,0-0.4-0.1c-0.1,0-0.2-0.1-0.2-0.3c0-0.2-0.4-0.6-0.5-0.6C12.2,88.9,12.1,89,12.3,89.2 M39.1,47.8
	c0,0.1,0,0.1,0,0.2c0,0.1,0.1,0.2,0.1,0.3c0-0.1,0-0.2,0-0.3c0-0.2,0.1-0.3,0.1-0.5c0-0.8,0-1.6,0.1-2.4c0-0.3,0-0.5,0.1-0.8
	c0-0.1,0-0.3,0-0.5c0-0.2,0-0.4,0-0.5c0-0.2,0-0.8,0-0.9c0-0.5,0-1,0-1.5c0-0.3,0-0.5,0-0.8c0,0,0-0.1,0-0.1c0,0,0,0-0.1,0.1
	c0,0,0,0.1,0,0.2c0,0.6-0.1,1.3-0.1,1.9c0,1,0,1.9-0.1,2.9c0,0.4,0.1,0.9-0.1,1.3C39.1,46.8,39,47.2,39.1,47.8 M54.4,31.6
	c0.2,0,0.5,0,0.7,0c0.1,0,0.1-0.1,0.2-0.2c0-0.3,0.1-0.6,0.2-0.9c0,0,0-0.1,0-0.2c-0.1,0-0.2-0.1-0.3-0.1c-0.3,0-0.6-0.1-0.8-0.2
	c-0.2,0-0.3,0-0.4,0.2c-0.1,0.1,0,0.1,0,0.2c0.1,0.3,0.2,0.6,0.4,0.9C54.3,31.5,54.3,31.6,54.4,31.6 M10.4,93.7
	c-0.1-0.1-0.1-0.1-0.2-0.2c-0.1-0.1-0.3-0.2-0.4-0.1c-0.1,0.1,0,0.3,0,0.4c0,0,0,0.1,0,0.1c0,0.2,0,0.4,0,0.6c0,0.2,0,0.4,0,0.6
	c0,0.2,0,0.4,0,0.6c0,0,0,0.1,0,0.1c0,0,0,0,0.1-0.1c0.2-0.4,0.5-0.7,0.8-1c0.1-0.1,0.2-0.2,0.3-0.4c0-0.1,0-0.2,0-0.2
	c0,0,0,0-0.1,0C10.7,94.2,10.6,94.1,10.4,93.7 M10.4,22.7c-0.1-0.1-0.1-0.2-0.2-0.3c0,0,0,0,0-0.1c0,0,0,0,0,0.1
	c0,0.3,0,0.5-0.1,0.8c0,0.3,0,0.6,0,0.9c0,0.3,0,0.7,0,1c0,0,0,0,0.1,0c0.2,0,0.3,0,0.5,0c0.2,0,0.3-0.1,0.5-0.1c0.1,0,0.1,0,0.2,0
	c0-0.1-0.1-0.1-0.1-0.2c-0.1-0.2-0.2-0.4-0.4-0.6c0-0.1-0.1-0.2-0.1-0.2c0-0.1,0-0.2,0.1-0.2c0,0,0.1,0,0.2,0c0-0.1-0.1-0.1-0.1-0.2
	c0-0.1-0.1-0.1-0.2-0.2C10.7,23.2,10.6,23,10.4,22.7 M20.9,25.3c0.1,0,0.2,0.1,0.3,0.1c0.2,0,0.3,0.1,0.4,0.1c0,0,0.1,0,0.2,0
	c0,0,0,0,0.1,0c0,0,0-0.1-0.1-0.1c-0.2-0.1-0.3-0.3-0.4-0.5c-0.2-0.3-0.4-0.7-0.8-0.6c0,0,0,0-0.1,0c-0.2-0.2-0.4,0.1-0.7,0
	c0,0,0,0,0,0.1c-0.1,0.2-0.3,0.4-0.4,0.5c0,0.1-0.1,0.2-0.1,0.2c0,0,0.1-0.1,0.1-0.1c0.1,0,0.2,0,0.3,0c0,0,0.1,0.1,0.1,0.1
	C20.2,25.1,20.5,25.2,20.9,25.3 M21.8,23.5c0-0.1,0-0.2-0.1-0.2c0-0.5-0.1-0.9-0.1-1.4c0,0,0-0.1-0.1-0.1c0,0,0,0.1-0.1,0.1
	c-0.1,0.4-0.2,0.7-0.4,0.9c-0.2,0.2-0.3,0.4-0.4,0.6c0,0,0,0.2,0,0.2c0.2,0.3,0.3,0.5,0.6,0.5c0.2,0,0.3,0.1,0.5,0.1
	c0.2,0.1,0.1,0,0.1-0.2C21.9,23.9,21.9,23.7,21.8,23.5 M53.4,28.5c0,0-0.1-0.1-0.1,0c-0.1,0,0,0.1,0,0.2c0.1,0.4,0.2,0.8,0.3,1.1
	c0,0.1,0.1,0.2,0.2,0.2c0.2,0,0.4-0.1,0.5-0.2c0.3-0.2,0.5-0.4,0.7-0.7c0,0,0.1-0.1,0.1-0.1c0,0-0.1,0-0.1,0c-0.3,0-0.5-0.1-0.8-0.2
	C53.9,28.6,53.6,28.5,53.4,28.5 M32.3,27.4c0.1,0,0.2,0.1,0.3,0.1c0,0,0,0,0.1,0c0,0,0-0.1,0-0.1c-0.2-0.2-0.3-0.4-0.5-0.7
	c-0.1-0.2-0.2-0.3-0.4-0.3c-0.1,0-0.3,0.1-0.4,0.1c0,0,0,0-0.1,0c0,0,0-0.1,0-0.1c0,0,0.1-0.2,0-0.1c-0.2,0.1-0.3-0.1-0.4,0
	c-0.3,0.1-0.5,0.4-0.8,0.6c0,0,0,0.1,0,0.1c0.2,0,0.5,0.1,0.7,0.1c0.2,0,0.3,0.1,0.5,0.1C31.7,27.2,32,27.3,32.3,27.4 M34.3,27
	c0,0-0.1,0.1-0.1,0.1c0-0.1,0-0.1,0-0.2c0.1-0.1,0-0.2-0.1-0.2c-0.3-0.1-0.5,0.2-0.8,0.4c-0.1,0.1-0.2,0.2-0.2,0.3c0,0,0,0.1,0,0.1
	c0,0,0,0,0.1,0c0.2,0,0.4,0.1,0.6,0.1c0.4,0,0.9,0.1,1.3,0.1c0,0,0.1,0,0.1,0.1c0,0,0.1,0,0.1,0c0,0,0-0.1,0-0.1
	c-0.2-0.3-0.4-0.5-0.5-0.9c0,0,0,0-0.1,0C34.6,26.8,34.4,26.8,34.3,27 M13.3,98.9c0.1,0,0.2-0.1,0.2-0.2c-0.1-0.2,0-0.3,0-0.5
	c0-0.2,0-0.4,0-0.6c0-0.1-0.2-0.2-0.2-0.3c-0.1-0.1-0.1-0.1-0.2,0c-0.1,0.2-0.2,0.4-0.3,0.6c-0.3,0.4-0.6,0.8-0.8,1.2
	c0,0,0,0.1-0.1,0.2c0,0,0.1,0,0.1,0C12.4,99,12.8,99,13.3,98.9 M58.6,31.4c0-0.1,0-0.1,0-0.2c0-0.2,0-0.3-0.2-0.3
	c-0.2,0-0.4,0-0.6-0.1c-0.2-0.1-0.3,0-0.5,0.2c-0.1,0.1-0.1,0.1,0,0.2c0.2,0.3,0.4,0.7,0.6,1c0,0,0.1,0.1,0.1,0.1c0.1,0,0.3,0,0.4,0
	c0,0,0.1-0.1,0.1-0.1C58.6,32,58.6,31.7,58.6,31.4 M49.1,30.6c0.2,0,0.4,0,0.6,0.1c0.3,0.1,0.5,0.1,0.8,0.2c0.1,0,0.2-0.1,0.2-0.3
	c0-0.2,0-0.5,0.2-0.7c0,0,0-0.2,0-0.2c-0.2-0.1-0.4-0.1-0.6-0.2c-0.1,0-0.2,0-0.2,0C49.7,29.9,49.3,30.2,49.1,30.6
	C49,30.5,49,30.6,49.1,30.6 M12.7,5.3c0.1,0.1,0.2,0.1,0.2,0.2c0.2,0.2,0.5,0.5,0.7,0.6c0.3,0.3,0.7,0.4,1.1,0.7
	c0.3,0.2,0.6,0.4,0.9,0.6C15.8,7.6,16,7.8,16.2,8c0,0,0.1,0,0.1,0c0,0,0-0.1,0-0.1c-0.1-0.1-0.2-0.2-0.3-0.3c-0.8-0.6-1.5-1.3-2.3-2
	c-0.5-0.5-1.1-0.8-1.6-1.2c0,0,0,0-0.1,0c0,0,0,0.1,0,0.1C12.2,4.8,12.4,5,12.7,5.3 M42.6,27.9c0,0,0,0.1,0,0.1c0.1,0,0.2,0,0.2,0
	c0.1,0,0.1,0.1,0.1-0.1c0,0,0-0.1,0.1-0.2c0,0,0.1,0,0.1,0.1c0,0.1,0.1,0.1,0.1,0.2c0.3,0.2,0.5,0.1,0.8,0c0.1,0,0.1-0.2,0-0.4
	c-0.2-0.4-0.4-0.7-0.6-1.1c0-0.1-0.1,0-0.2,0c-0.1,0-0.1,0.1-0.1,0.2C43,27.1,42.8,27.5,42.6,27.9 M61,30.7c0.1-0.1,0.3-0.2,0.4-0.4
	c0,0,0-0.1,0-0.1c0,0,0-0.1,0-0.1c-0.3,0-0.7-0.1-1-0.2c-0.3-0.1-0.5-0.1-0.8-0.1c0,0-0.1,0-0.1,0c0,0-0.1,0-0.1,0
	c0,0.1,0,0.2,0,0.2c0.2,0.2,0.2,0.9,0.6,0.8c0,0,0,0,0,0C60.4,31,60.7,31.1,61,30.7 M56.4,31.4c0.1-0.1,0.3-0.2,0.4-0.4
	c0,0,0-0.1,0-0.2c0-0.2-0.1-0.3-0.3-0.3c-0.3,0-0.6-0.1-0.8-0.2c-0.1,0-0.2,0-0.2,0.2c-0.1,0.3-0.2,0.6-0.2,0.9c0,0.2,0,0.3,0.1,0.3
	c0.1,0,0.2-0.1,0.3-0.1C56,31.6,56.2,31.6,56.4,31.4 M61.6,32.6C61.7,32.6,61.7,32.5,61.6,32.6c0.1-0.4,0.1-0.7,0.3-1
	c0,0,0-0.1-0.1-0.1c-0.3-0.1-0.7-0.1-1-0.2c0,0-0.4,0.3-0.4,0.3c0.1,0.1,0.2,0.2,0.2,0.3c0,0,0,0.1,0.1,0.1c0.2,0.2,0.4,0.5,0.6,0.6
	c0.1,0.1,0.1,0.2,0.2,0.2c0,0,0,0.1,0.1,0.1c0-0.1,0-0.1,0-0.2C61.6,32.8,61.6,32.7,61.6,32.6 M44.5,27.7c0.2-0.4,0.5-0.7,0.7-1.1
	c0,0,0-0.1,0-0.1c0,0-0.1-0.1-0.1-0.1c-0.2,0-0.4,0-0.6-0.1c-0.2,0-0.3-0.1-0.5-0.2c-0.2,0-0.4-0.1-0.5-0.1c0,0-0.1,0-0.1,0
	c0,0,0,0.1,0.1,0.1c0.1,0.1,0.2,0.3,0.3,0.4C44.1,27,44.3,27.4,44.5,27.7 M13,77.4c0,0,0,0.1,0,0.1c0.1-0.1,0.2-0.2,0.3-0.3
	c-0.1,0-0.1-0.1-0.2-0.1c-0.1,0-0.2-0.1-0.3,0.1c0,0,0,0-0.1,0c-0.2,0-0.4,0-0.5,0c-0.1,0-0.2,0.1-0.2,0.2c0,0.5,0,0.9,0,1.4
	c0,0.1,0,0.2,0.1,0.2c0.1,0,0.1,0,0.2-0.1c0.1-0.2,0.3-0.5,0.4-0.7c0.1-0.2,0.3-0.4,0.2-0.8C12.8,77.3,12.9,77.4,13,77.4 M10.1,78.6
	c0-0.2,0-0.3,0-0.5c0-0.2,0-0.4,0-0.6c0,0,0-0.1,0-0.1c0,0-0.1,0-0.1,0c0,0.3-0.1,0.5-0.1,0.8c-0.1,0.4,0,0.9-0.1,1.3
	c0,0.1,0,0.1,0,0.2c-0.1,0.4,0,0.9-0.1,1.4c0,0.1,0,0.3,0,0.5c0,0.1,0,0.3,0.1,0.3C9.9,82,10.1,82,10.2,82c0.1,0,0.2-0.2,0.1-0.3
	c-0.2-0.2-0.2-0.5-0.2-0.8C10.1,80.2,10.1,79.4,10.1,78.6 M59.6,31.1c-0.2-0.1-0.5-0.1-0.7-0.2c-0.1,0-0.2,0.1-0.2,0.3
	c0,0.3,0,0.6,0,0.9c0,0.2,0.1,0.3,0.2,0.2c0.3-0.1,0.7-0.4,1-0.7c0.1-0.1,0.2-0.1,0.2-0.2c0-0.1-0.2-0.3-0.3-0.3
	C59.7,31.1,59.7,31.1,59.6,31.1 M38.3,28.5c0.2,0,0.3,0.1,0.5,0c0.1-0.1,0.3-0.3,0.4-0.4c0.1-0.1,0.1-0.2,0.2-0.3c0,0,0-0.1,0.1-0.1
	c0,0-0.1-0.1-0.1-0.1c-0.3,0-0.6,0-1-0.1c-0.2-0.1-0.4,0-0.7-0.2c0,0-0.1,0-0.2,0c0,0.1,0.1,0.2,0.1,0.2c0.1,0.1,0.1,0.2,0.2,0.3
	C38,28.2,38.1,28.4,38.3,28.5 M62.4,33c0,0-0.1,0.1,0,0.1c0.2,0,0.5,0,0.7,0.1c0.1,0,0.2-0.1,0.2-0.2c0-0.3,0.1-0.6,0.1-0.9
	c0-0.3,0-0.3-0.2-0.3c-0.1,0-0.1-0.1-0.2-0.1c-0.1,0-0.3-0.1-0.3,0.1C62.6,32.2,62.5,32.5,62.4,33 M47.3,27.1c0-0.1,0.1-0.1,0-0.2
	c-0.1-0.1-0.2-0.3-0.2-0.1c-0.2,0.3-0.3,0.2-0.5,0.1c-0.1-0.1-0.3-0.1-0.5-0.2c0,0-0.1,0.1-0.1,0.1c0-0.1-0.1-0.2-0.1-0.2
	c0,0-0.1,0-0.1,0c0,0.1,0,0.1,0,0.2c0.1,0.1,0.2,0.2,0.2,0.4c0,0.4,0.2,0.6,0.3,0.9c0,0.1,0.1,0.1,0.2,0
	C46.7,27.8,47,27.5,47.3,27.1 M47.3,27.4c-0.2,0.3-0.4,0.6-0.6,0.9c0,0,0,0,0,0.1c0,0,0,0,0.1,0c0.5,0,1,0.2,1.5,0.3
	c0,0,0.1,0,0.1,0c0,0,0,0,0-0.1c-0.2-0.4-0.4-0.8-0.7-1.2C47.5,27.1,47.4,27.2,47.3,27.4 M15.9,22.8c-0.1,0.1-0.1,0.2-0.2,0.3
	c0,0,0,0.1,0,0.1c0.3,0.1,0.6,0.1,0.9,0.2c0,0,0.1-0.1,0.1-0.1c0-0.4,0-0.9,0.1-1.3c0-0.2,0-0.3,0.1-0.5c0,0,0-0.1,0-0.1
	c0,0-0.1,0-0.1,0c0,0.1-0.1,0.1-0.1,0.2C16.4,21.9,16.2,22.3,15.9,22.8 M52.2,29.3c0.1-0.1,0.2-0.3,0.3-0.4c0.1-0.2,0.2-0.4,0.4-0.6
	c0.1-0.1,0-0.2,0-0.2c-0.2,0-0.3-0.1-0.5-0.1c-0.2-0.1-0.4-0.1-0.6-0.2c-0.1,0-0.1,0,0,0.1c0.1,0.4,0.2,0.9,0.3,1.4
	c0,0.1,0.1,0.2,0.1,0.2C52.1,29.6,52.2,29.5,52.2,29.3 M40.2,27.9c-0.2-0.2-0.5-0.1-0.7,0.2c-0.1,0.2-0.2,0.3-0.3,0.4
	c-0.1,0.1-0.1,0.2-0.1,0.2c0.1,0,0.1,0,0.2,0c0,0,0.1,0,0.1,0c0.1,0,0.3,0.1,0.4,0.1c0.3,0,0.6,0.1,0.9,0.2c0,0,0.1,0,0.1,0
	c0-0.1,0-0.1,0-0.2C40.6,28.5,40.4,28.2,40.2,27.9 M57.6,30.4c0.2-0.2,0.4-0.4,0.6-0.5c0,0,0-0.1,0.1-0.1c0,0-0.1-0.1-0.1-0.1
	c-0.1,0-0.3,0-0.4-0.1c-0.3-0.1-0.6-0.2-0.9-0.3c-0.1,0-0.2,0-0.3,0c0.1,0.1,0.1,0.3,0.2,0.4c0.1,0.3,0.1,0.7,0.4,0.6
	c0,0,0.1,0,0.1,0.1C57.3,30.5,57.4,30.5,57.6,30.4 M59.7,32.1c-0.2,0.1-0.3,0.2-0.5,0.3c0,0-0.1,0-0.1,0c0,0,0.1,0.1,0.1,0.1
	c0.1,0,0.1,0,0.2,0c0.1,0,0.3,0,0.4,0c0.4,0.2,0.9,0.3,1.3,0.4c0,0,0.1,0,0.1-0.1c0,0,0-0.1-0.1-0.1c-0.2-0.2-0.3-0.4-0.5-0.5
	c-0.2-0.1-0.3-0.5-0.5-0.5C60.1,31.7,59.9,32,59.7,32.1C59.7,32,59.7,32.1,59.7,32.1 M27.3,26.3c0.1,0,0.3,0,0.3-0.2
	c0-0.1,0.2-0.2,0.2-0.3c0-0.1,0.1-0.1,0.1-0.2c-0.1,0-0.1,0-0.2-0.1c-0.1,0-0.2-0.1-0.2-0.1c-0.4-0.1-0.9-0.2-1.3-0.3
	c0,0-0.1,0-0.1,0.1c0,0,0,0.1,0,0.1c0.2,0.1,0.4,0.5,0.6,0.7C27,26.1,27,26.4,27.3,26.3 M25.2,25.5c-0.1,0.1-0.2,0.2-0.3,0.3
	c0,0-0.1,0.1-0.1,0.1c0,0,0.1,0.1,0.1,0.1c0.4,0,0.7,0.1,1.1,0.1c0,0,0.1,0,0.1,0.1c0.2,0,0.5,0.1,0.7,0.1c0,0,0,0,0.1,0
	c0,0,0-0.1-0.1-0.1c-0.1-0.1-0.2-0.1-0.3-0.3c-0.2-0.2-0.3-0.4-0.4-0.6c-0.2-0.2-0.2-0.2-0.4,0.1c0,0.1-0.1,0.1-0.1,0.2
	c0,0-0.1,0.1-0.1,0.1c0-0.1,0-0.1,0-0.2c0,0,0-0.1,0-0.1c0,0-0.1,0-0.1,0C25.3,25.4,25.3,25.5,25.2,25.5 M17,22.3c0,0.3,0,0.5,0,0.8
	c0,0.2,0,0.3,0.2,0.3c0.1,0,0.3-0.1,0.3,0c0.1,0.1,0.2,0,0.3-0.1c0.1-0.2,0-0.3-0.1-0.4c-0.2-0.5-0.5-1-0.6-1.6c0,0,0-0.1-0.1-0.1
	c0,0,0,0,0,0.1C17,21.7,17,22,17,22.3 M11.1,78.2c0.2,0.2,0.3,0.3,0.5,0.5c0,0,0.1,0,0.1,0.1c0-0.1,0-0.1,0-0.2c0-0.3,0-0.7,0-1
	c0-0.1,0-0.1,0.1-0.1c0,0,0.1,0,0.1,0c0,0,0-0.1-0.1-0.1c0,0-0.1,0-0.1,0c-0.4,0-0.8,0.1-1.2-0.2c0,0-0.1,0-0.1,0c0,0,0,0,0,0
	c0,0,0,0.1,0,0.1C10.6,77.6,10.9,77.9,11.1,78.2 M23,24.8c-0.1,0.1-0.1,0.2-0.2,0.2c-0.3-0.1-0.3,0.4-0.4,0.6
	c-0.1,0.1,0,0.2,0.1,0.2c0.3,0,0.6,0,0.9,0.1c0.3,0.1,0.5,0.2,0.8,0.3c0,0,0.1,0,0.1,0c0,0-0.1-0.1-0.1-0.1
	c-0.3-0.1-0.5-0.4-0.8-0.6C23.3,25.1,23.2,25,23,24.8 M24.2,25c-0.1-0.2-0.2-0.1-0.3-0.1c-0.1,0-0.2-0.1-0.3-0.1c0,0,0,0-0.1,0
	c0,0,0,0.1,0.1,0.1c0.1,0.1,0.2,0.1,0.2,0.2c0.1,0.4,0.4,0.5,0.6,0.7c0.1,0.1,0.2,0.1,0.3,0c0.2-0.2,0.4-0.4,0.6-0.6c0,0,0,0,0-0.1
	c0,0,0,0,0,0C25,25,24.6,25,24.2,25 M19.3,22.2C19.3,22.3,19.3,22.3,19.3,22.2c0,0.4,0,0.8,0,1.2c0,0.3,0.1,0.4,0.2,0.4
	c0.1,0,0.2,0,0.3,0c0.1,0.1,0.2-0.1,0.3-0.1c0,0,0-0.1,0-0.1c-0.2-0.3-0.3-0.7-0.5-1c-0.1-0.2-0.2-0.4-0.2-0.6
	c0-0.1-0.1-0.1-0.1-0.1c0,0.1,0,0.1,0,0.2C19.3,22.1,19.3,22.1,19.3,22.2 M30.3,26.5c0.1-0.1,0.2-0.2,0.4-0.3c0,0,0-0.1,0.1-0.1
	c0,0,0,0-0.1,0c-0.1,0-0.3-0.1-0.4-0.1c-0.4-0.1-0.8-0.1-1.2-0.3c0,0-0.1,0-0.1,0c0,0,0,0.1,0.1,0.1c0.2,0.2,0.3,0.4,0.5,0.6
	c0.1,0.1,0.1,0.1,0.2,0.2C29.9,26.9,30.1,26.7,30.3,26.5 M45.7,27.2c0-0.1-0.1-0.3-0.1-0.4c0-0.1-0.1-0.1-0.1,0
	c0,0.3-0.1,0.5-0.1,0.8c0,0.1,0,0.1-0.1,0.2c0-0.1-0.1-0.1-0.1-0.2c0,0,0-0.1,0-0.2c0-0.1,0-0.2,0-0.3c0,0.1-0.1,0.1-0.1,0.2
	c-0.1,0.2-0.2,0.4-0.4,0.6c0,0.1,0,0.1-0.1,0.2c0,0,0.1,0.1,0.1,0.1c0.3,0,0.7-0.1,1,0.1c0.1,0,0.1,0,0.1-0.1
	C45.9,27.8,45.8,27.5,45.7,27.2 M37,27.5C37,27.4,37,27.4,37,27.5C37,27.4,37,27.4,37,27.5c-0.1,0-0.2,0-0.3,0.1
	c-0.2,0.1-0.4,0.3-0.6,0.4c0,0,0,0.1-0.1,0.1c0,0,0,0,0.1,0.1c0.1,0,0.3,0.1,0.4,0.1c0.4,0.1,0.9,0.1,1.3,0.3c0,0,0.1,0,0.1-0.1
	c0,0,0-0.1-0.1-0.1c-0.1-0.2-0.3-0.3-0.4-0.6c0-0.2-0.2-0.2-0.3,0c0,0.1-0.1,0.1-0.1,0.2c0,0,0,0-0.1,0c0-0.1,0-0.1,0-0.2
	C36.9,27.6,36.9,27.6,37,27.5 M36.2,27.2c-0.4-0.1-0.7-0.2-1.1-0.2c0,0-0.1,0-0.1,0.1c0,0,0,0.1,0,0.1c0.1,0.2,0.3,0.4,0.4,0.6
	c0.1,0.2,0.2,0.2,0.4,0.1c0.3-0.1,0.5-0.4,0.8-0.5c0,0,0-0.1,0.1-0.1c0,0,0-0.1-0.1-0.1C36.5,27.2,36.4,27.2,36.2,27.2 M42.6,8.7
	c-0.2-0.2-0.4,0-0.6,0c0,0,0,0,0,0c0,0,0,0,0.1,0c0.2,0,0.4,0,0.6,0.1c0.1,0,0.2,0.1,0.3,0.2c0.3,0.1,0.5,0.1,0.8,0.2
	c0.4,0.2,0.8,0.2,1.2,0.3c0.4,0.1,0.8,0.1,1.2,0.4c0.1,0,0.1,0,0.2,0c0,0,0,0,0.1,0c0,0,0,0,0,0c-0.2-0.1-0.4-0.2-0.7-0.3
	c-0.4-0.1-0.8-0.3-1.2-0.3c-0.2,0-0.3-0.1-0.5-0.2C43.8,9.1,43.7,9,43.5,9C43.2,8.9,42.9,8.9,42.6,8.7 M41.8,28.2
	c-0.1,0-0.1-0.1-0.2-0.1c-0.3,0-0.5-0.1-0.8-0.1c-0.1,0-0.1-0.1-0.1-0.1c0,0-0.1,0-0.1,0c0,0.1,0,0.1,0.1,0.1c0,0,0.1,0.1,0.1,0.1
	c0.1,0.2,0.2,0.4,0.3,0.6c0.1,0.3,0.2,0.3,0.4,0.1c0.1-0.1,0.3-0.3,0.4-0.4C41.9,28.4,41.8,28.3,41.8,28.2 M54.9,29.4
	c-0.1,0.1-0.3,0.3-0.4,0.4c0,0-0.1,0.1-0.1,0.1c0,0,0.1,0,0.1,0c0.2,0,0.5,0,0.7,0.1c0.2,0.1,0.3,0,0.4-0.3c0-0.2,0.1-0.3,0.1-0.5
	c0-0.1,0-0.2,0-0.2c0,0-0.1-0.1-0.1-0.1C55.4,29.2,55.1,29.1,54.9,29.4 M70.6,33.3c0-0.1,0-0.3,0.1-0.4c0,0-0.1-0.1-0.1-0.1
	c-0.2,0.2-0.5,0.3-0.7,0.5c0,0-0.1,0.1,0,0.2c0.1,0.2,0.2,0.5,0.3,0.7c0.1,0.2,0.4,0.1,0.4-0.2C70.5,33.8,70.5,33.6,70.6,33.3
	 M71.1,34.4c0.1,0,0.2,0,0.3-0.1c0.2-0.1,0.4-0.3,0.6-0.4c0.1-0.1,0.2-0.1,0.2-0.3c0-0.2-0.2-0.3-0.3-0.2c-0.1,0.1-0.2,0.2-0.4,0.2
	c-0.3,0.2-0.6,0.4-0.9,0.5c0,0,0,0.1,0,0.1c0,0,0,0.1,0.1,0.1C70.8,34.4,71,34.4,71.1,34.4 M67.7,32.9c-0.1-0.1-0.3-0.3-0.4-0.4
	c-0.2-0.1-0.2-0.1-0.3,0.2c-0.1,0.3-0.1,0.6-0.2,0.9c0,0.1,0,0.2,0,0.2c0,0,0,0.1,0.1,0.1c0,0,0-0.1,0-0.1c0-0.1,0.1-0.3,0.2-0.3
	c0.2-0.1,0.4-0.1,0.6-0.2c0.1,0,0.2,0,0.3-0.1C68,33,67.8,33,67.7,32.9 M53.4,30.4c0,0,0.1-0.1,0.1-0.1c0,0,0.1-0.1,0.1-0.1
	c0-0.1-0.1-0.1-0.1-0.2c0,0-0.1,0-0.1,0C53.2,30,53.1,30,53,30c-0.3-0.1-0.4,0-0.5,0.5c0,0.1-0.1,0.3-0.1,0.4c0,0.1,0,0.2,0,0.2
	c0,0,0.1,0,0.1,0C52.8,30.9,53.1,30.7,53.4,30.4 M51.3,28.2c0,0.1,0,0.2,0,0.2c-0.1,0.3-0.2,0.6-0.2,1c0,0.1,0,0.2,0.1,0.1
	c0.2-0.1,0.5-0.1,0.7,0c0,0,0.1,0,0.1,0c0,0,0-0.1,0-0.1c-0.1-0.4-0.2-0.9-0.3-1.3c0-0.1-0.1-0.1-0.1-0.2
	C51.4,28,51.4,28.1,51.3,28.2 M73.3,33.8C73.2,33.8,73.2,33.7,73.3,33.8c-0.2-0.3-0.4,0-0.5,0.1c-0.1,0.1,0,0.3,0.1,0.4
	c0,0,0,0.1,0,0.1c0,0.2,0.1,0.2,0.2,0.2c0.2,0,0.5,0,0.7,0c0.1,0,0-0.1,0-0.1c0-0.1-0.1-0.1,0-0.2c0.1-0.1,0.1,0,0.1,0
	c0.1,0.1,0.2,0.1,0.2,0c0.1-0.1,0.1-0.2,0.1-0.3c0,0,0-0.1,0-0.2c0,0-0.1,0-0.1,0c-0.2,0.1-0.3,0.2-0.5,0.2
	C73.5,34.1,73.5,34.1,73.3,33.8 M10.2,83c-0.1-0.1-0.2-0.2-0.3-0.3c-0.1-0.1-0.1-0.1-0.1,0.1c0,0.1,0,0.3-0.1,0.4c0,0.4,0,0.8,0,1.2
	c0,0.1,0,0.1,0,0.2c0,0,0.1-0.1,0.1-0.1c0.2-0.3,0.3-0.7,0.5-1.1C10.4,83.2,10.4,83.2,10.2,83 M68.6,33.7c-0.1,0-0.2,0.1-0.3,0.1
	c0,0,0,0.1,0,0.1c0.1,0.1,0.3,0.1,0.4-0.1c0.1-0.1,0.1-0.2,0.2-0.2c0.1,0,0.3-0.2,0.4-0.3c0.1,0,0.2-0.1,0.1-0.3
	c0-0.2-0.1-0.3-0.1-0.4c-0.1-0.1-0.5,0-0.6,0.3c0,0,0,0.1,0,0.1c0.1,0,0.1,0.1,0,0.2c-0.1,0.1-0.1,0.1-0.2,0.1c-0.1,0-0.1,0.1,0,0.2
	C68.6,33.6,68.6,33.6,68.6,33.7 M56.4,29.4c-0.1-0.2-0.2-0.3-0.4-0.2c-0.1,0-0.1,0.2-0.2,0.4c0,0.1-0.1,0.3-0.1,0.4c0,0,0,0.1,0,0.2
	c0.1,0,0.3,0.1,0.4,0.1c0.1,0,0.3-0.1,0.4,0.1c0,0,0.1,0,0.1-0.1c0,0,0-0.1,0-0.2C56.5,29.8,56.5,29.6,56.4,29.4 M53.3,30.8
	c-0.1,0.1-0.3,0-0.2,0.4c0,0-0.1,0-0.1,0c-0.1,0-0.1,0-0.2,0c0.1,0.1,0.1,0.1,0.2,0.2c0.1,0,0.2,0.1,0.2,0.1c0.3,0,0.5-0.1,0.8,0.1
	c0,0,0.1,0,0.1,0c0,0,0-0.1,0-0.1c-0.1-0.1-0.1-0.2-0.2-0.3c-0.1-0.2-0.1-0.4-0.2-0.5C53.6,30.6,53.4,30.7,53.3,30.8 M61.8,33
	c0.1,0,0.2,0,0.3,0.1c0.1,0,0.1,0,0.1-0.1c0-0.1,0-0.3,0.1-0.4c0.1-0.3,0.2-0.6,0.3-0.9c0-0.1,0-0.3-0.1-0.3c-0.1,0.1-0.2,0-0.2,0
	c-0.1,0-0.1,0.1-0.1,0.1C61.9,32.1,61.8,32.5,61.8,33 M65.6,31.8c0.3,0,0.5,0.1,0.8,0.2c0.1,0,0.1,0,0.2,0c0,0,0.1-0.1,0.1-0.2
	c-0.1,0,0-0.3-0.1-0.3c-0.2,0-0.4-0.1-0.7-0.2c-0.2,0-0.3-0.1-0.5-0.1c0,0-0.1,0.1-0.1,0.1c0,0,0.1,0.1,0.1,0.1c0,0,0.1,0.1,0.1,0.1
	c0,0.1-0.1,0.1-0.1,0.2c-0.1,0.1-0.1,0.1-0.2,0.2c0,0,0,0.1,0,0.1c0,0,0,0,0,0C65.4,31.7,65.5,32,65.6,31.8 M51.1,30.7
	c0.2-0.2,0.4-0.4,0.6-0.7c0,0,0.1-0.1,0.1-0.1c0,0-0.1,0-0.1,0c-0.1,0-0.2,0-0.4-0.1c-0.1-0.1-0.3-0.1-0.4,0c-0.1,0-0.1,0.3-0.1,0.4
	c-0.1,0.1-0.1,0.3-0.1,0.5c0,0.1,0,0.2,0,0.3c0.1,0,0.2-0.1,0.2-0.1C51,30.9,51,30.8,51.1,30.7 M51.4,31.1c0.3,0,0.5,0.1,0.8,0.1
	c0.1,0,0.1-0.1,0.1-0.2c-0.1-0.3-0.2-0.5-0.3-0.8c0,0-0.1-0.1-0.1,0c-0.1,0.1-0.2,0.2-0.3,0.3c-0.1,0.1-0.3,0.3-0.4,0.4
	c0,0,0,0.1,0,0.1c0,0,0.1,0,0.1,0C51.3,31.1,51.3,31,51.4,31.1 M9.4,2.7c0.5,0.3,1,0.7,1.5,1C11,3.7,11,3.8,11.1,3.9
	c0,0,0.1,0,0.1,0c0,0,0,0,0-0.1c-0.1-0.1-0.3-0.2-0.4-0.4C10.2,2.9,9.6,2.6,9,2.2C8.9,2.1,8.8,2,8.6,1.9c0,0,0,0-0.1,0
	c0,0,0,0,0,0.1C8.8,2.2,9.1,2.4,9.4,2.7 M59.2,29.9c-0.1-0.2-0.2-0.1-0.3-0.1c-0.1,0-0.2,0-0.3,0c0,0.1,0,0.2,0,0.4c0,0,0,0.1,0,0.1
	c0,0.3,0,0.3,0.2,0.3c0,0,0,0,0.1,0c0.2,0,0.3,0.1,0.5,0.1c0.1,0,0.1,0,0-0.1C59.5,30.4,59.4,30.2,59.2,29.9 M11.1,88.1
	c0.2,0.2,0.4,0.4,0.6,0.5c0,0,0.1,0.1,0.1,0c0,0,0.1-0.1,0.1-0.1c0,0,0-0.1-0.1-0.1c-0.1-0.1-0.3-0.3-0.4-0.4
	c-0.2-0.2-0.5-0.4-0.7-0.6c-0.2-0.2-0.4-0.5-0.7-0.5c0,0-0.1,0-0.1,0c0,0,0,0.1,0.1,0.1C10.3,87.4,10.7,87.7,11.1,88.1 M70.9,33.8
	c0.2-0.1,0.5-0.2,0.7-0.4c0.1-0.1,0.2-0.1,0.3-0.2c0,0,0-0.1,0-0.1c0,0,0,0,0,0c-0.3-0.1-0.6-0.1-0.9-0.2c0,0-0.1,0-0.1,0.1
	c0,0.2-0.1,0.5-0.1,0.7c0,0,0,0.1,0,0.2C70.8,33.9,70.8,33.8,70.9,33.8 M63.8,32.8c0.2-0.1,0.4-0.3,0.6-0.4c0.1-0.1,0-0.1,0-0.1
	c-0.2-0.4-0.4-0.3-0.7-0.4c-0.1,0-0.1,0-0.1,0.2c0,0.2,0,0.5-0.1,0.7c0,0.1,0,0.2,0,0.3c0.1,0,0.1,0,0.2-0.1
	C63.7,32.9,63.7,32.9,63.8,32.8 M57,31.7c-0.2,0-0.3,0-0.5,0.1c-0.1,0.1-0.2,0.1-0.3,0.1c-0.1,0-0.1,0-0.2,0c0,0,0,0,0,0.1
	c0,0,0,0.1,0,0.1c0,0,0.1,0,0.1,0c0.5,0,1,0,1.5,0.2c0,0,0,0,0,0c0,0,0-0.1,0-0.1c-0.1-0.1-0.1-0.1-0.2-0.2
	c-0.1-0.2-0.2-0.4-0.3-0.6c-0.1-0.1-0.2-0.1-0.2,0c0,0.2,0.1,0.1,0.1,0.2C57,31.6,57,31.6,57,31.7 M22.2,23.2
	C22.1,23,22,22.8,22,22.6c0,0,0-0.1-0.1-0.1c0,0.1,0,0.1,0,0.2c0.1,0.4,0.1,0.8,0.2,1.3c0,0.2,0,0.4,0.2,0.4
	c0.1,0.1,0.3,0.1,0.4,0.1c0,0,0.1,0,0.1-0.1c0-0.1,0-0.1-0.1-0.2C22.5,23.9,22.3,23.6,22.2,23.2 M22.5,24.9c0-0.1,0.1-0.1,0.1-0.2
	c0,0-0.1,0-0.1,0c-0.1,0-0.2,0-0.2,0c-0.1-0.1-0.1-0.1-0.1,0.1c0,0.1,0,0.3,0,0.5c0,0,0,0.1-0.1,0.1c0,0,0-0.1-0.1-0.1
	c0-0.1,0-0.2,0-0.3c0-0.1,0-0.3-0.1-0.3c-0.2-0.1-0.4-0.2-0.7-0.3c0,0,0,0-0.1,0.1c0,0,0,0.1,0,0.1c0.3,0.2,0.4,0.6,0.7,0.9
	c0.1,0.1,0.2,0.2,0.3-0.1C22.4,25.2,22.4,25.1,22.5,24.9 M11.1,82.6c0.1,0.2,0.2,0.3,0.4,0.4c0.1,0.1,0.2,0.1,0.2-0.1
	c0-0.4,0-0.8,0-1.2c0-0.1,0-0.1-0.1,0C11.4,81.8,11.3,82.2,11.1,82.6 M74.7,34.4c0.1-0.1,0.1-0.2,0.2-0.3c0.1-0.1,0.1-0.2,0.1-0.4
	c-0.1-0.2-0.1-0.3-0.2-0.3c-0.1,0-0.1,0-0.2,0c0,0-0.1,0-0.1,0c0,0,0,0.1,0.1,0.1c0,0.1,0.1,0.2,0.1,0.2c0,0.1-0.1,0.1-0.1,0.2
	c-0.1,0.1-0.2,0.2-0.2,0.4c0,0-0.1,0.1-0.1,0.1c0,0.1,0,0.2,0.1,0.2c0.1,0,0.2,0.1,0.3-0.1C74.5,34.6,74.6,34.6,74.7,34.4
	 M61.9,31.2c0.1-0.2,0.1-0.4,0.2-0.6c0.1-0.3,0.1-0.3-0.1-0.3c-0.1,0-0.2,0-0.3,0.1c-0.1,0.1-0.3,0.2-0.4,0.4
	c-0.1,0.1-0.1,0.1-0.1,0.2c0,0,0,0.1,0,0.1c0,0,0.1,0.1,0.1,0c0.2-0.1,0.3,0,0.5,0C61.7,31.1,61.8,31.2,61.9,31.2 M51.1,28.7
	c0.1-0.2,0.2-0.5,0.2-0.7c0,0,0-0.1,0-0.2c0,0,0,0-0.1,0.1c-0.1,0.4-0.3,0.7-0.6,0.8c-0.1,0.1-0.2,0.3-0.4,0.4c0,0,0,0.1-0.1,0.1
	c0,0,0.1,0.1,0.1,0.1c0.1,0,0.2,0,0.3,0c0.1,0,0.2,0.1,0.2,0.1c0.1-0.1,0.1-0.3,0.1-0.4C51,28.9,51,28.8,51.1,28.7 M32.7,26.9
	c0,0.1,0.1,0.1,0.1,0.2c0.1,0.2,0.2,0.2,0.3,0.1c0.1-0.1,0.3-0.3,0.4-0.4c0,0,0-0.1,0.1-0.1c0,0-0.1-0.1-0.1-0.1c-0.1,0-0.3,0-0.4,0
	c-0.2,0-0.4,0.1-0.6-0.1c0,0,0,0,0,0c0,0,0,0.1,0,0.1C32.5,26.7,32.6,26.8,32.7,26.9 M63.3,31c-0.1-0.1-0.1-0.3-0.2-0.4
	c-0.1-0.1-0.2-0.1-0.3-0.1c0,0-0.1,0.2-0.1,0.3c0,0.1,0,0.2,0,0.3c0,0.2,0.1,0.3,0.2,0.2c0.1,0,0.1,0,0.2,0c0.1,0,0.1,0,0.2,0
	c0.1,0,0.2-0.1,0.1-0.2C63.4,31.1,63.4,31.1,63.3,31 M53,28.7c-0.2,0.2-0.2,0.7-0.3,1c0,0,0,0.1,0,0.1c0,0,0.1,0,0.1,0
	c0.2-0.2,0.3,0,0.5,0c0,0,0.1,0.1,0.1,0.1c0-0.1,0-0.2,0-0.2c-0.1-0.2-0.2-0.3-0.2-0.5C53.2,28.9,53.1,28.8,53,28.7 M18.6,24.5
	c0.1,0.1,0.1,0.2,0.2,0.3c0.2,0.2,0.2,0.2,0.3-0.1c0-0.2,0-0.3,0-0.5c0-0.2-0.2-0.1-0.2-0.1c-0.1,0-0.1-0.1-0.2-0.1
	c-0.1,0-0.2,0-0.3,0c0,0.1,0.1,0.2,0.1,0.3C18.5,24.4,18.5,24.4,18.6,24.5 M11.3,81.4c0.1-0.2,0.3-0.4,0.4-0.6c0-0.1,0-0.2,0-0.3
	c-0.1,0-0.1,0.1-0.2,0.2c-0.1,0.1-0.1,0.2-0.2,0.3c-0.3,0.4-0.5,0.8-0.7,1.2c0,0,0,0.2,0,0.2c0,0,0.1,0,0.1,0
	c0.1-0.1,0.1-0.2,0.2-0.2C11,81.9,11.1,81.7,11.3,81.4 M62.2,31.2c0.1,0,0.3,0,0.4-0.1c0.1-0.1,0-0.4,0.1-0.5c0.1-0.2,0-0.2-0.1-0.2
	c-0.1,0-0.2,0-0.3,0c0,0-0.1,0.1-0.1,0.1C62.3,30.7,62.1,30.9,62.2,31.2 M13.3,77.6c0,0.1-0.1,0.1-0.1,0.2c-0.1,0.1-0.1,0.3-0.1,0.4
	c0,0.1,0,0.2,0,0.4c0,0,0,0.1,0,0.1c0,0,0-0.1,0.1-0.1c0.1-0.2,0.2-0.3,0.3-0.5c0.1-0.1,0.1-0.3,0.2-0.4c0-0.1,0-0.2,0-0.3
	c-0.1,0-0.1,0-0.2,0.1C13.5,77.5,13.4,77.6,13.3,77.6 M68.3,32.6c-0.1,0-0.2-0.1-0.3-0.1c-0.1,0-0.2,0-0.3,0.1
	c0.1,0.1,0.1,0.2,0.2,0.3c0.1,0.1,0.2,0.4,0.3,0.3c0.1,0,0.2-0.3,0.3-0.4c0,0,0.1,0,0.1-0.1c0,0-0.1-0.1-0.1-0.1
	C68.5,32.6,68.5,32.6,68.3,32.6 M58.2,30.2c-0.1,0.1-0.2,0.2-0.3,0.3c0,0,0,0.1,0,0.1c0,0,0.1,0.1,0.1,0c0.2-0.2,0.3,0,0.5,0
	c0.2,0,0.2,0,0.2-0.4c0-0.1,0-0.2,0-0.3c-0.1,0.1-0.1,0.1-0.2,0.2C58.3,30.1,58.2,30.1,58.2,30.2 M69.7,34.2c0,0,0.1,0,0.1,0
	c0-0.1,0-0.1,0-0.2c0,0-0.1-0.1-0.1-0.1c0-0.3-0.2-0.3-0.3-0.3c0,0-0.1,0-0.1,0.1c-0.1,0.2-0.2,0.2-0.4,0.2c0,0,0,0.1-0.1,0.1
	c0,0,0,0.1,0.1,0.1C69.1,34.1,69.4,34.1,69.7,34.2 M12.6,78.9c-0.1,0.1-0.1,0.2-0.2,0.3c0,0,0,0.2,0,0.2c0.1,0,0.2,0.1,0.2,0
	c0.1-0.2,0.3-0.3,0.2-0.6c0-0.1,0-0.3,0.1-0.4c0,0,0,0,0.1-0.1c0,0-0.1,0-0.1,0c0,0.1-0.1,0.2-0.1,0.2
	C12.7,78.6,12.6,78.7,12.6,78.9 M72.3,34.1c-0.2,0.1-0.3,0.2-0.5,0.3c0,0,0,0.1-0.1,0.1c0,0,0.1,0.1,0.1,0.1
	c0.3,0.1,0.6-0.1,0.8,0.1c0,0,0.1-0.1,0.1-0.1C72.6,34.3,72.5,34,72.3,34.1 M17,23.8C17,23.8,17,23.8,17,23.8c-0.1,0.3,0,0.6,0,0.8
	c0,0,0.1,0,0.1,0c0.1-0.2,0.2-0.4,0.3-0.5c0-0.1,0.1-0.1,0.1-0.2c0,0,0-0.1,0-0.1c0,0-0.1-0.1-0.1,0C17.3,23.9,17.2,23.8,17,23.8
	 M6.5,1.3c0-0.2-0.1-0.2-0.2-0.2c-0.1,0-0.1,0.1-0.1,0.3c0,0.1,0,0.2,0,0.3c0,0.1,0,0.3,0.1,0.3c0.1,0.1,0.2,0,0.3,0c0,0,0,0,0-0.1
	c0,0,0-0.1,0-0.1c0,0-0.1,0-0.1,0c0,0-0.1-0.1-0.1-0.1c0,0,0.1-0.1,0.1-0.1c0,0,0.1,0,0.1,0c0.1,0,0.1-0.1,0.1-0.2
	C6.6,1.4,6.6,1.4,6.5,1.3 M66.5,32.3c-0.1-0.2-0.3-0.1-0.4-0.1c-0.1,0-0.2-0.1-0.3,0c0.1,0.1,0.1,0.3,0.2,0.4c0,0,0,0,0,0
	c0.1,0,0.1,0,0.2,0C66.3,32.6,66.4,32.5,66.5,32.3 M11.3,83.2c-0.1-0.1-0.2-0.2-0.3-0.3c0,0-0.1,0-0.1,0c0,0,0,0.1,0,0.2
	c0,0,0,0.1,0.1,0.1c0.2,0.2,0.4,0.3,0.6,0.4c0,0,0.1,0,0.1,0c0,0,0-0.1,0-0.1C11.6,83.5,11.5,83.3,11.3,83.2 M43.6,29
	c0.1-0.2,0.2-0.4,0.3-0.6c-0.2,0-0.3,0-0.5,0c-0.1,0-0.1,0.1,0,0.2C43.5,28.7,43.5,28.8,43.6,29 M40.4,8.2c0,0.1,0,0.2-0.1,0.2
	c-0.1,0.2-0.1,0.2,0,0.3c0.1,0.1,0.2,0.1,0.2,0.1c0,0,0.1,0,0.1,0c0,0,0-0.1,0-0.1c0,0-0.1,0-0.1-0.1c-0.1,0-0.1-0.1-0.2-0.1
	c0,0,0,0-0.1-0.1c0,0,0.1-0.1,0.1-0.1c0.1,0,0.2,0.1,0.3,0.1c0,0,0.1,0,0.1,0c0,0,0-0.1-0.1-0.1C40.7,8.4,40.6,8.3,40.4,8.2
	 M19.4,24.1c-0.1,0-0.1-0.1-0.1,0.1c0,0.1,0,0.2,0,0.3c0,0.1,0,0.2,0,0.4c0-0.1,0.1-0.2,0.1-0.3c0,0,0.1,0,0.1-0.1
	c0.1-0.1,0.2-0.2,0.2-0.3c0,0,0-0.1,0-0.1c0,0-0.1,0-0.1,0C19.6,24.2,19.5,24.2,19.4,24.1 M67.4,33.7c-0.1,0-0.2,0-0.2,0.1
	c0.1,0,0.2,0.1,0.2,0.1c0.2,0,0.5,0.1,0.7-0.3c0,0,0,0,0.1-0.1c0,0-0.1,0-0.1,0C67.9,33.6,67.7,33.7,67.4,33.7 M12.5,88.4
	c-0.1,0.1-0.1,0.2,0,0.3c0.1,0.1,0.2,0.2,0.3,0.2c0-0.2,0-0.3,0-0.5c0-0.1,0-0.1,0-0.2c0-0.1,0-0.1,0-0.2c0,0-0.1,0.1-0.1,0.1
	C12.6,88.3,12.6,88.3,12.5,88.4 M12.2,84.3c0.1,0.1,0.2,0.2,0.4,0.3c0,0,0.1,0,0.1,0c0-0.1,0-0.1,0-0.1c0,0-0.1,0-0.1-0.1
	c-0.2-0.3-0.5-0.5-0.7-0.8c0,0,0,0,0-0.1c0,0,0,0.1,0,0.1c0,0.1,0,0.2,0.1,0.2C12,84,12.1,84.1,12.2,84.3 M47,10l0.2-0.2
	c0,0,0-0.1,0-0.1c0,0,0,0,0,0c-0.2,0-0.4,0.1-0.6,0.1c0,0,0,0.1-0.1,0.2c0,0,0.1,0.1,0.1,0.1C46.8,9.9,46.9,9.9,47,10 M10.1,99.9
	c-0.1,0-0.2,0.1-0.2,0.1c0,0-0.1,0.1-0.1,0.1c0,0,0.1,0.1,0.1,0.1c0.1-0.1,0.2-0.1,0.4-0.1c0.2,0,0.3-0.1,0.5-0.2c0,0,0.1,0,0.1-0.1
	c0,0-0.1,0-0.1,0C10.6,99.8,10.4,99.9,10.1,99.9 M70.1,32.5c0.1,0,0.2,0.1,0.3,0.1c0,0,0,0,0.1,0c0,0,0-0.1-0.1-0.1
	c-0.1,0-0.2,0-0.3-0.1c-0.2,0-0.4-0.1-0.7-0.1c0,0,0,0.1-0.1,0.1c0,0,0,0.1,0.1,0.1C69.7,32.4,69.9,32.4,70.1,32.5 M66.7,32.4
	c-0.1,0.4-0.1,0.8-0.2,1.1c0,0.1,0,0.2,0,0.2c0-0.1,0.1-0.1,0.1-0.2c0.1-0.4,0.1-0.8,0.2-1.2C66.9,32.4,66.8,32.2,66.7,32.4
	 M2.4,28.1c0-0.1,0-0.3-0.1-0.4c0-0.1-0.1-0.2-0.1-0.3c0,0.1,0,0.2,0,0.2c0,0,0,0,0,0.1c0,0.3,0,0.5-0.1,0.8c0,0,0,0.1,0,0.2
	c0-0.1,0-0.1,0-0.2c0-0.1,0.1-0.1,0.1-0.2c0,0,0.1,0,0.1,0C2.4,28.3,2.4,28.3,2.4,28.1 M10,82.6c0.1,0.2,0.3,0.2,0.5,0.2
	c0,0,0.1,0,0.1,0c0,0-0.1-0.1-0.1-0.1c-0.2-0.1-0.4-0.2-0.5-0.4c0,0,0-0.1,0-0.1c-0.1,0-0.1,0-0.2,0.1c0,0.1,0.1,0.1,0.1,0.2
	C9.9,82.5,10,82.5,10,82.6 M66.3,32.9c0,0.1-0.1,0.1-0.1,0.2c0.1,0.1,0.1,0.2,0.2,0.3c0-0.1,0.1-0.1,0.1-0.2c0-0.1,0-0.2,0-0.2
	c0-0.1,0-0.2,0.1-0.2c-0.1,0-0.1,0-0.2,0.1C66.4,32.8,66.4,32.8,66.3,32.9 M11.1,23.9c0.1,0.4,0.3,0.5,0.5,0.8c0,0,0.1,0,0.1,0
	c0,0,0-0.1,0-0.1C11.4,24.4,11.3,24.1,11.1,23.9 M52.1,30C52.1,30,52.1,30,52.1,30c0,0.2,0.1,0.3,0.1,0.4c0,0.1,0,0.2,0.1,0.3
	c0-0.1,0.1-0.2,0.1-0.3C52.5,30,52.5,30,52.1,30 M18.6,22.4c0-0.1,0-0.1,0.1-0.2c0,0-0.1,0-0.1,0c-0.2,0.3-0.4,0.6-0.5,0.9
	c0,0,0,0.1,0,0.2c0,0,0.1,0,0.1-0.1C18.3,23,18.5,22.7,18.6,22.4 M64.9,32.2c-0.1,0-0.1,0.1-0.2,0.1c0,0,0,0.1,0,0.1
	c0.1,0.1,0.1,0.2,0.2,0.2c0-0.1,0-0.2,0.1-0.2c0-0.1,0-0.1,0.1-0.2c0-0.1,0-0.1,0-0.2C65.1,32.1,65,32.1,64.9,32.2 M13.4,86.3
	c-0.1,0.2-0.2,0.4-0.4,0.6c0,0,0,0.1,0,0.1c0,0,0.1,0,0.1,0c0.2-0.2,0.3-0.5,0.5-0.7c0,0,0-0.1,0.1-0.2c-0.1,0-0.1,0-0.2,0
	C13.4,86.1,13.4,86.1,13.4,86.3 M41,8.5c-0.1,0.1-0.1,0.2,0,0.2c0.1,0,0.3,0,0.4-0.1c0,0,0.1,0,0.1-0.1c0,0-0.1,0-0.1,0
	C41.3,8.3,41.2,8.5,41,8.5 M69.5,32.8c0,0.2,0.1,0.3,0.2,0.2c0.1,0,0.1,0,0.2-0.1c0,0,0.1-0.1,0.1-0.1c0-0.1-0.1-0.2-0.1-0.1
	C69.8,32.8,69.7,32.7,69.5,32.8 M52.6,29.5c0-0.1,0-0.3,0-0.4c-0.1,0.1-0.1,0.2-0.2,0.3c-0.1,0.1-0.1,0.2-0.2,0.3c0,0,0,0.1,0,0.1
	c0,0,0.1,0,0.1,0C52.4,29.7,52.5,29.6,52.6,29.5 M13.4,97c0.1,0.1,0.1,0.2,0.2,0.3c0-0.1,0-0.2,0-0.3c0-0.1,0-0.2-0.1-0.3
	c0,0,0,0,0-0.1C13.5,96.7,13.3,96.8,13.4,97 M11.5,89.7c0,0.1,0,0.1,0,0.2C11.5,89.8,11.5,89.8,11.5,89.7c0.2-0.1,0.3-0.2,0.3-0.4
	c0,0,0.2,0.1,0.1-0.1c0,0-0.1-0.1-0.1,0C11.6,89.3,11.5,89.4,11.5,89.7 M73.1,33.2c-0.2,0-0.3,0-0.5,0.1c0,0,0,0.1,0,0.2
	c0,0,0.1,0.1,0.1,0.1C72.9,33.5,73,33.4,73.1,33.2 M11.9,80.4c0,0,0,0.1,0,0.1c0-0.1,0.1-0.1,0.1-0.2c0-0.1,0.1-0.1,0.1-0.2
	C12.1,80,12.1,80,12,80C11.8,79.9,11.9,80.2,11.9,80.4 M70.8,32.7c0.1,0,0.2,0.1,0.4,0.1c0,0,0.1,0.1,0.1-0.1c0,0-0.1-0.1-0.1-0.1
	c0,0-0.1-0.1-0.1-0.1C71,32.5,70.9,32.6,70.8,32.7 M12.5,80.1c0.1,0.1,0.1,0.2,0.2,0.3c0,0,0.1,0.1,0.1,0.1c0-0.1,0-0.2,0-0.3
	C12.8,80.1,12.7,80,12.5,80.1 M17.3,9.2c0,0,0.1-0.1,0.1-0.1c0,0-0.1-0.1-0.1-0.1c-0.1,0-0.2,0-0.3,0.1C17.1,9.3,17.3,9.1,17.3,9.2
	 M34.2,26.5C34.2,26.5,34.2,26.5,34.2,26.5c0.2,0,0.3-0.1,0.3-0.3c0,0,0-0.1,0-0.1c-0.1,0.1-0.2,0.1-0.2,0.2
	C34.2,26.3,34.1,26.4,34.2,26.5 M11.1,41.7c0-0.1,0-0.1,0-0.2c0,0,0-0.1,0-0.1c0,0-0.1,0-0.1,0.1c0,0.2,0.1,0.5,0,0.7
	c0,0,0,0.1,0.1,0.1c0,0,0-0.1,0-0.1C11.1,42.1,11.1,41.9,11.1,41.7 M12.3,22.9c-0.1,0.1,0,0.2,0,0.3c0-0.1,0.1-0.1,0.1-0.2
	c0,0,0-0.1,0.1-0.1c0,0,0-0.1,0.1-0.1c0,0-0.1,0-0.1,0C12.4,22.8,12.4,22.8,12.3,22.9 M11,38c0,0.2,0,0.3,0,0.5c0,0,0,0.1,0,0.1
	c0,0,0,0,0-0.1c0-0.1,0.1-0.2,0-0.2c-0.1-0.2-0.1-0.3,0-0.5c0,0,0-0.1,0-0.1C11.1,37.8,11,37.8,11,38 M12.5,18.8
	c0,0.1,0.1,0.2,0.1,0.3c0,0,0,0,0,0.1c0,0,0-0.1,0-0.1c0-0.1,0-0.2,0-0.3C12.7,18.6,12.6,18.7,12.5,18.8 M20.5,23.9c0,0,0.1,0,0.1,0
	c0-0.1,0-0.1-0.1-0.2c0-0.1-0.1-0.1-0.1-0.1c0,0-0.1,0-0.1,0c0,0,0,0.1,0,0.1C20.5,23.9,20.5,23.9,20.5,23.9 M64.4,32.1
	c0.1,0,0.2,0,0.3,0c0,0,0-0.1,0-0.1c-0.1,0-0.2,0-0.2,0C64.4,31.9,64.4,31.9,64.4,32.1 M9,101.1C9,101.1,9.1,101.1,9,101.1
	c0.1-0.1,0.2-0.1,0.3-0.2c-0.1-0.1-0.2,0-0.3,0c0,0-0.1,0-0.1,0C8.9,101.1,8.9,101.2,9,101.1 M12.4,88c-0.1,0.1-0.1,0.1-0.1,0.2
	c0,0.1,0,0.2,0,0.2c0,0,0.1,0,0.1-0.1c0.1-0.1,0.1-0.2,0.2-0.3C12.5,88,12.5,87.9,12.4,88 M26,24.8c-0.1,0.1,0,0.2,0.1,0.2
	c0.1,0,0.2,0,0.2-0.1C26.2,24.7,26.1,24.8,26,24.8 M38.4,28.9c0.1,0,0.1,0.1,0.2,0.1c0,0,0,0,0-0.1C38.6,28.8,38.5,28.8,38.4,28.9
	c0-0.1,0-0.1,0-0.1C38.4,28.8,38.4,28.9,38.4,28.9 M12.8,87.6c0-0.1,0-0.2,0-0.2c0,0-0.1,0.1-0.1,0.1c0,0,0,0.1-0.1,0.2
	c0,0,0,0.1,0,0.1c0,0,0.1,0,0.1,0C12.7,87.7,12.7,87.7,12.8,87.6 M31.8,25.9c0,0-0.1,0.1-0.1,0.1c0,0,0.1,0,0.1,0.1c0,0,0.1,0,0.1,0
	c0,0,0,0,0-0.1c0,0,0,0,0-0.1C31.9,26,31.9,26,31.8,25.9 M13.2,41.2C13.2,41.2,13.2,41.2,13.2,41.2c-0.1,0-0.1,0-0.1,0
	c0,0.1,0,0.2,0,0.3c0,0,0,0,0-0.1C13.2,41.4,13.2,41.4,13.2,41.2 M52.2,15.2c0,0,0.1,0,0.1,0.1c0-0.1,0-0.2,0-0.2
	C52.2,15,52.1,15,52.2,15.2 M11.1,26.3c0-0.1,0-0.2,0.1-0.3c0,0,0-0.1,0-0.1c0,0-0.1,0.1-0.1,0.1C11,26.1,11,26.2,11.1,26.3
	 M60.3,31.4c0,0,0.1-0.1,0.1-0.1c0,0-0.1,0-0.1-0.1c0,0,0,0-0.1,0c0,0-0.1,0-0.1,0.1C60.2,31.3,60.2,31.4,60.3,31.4 M13.1,24.2
	c0,0.1,0,0.1,0,0.2c0,0.1,0,0.2,0,0.3c0,0,0,0,0,0c0-0.1,0-0.2,0-0.3C13.2,24.3,13.1,24.2,13.1,24.2 M12,27.6c0-0.1-0.1-0.1-0.1-0.2
	c0,0.1,0,0.1,0,0.2c0,0.1,0,0.1,0,0.2c0,0,0.1,0.1,0.1,0C11.9,27.8,11.9,27.7,12,27.6 M17.3,8.6c0-0.1,0-0.1,0-0.2
	c0-0.1,0-0.1,0-0.2c0,0.1-0.1,0.1-0.1,0.2C17.2,8.5,17.3,8.5,17.3,8.6 M57.1,30.9c0,0,0.1-0.1,0.1-0.1c0,0-0.1,0-0.1-0.1
	C57,30.7,57,30.8,57.1,30.9 M11.9,65.7c0,0.1,0,0.1,0,0.2c0,0,0,0.1,0,0.1C12,65.9,12,65.8,11.9,65.7 M11.1,38.9c0,0,0-0.1,0-0.1
	c0,0-0.1,0-0.1,0c0,0.1,0,0.2,0.1,0.3C11.1,39,11.1,39,11.1,38.9 M17.5,8.7c0,0,0.1-0.1,0.1-0.1c0,0-0.1-0.1-0.1,0
	c0,0-0.1,0.1-0.1,0.2C17.4,8.7,17.4,8.8,17.5,8.7C17.5,8.8,17.5,8.7,17.5,8.7 M63.6,31.4c0,0.1,0,0.1,0,0.1c0,0,0.1,0,0.1,0.1
	c0-0.1,0-0.1,0-0.2C63.7,31.3,63.7,31.3,63.6,31.4 M40.8,8.2c0.1,0,0.1,0,0.2,0c0,0-0.1-0.1-0.1-0.1C40.9,8,40.9,8.1,40.8,8.2
	 M2.4,28.5c0,0-0.1,0.1-0.1,0.1c0,0,0.1,0.1,0.1,0.1C2.5,28.7,2.5,28.6,2.4,28.5 M13.2,41.8C13.2,41.8,13.2,41.8,13.2,41.8
	c0-0.1,0-0.1,0-0.1c0,0.2,0,0.3,0,0.5c0,0,0,0,0,0c0,0,0-0.1,0-0.1C13.2,42.1,13.2,42,13.2,41.8 M67,31.6c0,0,0.1-0.1,0.1-0.1
	c0,0-0.1-0.1-0.1-0.1C66.9,31.4,66.9,31.5,67,31.6 M13.3,62.2C13.3,62.2,13.3,62.2,13.3,62.2c0-0.1,0-0.2,0-0.2c0,0,0,0,0,0
	c0,0.1,0,0.3,0,0.4c0,0,0,0,0-0.1C13.3,62.3,13.3,62.3,13.3,62.2 M40,27.5C40,27.5,40,27.5,40,27.5C40,27.5,40,27.5,40,27.5
	c0,0.1,0.1,0.1,0.1,0.1c0,0,0-0.1,0-0.1C40.1,27.4,40.1,27.4,40,27.5 M11,43.3c0-0.1,0-0.2,0-0.3c0,0,0-0.1,0-0.1c0,0,0,0.1,0,0.1
	C11,43.1,11,43.2,11,43.3 M13.1,74.5c0,0-0.1-0.1-0.1-0.1C13,74.5,13,74.5,13.1,74.5c-0.1,0.1,0,0.1,0,0.2
	C13.1,74.6,13.1,74.6,13.1,74.5 M10.4,79c-0.1,0-0.1,0.1-0.1,0.2c0,0,0,0,0,0.1c0,0,0.1-0.1,0.1-0.1C10.5,79.1,10.4,79.1,10.4,79
	 M13,87.5c0,0-0.1,0.1-0.1,0.1c0,0,0.1,0.1,0.1,0.1C13,87.7,13,87.6,13,87.5 M11,39.5C11.1,39.6,11.1,39.7,11,39.5
	c0.1-0.1,0.1-0.1,0-0.2C11,39.4,11,39.5,11,39.5 M44.2,28.5C44.2,28.5,44.2,28.5,44.2,28.5c0-0.1,0-0.1,0-0.1c0,0.1-0.1,0.1-0.1,0.2
	c0,0,0,0,0,0C44.1,28.6,44.1,28.6,44.2,28.5 M13.2,39.5c0,0-0.1,0.1-0.1,0.1c0,0,0,0.1,0,0.1C13.2,39.6,13.2,39.5,13.2,39.5
	 M72.5,33.4C72.5,33.4,72.5,33.4,72.5,33.4C72.5,33.5,72.5,33.4,72.5,33.4c0,0,0-0.1,0-0.2c0,0,0,0,0,0
	C72.4,33.3,72.4,33.3,72.5,33.4 M73.2,33.6C73.3,33.6,73.3,33.6,73.2,33.6c0.1,0,0.1,0,0.1-0.1C73.3,33.5,73.2,33.4,73.2,33.6
	 M50.7,31.3c0-0.1,0-0.1,0-0.2C50.6,31.2,50.6,31.2,50.7,31.3C50.6,31.3,50.6,31.3,50.7,31.3 M10.9,53.3
	C10.9,53.3,10.9,53.3,10.9,53.3C10.9,53.3,10.9,53.3,10.9,53.3c0,0,0.1-0.1,0.1-0.2c0,0,0,0,0,0C10.9,53.1,10.9,53.1,10.9,53.3
	 M13.2,52.2c0,0.1,0,0.1,0,0.2c0,0,0,0,0,0.1c0,0,0-0.1,0-0.1C13.2,52.4,13.2,52.3,13.2,52.2 M11,43.8c0,0.1,0,0.1,0,0.2
	c0,0,0,0,0,0.1c0,0,0-0.1,0-0.1C11.1,44,11.1,43.9,11,43.8 M45.8,26.6c0,0,0.1-0.1,0.1-0.1c0,0,0,0,0-0.1
	C45.8,26.4,45.8,26.5,45.8,26.6 M46.8,26.7C46.8,26.7,46.8,26.7,46.8,26.7c-0.1,0-0.1,0-0.1,0.1C46.7,26.7,46.8,26.8,46.8,26.7
	C46.8,26.7,46.8,26.7,46.8,26.7 M11.9,79.3c0,0.1,0,0.1,0,0.2c0,0,0.1,0,0.1,0C12,79.4,12,79.3,11.9,79.3 M11.9,88.7
	C11.9,88.7,11.9,88.7,11.9,88.7c0,0.1,0,0.2,0,0.2c0,0,0-0.1,0-0.1C12,88.7,11.9,88.7,11.9,88.7 M11.1,30.7
	C11.1,30.8,11.1,30.8,11.1,30.7c0,0.1,0,0.2,0,0.2c0,0,0-0.1,0-0.1C11.2,30.8,11.2,30.7,11.1,30.7 M44.3,28.1c0,0,0.1-0.1,0.1-0.1
	C44.4,28,44.3,28,44.3,28.1 M62.2,30.2C62.2,30.1,62.2,30.1,62.2,30.2C62.2,30.1,62.2,30.1,62.2,30.2c0-0.1-0.1-0.1-0.1-0.1
	c0,0,0,0,0,0.1C62.1,30.1,62.1,30.1,62.2,30.2 M12.4,99.6C12.4,99.6,12.4,99.6,12.4,99.6c0.1,0,0.1,0,0.1-0.1
	C12.5,99.5,12.5,99.5,12.4,99.6C12.4,99.5,12.4,99.5,12.4,99.6 M47.4,10.1c0,0,0.1,0.1,0.1,0.1c0,0,0-0.1,0-0.1
	C47.5,10.1,47.4,10.1,47.4,10.1 M74,33.6c0,0,0-0.1,0-0.1c0,0,0,0,0,0C74,33.5,74,33.6,74,33.6 M12,66.4
	C11.9,66.4,11.9,66.4,12,66.4C11.9,66.5,11.9,66.5,12,66.4 M12,65.1c0,0,0,0.1,0,0.1c0,0,0,0,0,0C12,65.2,12,65.2,12,65.1
	 M13.3,64.1c0,0,0,0.1,0,0.1C13.3,64.2,13.3,64.2,13.3,64.1C13.3,64.1,13.3,64.1,13.3,64.1 M52.6,15.1
	C52.6,15.1,52.6,15.1,52.6,15.1C52.6,15.1,52.6,15,52.6,15.1C52.6,15.1,52.6,15.1,52.6,15.1 M6.7,0.7C6.7,0.7,6.7,0.7,6.7,0.7
	C6.6,0.8,6.6,0.8,6.7,0.7C6.7,0.8,6.7,0.8,6.7,0.7 M13.2,55.2c0,0,0-0.1,0-0.1c0,0,0,0,0,0C13.2,55.1,13.2,55.1,13.2,55.2
	 M11.1,43.5C11,43.5,11,43.6,11.1,43.5C11,43.6,11,43.6,11.1,43.5 M13,89.6C13,89.6,13,89.6,13,89.6C13,89.5,13,89.5,13,89.6
	 M11,42.5C11,42.5,11,42.5,11,42.5C11,42.5,11,42.5,11,42.5 M11.1,40.3C11.1,40.3,11.1,40.3,11.1,40.3C11,40.3,11,40.3,11.1,40.3
	C11,40.3,11.1,40.3,11.1,40.3 M13.2,39.9C13.2,39.9,13.2,39.9,13.2,39.9C13.2,39.9,13.2,40,13.2,39.9 M12.1,88.7
	C12.1,88.7,12.1,88.7,12.1,88.7C12.1,88.7,12.1,88.7,12.1,88.7 M13.1,85.2C13.1,85.1,13.1,85.1,13.1,85.2
	C13.1,85.1,13,85.1,13.1,85.2 M8.7,1.2C8.7,1.2,8.7,1.2,8.7,1.2C8.7,1.2,8.7,1.2,8.7,1.2 M13.2,51.6C13.2,51.6,13.2,51.5,13.2,51.6
	C13.2,51.6,13.2,51.6,13.2,51.6 M13.3,53.5C13.2,53.5,13.2,53.5,13.3,53.5C13.2,53.5,13.2,53.6,13.3,53.5 M13.3,57.1
	C13.3,57.1,13.3,57.1,13.3,57.1C13.3,57.1,13.3,57.1,13.3,57.1 M13.1,75.5C13.1,75.5,13.1,75.5,13.1,75.5
	C13.1,75.4,13,75.4,13.1,75.5 M6.4,0.5C6.4,0.5,6.4,0.5,6.4,0.5C6.4,0.5,6.4,0.5,6.4,0.5 M52.3,14.8C52.3,14.8,52.3,14.7,52.3,14.8
	C52.3,14.7,52.3,14.7,52.3,14.8 M53.1,15.8C53.1,15.9,53.1,15.9,53.1,15.8C53.1,15.9,53.1,15.9,53.1,15.8 M13.1,25.3
	C13.1,25.3,13.1,25.4,13.1,25.3C13.1,25.4,13.1,25.4,13.1,25.3 M21.7,21.4C21.7,21.4,21.7,21.4,21.7,21.4
	C21.7,21.4,21.7,21.4,21.7,21.4 M21.1,22.4C21.1,22.4,21.1,22.4,21.1,22.4C21.1,22.4,21.1,22.4,21.1,22.4 M13.3,65
	C13.3,65,13.3,65,13.3,65C13.3,65,13.3,65,13.3,65 M17.9,23.5C17.9,23.5,18,23.5,17.9,23.5C17.9,23.5,17.9,23.5,17.9,23.5
	 M12.9,79.6C12.8,79.6,12.8,79.5,12.9,79.6C12.8,79.6,12.8,79.6,12.9,79.6 M12,66.8C11.9,66.8,11.9,66.8,12,66.8
	C11.9,66.8,11.9,66.8,12,66.8z"/>
</svg>
