<?xml version="1.0" encoding="utf-8"?>
<!-- Generator: Adobe Illustrator 26.1.0, SVG Export Plug-In . SVG Version: 6.00 Build 0)  -->
<svg version="1.1" id="Layer_1" xmlns="http://www.w3.org/2000/svg" xmlns:xlink="http://www.w3.org/1999/xlink" x="0px" y="0px"
	 viewBox="0 0 90 62.3" style="enable-background:new 0 0 90 62.3;" xml:space="preserve">
<g style='fill:#8dc63f;'>
	<path d="M80.8,36.4c0.2,1.5,0.4,3,0.7,4.4c0.3,1.5,0.7,3,1,4.5c0.4,2.1,1,4.2,2.2,6.2c0.4,0.7,0.6,1.4,1.1,2.1
		c0.2,0.3,0.6,0.6,1,0.8c0.1,0.1,0.4-0.2,0.6-0.3c0,0-0.1-0.3-0.1-0.4c-0.2-0.3-0.5-0.5-0.6-0.8c-0.5-1,0.4-2.1,1.5-2
		c0.8,0.1,1.8,0.7,2,1.4c0.2,0.6-0.1,2-0.8,2.5c-0.9,0.5-1.9,0.6-2.9,0.2c-1.5-0.6-2.6-1.7-3.6-2.9c-1-1.1-1.7-2.4-2-3.6
		c-0.6-2.2-1.4-4.3-2.4-6.4c-0.8-1.6-1.9-2.5-3.6-2.8c-1-0.2-2-0.6-3-0.9c-0.3-0.1-0.7-0.1-1-0.1c-0.1,0-0.2,0.2-0.2,0.3
		c-0.1,0.1-0.2,0.3-0.3,0.4c-1,0.2-1.8,0.9-2.6,1.5c-0.6,0.4-1.3,0.8-1.8,1.3c-1.6,1.3-2.7,3-3.6,4.9c-0.7,1.5-0.9,3.1-1.5,4.6
		c-0.6,1.4-1.1,2.7-1.3,4.2c-0.1,1.1-0.1,2.2,0,3.2c0.1,1.4,0.3,1.9-1.2,2.3c-0.8,0.2-1.5,0.7-2.2,1.2c-0.6,0.5-1.2,0.4-1.8,0.1
		c-0.5-0.3-0.9-1.2-0.7-1.7c0.2-0.5,0.7-0.9,1.5-0.7c0.7,0.2,1.1-0.1,1.3-0.6c0.4-0.7,0.7-1.5,1-2.2c0.2-0.9,0.4-1.8,0.4-2.6
		c0-1-0.3-1.9-0.4-2.9c0-0.5,0.1-0.9,0.1-1.4s-0.1-0.9-0.1-1.4c-0.1-1.4,0.2-2.8,0.5-4.1c0-0.1-0.1-0.4-0.2-0.4
		c-2.1,0.3-3.9-0.1-5.8-1.2c-2-1.2-4.2-1.8-6.3-2.6c-1.8-0.6-3.6-0.9-5.5-1.3c-3-0.6-6.1-1.4-9.1-2.1c-1-0.2-1.9-0.6-2.9-0.8
		c-0.2,0-0.4,0-0.5,0c0.1,0.2,0.1,0.4,0.2,0.5c1.1,1.1,1.7,2.4,2.2,3.9c0.5,1.7,0.9,3.3,0.8,5.1c0,0.5,0.3,1.1,0.6,1.7
		c0.1,0.1,0.6,0.2,0.8,0c0.5-0.4,1-0.3,1.3,0c0.4,0.4,1,0.7,0.8,1.6c-0.4,1.7-1.9,1.8-3.2,1.3c-1.4-0.5-2-1.6-2.6-2.9
		c-0.8-1.8-0.9-3.6-1.1-5.5c-0.3-2.2-1.2-4.1-3.2-5.2c-1.1-0.6-2.4-0.9-3.6-1.2c-1.4-0.3-2.9-0.4-4.4-0.6c-1.3-0.2-2.6-0.4-3.9-0.6
		c-1.3-0.2-2.2,0.4-2.9,1.4C8,36.9,7.5,38.8,7,40.6c-0.3,1-0.3,2.2-0.5,3.3c-0.4,1.9,0.3,3.5,0.9,5.2c0.5,1.6,0,2.5-1.9,2.7
		C4.3,51.9,3.1,52,2,52.2c-0.7,0.1-1.4-0.3-1.8-0.9c-0.3-0.6-0.3-1.2,0.3-1.6c0.3-0.2,0.8-0.3,1.1-0.2c0.7,0.2,1.4,0.4,2.2,0
		c0.6-0.3,0.9-0.8,0.9-1.5c0-1.7,0.2-3.5,0.3-5.2c0-1.1,0-2.2-0.1-3.3c-0.1-1.4,0.4-2.6,0.9-3.9c0.1-0.4,0.3-0.8,0.5-1.1
		c0.2-0.3,0.5-0.5,0.8-0.7c0.1-0.1,0.3-0.2,0.5-0.3C7.3,33.2,7.1,33,6.9,33c-1.1,0-1.7-0.8-2.4-1.5c-0.9-1-1.5-2.3-1.6-3.7
		c-0.1-1.1,0.5-2.6,1.6-2.8c0.6-0.1,1.2,0.2,1.7,0.2c0.4,0,0.9,0.1,1.3-0.1c0.3-0.1,0.6-0.5,0.2-0.9c-0.7-0.9-1.4-1.7-2.1-2.7
		c-0.5-0.8-0.9-1.7-0.9-2.7c0-1-0.2-1.9,0.2-2.8c0.5-1.1,1.4-1.8,2.6-2.1c1.2-0.3,2.3-0.5,3.5-0.8c1.9-0.5,3.9-1,5.8-1.4
		c0.1,0,0.2,0,0.3,0c1.2,0,1.3-0.2,1.8-1.3c0.4-1,0.7-2,1.2-2.9c0.7-1.1,1.5-2.1,2.3-3.1c0.9-1,1.9-1.9,2.9-2.7
		c1.6-1.4,3.5-1.9,5.6-1.5c0.4,0.1,0.7,0,1.1,0c1.9,0,3.7,0.5,5.6,0.8c1.6,0.3,3.2,0.5,4.7,0.8c1,0.2,1.9,0.3,2.9,0.5
		c0.2,0,0.3,0.1,0.5,0.1c1.3,0,2.6,0,3.9,0c2,0.1,4,0.4,5.9,0.8c0.8,0.2,1.7,0,2.6,0.1c0.7,0,1.4,0.2,2.1,0.3
		c0.7,0.1,1.4,0.3,2.2,0.4c1.7,0.2,3.5,0.4,5.2,0.6c1.5,0.2,3,0.6,4.5,0.9c1,0.2,2,0.2,3,0.3C76.3,6,77.6,6,78.9,6.7
		c0.3,0.2,0.7,0.1,1,0.3c0.5,0.3,0.9,0.8,1.4,1.1c0.6,0.5,0.2,1.1,0.2,1.7c0,0.8-0.2,1.4-0.7,1.9c-0.1,0.1-0.2,0.4-0.2,0.6
		c0.4,1.4-0.2,2.8-0.4,4.1c0,0,0,0.1,0,0.1c-0.1,1.8-0.3,3.5-0.3,5.3c0,1.3,0.2,2.7,0.3,4c0.1,1.6,0.2,3.1,0.3,4.7
		C80.4,32.4,80.6,34.4,80.8,36.4 M76.6,14.6c-0.1-0.2-0.2-0.5-0.3-0.6c-0.7-0.2-1.4-0.4-2.1-0.5c-1.1-0.2-2.1-0.2-3.2-0.3
		c-0.5-0.1-1.1-0.1-1.6-0.2c-1.5-0.3-3-0.7-4.5-0.9c-2.2-0.2-4.3-0.4-6.5-0.5c-1.5-0.1-3-0.1-4.5-0.2c-0.6,0-1.3-0.1-1.9-0.2
		c-1.3-0.2-2.6-0.4-3.9-0.6c-0.9-0.1-1.7-0.3-2.6-0.4c-1.1-0.2-2.1-0.5-3.2-0.5c-1.2,0-2.3-0.2-3.4-0.5c-1-0.3-1.9-0.9-2.8-1.1
		c-1.9-0.4-3.9-0.5-5.9-0.8c-0.6-0.1-1.2-0.1-1.8-0.2c-1.8-0.4-3.5-0.9-5.4-0.7c-1,0.1-1.8,0.2-2.1,1.3c0,0.1-0.2,0.3-0.3,0.4
		c-0.3,0.6-0.6,1.3-0.8,1.9c0,0.1,0.1,0.2,0.1,0.3c0.1,0,0.2-0.1,0.2-0.1c0.3-0.6,0.9-0.5,1.4-0.5c1.1,0.1,2.2,0.2,3.3,0.3
		c1.5,0.2,2.9,0.4,4.4,0.6c1.6,0.2,3.1,0.4,4.7,0.6c1.4,0.2,2.7,0.4,4.1,0.6c1.1,0.2,2.2,0.5,3.2,0.7c1.8,0.4,3.5,0.8,5.3,1.2
		c1,0.2,2.1,0.3,3.1,0.5c1.7,0.2,3.4,0.4,5.1,0.6c0.8,0.1,1.6,0.2,2.3,0.4c2,0.4,4,0.8,6,1.1c1.1,0.2,2.2,0.1,3.2,0.5
		c1.5,0.6,3.1,0.6,4.6,0.7c1.4,0,2.8-0.3,4.2-0.6c1.3-0.3,1.3-0.4,1.3-1.7C76.6,15.1,76.6,14.9,76.6,14.6 M25.7,22
		c-1.2-0.1-2.3-0.2-3.5-0.3c-1.6-0.2-3.1-0.4-4.7-0.6c-0.4,0-0.8,0-1.1-0.4c-0.1-0.1-0.5-0.1-0.5,0c-0.4,1-1,1.8-1.9,2.4
		c-0.1,0-0.1,0.1-0.2,0.2c0.1,0,0.2,0,0.2,0c0.5-0.2,0.7,0,0.9,0.4c0.1,0.1,0.2,0.3,0.3,0.4c1,0.2,1.9,0.6,2.9,0.6
		c1.6,0,3.2,0.4,4.7,0.9c0.9,0.3,1.8,0.8,2.7,1.1c0.8,0.3,1.6,0.4,2.4,0.7c1.5,0.5,3,1.1,4.5,1.6c1.2,0.4,2.4,0.6,3.6,0.8
		c1.6,0.2,3.2,0.2,4.9,0.3c1,0.1,2,0.2,2.9,0.4c1.3,0.2,2.5,0.5,3.8,0.8c2.1,0.4,4.2,0.8,6.3,1.3c1.5,0.3,3,0.7,4.5,1.3
		c1.2,0.5,2.6,0.5,3.6,1.5c0.3,0.3,0.9,0.4,1.3,0.5c0.2,0.1,0.6,0,0.4-0.3c-0.4-0.8-0.9-1.6-1.5-2.2c-0.8-0.8-1.7-1.5-2.5-2.2
		c-0.4-0.4-0.8-0.8-1.3-1c-1.5-0.4-3-0.7-4.5-1.1c-1.7-0.5-3.4-1-5.1-1.5c-0.5-0.2-1-0.4-1.5-0.6c-1.9-0.5-3.7-0.9-5.6-1.3
		c-1.2-0.3-2.4-0.5-3.6-0.8c-1.1-0.2-2.1-0.5-3.1-0.7c-1.4-0.3-2.9-0.4-4.2-0.8C29.3,22.8,27.6,22.4,25.7,22 M30.7,20
		c0.7,0.1,1.4,0.2,2.1,0.4c1,0.2,1.9,0.5,2.9,0.7c0.8,0.2,1.7,0.1,2.5,0.3c2.1,0.6,4.1,1.4,6.3,1.6c1.5,0.1,3.1,0.6,4.6,0.7
		c1.8,0.1,3.5,0.4,5.2,0.9c0.8,0.2,1.5,0.4,2.3,0.6c0.5,0.1,0.7-0.1,0.7-0.7c0-0.6,0-1.3,0.2-1.9c0.1-0.5,0-1.1,0.7-1.3
		c0.1,0,0.1-0.2,0.1-0.4c0-0.1-0.2-0.1-0.3-0.1c-0.5,0-1.1,0.1-1.5-0.1c-1.7-0.6-3.4-1.3-5.2-1.9c-0.6-0.2-1.3-0.4-2-0.4
		c-0.7-0.1-1.4,0-2.1-0.2c-2.9-0.7-5.7-1.6-8.7-1.8c-2-0.2-4.1-0.3-6.1-0.5c-0.5,0-1.1-0.1-1.6-0.2c-1.8-0.4-3.6-0.9-5.5-0.8
		c-0.4,0-0.8,0-1.2,0c-1.6-0.2-3.2-1-4.9-0.9c-0.5,0-0.8,0.2-1,0.6c-0.2,0.7-0.5,1.4-0.7,2.1c-0.1,0.2,0,0.4,0.3,0.4
		c0.6,0.1,1.3,0.3,1.9,0.4c1.1,0.2,2.1,0.4,3.2,0.6c1.2,0.2,2.5,0.5,3.7,0.8C28,19.2,29.3,19.6,30.7,20 M76.4,10.1
		c-1.6-0.2-3.2-0.5-4.8-0.7c-2.1-0.3-4.1-0.7-6.2-0.9C63,8.3,60.6,8.2,58.1,8c-0.2,0-0.4,0-0.6,0c-1.6-0.3-3.2-0.6-4.8-0.9
		c-1.8-0.3-3.7-0.5-5.6-0.8C45.1,6,43,5.7,40.9,5.7c-1.3,0-2.5-0.4-3.7-0.7c-1.6-0.4-3.2-1-4.9-1.4c-1.8-0.5-3.7-0.8-5.5-1.2
		C26,2.3,25.5,2.4,25,3c-0.6,0.7-1.2,1.2-1.9,1.9c-0.2,0.2-0.4,0.4-0.5,0.6c-0.1,0.2,0,0.4,0,0.5c0.2,0,0.3-0.1,0.5-0.1
		c0.1,0,0.3-0.1,0.4-0.1c0.8,0,1.7,0,2.5,0.2c2.3,0.3,4.5,0.8,6.8,1c2,0.2,3.9,0.4,5.7,1.2c1.4,0.7,2.9,1,4.5,0.9
		c1,0,1.9,0.3,2.9,0.5c1.2,0.2,2.4,0.4,3.5,0.5c0.3,0,0.6,0,0.9,0c1.3,0.2,2.6,0.4,3.9,0.6c1,0.1,2.1,0,3.1,0
		c1.6,0.1,3.1,0.3,4.7,0.4c1,0.1,2.1,0.1,3.1,0.2c0.5,0,0.9,0.1,1.4,0.2c1.6,0.3,3.2,0.6,4.9,0.8c1.6,0.2,3.1,0.2,4.6,0.7
		c0.4,0.1,0.9,0.1,0.8-0.6c0-0.6,0-1.1,0-1.7C76.8,10.7,76.6,10.4,76.4,10.1 M35.2,37.2c2.2,0.4,4.5,0.7,6.7,1.3
		c2.2,0.5,4.4,1.2,6.5,2c1.6,0.6,3.2,1.4,4.7,2.2c1.4,0.8,2.8,0.5,4.2,0.6c0.2,0,0.4-0.2,0.5-0.4c0.1-0.4,0.3-0.9,0.3-1.3
		c0-0.2-0.2-0.6-0.4-0.7c-0.7-0.3-1.4-0.4-2.2-0.6c-0.4-0.1-0.8-0.2-1.1-0.3c-0.2-0.1-0.3-0.2-0.5-0.3c-0.7-0.2-1.4-0.3-2.1-0.5
		c-2.2-0.5-4.4-1.1-6.6-1.6c-1.1-0.3-2.2-0.5-3.4-0.8c-0.4-0.1-0.7-0.2-1.1-0.3c-1.3-0.2-2.5-0.4-3.8-0.7c-1-0.2-2-0.6-3-0.6
		c-1.8,0-3.3-0.8-4.9-1.2c-1.9-0.5-3.7-1.2-5.5-1.8c-1-0.3-2.1-0.6-3.2-0.9c-1.5-0.4-3.1-0.7-4.6-1c-1.1-0.2-2.2-0.5-3.3-0.7
		C11,29.3,9.6,29,8.3,28.7C7.4,28.5,6.6,28,5.6,28c-0.4,0-0.8-0.6-1.2-1c-0.1-0.1-0.2-0.4-0.3-0.6c-0.1,0.2-0.3,0.4-0.4,0.6
		c-0.1,0.1-0.1,0.3-0.1,0.4c-0.1,1.3,0.5,2.3,1.2,3.3c0.5,0.8,1.2,1.5,2.3,1.5c0.5,0,0.9,0.1,1.4,0.2c1.1,0.2,2.3,0.5,3.4,0.7
		c1.4,0.3,2.9,0.5,4.3,0.7c1.3,0.2,2.7,0.3,4,0.5c0.4,0,0.9,0,1.3,0.1c1.2,0.2,2.4,0.4,3.7,0.5c0.8,0.1,1.6,0,2.4,0.2
		c1.5,0.4,3,0.9,4.5,1.3C33.1,36.7,34.1,36.9,35.2,37.2 M58.4,7.3c2.3,0.2,4.5,0.3,6.8,0.5c1.3,0.1,2.7,0.4,4,0.6
		c1.1,0.2,2.2,0.3,3.3,0.5C73.6,9,74.8,9.1,76,9.3c0.7,0.1,1.1,0,1.3-0.7c0.1-0.3,0.2-0.5,0.4-0.7c0.2-0.2,0.4-0.4,0.6-0.6
		c-0.3-0.1-0.6-0.2-0.9-0.3c-0.1,0-0.2,0-0.3,0c-1.4-0.1-2.8-0.2-4.1-0.3c-0.1,0-0.2-0.1-0.3-0.1c-1-0.2-2-0.4-3-0.5
		c-1.5-0.2-2.9-0.7-4.4-0.5c0,0-0.1,0-0.1,0c-2-0.9-4.1-0.8-6.2-1.1c-1.6-0.3-3.2-0.2-4.8-0.6c-2-0.5-4-0.8-6.1-0.6
		c-1.2,0.1-2.5,0-3.7-0.1C43.2,3,42,2.7,40.8,2.4c-1.2-0.3-2.4-0.6-3.6-0.8c-1.5-0.2-3-0.4-4.5-0.6c-1.9-0.3-3.8-0.3-5.6,0.4
		c-0.2,0.1-0.3,0.2-0.4,0.3C26.8,1.9,26.9,2,27.1,2c1.2,0.2,2.4,0.3,3.6,0.6c2.4,0.6,4.7,1.3,7.1,1.8C38.9,4.8,40,4.9,41.2,5
		c0.5,0.1,1.1,0,1.6,0c1.6,0.2,3.1,0.4,4.7,0.6c0.6,0.1,1.2,0.1,1.7,0.2c1,0.2,2,0.4,3,0.5c1,0.2,1.9,0.3,2.9,0.4
		C56.2,7,57.2,7.1,58.4,7.3 M38.9,13c-0.6-0.1-1.3-0.2-1.9-0.3c-0.9-0.2-1.9-0.4-2.8-0.5c-0.9-0.1-1.7-0.1-2.6-0.2
		c-2.1-0.3-4.2-0.7-6.3-1c-0.9-0.1-1.8-0.1-2.7-0.3c-1.4-0.3-2.4,0-3.1,1.1c-0.2,0.3-0.3,0.6-0.3,1c0,0.1,0.5,0.2,0.8,0.3
		c0.1,0,0.2,0.1,0.3,0.1c1.4,0.7,3,1,4.6,1c0.9,0,1.8,0.1,2.7,0.2c0.4,0,0.9,0.2,1.3,0.2c1.4,0.2,2.8,0.5,4.3,0.7c0.7,0.1,1.3,0,2,0
		c1.4,0.2,2.8,0.6,4.2,0.5c2-0.1,3.7,0.8,5.6,1c1.1,0.2,2.1,0.4,3.2,0.7c1.3,0.3,2.6,0.4,3.8,0.8c1.6,0.4,3.1,1.1,4.6,1.5
		c1.3,0.4,2.6,0.5,3.5-0.9c0.2-0.3,0.4-0.5,0.7-0.7c0.3-0.2,0.6-0.4,0.9-0.4c0.9-0.1,1.7-0.1,2.6-0.2c0.1,0,0.2-0.1,0.4-0.1
		c-0.1-0.1-0.2-0.3-0.3-0.3c-0.5-0.1-0.9-0.1-1.4-0.2c-0.9-0.1-1.9,0-2.8-0.2c-2.1-0.3-4.2-0.8-6.3-1.2c-2-0.3-4-0.6-6-0.9
		c-1.6-0.3-3.2-0.7-4.7-1C41.7,13.6,40.3,13.4,38.9,13 M22.1,26.1c-1.4-0.2-2.8-0.5-4.2-0.8c-0.9-0.2-1.8-0.4-2.7-0.8
		c-1.4-0.6-2.6-0.6-3.7,0.5c-0.2,0.2-0.4,0.2-0.6,0.3c-0.1,0.1-0.2,0.1-0.3,0.2c0.2,0.1,0.3,0.3,0.5,0.3c0.7,0.2,1.4,0.4,2,0.6
		c1,0.3,2,0.5,3,0.8c1,0.3,2,0.5,3.1,0.7c1,0.3,1.9,1,3.1,0.9c0.6,0,1.1,0.1,1.7,0.2c1.1,0.2,2.2,0.5,3.3,0.8
		c1.8,0.4,3.6,0.5,5.4,1.2c2.1,0.8,4.3,1.3,6.4,1.8c2.3,0.6,4.5,1.3,6.9,1.4c0.5,0,1,0.1,1.5,0.2c1.2,0.3,2.4,0.6,3.6,0.9
		c2.6,0.7,5.2,1.3,7.8,1.9c0.5,0.1,1.1,0.2,1.3-0.6c0-0.1,0.3-0.3,0.5-0.3c0.6,0,1.2,0.2,1.8,0.2c0.1,0,0.3,0,0.4,0
		c-0.1-0.1-0.1-0.3-0.2-0.3c-0.5-0.2-0.9-0.5-1.4-0.7c-1-0.5-1.9-1-3-1.3c-1.2-0.4-2.5-0.8-3.8-1.1c-1-0.2-2-0.4-3-0.6
		c-1.6-0.3-3.3-0.6-4.9-0.9c-1.2-0.2-2.3-0.6-3.6-0.7c-1-0.1-2-0.4-3-0.5c-1-0.1-1.9,0-2.9,0c-0.8,0-1.6-0.1-2.3-0.3
		c-1.5-0.4-3-0.7-4.5-1.5c-0.9-0.5-2.1-0.7-3.2-1C25.4,27.2,23.8,26.7,22.1,26.1 M18.2,30.1c0.5,0.1,0.9,0.3,1.4,0.4
		c1.5,0.4,3,0.6,4.5,1c1.3,0.4,2.6,0.9,3.9,1.3c1.5,0.4,2.9,0.8,4.4,1.2c1.4,0.3,2.8,0.6,4.3,0.9c1.5,0.3,3,0.6,4.5,0.9
		c1.3,0.3,2.5,0.6,3.8,0.9c1.7,0.4,3.4,0.8,5.2,1.2c2.4,0.6,4.7,1.3,7.1,1.9c1.1,0.3,1.1,0.3,1.7-0.7c0.1-0.1,0.2-0.2,0.3-0.3
		c0.1-0.2,0.2-0.3,0.2-0.5c-0.2-0.1-0.5-0.2-0.6-0.1c-0.5,0.3-1.1,0.1-1.4-0.2c-1-0.8-2.2-0.8-3.4-1.1c-1.5-0.5-3.2-0.6-4.8-0.9
		c-1.8-0.4-3.7-0.8-5.5-1.2c-1.1-0.2-2.2-0.4-3.3-0.6c-2.4-0.5-4.8-1.1-7.1-1.9c-0.9-0.3-1.9-0.5-2.9-0.8c-1.3-0.3-2.6-0.6-3.9-0.9
		c-1.6-0.3-3.3-0.5-4.9-0.9c-1.9-0.5-3.7-1.4-5.8-1.7c-1.3-0.1-2.5-0.6-3.8-0.8c-0.7-0.1-1.2-0.5-1.9-0.5c-0.1,0-0.3-0.3-0.3-0.4
		c0-0.4-0.2-0.3-0.4-0.1c-0.4,0.4-0.8,0.7-1.2,1.1c-0.1,0.1-0.2,0.3-0.3,0.5c0.2,0.1,0.4,0.2,0.6,0.3c1.1,0.2,2.2,0.2,3.3,0.5
		C13.9,29,16,29.6,18.2,30.1 M57.9,28.1c-0.1-0.6-0.3-1.1-0.5-1.6c-0.1-0.2-0.4-0.5-0.5-0.5c-1.2,0.1-2.2-0.5-3.3-0.7
		c-1.3-0.3-2.6-0.7-3.9-0.6c-0.5,0-0.9-0.1-1.4-0.1c-1.5-0.2-2.9-0.5-4.4-0.7c-1.2-0.2-2.4-0.5-3.5-0.7c-1.1-0.3-2.1-0.7-3.2-0.9
		c-1.7-0.3-3.4-0.5-5-1c-1.5-0.5-3.1-0.7-4.7-1.1c-2.3-0.5-4.7-1-7-1.5c-1-0.2-2-0.4-2.9-0.8c-0.6-0.4-0.6,0.1-0.8,0.3
		c-0.2,0.3-0.2,0.7-0.4,1.1c-0.4,0.9-0.4,0.9,0.5,1.1c1.4,0.3,2.7,0.5,4.1,0.7c0.5,0.1,1,0,1.6,0c2,0,3.9,0.6,5.9,0.9
		c0.5,0.1,1,0.3,1.6,0.4c2.1,0.5,4.1,0.9,6.2,1.4c2,0.4,4,0.9,6.1,1.3c1.6,0.4,3.2,0.7,4.8,1.1c2.2,0.7,4.4,1.4,6.7,2.1
		c1.2,0.4,2.4,0.7,3.7,1c0.3,0.1,0.6,0.1,0.9,0.1c-0.1-0.3-0.2-0.6-0.3-0.9C58.1,28.3,58.1,28.2,57.9,28.1 M16.3,17.6
		c0.2-0.7,0.5-1.3,0.7-2c0.1-0.2,0.1-0.5,0-0.6c-0.2-0.1-0.5-0.2-0.7-0.1c-1.6,0.4-3.3,0.8-4.9,1.1C10.2,16.4,9,16.6,8.3,18
		c-0.5,1-0.4,2.1,0.2,2.8c0.9,1,1.8,2,1.6,3.5c0,0.1,0.1,0.3,0.2,0.3c0.1,0,0.3-0.1,0.4-0.2c0.1-0.1,0.2-0.1,0.3-0.2
		c1.2-1,2.6-1.7,3.6-3c0.7-0.9,0.7-0.8-0.1-1.5c-0.1-0.1-0.2-0.3-0.3-0.4c0.1,0,0.3-0.1,0.4-0.1c0.8,0.1,1.2-0.1,1.4-0.9
		C16,18.2,16.2,18,16.3,17.6 M67.6,23.9c-0.7-0.2-1.4-0.3-2.1-0.5c-0.8-0.2-1.5-0.5-2.3-0.7c-0.3-0.1-0.6-0.1-0.6,0.4
		c0,0.6-0.2,1.2-0.1,1.8c0.1,0.5,0.2,1.3,0.6,1.5c0.9,0.4,2,0.6,3,0.8c1.3,0.3,2.6,0.5,3.9,0.8c1.5,0.3,3,0.6,4.5,0.9
		c0.6,0.1,0.6-0.2,0.5-0.7c-0.1-0.8,0-1.7-0.1-2.6c0-0.2-0.3-0.6-0.6-0.6c-1.2-0.2-2.5-0.3-3.8-0.5C69.6,24.3,68.6,24.1,67.6,23.9
		 M68.1,28.5c-1.4-0.2-2.7-0.4-4.1-0.6c-0.2,0-0.4-0.1-0.7-0.1c0.1,0.2,0.1,0.5,0.2,0.7c0.6,0.7,1.3,1.4,1.8,2.2
		c0.4,0.6,1,0.8,1.7,0.8c0.2,0,0.4,0.1,0.6,0.1c1.1,0.4,2.1,0.9,3.2,1.2c1.5,0.4,3.1,0.5,4.5,1.3c0,0,0.3-0.2,0.3-0.3
		c-0.2-1-0.3-2.1-0.6-3.1c-0.1-0.3-0.4-0.7-0.8-0.8c-1.6-0.4-3.3-0.7-4.9-1.1C69.1,28.6,68.7,28.5,68.1,28.5 M68,18.9
		c-0.3,0-0.6-0.1-1-0.1c-0.9,0-1.7,0-2.6,0.1c-1.8,0.3-2.9,0.7-3.6,2.8c-0.2,0.4-0.4,0.9-0.5,1.3c-0.3,0.8-0.6,1.6-0.2,2.5
		c0.4,1,0.7,2.1,1.2,3c0.4,0.8,1,1.5,1.6,2.2c0.7,0.8,1.5,1.5,2.3,2.3c0.1,0.1,0.2,0.1,0.3,0.1c0.1-0.1,0.2-0.3,0.1-0.3
		c-0.5-0.9-1-1.8-1.6-2.6c-0.3-0.4-0.7-0.7-1-1.1c-0.5-0.6-0.9-1.2-1.3-1.8c-0.1-0.2-0.1-0.4-0.1-0.6c0-0.3,0.1-0.5,0.1-0.7
		c0-0.8-0.2-1.7-0.1-2.5c0.1-1.1,0.4-2.3,1.7-2.7c0.9-0.3,1.8-0.5,2.7-0.7c1.1-0.2,2.2-0.5,3.4-0.2c1.5,0.4,3.1,0.8,4.7,0.3
		c0.6-0.2,1.2-0.5,1.8-0.8c0.1,0,0.1-0.2,0.2-0.3c-0.1,0-0.3,0-0.4,0c-0.9,0-1.8,0.1-2.6,0.1c-0.9,0-1.9-0.2-2.8-0.3
		C69.6,18.8,68.9,18.9,68,18.9 M73.2,24.2c0.3,0,0.5,0,0.8,0c0.6,0,0.9-0.1,0.9-0.8c0-0.4,0-0.9,0.2-1.2c0.2-0.5,0.6-0.8,0.9-1.2
		c0.1-0.1,0.1-0.4,0.1-0.5c-0.2,0-0.4-0.1-0.6,0c-0.7,0.2-1.4,0.4-2.2,0.6c-0.9,0.2-1.8,0.3-2.8-0.1c-0.5-0.2-1.1-0.3-1.6-0.3
		c-1.8-0.1-3.4,0.4-5.1,0.7c-0.4,0.1-0.6,0.5-1,0.8c0,0,0,0.2,0,0.2c0,0,0.2,0.1,0.2,0c0.6-0.7,1.3-0.3,1.8-0.1
		C67.6,23.1,70.3,23.6,73.2,24.2 M66.5,37.5c0,0.5,0.2,0.3,0.5,0.1c0.4-0.4,0.7-0.9,1.3-1c0.3,0,0.7,0,1-0.2
		c1.5-0.6,2.9-0.6,4.4-0.3c0.7,0.1,1.4,0.4,2,0.6c0.4,0.1,0.5,0.2,0.4-0.4c-0.1-1.1-0.3-1.8-1.5-2.1c-1.2-0.3-2.3-1.1-3.7-0.7
		c-0.1,0-0.2,0-0.3-0.1c-0.8-0.9-1.9-1-2.9-1.4c-0.4-0.2-0.9-0.1-1.3-0.1c-0.1,0-0.3,0.3-0.3,0.4c0.1,0.8,0.3,1.6,0.5,2.4
		C67.1,35.8,67.2,36.7,66.5,37.5 M8.1,23.7c0.2,0.1,0.5,0.3,0.7,0.4c0-0.3,0-0.5,0-0.8c0-0.1-0.1-0.2-0.1-0.3
		c-0.1-1.4-1.3-2.3-1.4-3.7c-0.1-1,0.5-2.7,1.4-3.3c0.8-0.6,1.7-0.8,2.6-1c1.3-0.3,2.6-0.6,3.9-0.8c1-0.1,1.9-0.4,2.7-0.9
		c0.1-0.1,0.2-0.4,0.2-0.5c-0.1-0.1-0.3-0.2-0.5-0.2c-0.3,0-0.7,0.2-1,0.2c-1.5,0.4-3,0.7-4.5,1c-1.2,0.2-2.4,0.3-3.6,0.6
		c-3,0.7-3.5,2.5-2.9,5C5.9,21.2,7.1,22.3,8.1,23.7 M80,39.4c0.4,0.4,0.4,0.1,0.4-0.2c-0.2-1.4-0.6-2.8-0.7-4.2
		c-0.1-2.3-0.3-4.5-0.6-6.7c-0.2-1.6,0-3.2,0-4.9c0-0.3,0.2-0.7,0.1-1c0-0.2-0.3-0.3-0.4-0.5c-0.1,0.2-0.4,0.3-0.4,0.5
		c-0.1,0.5,0,1.1,0,1.6c0,0.8,0.2,1.6-0.6,2.3c-0.1,0.1-0.2,0.4-0.2,0.7c0,1.4,0,2.8,0,4.1c0,0.2,0.1,0.5,0.1,0.7
		c0,0.8,0,1.6,0.1,2.4c0.1,1,0.5,1.9,0.6,2.9c0,0.7,0.4,1,0.8,1.4C79.5,38.8,79.7,39,80,39.4 M69.4,38c0.5-0.1,0.9-0.4,1.4-0.4
		c1.2-0.1,2.3,0.3,3.4,0.7c1.3,0.4,2.7,0.7,3.6,2c0.1,0.1,0.3,0.1,0.4,0.1c0-0.1,0-0.3-0.1-0.4c-0.3-0.4-0.8-0.7-1-1.1
		c-0.4-0.8-0.9-1.2-1.8-1.3c-1-0.2-2-0.5-3-0.7c-1.2-0.2-2.4,0.2-3.6,0.6c-1.9,0.6-3.5,1.6-4.8,3c-1.1,1.2-2,2.5-3,3.9
		c-0.6,0.8-1,1.7-1.4,2.6c-0.3,0.6-0.4,1.2-0.5,1.8c-0.1,0.6-0.1,1.2-0.1,1.8c0,0.1,0.2,0.3,0.3,0.4c0.1-0.1,0.2-0.1,0.3-0.2
		c0.2-0.5,0.3-1,0.5-1.5c0.5-1.4,1-2.9,1.7-4.2c0.6-1.1,1.5-1.9,2.1-2.9c1.1-1.7,2.7-2.6,4.3-3.5C68.6,38.4,68.9,38.2,69.4,38
		 M26,36c-0.3-0.1-0.6-0.2-0.9-0.3c-0.1,0-0.3,0-0.5,0.1c0.1,0.1,0.2,0.3,0.3,0.4c1.8,1.3,2.8,3.1,3,5.2c0.2,2,0.5,3.9,1.2,5.7
		c0.5,1.3,1.9,2.6,3.5,2.3c0.3-0.1,0.6-0.5,0.9-0.8c0.1-0.1-0.2-0.5-0.3-0.6c-0.3-0.1-0.7,0-1,0c-0.4,0-0.9,0.2-1.1,0
		c-0.8-0.5-1.1-1.3-1.2-2.2c-0.2-1.5-0.1-2.9-0.6-4.4C28.7,39.3,27.9,37.3,26,36 M59.3,25.3c0-0.6,0-1.2,0.1-1.7
		c0.3-1.1,0.8-2.1,1.2-3.2c0-0.1,0-0.3,0-0.4c-0.1,0-0.3,0-0.4,0.1c-0.6,0.9-1.4,1.8-1.8,2.8c-0.4,1.2-0.5,2.4-0.2,3.7
		c0.4,1.7,1.3,3,2.5,4.2c1.2,1.1,2.4,2.3,3.5,3.5c0.4,0.5,0.4,1.3,0.6,1.9c0,0.1,0,0.3-0.1,0.4c0.2-0.1,0.4-0.1,0.5-0.2
		c0.7-0.6,0.6-1.9-0.2-2.7c-0.9-0.9-1.8-1.8-2.7-2.8C60.7,29.4,60.1,27.3,59.3,25.3 M8.3,33.6c-0.9,0.3-1.4,1-1.8,1.8
		c-0.2,0.5-0.4,0.9-0.5,1.4c-0.2,0.8-0.6,1.7-0.6,2.5c-0.1,1.2,0.1,2.3,0.1,3.5c0,0.2,0,0.4,0,0.6c0,0.1,0.1,0.1,0.1,0.2
		c0.1-0.1,0.1-0.1,0.2-0.2C5.9,43,6,42.5,6.1,42c0.2-1,0.2-1.9,0.5-2.9c0.2-0.8,0.5-1.7,1-2.5c0.6-1,0.9-2.3,2.3-2.5
		c0.1,0,0.2-0.2,0.3-0.3c-0.1-0.1-0.2-0.3-0.4-0.3C9.3,33.5,8.8,33.6,8.3,33.6 M5.5,44.6c-0.1,0.3-0.1,0.7-0.1,1c0,0.8,0,1.7,0,2.5
		c0,0.7-0.1,1.4-0.9,1.8c-0.9,0.5-1.7,0.9-2.7,0.3c-0.1-0.1-0.3-0.1-0.3,0c-0.3,0.1-0.5,0.3-0.8,0.5c0.2,0.2,0.4,0.5,0.7,0.7
		c0.1,0.1,0.3,0,0.5,0C3,51.3,4.3,51.1,5.5,51c1.1-0.1,1.6-0.9,1.2-2c-0.6-1.3-1-2.7-0.9-4.1C5.8,44.8,5.6,44.7,5.5,44.6 M60.9,40.5
		c0,0.1,0,0.2-0.1,0.3c-0.7,1.1-0.8,2.4-1,3.7c0,0.2,0.1,0.4,0.1,0.5c0.1-0.1,0.3-0.2,0.3-0.4c0.8-1.3,1.5-2.7,2.4-3.9
		c0.5-0.6,1.1-1.1,1.8-1.7c0.4-0.3,0.8-0.5,1.2-0.8c0.1,0,0-0.2,0.1-0.2c-0.1,0-0.1,0.1-0.2,0.1c-1,0-2,0.8-3.1,0.4
		c-0.1,0-0.2,0-0.2,0.1C61.8,39.2,61.4,39.8,60.9,40.5 M82,49.3c0.3,0.6,0.6,1.1,1,1.7c0,0.1,0.1,0.1,0.2,0.2c0-0.1,0.1-0.2,0.1-0.3
		c-0.2-0.6-0.3-1.3-0.6-1.9c-0.6-1-0.7-2.1-1-3.1c-0.6-2-0.8-4.2-1.9-6c-0.2-0.3-0.5-0.6-0.8-0.9c0,0.4,0,0.9,0.1,1.3
		c0.4,1.5,0.9,3,1.4,4.5C81,46.3,81.5,47.8,82,49.3 M57.7,58.4c-0.3,0.7-0.6,1.4-1.3,1.7c-0.5,0.2-1,0.4-1.6,0.4
		c-0.5,0-0.6,0.3-0.5,0.7c0.1,0.3,0.3,0.5,0.8,0.3c1-0.6,2.1-1,3.2-1.5c0.2-0.1,0.3-0.4,0.3-0.6c0-0.4-0.1-0.8-0.1-1.2
		c0-0.3-0.1-0.6-0.2-1c-0.1,0.2-0.3,0.5-0.4,0.7C57.8,58.1,57.8,58.2,57.7,58.4 M58,46.7c0,1.5,0,3.1,0,4.6c0,0.2,0.1,0.3,0.2,0.5
		c0-0.1,0.1-0.3,0.1-0.4c-0.2-2.4,0.5-4.8,0.6-7.1c0-0.2,0-0.3,0-0.5c-0.2,0.2-0.5,0.3-0.6,0.5C58.2,45,58.1,45.8,58,46.7
		 M87.2,52.1c0.1,0.3,0.2,0.6,0.4,0.8c0.4,0.3,0.8,0.6,0.7,1.2c0,0.1,0.1,0.2,0.2,0.3c0.1-0.1,0.2-0.1,0.3-0.2
		c0.2-0.4,0.3-0.9,0.4-1.3c0.2-0.6-0.3-1-0.6-1.2C88.1,51.4,87.6,51.6,87.2,52.1 M77.4,12.7c0,0.5,0,1.1,0,1.6
		c0,0.4-0.1,0.7-0.2,1.1c0,0.2,0.1,0.3,0.2,0.5c0.1-0.1,0.3-0.3,0.3-0.4c0-0.7,0.7-1.4,0-2.2c-0.1-0.1,0.1-0.3,0.1-0.5
		c0-0.7,0-1.5-0.1-2.2c0-0.1-0.2-0.2-0.3-0.2c0,0.1-0.1,0.1-0.1,0.2C77.4,11.2,77.4,11.9,77.4,12.7 M76,27.5c0-0.1-0.1-0.2-0.1-0.2
		c0-0.5,0-0.9,0-1.4c0-0.1-0.3-0.2-0.4-0.4c0,0.1-0.1,0.3-0.1,0.4c0,0.1,0,0.2,0,0.4c0,0.9,0.1,1.8,0.1,2.6c0,0.1,0.2,0.3,0.4,0.4
		c0.1-0.1,0.2-0.3,0.2-0.4C76,28.5,76,28.1,76,27.5 M77.3,21.2c0-0.1-0.1-0.2-0.1-0.3c0-0.1-0.1-0.2-0.1-0.4
		c-0.1,0.1-0.1,0.3-0.2,0.4c-0.1,0.5-0.1,1-0.2,1.5c0,0.5,0,0.9,0,1.4c0,0.1,0.1,0.2,0.2,0.2c0-0.1,0.1-0.1,0.1-0.2
		C77.5,23.1,77.3,22.2,77.3,21.2 M78.7,20.2c0.1-0.4,0.2-0.8,0.3-1.3c0-0.1-0.1-0.2-0.1-0.3c-0.1,0.1-0.2,0.1-0.3,0.2
		c-0.4,0.5-0.5,1.2-0.4,1.9c0,0.3,0.1,0.6,0.2,0.9c0.1-0.3,0.3-0.6,0.4-1C78.7,20.5,78.7,20.4,78.7,20.2 M6.3,27.2
		c0.3,0,0.6,0,0.8-0.1c0.2,0,0.3-0.2,0.4-0.3c-0.1-0.1-0.2-0.2-0.3-0.2c-0.7-0.1-1.4-0.1-2.1-0.2c-0.1,0-0.2,0-0.3,0.1
		c0,0.1,0.1,0.3,0.1,0.3C5.5,26.9,5.8,27.1,6.3,27.2 M77.2,17.7c0.2-0.2,0.5-0.4,0.6-0.7c0.1-0.1,0-0.3,0-0.5
		c-0.1,0.1-0.3,0.1-0.4,0.2c-0.2,0.1-0.3,0.3-0.5,0.4c-0.2,0.2-0.5,0.3-0.7,0.4c0.3,0.1,0.5,0.1,0.8,0.2
		C77,17.8,77.1,17.8,77.2,17.7 M79,11.8c-0.1-0.1-0.2-0.2-0.3-0.4c0,0.2-0.1,0.4-0.1,0.5c0.1,0.4,0.2,0.8,0.3,1.2
		c0,0.1,0.1,0.2,0.1,0.3c0.1-0.1,0.3-0.2,0.3-0.3C79.2,12.8,79.1,12.4,79,11.8 M80.7,9.4C80.7,9.4,80.6,9.3,80.7,9.4
		c-0.4,0-0.8,1-0.6,1.3c0.1,0.1,0.2,0.2,0.3,0.2c0.1,0,0.2-0.1,0.3-0.2C80.7,10.3,80.7,9.9,80.7,9.4 M75.7,30.7
		c0.1,0.6,0.3,1.1,0.4,1.7c0,0.1,0.1,0.1,0.2,0.1c0-0.1,0.1-0.2,0.1-0.2c-0.1-0.6-0.2-1.1-0.3-1.7c0-0.2-0.1-0.3-0.2-0.5
		C75.9,30.3,75.8,30.4,75.7,30.7 M77.4,37.2c-0.1-0.6-0.1-1.1-0.2-1.7c0-0.1-0.2-0.2-0.3-0.3c0,0.1,0,0.2,0,0.3
		C76.8,36.2,76.9,36.8,77.4,37.2 M79.6,8.4c0,0.2,0,0.3,0,0.5c0,0.1,0,0.1,0.1,0.2c0.1,0,0.2,0,0.2-0.1C79.8,8.8,79.7,8.6,79.6,8.4
		 M76.7,25.3c0.1,0.1,0.1,0.2,0.2,0.4c0.1-0.1,0.2-0.2,0.3-0.3C77.1,25.4,76.9,25.3,76.7,25.3z"/>
</g>
</svg>
