<?xml version="1.0" encoding="utf-8"?>
<!-- Generator: Adobe Illustrator 26.1.0, SVG Export Plug-In . SVG Version: 6.00 Build 0)  -->
<svg version="1.1" id="Layer_1" xmlns="http://www.w3.org/2000/svg" xmlns:xlink="http://www.w3.org/1999/xlink" x="0px" y="0px"
	 viewBox="0 0 112.8 49.3" style="enable-background:new 0 0 112.8 49.3;" xml:space="preserve">
<style type="text/css">
	.st0{stroke:#ff7c59;stroke-width:0.5987;stroke-miterlimit:10;}
	.st1{stroke:#ff7c59;stroke-width:0.25;stroke-miterlimit:10;}
</style>
<g style='fill:#ff7c59;'>
	<path d="M43.5,37.4c-0.4,0-0.9-0.1-1.3-0.2c-0.1,0-0.2,0-0.3,0c-0.5,0-0.9,0-1.3-0.2c0,0-0.1,0-0.1,0c-0.5,0-1-0.1-1.5-0.1
		c-0.6,0-1.2-0.1-1.8-0.2c-0.3-0.1-0.6,0-1-0.1c-0.5-0.1-1.1-0.1-1.6-0.3c-0.2-0.1-0.4-0.1-0.7-0.1c-0.6,0-1.3-0.1-1.9-0.1
		c-0.5,0.1-1.1,0-1.6,0.2c-0.7,0-1.4,0.4-2.1,0.3c-0.2,0-0.5,0-0.7,0.1c-0.2,0.1-0.3-0.1-0.5,0c-0.1,0.1-0.3,0.1-0.5,0.1
		c-0.4,0-0.9,0-1.3,0.2c-0.1,0-0.2,0-0.3,0c-0.5,0-1,0-1.5,0.1c-0.1,0-0.3,0.1-0.4,0.2c-0.2,0.1-0.4,0.2-0.6,0.2
		c-0.2-0.1-0.4,0-0.7,0c-0.3,0.1-0.6,0.1-0.9,0.2c-0.2,0-0.5,0.1-0.7,0.2c-0.4,0.1-0.7,0.1-1.1,0.2c-0.1,0-0.1,0-0.2,0
		c-0.5,0.3-0.9,0.1-1.4,0c-0.9-0.2-1.6-0.7-2.4-1.2c-0.2-0.1-0.4-0.2-0.6-0.4c-0.7-0.4-1.5-0.9-2.3-1.2c-0.7-0.2-1.3-0.5-1.9-0.7
		c-0.5-0.1-1-0.3-1.5-0.4c-0.5-0.2-1-0.3-1.5-0.6c-0.6-0.3-1.3-0.6-1.8-1c-0.5-0.4-1-0.8-1.5-1.2c-0.4-0.3-0.8-0.7-1.1-1.1
		c-0.5-0.5-1-1-1.5-1.5c-0.4-0.5-0.9-1-1.3-1.5c-0.4-0.5-0.4-1-0.2-1.5c0-0.1,0.2-0.2,0.3-0.1c0.1,0,0.1,0.1,0.2,0.1
		c0.5,0,0.6,0.3,0.7,0.7c0.1,0.2,0.1,0.4,0.2,0.6c0,0.1,0.1,0.1,0.1,0.2c0.4,0.4,0.7,0.8,1.1,1.2c0.6,0.6,1,1.2,1.7,1.6
		c0.2,0.3,0.5,0.5,0.8,0.7c0.5,0.4,1,0.7,1.6,1c0.6,0.3,1.2,0.6,1.8,0.8c0.6,0.2,1.1,0.4,1.7,0.5c0.4,0.1,0.9,0.2,1.3,0.3
		c0.1,0,0.2,0.1,0.2,0.1c0.1,0,0.2,0.1,0.3,0.1c0.3,0,0.6,0,0.8,0.2c0,0,0.1,0,0.1,0c0.6,0.2,1.1,0.6,1.6,0.9
		c0.5,0.3,1.1,0.6,1.6,0.9c0.3,0.2,0.5,0.3,0.8,0.5c0.3,0.2,0.7,0.3,1.1,0.3c0.5,0,1.1-0.1,1.6-0.1c0.8-0.1,1.5-0.3,2.3-0.4
		c0.5-0.1,1-0.3,1.5-0.4c0.3-0.1,0.5-0.1,0.8-0.1c0.7,0,1.5,0,2.2,0c0.3,0,0.6,0,0.9,0c0.3,0,0.6-0.1,0.9-0.1c0.1,0,0.2,0,0.3,0
		c0.4,0,0.7,0,1.1-0.2c0.2-0.1,0.4-0.1,0.7-0.1c0.4,0,0.8-0.1,1.3-0.1c0.3,0,0.5-0.1,0.8-0.1c0.5,0,0.9,0,1.3,0.2
		c0.3,0.1,0.5,0.1,0.8,0.1c0.1,0,0.2,0.1,0.3,0.1c0,0,0.1,0,0.1,0c0,0,0-0.1-0.1-0.1c0,0,0-0.1-0.1-0.1c0.1,0,0.2,0,0.2,0
		c0,0.3,0.2,0.3,0.4,0.3c0.2,0,0.4,0,0.5,0.1c0.3,0.2,0.7,0.1,1,0.2c0.1,0,0.2,0.1,0.3,0.1c0,0,0.1,0,0.1,0c0,0-0.1-0.1-0.1-0.1
		c-0.1,0-0.1,0-0.2-0.1c0,0,0-0.1,0-0.1c0.1,0,0.2,0,0.3,0c0.2,0,0.2,0.3,0.5,0.3c0.1,0,0.1,0.1,0.2,0.1c0.4,0,0.9,0,1.3,0.1
		c0.4,0,0.9,0,1.3,0.1c0.6,0.1,1.2,0.2,1.8,0.2c0.2,0,0.5,0.1,0.7,0.1c0,0,0.1,0,0.1-0.1c0,0-0.1,0-0.1,0c0,0,0-0.1,0-0.1
		c0,0,0.1-0.1,0.1-0.1c0.1,0.1,0.4,0,0.4,0.2c0,0.2,0.1,0,0.1,0c0.2-0.1,0.3-0.1,0.5,0c0.1,0.1,0.2,0.1,0.3,0.1c0.5,0,1,0,1.5,0.1
		c0.4,0.1,0.8,0.1,1.2,0.3c0.2,0.1,0.5,0.2,0.8,0.2c0.6,0.1,1.1,0.3,1.7,0.6c0.6,0.3,1.2,0.5,1.8,0.8c0.6,0.3,1.1,0.6,1.6,1.1
		c0.4,0.3,0.8,0.6,1.2,0.9c0.1,0.1,0.2,0.2,0.3,0.2c0.4,0.3,0.8,0.6,1.1,0.9c0.3,0.3,0.7,0.5,1.2,0.6c0.2,0.1,0.3,0.1,0.4,0.2
		c0.1,0.1,0.2,0.1,0.3,0.2c0.2,0.1,0.2,0.1,0.1,0.3c-0.1,0.1-0.1,0.3-0.2,0.3c-0.1,0.1-0.3,0.3-0.5,0.1c-0.6,0-1.1-0.4-1.7-0.7
		c-0.7-0.4-1.3-1-2-1.4c-0.5-0.3-0.9-0.6-1.4-0.9c-0.4-0.2-0.8-0.5-1.2-0.7c-0.5-0.2-1-0.4-1.5-0.7c-0.7-0.3-1.4-0.4-2.1-0.7
		c-0.3-0.1-0.7-0.2-1.1-0.3c-0.4-0.1-0.8,0-1.2-0.2c-0.2-0.1-0.5,0-0.8,0C43.9,37.4,43.7,37.4,43.5,37.4 M37.1,36.1c0,0,0,0.1,0,0.1
		c0,0,0,0,0.1,0C37.1,36.2,37.1,36.2,37.1,36.1z"/>
	<g>
		<path d="M104,36.4c-0.1-0.1-0.1-0.2-0.1-0.2c-0.2,0-0.5,0-0.7,0c-0.1,0-0.2,0.1,0,0.2c0.4,0.4,0.7,1,0.9,1.5
			c0,0.2,0.1,0.3,0.1,0.5c0.1,0.6,0.1,1.3,0.1,1.9c-0.1,0.5-0.2,1-0.5,1.4c-0.2,0.3-0.4,0.7-0.6,1c0,0,0,0,0,0.1
			c-0.5,0.5-0.7,1.2-1.3,1.6c-0.4,0.3-0.7,0.7-1.1,1c-0.4,0.4-0.8,0.8-1.3,1.2c-0.3,0.2-0.6,0.4-0.9,0.5c-0.3,0.2-0.5,0.4-0.8,0.5
			c-0.4,0.2-0.9,0.4-1.4,0.4c-0.3,0-0.6,0.2-0.9,0.4c-0.5,0.2-0.9,0.5-1.4,0.5c-0.6-0.1-1.1-0.2-1.5-0.6c-0.3-0.3-0.6-0.4-1-0.5
			c-0.6-0.2-1.2-0.4-1.6-0.9c-0.3-0.3-0.5-0.6-0.8-0.8c-0.6-0.6-0.9-1.3-1.1-2c-0.1-0.2-0.1-0.5-0.1-0.8c0-0.2-0.1-0.4-0.1-0.6
			c-0.1-0.4,0.1-0.8,0.2-1.2c0.2-0.7,0.4-1.4,0.5-2.1c0.1-0.5,0.3-0.9,0.5-1.3c0.3-0.5,0.6-0.9,0.9-1.4c0,0,0-0.1,0-0.1
			c-0.2,0.1-0.4-0.2-0.6,0c-0.3-0.2-0.6,0-0.9,0c-0.4,0-0.9,0-1.3,0.1c-0.3,0.1-0.6,0.1-0.9,0.1c-0.5,0.1-1,0.1-1.4,0.2
			c-0.1,0-0.2,0-0.3,0c-0.3,0-0.6,0.1-1,0.2c0,0-0.1,0-0.1,0c-0.5,0-1.1,0.1-1.6,0.1c-0.4,0-0.8,0-1.2,0.2c-0.1,0-0.2-0.1-0.3-0.1
			c-0.2,0-0.5,0-0.7,0c-0.2,0-0.2,0.1-0.2,0.2c0.1,0.3,0.2,0.7,0.3,1c0.1,0.3,0.1,0.5,0.2,0.8c0.2,0.6-0.1,1.2-0.2,1.8
			c-0.1,0.4-0.2,0.9-0.3,1.3c0,0.2-0.1,0.4-0.2,0.6c-0.3,0.5-0.6,1.1-0.9,1.6c-0.2,0.3-0.4,0.7-0.7,0.9c-0.2,0.2-0.3,0.3-0.4,0.5
			c-0.1,0.2-0.2,0.4-0.6,0.5c-0.2,0-0.4,0.1-0.5,0.4c-0.4,0.5-0.8,1.1-1.2,1.6c-0.3,0.4-0.7,0.5-1.1,0.5c-0.3,0.1-0.7,0.1-1,0.1
			c-0.8-0.1-1.7-0.1-2.5-0.1c-0.3,0-0.6-0.1-0.9-0.2c-0.2,0-0.4,0-0.6,0.1c-0.2,0.2-0.6,0.3-0.9,0.1c-0.3-0.1-0.6-0.1-0.9-0.4
			c-0.3-0.2-0.6-0.5-0.7-0.9c-0.1-0.3-0.3-0.4-0.5-0.6c-0.2-0.2-0.5-0.5-0.6-0.7c-0.3-0.5-0.6-1-0.7-1.6c-0.1-0.4-0.2-0.8-0.2-1.2
			c0-0.4,0-0.7,0-1.1c0-0.4,0.1-0.9,0.2-1.3c0.1-0.7,0.5-1.3,0.8-2c0.2-0.5,0.5-1,0.9-1.3c0.1-0.1,0.2-0.3,0.4-0.5
			c0.3-0.3,0.6-0.5,1-0.7c0.2-0.1,0-0.1,0-0.2c-0.2-0.1-0.4-0.1-0.5-0.2c-0.7-0.3-1.4-0.8-2-1.3c-0.3-0.2-0.5-0.3-0.8-0.5
			c-0.3-0.2-0.5-0.7-0.3-1c0.3-0.5,0.6-1.1,1.1-1.5c0.1-0.1,0.2-0.2,0.2-0.4c0-0.3,0.1-0.6,0.1-0.8c0-0.3,0-0.6,0-0.9
			c0-0.5-0.1-1-0.2-1.5c-0.1-0.2-0.1-0.5-0.1-0.7c0-0.6,0-1.2,0-1.8c0-0.4,0.1-0.8,0.2-1.1c0.1-0.4,0.2-0.8,0.2-1.1
			c0.1-0.3,0.2-0.7,0.3-1c0.1-0.4,0.2-0.7,0.4-1.1c0.2-0.5,0.5-1,0.7-1.5c0.1-0.2,0.2-0.5,0.3-0.7c0.2-0.3,0.3-0.6,0.5-0.9
			c0.2-0.4,0.4-0.8,0.7-1.2c0.4-0.6,0.6-1.2,0.8-1.9c0.1-0.2,0.1-0.5,0.2-0.7c0.2-0.4,0.2-0.9,0.4-1.3c0.1-0.2,0.2-0.5,0.2-0.8
			c0-0.4,0.1-0.8,0.1-1.1c0-0.3,0-0.6,0-0.9c0-0.8,0.1-1.5,0.1-2.3c0-0.4-0.1-0.8-0.1-1.2c-0.1-0.4-0.2-0.7-0.2-1.1
			c-0.1-0.2-0.1-0.4-0.3-0.6c-0.3-0.2-0.5-0.4-0.7-0.6c-0.3-0.3-0.5-0.6-0.5-1.1c0-0.3-0.1-0.5-0.2-0.7c-0.1-0.1-0.1-0.2-0.2-0.2
			c-0.5-0.4-0.6-1-0.8-1.6c0-0.1,0-0.3,0.2-0.4c0.4-0.3,0.8-0.5,1.3-0.7c0.1,0,0.2-0.1,0.3-0.1c0.2-0.2,0.3-0.3,0.6-0.1
			c0.1,0.1,0.3,0,0.5,0.1c0.2,0.1,0.3,0.3,0.5,0.4c0.1,0.1,0.1,0.1,0.2,0.2c0.4,0.3,0.5,0.7,0.5,1.1c0,0.1,0,0.1,0,0.2
			c0.1,0.4,0.1,0.4,0.5,0.2c0.3-0.2,0.7-0.3,1.1-0.4c0.5-0.2,1.1-0.4,1.6-0.5c0.3-0.1,0.6-0.2,1-0.2c0.3,0,0.6,0.1,1,0.2
			c0.2,0,0.5,0.1,0.7,0.1c0.5,0.1,1.1,0.1,1.6,0c0.1,0,0.3,0,0.4,0.1c0.3,0.1,0.6,0.2,0.9,0.5c0.2,0.2,0.3,0.4,0.2,0.7
			c0,0.1,0,0.2,0.1,0.2c0,0,0.1,0,0.2,0c0.7-0.2,1.3,0,1.9,0.2c0.4,0.1,0.7,0.2,1.1,0.4c0.3,0.1,0.6,0.3,0.6,0.6
			c0.1,0.6,0.3,1,0.4,1.6c0.1,0.4,0.2,0.7,0.2,1.1c0,0.5,0.2,0.9,0.2,1.4c0,0.3,0,0.6,0,0.9c0,0.4,0,0.3,0.3,0.5
			c0.3,0.1,0.6,0.2,0.7,0.6c0.1,0.4,0.1,0.6-0.3,0.7c-0.3,0.1-0.2,0.1-0.2,0.4c0.2,1,0.8,1.7,1.3,2.5c0.3,0.4,0.5,0.9,0.8,1.3
			c0.1,0.2,0.2,0.4,0.3,0.5c0.1,0.1,0.2,0.3,0.4,0.1c0.2-0.1,0.5-0.1,0.7-0.2c0.1-0.1,0.5,0.1,0.6,0.2c0.1,0.2,0.2,0.4,0.1,0.6
			c-0.1,0.2-0.2,0.5-0.5,0.6c-0.1,0-0.2,0.1,0,0.3c0.1,0.1,0.2,0.3,0.3,0.5c0.1,0.2,0.3,0.3,0.4,0.5c0.1,0.1,0.3,0.2,0.4,0
			c0.2-0.4,0.2-0.4,0.5-0.1c0.1,0.1,0.1,0.2,0.2,0.1c0.1,0,0.2-0.1,0.2-0.2c0,0,0-0.1-0.1-0.2c-0.2-0.2-0.3-0.3-0.5-0.4
			c-0.1-0.1-0.1-0.1-0.1-0.2c0-0.1,0-0.3,0-0.4c0-0.1,0.2,0,0.3-0.1c0.2-0.1,0.4-0.1,0.6-0.2c0.1,0,0.1-0.1,0.1-0.2
			c-0.1-0.1-0.3-0.2-0.4-0.3c-0.3-0.1-0.4-0.4-0.4-0.7c0-0.2,0.1-0.3,0.4-0.3c0.6,0,1.1,0.1,1.7,0.4c0,0,0.1,0,0.1,0
			c0,0,0-0.1,0-0.1c-0.1-0.3-0.3-0.6-0.3-0.9c0-0.4-0.1-0.8,0-1.1c0-0.2,0-0.4,0.1-0.6c0-0.3,0-0.4,0.4-0.3c0.4,0,0.7,0,1,0.4
			c0,0,0.1,0.1,0.1,0.1c0,0,0-0.1,0-0.1c0-0.4,0.1-0.8,0.1-1.2c0-0.2,0.1-0.2,0.3-0.2c0.5,0,0.9,0.1,1.2,0.4
			c0.1,0.1,0.2,0.1,0.2-0.1c0.2-0.5,0.5-0.9,0.7-1.4c0-0.1,0.1-0.1,0.2-0.1c0.4,0,0.8,0,1.1,0.2c0,0,0.1-0.1,0.2-0.1
			c0.3-0.3,0.5-0.6,0.8-0.9c0.2-0.2,0.4-0.3,0.7-0.2c0.2,0.1,0.5-0.1,0.6,0.2c0,0.1,0.1,0.1,0.1,0.2c0.1,0.3,0.1,0.3,0.4,0.1
			c0.3-0.2,0.6-0.3,1-0.2c0.2,0,0.4,0.1,0.6,0.2c0.3,0.1,0.4,0.4,0.3,0.7c0,0.1,0,0.2-0.1,0.2c-0.1,0.2,0,0.4,0.2,0.3
			c0.2,0,0.4,0.1,0.6,0c0.2-0.1,0.4,0.1,0.6,0.2c0.2,0.1,0.4,0.2,0.6,0.4c0.1,0.2,0.3,0.4,0.4,0.6c0.1,0.2,0.2,0.4,0,0.6
			c-0.1,0.2-0.1,0.2,0.1,0.3c0.2,0.1,0.4,0.3,0.6,0.4c0.2,0.2,0.2,0.4,0,0.6c0,0.1-0.1,0.1-0.1,0.1c-0.2,0.2-0.2,0.2,0.1,0.4
			c0.2,0.1,0.4,0.2,0.6,0.2c0.2,0.1,0.3,0.2,0.3,0.4c0,0.2,0,0.4-0.3,0.4c0,0-0.1,0-0.1,0.1c0,0,0.1,0.1,0.1,0.1
			c0.2,0.1,0.5,0.1,0.7,0.2c0.4,0.2,0.5,0.4,0.2,0.8c-0.2,0.2-0.3,0.5-0.6,0.5c0,0-0.1,0-0.1,0c0,0,0.1,0,0.1,0
			c0.3,0.1,0.6,0.3,0.8,0.4c0.1,0.1,0.2,0.2,0.3,0.3c0.1,0.2,0.1,0.4-0.2,0.5c-0.2,0.1-0.3,0.1-0.5,0.2c-0.3,0.1-0.3,0.2-0.2,0.4
			c0.1,0.2,0.2,0.4,0.2,0.6c0,0.2-0.1,0.3-0.3,0.3c-0.4,0-0.8,0-1.2,0c0,0-0.1,0-0.1,0.1c0,0,0.1,0.1,0.1,0.1c0.1,0,0.3,0.1,0.4,0.1
			c0.2-0.1,0.3,0,0.4,0c0.7,0,1.3,0.2,1.9,0.4c0.2,0,0.3,0.1,0.5,0.1c0.5,0,0.9,0.3,1.2,0.7c0.3,0.3,0.6,0.7,0.9,1
			c0.2,0.3,0.4,0.7,0.4,1.1c0,0.3,0,0.7,0,1c0,0.3-0.1,0.6-0.1,0.8c0,0.1,0,0.3,0.1,0.4c0.1,0.1,0.1,0.3,0,0.5
			c-0.2,0.4-0.3,0.7-0.5,1.1c-0.2,0.4-0.5,0.9-0.7,1.3c-0.2,0.4-0.4,0.9-0.5,1.3c-0.1,0.2-0.2,0.5-0.3,0.7c-0.1,0.2-0.2,0.5-0.3,0.7
			c-0.1,0.2,0.1,0.3,0.2,0.4c0.1,0.1,0.3,0.1,0.4,0.2c0.4,0.1,0.5,0.4,0.5,0.8c0,0.3,0.1,0.4,0.2,0.7c0.4,0.6,0.7,1.2,1.1,1.8
			c0.2,0.3,0.4,0.5,0.7,0.7c0.2,0.1,0.4,0.1,0.6,0.2c0.3,0,0.4,0.1,0.4,0.4c0.1,0.7,0.3,1.4,0.7,2c0.2,0.4,0.1,0.7-0.3,0.9
			c-0.3,0.2-0.5,0.5-0.9,0.6c-0.1,0-0.2,0.2-0.3,0.3c-0.2,0.6-0.7,0.9-1.2,1.2c-0.4,0.3-0.9,0.5-1.3,0.8c-0.4,0.2-0.7,0.4-1.1,0.5
			c0,0-0.1,0-0.1,0.1c-0.6,0.4-1.4,0.1-1.6-0.4c-0.2-0.3-0.3-0.7-0.3-1c0-0.3-0.1-0.6-0.2-1c-0.1-0.5-0.2-0.9-0.3-1.4
			c-0.2-0.8-0.3-1.5-0.7-2.2C104.2,36.9,104,36.7,104,36.4 M103.3,12.7C103.3,12.7,103.3,12.7,103.3,12.7
			C103.3,12.7,103.3,12.7,103.3,12.7C103.3,12.8,103.4,12.8,103.3,12.7C103.4,12.8,103.3,12.7,103.3,12.7 M65.9,24.7
			c0,0.1,0,0.2,0,0.4c-0.2,0.6-0.3,1.2-0.2,1.8c0,0.3,0.1,0.5,0,0.8c-0.1,0.2,0,0.4,0,0.6c0,0.2,0.2,0.3,0.3,0.3
			c0.4,0,0.7,0.2,1,0.3c0.5,0.1,1,0.3,1.5,0.4c0.5,0.1,1,0.2,1.4,0.3c0.5,0.1,0.9,0.2,1.4,0.3c0.7,0.1,1.3,0.3,1.9,0.5
			c0.7,0.2,1.4,0.4,2.1,0.4c0.1,0,0.1,0,0.2,0c0.3,0,0.6,0.1,0.9,0.1c0.1,0,0.3-0.2,0.4,0c0.2-0.2,0.3,0,0.5,0
			c0.2,0,0.4,0.1,0.5,0.1c0.4,0.1,0.8,0.1,1.2,0.2c0.5,0.2,1,0.2,1.6,0.2c0.2,0,0.4-0.1,0.6,0.1c0,0,0.1,0,0.2,0
			c0,0-0.1-0.1-0.1-0.1c-0.2-0.2-0.5-0.4-0.7-0.5c-0.6-0.3-1.1-0.8-1.7-1.1c-0.3-0.2-0.6-0.4-1-0.7c-0.2-0.1-0.3-0.2-0.4-0.3
			c-0.5-0.4-1-0.7-1.4-1.1c-0.7-0.6-1.4-1.2-2.1-1.8c-0.4-0.4-0.9-0.7-1.3-1c-0.5-0.4-1.1-0.7-1.7-1c-0.1-0.1-0.2-0.1-0.3-0.1
			c-0.3,0-0.5-0.1-0.8-0.2c-0.4-0.1-0.5-0.4-0.6-0.7c-0.1-0.2,0.1-0.3,0.1-0.4c0-0.1,0.1-0.2,0.2-0.2c0.1,0,0.2,0.1,0.3,0
			c0.4-0.2,0.8-0.4,1.2-0.6c0.1-0.1,0.3-0.2,0.5-0.2c0.2,0,0.3-0.1,0.5-0.2c0.5-0.3,1.1-0.7,1.6-1.1c0.2-0.2,0.5-0.3,0.8-0.4
			c0.2-0.1,0.5-0.1,0.7-0.3c0.4-0.3,0.8-0.5,1.1-1c0.2-0.2,0.4-0.2,0.7-0.3c0.2,0,0.2,0,0.1-0.2c-0.1-0.3-0.2-0.7-0.3-1
			c-0.1-0.6-0.2-1.1-0.4-1.6c-0.1-0.2-0.1-0.4-0.2-0.7c-0.1-0.4-0.2-0.9-0.3-1.3c-0.2-0.8-0.4-1.7-0.5-2.6c-0.1-0.6,0-1.2-0.1-1.8
			c-0.1-0.5,0-0.9-0.1-1.4c0-0.4-0.1-0.7-0.2-1.1c-0.2-0.7-0.4-1.4-0.5-2.1c-0.1-0.6-0.4-1.1-0.4-1.7c0-0.1-0.1-0.1-0.2-0.1
			c-0.1,0.3-0.4,0.1-0.6,0.2c-0.6,0.2-1.2,0.4-1.8,0.6c-0.3,0.1-0.7,0.3-0.8,0.7c0,0.1-0.2,0.2-0.3,0.2c-0.1,0-0.2-0.1-0.3,0
			c0.1,0.1,0.1,0.1,0.2,0.2c0.1,0.1,0.2,0.1,0.2,0.2c0.1,0.2,0.4,0.4,0.3,0.7c0,0.1,0,0.1-0.1,0.1c-0.3,0.1-0.7-0.1-0.9-0.3
			c-0.1-0.1-0.1-0.2-0.2-0.4c0,0-0.1,0-0.1,0c0,0,0,0.1,0,0.1c0.1,0.3,0.2,0.6,0.3,0.8c0.1,0.4,0.3,0.9,0.4,1.3c0,0.3,0,0.5,0.1,0.8
			c0.1,0.5,0.2,1,0.2,1.6c0,0.3,0,0.5-0.1,0.8c-0.1,0.4,0.1,0.7,0,1.1c-0.1,0.6,0,1.1-0.1,1.7c0,0.3,0,0.5-0.1,0.8
			c0,0.3-0.1,0.5-0.2,0.8c-0.1,0.4-0.2,0.8-0.3,1.2c-0.1,0.2-0.2,0.4-0.2,0.6c0,0.2-0.3,0.4-0.2,0.6c-0.3,0.4-0.4,0.9-0.7,1.3
			c-0.2,0.3-0.4,0.6-0.5,0.9c-0.1,0.2-0.1,0.3-0.2,0.5c-0.3,0.5-0.6,0.9-0.8,1.4c-0.3,0.6-0.6,1.3-0.8,1.9
			C66.1,23.5,66,24.1,65.9,24.7 M92.7,24.2C92.6,24,92.4,24,92.2,24c-0.2,0-0.5,0-0.7-0.1c-0.2,0-0.4-0.1-0.5-0.1
			c-0.2,0-0.4,0-0.5,0c-0.5,0.2-1.1,0.2-1.6,0.2c-0.3,0-0.6,0-0.9-0.1c-0.4,0-0.8,0.1-1.2,0.2c-0.3,0-0.7,0.1-1,0.1
			c-0.6-0.1-1.2-0.3-1.7-0.4c-0.8-0.2-1.6-0.5-2.4-0.8c-0.5-0.2-0.9-0.5-1.4-0.7c-0.7-0.4-1.3-0.9-1.7-1.6c-0.3-0.4-0.5-0.8-0.7-1.1
			c-0.1-0.1-0.1-0.1-0.2,0c-0.2,0.2-0.3,0.3-0.5,0.5c-0.2,0.2-0.4,0.5-0.7,0.6c-0.3,0.2-0.8,0.4-1.1,0.6c-0.4,0.2-0.7,0.4-1,0.6
			c-0.7,0.5-1.3,0.9-2.1,1.1c0,0-0.1,0.1,0,0.1c0,0,0.1,0.1,0.2,0.1c0.4,0.2,0.8,0.5,1.2,0.7c0.5,0.3,1,0.7,1.5,1
			c0.7,0.5,1.3,1.1,1.9,1.6c0.2,0.2,0.4,0.3,0.6,0.4c0.3,0.2,0.6,0.4,0.9,0.7c0.5,0.4,1,0.8,1.5,1.1c0.4,0.3,0.8,0.5,1.1,0.7
			c0.7,0.5,1.4,0.9,2.1,1.3c0.5,0.3,0.9,0.6,1.3,0.9c0.5,0.3,1,0.6,1.6,0.5c0.1,0,0.2,0,0.3,0.1c0.2,0,0.4,0.1,0.5,0.1
			c0.5,0,1,0.1,1.4,0.2c0.5,0.1,1,0.4,1.6,0.2c0.4-0.1,0.7-0.2,1.1-0.2c0.3,0,0.7-0.2,1-0.1c0.2,0,0.4,0,0.5,0
			c0.1,0,0.2-0.1,0.1-0.2c-0.2-0.3,0-0.6-0.1-1c0-0.3-0.1-0.6-0.1-1c0-0.2,0.1-0.3,0.1-0.5c0-0.2,0-0.6,0.1-0.8
			c0.1-0.6,0.3-1.2,0.5-1.7c0.2-0.6,0.5-1.1,1.1-1.3c0,0,0.1,0,0.1,0c0.2-0.1,0.2-0.4,0-0.5c-0.1-0.1-0.2-0.1-0.3-0.2
			c-0.3-0.3-0.3-0.3-0.8-0.4C93.2,25,92.8,24.7,92.7,24.2 M95,23.6c0,0.1,0.1,0.3,0.1,0.4c0.1,0.2,0.1,0.4,0.3,0.5
			c0.1,0,0.2,0.1,0.3,0.2c0.1,0,0.2,0.1,0.3,0.1c0.2-0.2,0.4,0,0.6,0.1c0.1,0,0.2,0.1,0.3,0.1c0.1,0.1,0.2,0.1,0.2-0.1
			c0-0.2,0.1-0.2,0.2-0.2c0.2,0,0.4,0.1,0.6,0.2c0.1,0.1,0.2,0,0.2-0.1c0-0.1,0.1-0.3,0.1-0.4c0.2-0.5,0.3-0.5,0.7-0.3
			c0.1,0.1,0.2,0.1,0.3,0.1c0.1,0,0.1-0.1,0.1-0.2c0-0.2,0.1-0.1,0.2-0.1c0.4,0,0.9,0.1,1.3,0.3c0,0,0.1,0,0.1,0
			c0-0.1,0.1-0.1,0-0.2c-0.2-0.3,0-0.6-0.1-0.9c0-0.1,0-0.1,0.2-0.1c0.4,0.1,0.7,0.3,1,0.5c0,0,0.1,0,0.1,0.1c0-0.1,0-0.1,0-0.2
			c-0.1-0.2-0.1-0.4-0.2-0.6c-0.2-0.4-0.1-0.6,0.4-0.6c0,0,0.1,0,0.1,0c0.2,0,0.3,0,0.2-0.3c-0.1-0.3-0.2-0.5-0.2-0.8
			c0-0.2,0.1-0.3,0.3-0.3c0.1,0,0.2,0,0.3-0.1c0-0.1-0.1-0.2-0.1-0.3c0-0.1-0.1-0.1-0.1-0.2c-0.2-0.5-0.1-0.6,0.4-0.7
			c0.3,0,0.5-0.1,0.8-0.1c0.1,0,0.1-0.1,0.2-0.1c0,0-0.1-0.1-0.1-0.1c-0.1-0.2-0.2-0.3-0.2-0.5c-0.1-0.3-0.1-0.5,0.3-0.5
			c0,0,0.1,0,0.1-0.1c0,0-0.1-0.1-0.1-0.1c-0.2-0.1-0.3-0.4-0.4-0.6c-0.1-0.2,0-0.4,0.2-0.4c0,0-0.1-0.1-0.1-0.1
			c-0.4,0-0.6-0.2-0.8-0.5c-0.3-0.3-0.2-0.6,0-0.8c0.1,0,0.1-0.1,0.2-0.1c-0.1-0.1-0.1-0.1-0.2-0.1c-0.3-0.1-0.4-0.2-0.6-0.4
			c-0.1-0.2-0.1-0.4-0.1-0.7c0,0,0-0.1,0.1-0.1c0.1,0,0.2-0.1,0.2-0.1c0.1-0.1,0.1-0.1,0-0.2c-0.2-0.1-0.4-0.2-0.5-0.4
			c-0.2-0.2-0.2-0.6-0.1-0.8c0.2-0.2,0.1-0.2,0-0.4c-0.2-0.2-0.5-0.3-0.8-0.2c-0.2,0.1-0.4,0.1-0.6,0.1c-0.5-0.1-0.8-0.3-1-0.7
			c-0.2-0.3-0.2-0.3-0.3-0.1c-0.1,0.1-0.1,0.1-0.2,0.2c-0.3,0.2-0.6,0.2-0.8,0c-0.1-0.1-0.3-0.2-0.4-0.4c-0.1-0.1-0.1-0.1-0.2,0
			c-0.1,0.3-0.3,0.6-0.5,0.8c-0.2,0.4-0.6,0.4-0.9,0.2c-0.1-0.1-0.2-0.2-0.3-0.3c-0.1-0.1-0.2-0.1-0.2,0.1c0,0.5-0.3,0.8-0.5,1.2
			c0,0-0.1,0.1-0.2,0.1c-0.4,0-0.8,0.1-1.1-0.3c0,0,0,0,0,0c0,0-0.1,0-0.1,0c0,0,0,0.1,0,0.1c0.1,0.3,0.2,0.7,0.3,1
			c0.1,0.2,0.2,0.3,0,0.5c-0.2,0.1-0.3,0.3-0.6,0.2c-0.2-0.1-0.4-0.1-0.6-0.2c-0.2-0.1-0.3-0.2-0.5-0.4c-0.2-0.2-0.3-0.1-0.4,0.1
			c0,0.1,0,0.1,0,0.2c0,0.3,0,0.7,0.1,1c0.1,0.3-0.1,0.7,0.2,1c0,0,0,0.2-0.1,0.2c-0.2,0.1-0.3,0.1-0.4,0c-0.1-0.1-0.1-0.1-0.2-0.1
			c0,0-0.1,0-0.1,0c0,0,0,0.1,0,0.1c0,0.1,0.1,0.1,0.1,0.2c0.2,0.4,0.2,0.4-0.1,0.7c0,0,0,0,0,0c0,0,0,0.1,0,0.1
			c0,0.1,0.1,0.1,0.1,0.1c0.2,0.3,0.2,0.5,0,0.7c-0.1,0.1-0.2,0.2-0.3,0.3c-0.1,0.1-0.1,0.2,0,0.2c0.1,0.1,0.3,0.1,0.4,0.2
			c0.2,0.1,0.3,0.5,0.2,0.6c-0.1,0.3-0.3,0.5-0.5,0.8c-0.1,0.2-0.1,0.2,0.1,0.3c0,0,0.1,0,0.1,0c0.3,0.1,0.5,0.4,0.4,0.7
			c0,0.2,0.1,0.3,0.2,0.4c0.1,0,0.3,0.1,0.4,0.1c0.2,0,0.3,0,0.4,0.2c0.1,0.1,0.3,0.3,0.3,0.4c0,0.3,0.2,0.4,0.4,0.5
			C94.6,23.2,94.7,23.4,95,23.6 M102.7,24.4c-0.1-0.1-0.2-0.1-0.3-0.2c0,0.1,0,0.2,0,0.4c0,0.1,0,0.1,0,0.2c0,0.3-0.3,0.5-0.6,0.4
			c-0.1,0-0.2-0.1-0.2-0.1c-0.2-0.1-0.4-0.2-0.7-0.3c0,0-0.2-0.1-0.1,0.1c0.1,0.3-0.1,0.4-0.4,0.5c-0.3,0-0.5-0.1-0.7-0.2
			c-0.2-0.1-0.3-0.1-0.4,0.2c-0.1,0.3-0.2,0.6-0.3,0.9c-0.1,0.2-0.2,0.3-0.4,0.3c-0.2,0-0.3,0-0.5-0.1c-0.1-0.1-0.2-0.2-0.4,0
			c-0.1,0.2-0.4,0.2-0.6,0.1c-0.6-0.3-0.4-0.3-0.8,0.2c0,0.1-0.1,0.1-0.1,0.2c-0.1,0.2-0.3,0.4-0.5,0.3c-0.2,0-0.4,0.1-0.5,0.3
			c-0.1,0.2,0,0.2,0.1,0.3c0,0,0.1,0,0.2,0c0.4,0.1,0.6,0.4,0.3,0.8c-0.1,0.2-0.2,0.4-0.3,0.6c-0.2,0.4-0.3,0.8-0.4,1.2
			c-0.1,0.5-0.3,1.1-0.4,1.6c-0.1,0.2,0,0.3,0.3,0.2c0.1,0,0.2,0,0.3,0c0.5,0,0.9,0,1.4,0c0.5,0,1-0.2,1.6-0.3
			c0.3-0.1,0.6-0.3,1-0.2c0.2,0,0.4,0,0.5-0.1c0.4-0.1,0.7-0.2,1.1-0.2c0.6,0,1.2-0.3,1.7-0.6c0.1-0.1,0.1-0.1,0.1-0.2
			c-0.1-0.4-0.2-0.7-0.4-1.1c0-0.1,0-0.1,0.1-0.2c0,0,0.1,0,0.2,0c0.1,0.2,0.3,0.3,0.4,0.5c0.1,0.1,0.2,0.2,0.3,0.3
			c0.1,0,0.2-0.1,0.3-0.1c0.3-0.1,0.6-0.3,0.8-0.3c0.3,0,0.2-0.1,0.1-0.3c0-0.1-0.1-0.1-0.1-0.2c0,0,0-0.1,0-0.2c0.1,0,0.1,0,0.2,0
			c0.3,0.1,0.5,0,0.7-0.1c0.3-0.2,0.5-0.5,0.8-0.7c0.3-0.2,0.5-0.5,0.7-0.8c0.2-0.3,0.4-0.6,0.5-0.8c0.1-0.2,0-0.4,0.1-0.5
			c0.2-0.4,0-0.9,0.1-1.3c0,0-0.1-0.1-0.1-0.1c-0.2-0.5-0.4-1-0.9-1.3c-0.2-0.1-0.5-0.3-0.7-0.4c-0.3-0.1-0.7-0.2-1,0.1
			c-0.2,0.2-0.5,0.2-0.7,0.2c-0.4,0-0.4,0-0.3,0.4c0,0.2,0.2,0.5-0.1,0.6c-0.1,0-0.2,0.1-0.3,0.1C103.2,24.5,103,24.4,102.7,24.4
			 M90.1,41c0,0.1-0.1,0.1-0.1,0.2c-0.1,0.4-0.1,0.8-0.3,1.1c-0.2,0.5-0.2,1-0.1,1.6c0,0.3,0,0.5,0.2,0.8c0.4,0.7,0.9,1.3,1.5,1.9
			c0,0,0.1,0.1,0.1,0.1c0-0.1,0-0.1,0-0.2c0-0.1,0-0.1-0.1-0.2c-0.1-0.1-0.1-0.2,0.1-0.3c0.1,0,0.2,0,0.3,0c0.2,0,0.3,0.3,0.3,0.4
			c0.2,0.4,0.5,0.7,1,0.6c0.5-0.1,0.9-0.2,1.3-0.5c0.3-0.2,0.6-0.3,0.9-0.4c0.3-0.2,0.7-0.3,0.9-0.5c0.2-0.1,0.3-0.1,0.4,0
			c0.3,0.3,0.6,0.2,0.9,0.1c0.5-0.1,0.8-0.4,1.1-0.7c0.3-0.3,0.6-0.7,1-1c0.5-0.4,0.7-0.9,0.9-1.5c0.1-0.3,0.2-0.6,0.2-1
			c0-0.6-0.2-1.2-0.4-1.8c-0.1-0.5-0.5-0.9-0.8-1.3C99.2,38.2,99,38,98.6,38c-0.2,0-0.3-0.1-0.5-0.2c-0.4-0.1-0.8-0.3-1.2-0.4
			c-0.4-0.1-0.7-0.1-1.1-0.1c-0.2,0-0.4-0.1-0.4,0.2c0,0.1-0.1,0.3-0.3,0.2c-0.1,0-0.2-0.1-0.3-0.2c-0.3-0.2-0.5-0.5-0.9-0.4
			c-0.2,0-0.3,0.1-0.5,0.2c-0.3,0.1-0.5,0.2-0.8,0.1c-0.1,0-0.2,0-0.3,0c-0.6,0.2-0.9,0.6-1.3,1.1C90.5,39.3,90.2,40,90.1,41
			 M106.1,31.6c0-0.1,0-0.2-0.2-0.1c-0.4,0.2-0.8,0.3-1.1,0.4c-0.3,0.1-0.5,0.2-0.8,0.3c-0.3,0.1-0.6,0.3-0.9,0.4
			c-0.9,0.2-1.8,0.4-2.7,0.7c-0.5,0.1-0.9,0.2-1.4,0.3c-0.5,0.1-0.9,0.1-1.4,0.2c-0.7,0-1.3,0-1.9,0.1c-0.6,0.2-1.3,0-1.9,0.3
			c-0.5-0.1-1,0.1-1.5,0.2c-0.2,0-0.4,0.1-0.6,0.2c-0.1,0-0.3,0.1-0.4,0.1c-0.7,0-1.4,0-2.1-0.1c-0.3,0-0.6,0-0.8-0.1
			c-0.1,0-0.3-0.1-0.4-0.1c-0.5,0-1-0.1-1.4-0.2c-0.3-0.1-0.6-0.1-0.9-0.2c-0.2-0.1-0.5-0.2-0.8-0.2c-0.2,0-0.4,0.1-0.7,0.1
			c-0.1,0-0.1,0.1-0.2,0.1c-0.5,0.1-0.9,0.3-1.4,0.3c-0.3,0-0.7-0.1-1,0.1c-0.2-0.1-0.4,0.1-0.6,0c-0.4-0.2-0.9-0.1-1.3-0.1
			c-0.5,0.1-1,0.2-1.6,0.1c-0.7,0-1.4-0.1-2.2-0.1c-0.2,0-0.5,0-0.7-0.1c-0.6-0.2-1.3-0.2-1.9-0.2c-0.3,0-0.6,0-0.8-0.1
			c-0.6-0.2-1.2-0.3-1.9-0.3c-0.7,0-1.4,0.1-2.1-0.1c-0.6-0.1-1.2-0.2-1.7-0.4c-0.2-0.1-0.4-0.2-0.6,0c-0.2,0.1-0.3,0.2-0.2,0.4
			c0,0,0,0.1,0,0.1c-0.2,0.3,0,0.6-0.1,0.9c0,0.1,0,0.2,0,0.2c0.3,0.3,0.6,0.6,1,0.8c0.3,0.2,0.6,0.2,1,0.2c0.4,0,0.7,0.2,1.1,0
			c0,0,0,0,0.1,0c0.2,0,0.5,0.1,0.7,0c0.5-0.1,1-0.1,1.5-0.1c0.6,0,1.3,0,1.9,0.2c0.3,0.1,0.7,0.1,1,0.2c0.3,0,0.7,0.1,1,0.1
			c0.8,0,1.5,0,2.3-0.1c0,0,0.1,0,0.1,0c0.2,0,0.4,0,0.6,0c0.1,0,0.1,0.1,0.2,0c0.2-0.2,0.5-0.1,0.8-0.1c0.9,0,1.8,0,2.8-0.2
			c0.5-0.1,1-0.1,1.5-0.1c0.1,0,0.1,0,0.2,0c0.3-0.1,0.7-0.1,1-0.2c0.3-0.1,0.6-0.1,0.8-0.2c0.4-0.1,0.7-0.1,1.1-0.2
			c0.5,0,0.9,0,1.4,0c0.4,0,0.9,0.1,1.3,0c0,0,0.1,0,0.1,0c0.2,0,0.3,0.1,0.5,0.1c0.2,0,0.4-0.1,0.7-0.1c0.2,0,0.4,0,0.6,0
			c0.2,0,0.5,0,0.7,0c0.1,0,0.2,0,0.3,0c0.5-0.1,1-0.2,1.4-0.2c0.3,0,0.5-0.1,0.8-0.1c0.4,0.1,0.9-0.1,1.4,0c0.4,0,0.8,0.1,1.1,0.1
			c0.6,0,1.2,0.1,1.7,0.1c0.3,0,0.6,0,0.9,0c0.2,0,0.4-0.1,0.7-0.1c0.5,0,0.9-0.1,1.3-0.2c0.7-0.1,1.4-0.4,2.1-0.7
			c0.4-0.1,0.8-0.4,1.1-0.7c0.1-0.1,0.2-0.2,0.3-0.3C105.5,32.7,105.9,32.2,106.1,31.6 M70.4,37.8c-0.2,0-0.3,0.1-0.3,0.2
			c-0.1,0.2-0.2,0-0.4,0c-0.3,0.1-0.6,0.1-0.9,0.1c-0.2,0-0.4,0-0.5,0.2c-0.1,0.1-0.2,0.2-0.3,0.2c-0.3,0.2-0.6,0.5-0.8,0.8
			c0,0,0,0.1,0,0.1c0,0,0.1,0,0.1,0c0.1-0.1,0.2-0.2,0.3-0.3c0.2-0.2,0.3-0.4,0.5-0.5c0.4-0.3,0.9-0.4,1.4-0.4
			c0.5,0,0.9,0.1,1.3,0.2c0.4,0.1,0.8,0.3,1.1,0.6c0.2,0.2,0.4,0.5,0.4,0.8c0,0.2-0.2,0.4-0.4,0.2c-0.2-0.1-0.3-0.2-0.5-0.3
			c-0.3-0.3-0.6-0.4-1-0.4c-0.1,0-0.2,0-0.2,0c-0.4,0-0.8,0.2-1.1,0.5c-0.2,0.2-0.4,0.4-0.6,0.5c-0.2,0.1-0.4,0.3-0.5,0.5
			c-0.1,0.2-0.2,0.3-0.3,0.5c-0.5,0.5-0.8,1.1-1,1.7c0,0.1-0.1,0.2-0.2,0.3c0,0.1-0.1,0.1-0.1,0.2c0,0.2-0.1,0.5-0.1,0.7
			c0,0.1-0.1,0.3-0.1,0.4c0.1,0.4,0.1,0.9,0.2,1.3c0.2,0.8,0.6,1.3,1.4,1.5c0.5,0.2,0.8,0,1.2-0.5c0.1-0.1,0.1-0.2,0.2-0.2
			c0.1,0,0.2,0.1,0.2,0.1c0.1,0.1,0.2,0.2,0,0.4c-0.1,0.2-0.1,0.3,0.2,0.3c0.1,0,0.3,0.1,0.4,0.1c0.4,0,0.8-0.1,1.2,0
			c0.6,0.2,1.1,0,1.5-0.3c0.2-0.1,0.4-0.3,0.5-0.5c0.4-0.5,0.7-1,1-1.5c0.4-0.6,0.3-1.4,0.4-2.1c0.1-0.7-0.1-1.5-0.2-2.2
			c-0.1-0.6-0.3-1.2-0.5-1.8c-0.2-0.7-0.7-1.3-1.2-1.7c-0.4-0.3-1-0.3-1.4-0.1c-0.2,0.1-0.4,0.2-0.7,0.2
			C70.7,37.8,70.6,37.8,70.4,37.8 M80.3,9.8c0.5,0.1,0.9,0.1,1.4,0.1c0.2,0,0.4-0.1,0.7-0.1c0.2,0,0.2-0.1,0.2-0.3
			c0-0.8,0-1.6-0.1-2.4c0-0.6-0.2-1.1-0.3-1.7c-0.1-0.5-0.4-0.9-0.5-1.3c0-0.1-0.1-0.2-0.2-0.2c-0.2-0.1-0.4-0.2-0.6-0.2
			c-0.4,0-0.8,0.1-1.2,0.1c-0.2,0-0.5,0.2-0.5,0.4c-0.1,0.7-0.2,1.3-0.2,2c0,0.5,0,1-0.1,1.5c-0.1,0.4,0,0.7-0.2,1.1
			c-0.1,0.2,0,0.4,0.2,0.5c0.3,0.1,0.5,0.2,0.8,0.3C79.9,9.7,80.1,9.8,80.3,9.8 M108.2,40.3c0.2-0.2,0.4-0.3,0.6-0.5
			c0.3-0.2,0.6-0.5,0.7-0.9c0-0.1,0.1-0.2,0.2-0.1c0.1,0.1,0.2,0.2,0.3,0.3c0.2,0.2,0.3,0.2,0.4-0.1c0.1-0.2,0.2-0.5,0.2-0.8
			c0-0.1,0-0.3-0.1-0.4c-0.2-0.3-0.4-0.6-0.7-0.8c-0.3-0.3-0.6-0.6-0.8-0.9c-0.4-0.5-0.7-1.1-1.1-1.6c-0.1-0.1-0.1-0.2-0.2-0.2
			c-0.4,0-0.7,0-1,0.3c-0.3,0.3-0.6,0.6-0.9,0.9c-0.1,0.1-0.1,0.2,0,0.3c0.3,0.1,0.4,0.4,0.5,0.7c0.2,0.5,0.4,1,0.6,1.5
			c0.2,0.6,0.3,1.2,0.6,1.7c0.1,0.2,0.1,0.4,0.1,0.6c0,0.1,0.1,0.2,0.1,0.4c0.1-0.1,0.2-0.1,0.2-0.2
			C108.1,40.4,108.1,40.4,108.2,40.3 M77.4,37.5c-0.8,0-1.6,0.1-2.3-0.1c-0.3-0.1-0.7,0-1-0.2c0,0-0.1,0-0.1,0c0,0,0,0.1,0,0.1
			c0.2,0.2,0.4,0.4,0.6,0.6c0.5,0.4,0.9,1,1.1,1.6c0.1,0.3,0.3,0.6,0.4,0.9c0.1,0.4,0.2,0.8,0.3,1.2c0.1,0.4,0.2,0.8,0.2,1.2
			c0,0.3,0.1,0.7-0.1,1c0,0,0,0.1,0,0.1c0,0,0.1,0,0.1-0.1c0,0,0.1-0.1,0.1-0.1c-0.1-0.2,0.1-0.3,0.3-0.5c0.2-0.2,0.4-0.4,0.5-0.7
			c0.1-0.3,0.2-0.7,0.3-1c0-0.2,0-0.3,0.1-0.5c0.1-0.2,0.1-0.4,0.1-0.6c0-0.1,0.1-0.2,0.1-0.3c0-0.2,0.1-0.4,0.1-0.6
			c0-0.5,0-0.9-0.2-1.4C78,38,77.8,37.7,77.4,37.5 M77.2,4.8c0.2,0.1,0.3,0.2,0.5,0.2c0,0,0.1,0.1,0.1,0.1c0,0,0-0.1,0-0.1
			c-0.1-0.4,0.2-0.8,0-1.1c0,0,0-0.1,0-0.1c0-0.3,0-0.5,0-0.8c0-0.1-0.1-0.2-0.2-0.2c-0.2,0-0.5-0.1-0.7-0.1c-0.2,0-0.4,0-0.6-0.1
			c-0.5-0.3-1.1-0.2-1.7-0.2c-0.2,0,0,0.1,0,0.1c0,0.1,0,0.2,0,0.3c0.2,0.5,0.4,1.1,0.5,1.6c0.1,0.3,0.2,0.5,0.3,0.8
			c0.1,0.4,0.2,0.7,0.3,1.1c0.1,0.5,0.4,0.9,0.3,1.4c0,0,0,0.1,0.1,0.1c0,0,0.1,0,0.1,0c0-0.2,0.1-0.1,0.2-0.1
			C76.8,7.9,77,7.9,77.3,8c0.1,0,0.2,0.1,0.2,0.1c0.1-0.1,0.1-0.2,0.1-0.3c0-0.3,0-0.6,0.1-0.8c0.1-0.3,0-0.6,0.1-0.9
			c0,0,0-0.1-0.1-0.1c0,0-0.1,0-0.1,0c-0.2,0.2-0.3,0.3-0.4,0.5c-0.1,0.1-0.3,0.2-0.4,0c-0.3-0.2-0.5-0.5-0.8-0.8
			c-0.1-0.1-0.1-0.3-0.2-0.4c-0.1-0.3,0.2-0.4,0.3-0.7c0-0.1,0.2-0.2,0.3,0c0,0,0.2,0.1,0.2,0.1C76.9,4.7,77,4.8,77.2,4.8
			 M83.7,21.3c0.1,0,0.2-0.1,0.2-0.1c-0.1-0.3-0.1-0.6-0.5-0.8c-0.2-0.1-0.4-0.2-0.6-0.3c-0.3-0.2-0.5-0.5-0.9-0.5
			c-0.4,0-0.7-0.1-1.1-0.3c-0.2-0.1-0.3,0-0.4,0.2c-0.3,0.4-0.7,0.5-1.1,0.2c0,0-0.1,0-0.1-0.1c0,0,0,0.1,0,0.1
			c0.1,0.1,0.1,0.3,0.2,0.4c0.2,0.3,0.4,0.6,0.6,0.8c0.3,0.4,0.7,0.6,1.1,0.8c0.3,0.2,0.7,0.3,1.1,0.4c0.4,0.2,0.4,0.2,0.7-0.2
			c0.1-0.1,0.3-0.3,0.4-0.4C83.4,21.5,83.6,21.4,83.7,21.3 M80.6,15c0.5,0.2,1,0.4,1.4,0.6c0.2,0.1,0.3,0,0.3-0.1
			c0.3-0.4,0.5-0.8,0.8-1.3c0.2-0.4,0.4-0.8,0.6-1.2c0.1-0.2-0.1-0.3-0.2-0.5c-0.1-0.1-0.2,0-0.3,0.1c-0.1,0.1-0.2,0.2-0.3,0.2
			c-0.3,0-0.3,0.3-0.4,0.5c-0.2,0.4-0.3,0.7-0.5,1.1c-0.1,0.1-0.2,0.2-0.4,0.2c-0.4,0-0.8-0.4-0.8-0.9c0-0.2-0.1-0.4,0.1-0.6
			c0,0,0-0.2-0.1-0.2c-0.3,0-0.5,0-0.8-0.1c-0.3-0.1-0.7-0.1-1-0.2c-0.2-0.1-0.3-0.1-0.3,0.2c0,0.3,0.1,0.5,0.1,0.8
			c0,0.3,0.1,0.5,0.4,0.5C79.8,14.4,80.2,14.8,80.6,15 M102.7,38.8c-0.1-0.5-0.1-0.9-0.3-1.4c-0.1-0.2-0.2-0.5-0.5-0.5
			c-0.4-0.1-0.7-0.1-1.1-0.1c-0.4,0-0.7,0-1-0.2c-0.1-0.1-0.2-0.1-0.3-0.1c-0.5,0-1-0.1-1.5-0.1c-0.1,0-0.1,0-0.2,0
			c0,0,0.1,0.1,0.1,0.1c0.4,0.1,0.7,0.2,1.1,0.4c0.8,0.3,1.6,0.6,2.1,1.4c0.2,0.3,0.4,0.5,0.6,0.8c0.3,0.5,0.5,1,0.6,1.6
			c0,0,0,0.1,0,0.1c0,0,0.1-0.1,0.1-0.1c0-0.4,0.2-0.7,0.2-1.1C102.7,39.4,102.7,39.1,102.7,38.8 M86,17.7c0.2-0.1,0.4-0.1,0.6-0.2
			c0,0,0.1,0,0.1-0.1c0-0.1,0-0.1-0.1-0.2c-0.1,0-0.2-0.1-0.3-0.1c-0.6,0-1.3,0-1.9-0.1c-0.3,0-0.6,0-0.9,0c-0.2,0-0.4-0.1-0.6,0
			c-0.2,0.1-0.3,0.3-0.5,0.5c-0.1,0.1-0.1,0.2-0.2,0.3c-0.1,0.1-0.2,0.2-0.1,0.3c0.1,0.1,0.1,0.3,0.3,0.1c0,0,0.2,0,0.2,0
			c0.5,0,0.9,0,1.4-0.1c0.2,0,0.4,0,0.5-0.1C85.2,17.9,85.5,17.9,86,17.7 M79.4,17.2c0,0-0.1-0.1-0.1-0.1c-0.4-0.7-0.9-1.4-1.3-2.1
			c-0.1-0.2-0.3-0.4-0.6-0.5c-0.1,0-0.1,0-0.1,0.1c0.2,0.5,0.3,0.9,0.5,1.4c0.1,0.3,0.2,0.6,0.3,0.9c0,0.6,0.4,1.2,0.5,1.8
			c0,0,0.1,0.1,0.1,0.1c0,0,0-0.1,0-0.1c0-0.2,0-0.4,0.1-0.7c0-0.1,0.1-0.2,0.2-0.2c0.1-0.1,0.2-0.1,0.3-0.1c0.1,0,0.2,0,0.3-0.1
			c-0.1-0.1-0.1-0.2-0.2-0.3C79.5,17.3,79.5,17.3,79.4,17.2 M69.3,3c-0.1-0.4-0.2-0.9-0.2-1.3c0-0.2-0.1-0.2-0.3-0.2
			c-0.3,0.1-0.6,0.2-0.8,0.5c-0.3,0.3-0.3,0.5,0,0.9c0.4,0.5,0.7,0.9,0.7,1.5c0,0.1,0.1,0.2,0.1,0.2c0.1,0,0.2-0.1,0.3-0.1
			c0.1-0.1,0.1-0.3,0.2-0.4C69.4,3.7,69.5,3.4,69.3,3 M81.3,11.6c0,0,0.1,0,0.1,0c0.2,0.1,0.3-0.1,0.3-0.2c0,0-0.2-0.1-0.3-0.2
			c-0.1,0-0.3,0-0.4,0c-0.7-0.2-1.4-0.4-2.2-0.7c-0.1,0-0.1-0.1-0.2-0.1c0,0-0.1,0.1-0.1,0.1c0,0.3,0.1,0.5,0.1,0.8
			c0,0.1,0.1,0.1,0.2,0.2c0.2,0.2,0.5,0.3,0.8,0.2c0.2,0,0.4,0,0.6,0c0.2,0,0.4,0,0.6,0C81,11.8,81.1,11.8,81.3,11.6 M76.8,11.9
			c0.2,0.1,0.1,0.3,0.1,0.5c0,0.3,0.4,0.6,0.7,0.5c0,0,0.1,0,0.1-0.1c0-0.4,0.1-0.8-0.2-1.1c-0.1-0.1-0.1-0.3-0.2-0.4
			c0-0.2,0.1-0.1,0.2-0.1c0,0,0-0.1,0-0.1c0-0.4-0.1-0.9-0.1-1.3c0,0-0.1-0.1-0.1-0.1c0-0.1-0.1-0.1-0.2,0c-0.1,0.1-0.2,0.3-0.4,0.2
			c0,0-0.1,0.1-0.1,0.1c0,0.4,0,0.8,0,1.2C76.7,11.3,76.7,11.5,76.8,11.9 M89.8,20c-0.5,0.4-1.2,0.7-1.8,1c0,0-0.1,0.1-0.1,0.1
			c0,0,0,0.1,0.1,0.1c0.1,0,0.2,0.1,0.3,0.1c0.4,0,0.8,0,1.2-0.2c0.2-0.1,0.3-0.2,0.5-0.3c0-0.3,0.2-0.3,0.4-0.5
			c0.1-0.1,0.3-0.3,0.2-0.5c0-0.2-0.2-0.2-0.3-0.2c-0.2-0.2-0.3,0-0.3,0.1C90.1,19.8,89.9,19.8,89.8,20 M85.5,16c0,0,0.1-0.1,0-0.1
			c-0.2-0.4-0.5-0.7-0.7-1.1c-0.1-0.2-0.2,0-0.3,0.1c-0.2,0.3-0.3,0.6-0.5,0.9c-0.1,0.2,0,0.2,0.1,0.2c0.1,0,0.2,0,0.3,0
			C84.8,16,85.1,16,85.5,16 M79.9,16.1c0.2,0.2,0.5,0.5,0.6,0.8c0.1,0.2,0.2,0.3,0.3,0.4c0.1,0.2,0.2,0.1,0.2-0.1
			c0-0.1,0.1-0.2,0.2-0.3c0.1,0,0.2-0.1,0.3-0.2c-0.1-0.1-0.2-0.1-0.3-0.2c0,0-0.1-0.1-0.1-0.1c-0.3-0.1-0.6-0.2-0.9-0.4
			C80.1,16,80,16,79.9,16.1 M86,22.4c-0.3-0.2-0.6-0.2-0.9,0.1c-0.1,0.1-0.2,0.2-0.3,0.3c0,0-0.1,0.1-0.1,0.1c0,0,0.1,0.1,0.1,0
			c0.3,0,0.6-0.1,1-0.1c0.4,0,0.8-0.1,1.2-0.1c0,0,0.1,0,0.1,0c0,0-0.1,0-0.1,0C86.7,22.6,86.4,22.6,86,22.4 M91,22.5
			c0,0,0-0.1-0.1-0.1c-0.6-0.1-1.2,0.1-1.8,0c0,0-0.1,0-0.1,0.1c0,0,0,0.1,0,0.1c0.2,0.1,0.3,0.2,0.5,0.2c0.4,0,0.9,0,1.3,0
			C90.9,22.7,90.9,22.6,91,22.5 M85.4,19.8c0-0.1,0.1-0.1,0.1-0.2c-0.1,0-0.1-0.1-0.2-0.1c-0.3,0-0.5,0-0.8,0.1c0,0-0.1,0-0.1,0.1
			c0,0,0,0.1,0,0.1c0.1,0.1,0.1,0.1,0.2,0.2c0.1,0.1,0.2,0.2,0.3,0.2c0.1,0,0.2-0.2,0.3-0.3C85.2,19.8,85.3,19.8,85.4,19.8
			 M88.3,19.3c0-0.1,0.2-0.1,0-0.2c-0.3-0.3-0.5-0.2-0.7,0.2c0,0,0,0.1,0,0.1c0,0.1,0,0.1,0,0.2c0,0,0.1,0,0.1,0
			C87.9,19.4,88,19.3,88.3,19.3 M87,21.9c0.2,0,0.3,0.1,0.5,0.1c0,0,0.1,0,0.1,0c0,0,0-0.1-0.1-0.1c-0.2-0.1-0.4-0.2-0.6-0.3
			c-0.1-0.1-0.2,0-0.3,0c-0.1,0-0.1,0.1-0.1,0.1c0,0.1,0.1,0.1,0.1,0.2C86.7,21.9,86.8,21.9,87,21.9 M70.8,32.4c0.1,0,0.2,0,0.2,0
			c0.1-0.1,0.2,0.2,0.3,0c0,0-0.2-0.1-0.3-0.2c-0.2-0.2-0.4-0.2-0.6-0.1c0,0-0.1,0-0.1,0.1c0,0,0,0.1,0.1,0.1
			C70.5,32.3,70.6,32.3,70.8,32.4 M106.5,30.6C106.5,30.6,106.5,30.6,106.5,30.6c0.2,0,0.6-0.4,0.6-0.5c0,0-0.1,0-0.1,0
			C106.8,30,106.5,30.3,106.5,30.6 M105.4,21.6c-0.1,0-0.2-0.1-0.3-0.1c0,0-0.1,0-0.1,0c0,0,0,0.1,0.1,0.1c0.1,0.1,0.3,0.2,0.5,0.1
			c0,0,0.1,0,0.1,0C105.6,21.7,105.6,21.6,105.4,21.6 M106.7,22c0.1,0.1,0.3,0.2,0.4,0.3c0,0,0.1,0,0.1,0c0,0,0-0.1,0-0.1
			C107.1,22,106.9,22,106.7,22 M96.7,46.3c0,0,0-0.1,0-0.1c0,0,0-0.1,0-0.1c0,0-0.1-0.1-0.2,0c0,0-0.1,0.1-0.1,0.1
			C96.5,46.3,96.6,46.3,96.7,46.3 M88.1,22.8c-0.1,0-0.2,0-0.3,0c-0.1,0-0.1,0-0.2,0c0.1,0,0.1,0,0.2,0C87.9,22.8,88,22.8,88.1,22.8
			 M70,1.4c0,0,0.1,0,0.1,0C70.1,1.3,70.1,1.3,70,1.4C70.1,1.3,70,1.3,70,1.4 M69.9,4.3C69.9,4.3,69.9,4.3,69.9,4.3
			C69.9,4.3,70,4.3,69.9,4.3z"/>
		<path d="M50.8,30.9c0.6,0.3,1.2,0.5,1.8,0.7c0.5,0.2,0.9,0.6,1.3,0.8c0.3,0.2,0.6,0.5,0.9,0.8c0.3,0.3,0.6,0.7,0.9,1
			c0.2,0.2,0.4,0.4,0.6,0.6c0.3,0.4,0.5,0.8,0.8,1.2c0.2,0.4,0.5,0.7,0.7,1.1c0,0.1,0.2,0.1,0.2,0.1c0.2-0.2,0.3,0.1,0.3,0.1
			c0.1,0.3-0.1,0.8-0.4,1c0,0-0.1,0-0.1,0c-0.3-0.3-0.7-0.7-0.9-1.2c-0.2-0.4-0.5-0.8-0.8-1.2c-0.3-0.3-0.6-0.7-0.9-1
			c-0.4-0.4-0.9-0.8-1.4-1.1c-0.2-0.1-0.4-0.3-0.5-0.4c-0.3-0.3-0.8-0.3-1.1-0.5c-0.2-0.1-0.4-0.1-0.5-0.2c-0.5-0.3-1.1-0.5-1.6-0.8
			c-0.3-0.1-0.5-0.3-0.8-0.3c-0.2-0.1-0.4-0.2-0.7-0.3c-0.3-0.1-0.5-0.2-0.8-0.2c-0.4-0.1-0.8-0.3-1.3-0.4c-0.5-0.1-1-0.3-1.5-0.4
			c-0.6-0.1-1.2-0.1-1.7-0.1c-0.4,0-0.7-0.1-1.1,0.1c-0.3,0.1-0.6,0.1-0.8,0.2c-0.1,0-0.2,0-0.2-0.1c-0.2-0.2-0.4-0.2-0.6-0.2
			c-0.6,0-1.2,0.1-1.7,0.2c-0.2-0.2-0.4,0.1-0.7,0c-0.2-0.1-0.5,0-0.8,0.1c0,0-0.1,0.1-0.1,0.1c-0.3-0.2-0.7,0.1-1-0.1
			c-0.1,0-0.2,0-0.3,0c-0.2,0-0.4,0-0.6,0c-0.7-0.1-1.4-0.1-2.2-0.1c-0.3,0-0.5,0-0.8-0.1c-0.3-0.1-0.6,0-0.9,0c-0.3,0-0.7,0-1.1,0
			c-0.4,0-0.8-0.1-1.2-0.2c-0.3-0.1-0.6-0.1-0.9-0.2c-0.3-0.1-0.7-0.2-1-0.2c-0.3,0-0.5-0.2-0.8-0.2c-0.2,0-0.4-0.1-0.6-0.1
			c-0.1,0-0.1,0-0.2,0c-0.5-0.2-0.9-0.4-1.4-0.6c-0.6-0.2-1.1-0.5-1.8-0.7c-0.1,0-0.2,0-0.3,0c-0.2,0-0.5-0.1-0.7-0.1
			c-0.1,0-0.3,0-0.4-0.3c0-0.1-0.2-0.2-0.3-0.2c-0.3,0-0.5-0.1-0.8-0.2c-0.4-0.1-0.7-0.4-1-0.4c-0.1,0-0.3-0.1-0.4-0.2
			c-0.1-0.1-0.3-0.2-0.5-0.3c-0.2-0.1-0.5-0.2-0.7-0.3c-0.2-0.2-0.5-0.2-0.7-0.3c-0.2-0.1-0.3-0.2-0.5-0.3c-0.3-0.1-0.5-0.3-0.8-0.4
			c-0.8-0.5-1.5-1.2-2.1-1.9c-0.4-0.4-0.7-1-1-1.4c-0.2-0.3-0.5-0.6-0.6-1c-0.2-0.6-0.5-1.2-0.7-1.8c-0.1-0.3-0.1-0.6-0.1-0.9
			c0-0.2-0.1-0.5-0.1-0.7c0-0.4,0-0.8,0.1-1.1c0.1-0.3,0.4-0.5,0.7-0.7c0.1,0,0.2-0.1,0.2-0.1c0.2-0.1,0.3-0.1,0.5,0
			c0.2,0.2,0.3,0.4,0.2,0.6c-0.2,0.2-0.4,0.5-0.6,0.6c-0.3,0.1-0.3,0.4-0.3,0.6c0,0.4,0,0.8,0,1.2c0.1,0.3,0,0.6,0.1,0.9
			c0,0.1,0,0.2,0.1,0.3c0.3,0.5,0.5,1,0.9,1.5c0.4,0.5,0.8,1.1,1.2,1.6c0.5,0.5,1.2,0.9,1.8,1.3c0.5,0.3,0.9,0.5,1.4,0.7
			c0.6,0.3,1.3,0.6,2,0.8c0.2,0.1,0.3,0.1,0.5,0.2c0.6,0.3,1.3,0.4,1.9,0.6c0.5,0.1,1,0.1,1.4,0.4c0.6,0,1,0.4,1.5,0.6
			c0.9,0.4,1.8,0.7,2.7,1c0.5,0.2,1,0.2,1.6,0.3c0.5,0.1,1,0.2,1.6,0.2c0.2,0,0.5,0.2,0.8-0.1c0,0,0.1,0,0.1,0c0.2,0.1,0.5,0,0.7,0
			c0.1,0,0.2,0,0.2,0c0.1,0,0.2,0.1,0.3,0c0.3-0.1,0.5,0,0.8,0c0.5,0,1,0.1,1.4,0.2c0.2-0.2,0.4,0,0.6,0c0.3,0,0.6,0,1,0.1
			c0.2,0,0.5,0.1,0.8-0.1c0.2-0.1,0.5,0.1,0.7,0c0.2-0.1,0.5-0.1,0.7-0.1c0.6,0,1.1-0.1,1.7-0.2c0.3-0.1,0.6-0.2,1-0.2
			c0.2,0,0.4,0,0.7,0c0.5,0,1,0,1.5-0.1c0.2,0,0.5,0.1,0.7,0c0.3-0.1,0.6,0.1,0.9,0.1c0.1,0,0.2,0,0.3,0c0.1,0,0.2,0.1,0.3,0.1
			c0.7,0,1.2,0.2,1.8,0.5c0.8,0.4,1.6,0.7,2.4,1.1c0.2,0.1,0.5,0.2,0.6,0.3C50.4,30.8,50.6,30.8,50.8,30.9 M38.7,29.5
			C38.8,29.5,38.8,29.5,38.7,29.5C38.8,29.5,38.8,29.5,38.7,29.5C38.7,29.4,38.7,29.4,38.7,29.5C38.7,29.4,38.7,29.5,38.7,29.5
			 M43,29.8C43.1,29.9,43.1,29.9,43,29.8c0.3,0,0.1-0.2,0.2-0.3c0,0,0,0-0.1-0.1c0,0.1,0,0.1-0.1,0.2C43.1,29.7,43.1,29.7,43,29.8
			 M44.2,29.6c0,0,0-0.1,0-0.1C44.2,29.5,44.1,29.5,44.2,29.6C44.1,29.6,44.1,29.6,44.2,29.6 M36.5,29.7
			C36.5,29.7,36.6,29.7,36.5,29.7C36.5,29.7,36.5,29.7,36.5,29.7z"/>
		<path d="M41.9,35.6c0,0.2-0.1,0.2-0.2,0.1c0,0,0-0.1-0.1-0.1C41.8,35.6,41.9,35.6,41.9,35.6z"/>
		<path d="M92.3,40.6c0.2-0.3,0.3-0.7,0.6-0.9c0.3-0.2,0.4-0.2,0.8-0.1c0.5,0.2,1,0.3,1.5,0.6c0.1,0.1,0.2,0.1,0.2,0.2
			c0.3,0.4,0.7,0.7,0.9,1.1c0.3,0.4,0.4,0.8,0.3,1.3c-0.1,0.3-0.2,0.6-0.3,0.9c-0.2,0.6-0.7,0.8-1.3,0.8c-0.4,0.1-0.9,0-1.3-0.2
			c-0.4-0.2-0.8-0.3-1.1-0.7c-0.2-0.3-0.4-0.5-0.4-0.9c0-0.2-0.1-0.4-0.1-0.5c0-0.5,0.1-1,0.2-1.4C92.3,40.7,92.3,40.7,92.3,40.6
			 M93.7,42.5c0,0.2,0,0.4,0.1,0.5c0.1,0.2,0.3,0.3,0.4,0.2c0.2-0.1,0.4-0.2,0.5-0.4c0.3-0.4,0.5-0.8,0.2-1.3
			c-0.2-0.2-0.3-0.4-0.5-0.6c0,0-0.1,0-0.2,0c-0.1,0.1-0.1,0.2-0.2,0.2C93.8,41.6,93.8,42,93.7,42.5z"/>
		<path d="M68.5,44c-0.1-0.3-0.2-0.5-0.3-0.8c-0.1-0.4-0.1-0.8,0.2-1.1c0.2-0.2,0.3-0.5,0.4-0.7c0.2-0.5,0.7-0.8,1.3-0.7
			c0.2,0.1,0.5,0.1,0.7,0.1c0.1,0,0.3,0.1,0.4,0.1c0.7,0.5,1.1,1.2,1.4,2c0.1,0.3,0.1,0.7,0,1c-0.1,0.3-0.3,0.5-0.6,0.7
			c-0.2,0.1-0.4,0.2-0.5,0.4c-0.3,0.3-0.8,0.4-1.2,0.4c-0.2,0-0.4-0.1-0.5-0.2C69.2,44.9,68.8,44.5,68.5,44 M71.1,43
			c0-0.4-0.1-0.7-0.4-1c-0.2-0.2-0.2-0.2-0.4,0c-0.1,0.1-0.2,0.3-0.3,0.3c-0.4,0-0.5,0.4-0.7,0.6c-0.1,0.1-0.2,0.3,0,0.5
			c0.1,0.2,0.2,0.4,0.3,0.6c0.1,0.1,0.2,0.2,0.4,0.1c0.3,0,1-0.6,1.1-0.9C71.2,43.1,71.1,43.1,71.1,43z"/>
	</g>
</g>
</svg>
