<?xml version="1.0" encoding="utf-8"?>
<!-- Generator: Adobe Illustrator 26.1.0, SVG Export Plug-In . SVG Version: 6.00 Build 0)  -->
<svg version="1.1" id="Layer_1" xmlns="http://www.w3.org/2000/svg" xmlns:xlink="http://www.w3.org/1999/xlink" x="0px" y="0px"
	 viewBox="0 0 47.2 187.9" style="enable-background:new 0 0 47.2 187.9;" xml:space="preserve">
<style type="text/css">
	.st0{stroke:#00a77f;stroke-width:0.5987;stroke-miterlimit:10;}
	.st1{stroke:#00a77f;stroke-width:0.25;stroke-miterlimit:10;}
</style>
<g style='fill:#00a77f'>
	<path class="st0" d="M0.3,173c0-0.1,0.1-0.2,0.1-0.3c0-0.5,0-1.1,0-1.6c0-0.7,0-1.5,0-2.2c0-0.3,0-0.5,0.1-0.8c0-0.6,0-1.3,0.1-1.9
		c0-0.7,0-1.3,0.1-2c0-0.5,0-1,0.1-1.4c0-0.7,0-1.4,0.1-2.1c0-0.5,0-1,0.1-1.6c0-0.7,0-1.3,0.1-2c0-0.6,0-1.3,0.1-1.9
		c0-0.6,0-1.1,0.1-1.7c0-0.6,0-1.2,0.1-1.7c0-0.6,0-1.2,0.1-1.8c0-0.8,0-1.5,0.1-2.3c0-0.5,0.1-1,0.1-1.6c0-0.7,0-1.3,0.1-2
		c0-0.6,0.1-1.1,0.1-1.7c0-0.6,0-1.2,0-1.8c0-0.4,0.1-0.9,0.1-1.3c0-0.6,0-1.3,0.1-1.9c0-0.8,0-1.5,0.1-2.3c0-0.5,0-1,0-1.5
		c0-0.7,0-1.3,0.1-2c0-0.8,0.1-1.5,0.1-2.3c0.1-0.8,0.2-1.7,0.3-2.5c0.1-0.6,0.1-1.3,0.1-2c0-1,0-2.1,0.1-3.1c0-0.7,0-1.4,0.1-2.2
		c0-0.6,0-1.2,0.1-1.9c0-0.7,0-1.3,0.1-2c0-0.6,0-1.2,0.1-1.7c0-0.7,0-1.3,0.1-2c0-0.8,0-1.7,0.1-2.5c0.1-0.8,0.2-1.6,0.3-2.4
		c0-0.4,0-0.8,0.1-1.2c0-0.9,0.1-1.9,0.1-2.8c0-0.4-0.1-0.8-0.1-1.2c0-0.4,0-0.7,0.1-1.1c0-0.7,0-1.5,0.1-2.2c0-0.7,0-1.4,0.1-2.1
		c0-0.4,0.1-0.8,0.1-1.3c0-1,0.1-2,0.2-3c0-0.7-0.2-1.5-0.3-2.2c0-0.3-0.1-0.6-0.1-0.8c0-0.6-0.1-1.2-0.1-1.7c0-0.2,0.1-0.3,0.1-0.5
		c0-0.6,0-1.1,0-1.7c0-0.8,0.1-1.7,0.1-2.5c0-0.3,0-0.5,0-0.8c0-0.6,0-1.2,0-1.8c0-0.7-0.1-1.3-0.1-2c0-0.8,0-1.6,0-2.3
		c0-0.7,0.1-1.4,0.1-2.1c0-0.5,0-1,0.1-1.5c0.1-0.7,0.1-1.4,0.2-2.1c0.1-0.7,0.1-1.3,0.1-2C4,67.6,4.1,67,4.1,66.4
		c0-0.3,0-0.6,0.1-0.9c0.1-0.7,0.1-1.4,0.2-2.1c0-0.4,0-0.7,0.1-1.1c0.1-0.6,0.1-1.2,0.2-1.8c0.1-0.7,0.1-1.4,0.2-2.1
		c0.1-0.7,0.1-1.3,0.1-2c0-0.8,0.1-1.6,0.1-2.4c0-1.2,0.1-2.4,0.1-3.7c0-0.5-0.1-1.1-0.1-1.6c0-0.5,0-1,0-1.6c0-0.5-0.1-1-0.1-1.4
		c0-0.1,0.1-0.3,0.1-0.4c0-0.8,0-1.6-0.1-2.4c0-0.2,0-0.5,0-0.7c0-0.9-0.1-1.7-0.1-2.6c0-0.9,0-1.9,0.1-2.8c0-0.5,0-1,0-1.4
		c0-0.4,0.1-0.9,0.1-1.3c0-0.5,0-1,0-1.5c0-0.4,0-0.8,0.1-1.2c0-0.5,0.1-1.1,0.1-1.6c0-0.6,0-1.2,0-1.8C5,27.3,5,26.6,5,26
		c0-0.9,0.1-1.8,0.2-2.6c0.1-0.7,0.1-1.4,0.1-2c0.1-0.7,0.1-1.4,0.2-2c0-0.4,0-0.7,0.1-1.1c0.1-0.6,0.1-1.2,0.2-1.8
		c0-0.4,0-0.8,0-1.2c0-0.1,0.1-0.3,0.1-0.4c0-0.7,0-1.4,0-2c0-0.8,0-1.6,0.1-2.4c0-0.7,0-1.3,0.1-2C6,7.7,6,7,6,6.3
		c0-0.7,0-1.5,0.1-2.2c0.1-0.7,0.4-1.3,1-1.7C7.6,2.2,8.2,2,8.7,1.9c0.5-0.1,0.9,0,1.4,0.1c0.5,0.1,1,0.2,1.4,0.2c1.1,0,2.2,0,3.3,0
		c1.3,0,2.5-0.2,3.7-0.5c0.6-0.2,1.3-0.3,1.9-0.3c0.9,0,1.8-0.1,2.7-0.2C24,1,24.8,1,25.5,0.9c0.5,0,1.1-0.1,1.6-0.2
		c0.4,0,0.8,0,1.2-0.1c0.4-0.1,0.9-0.2,1.3-0.3c0.3-0.1,0.5-0.2,0.7,0.2c0,0.1,0.2,0.1,0.3,0.1c1,0,2.1,0,3.1-0.1c0.4,0,0.9,0,1.3,0
		c0.7,0,1.4,0.1,2.1,0.1c0.7,0.1,1.2,0.6,1.6,1.2c0.4,0.7,0.5,1.5,0.5,2.3c-0.1,0.7-0.2,1.3-0.2,2c0,1.1,0,2.2,0,3.3
		c0,0.8,0,1.6-0.1,2.3c0,0.6,0,1.2-0.1,1.7c0,0.9-0.1,1.7-0.1,2.6c0,0.4,0.1,0.8,0.4,1.1c0.6,0.7,1.3,1.3,2,1.9
		c0.6,0.5,1.3,0.5,2,0.3c0.3-0.1,0.6-0.1,1-0.2c0.7-0.1,1.5-0.2,2.2,0c0.1,0,0.2,0.1,0.3,0.1c0.2,0.1,0.3,0.3,0.1,0.5
		c-0.4,0.5-0.3,1-0.3,1.5c0,0.4,0,0.7-0.1,1.1c0,0.2,0,0.4-0.1,0.6c-0.2,0.6-0.8,0.7-1.3,0.8c-0.9,0.1-1.7,0.2-2.5,0.7
		c-0.6,0.4-1.1,0.8-1,1.7c0,0.7,0,1.5,0,2.2c0,0.7,0.1,1.5,0.1,2.2c0,0.1-0.1,0.3-0.1,0.4c0,0.6,0.1,1.1,0.1,1.7
		c0,0.6-0.1,1.3-0.1,1.9c0,0.3,0,0.7-0.1,1c-0.1,0.7-0.1,1.4-0.2,2.1c-0.1,0.7-0.1,1.4-0.2,2.1c-0.1,0.7-0.2,1.4-0.3,2.1
		c0,0.5,0,0.9-0.1,1.4c-0.1,0.7-0.1,1.4-0.2,2.1c-0.1,1-0.1,2-0.1,2.9c0,0.7,0,1.4,0,2.1c0,0.4-0.1,0.9-0.1,1.3c0,0.5,0,1.1,0,1.6
		c0,0.6-0.1,1.2-0.1,1.7c0,1.5,0,3.1,0,4.6c0,0.8,0.2,1.7,0.3,2.5c0,0.4,0.1,0.8,0.1,1.3c0.1,0.6,0.1,1.2,0.2,1.9c0,0.5,0,1.1,0,1.6
		c0,0.7,0.1,1.4,0.1,2.1c0,0.1,0,0.2,0,0.3c0,0.4-0.1,0.9-0.1,1.3c0,0.9,0,1.7-0.1,2.6c0,0.4,0,0.8-0.1,1.2c0,0.7,0,1.3-0.1,2
		c0,0.7,0,1.4-0.1,2.2c0,0.7-0.1,1.4-0.1,2.1c0,0.6-0.1,1.3-0.1,1.9c0,0.9-0.1,1.8-0.1,2.7c0,0.4-0.1,0.7-0.1,1.1c0,0.5,0,1,0,1.5
		c0,0.4-0.1,0.9-0.1,1.3c0,0.6,0,1.2,0,1.8c0,0.6,0,1.1-0.1,1.7c0,0.3,0,0.6,0,0.9c0,1.2,0,2.3-0.1,3.5c0,0.6,0,1.1,0,1.7
		c0,0.6-0.1,1.3-0.1,1.9c0,0.4,0.1,0.9,0.1,1.3c0,0.6,0,1.1,0,1.7c0,0.4,0.1,0.7,0.1,1.1c0,1,0,1.9,0.1,2.9c0,0.4,0,0.9,0,1.3
		c0,0.2-0.1,0.4-0.1,0.6c0,0.6,0.1,1.2,0.1,1.9c0,0.5,0,1,0,1.6c0,0.6,0.1,1.2,0.1,1.8c0,0.4,0,0.7,0.1,1.1c0.1,0.7,0.1,1.4,0.2,2.1
		c0,0.4,0,0.9,0.1,1.3c0,0.5,0.1,1,0.1,1.4c0,0.3,0,0.6,0.1,0.9c0,0.8,0.1,1.6,0.1,2.4c0,0.9-0.1,1.8-0.2,2.7c0,0.5-0.1,0.9-0.1,1.4
		c-0.1,0.7-0.1,1.4-0.1,2c0,0.6-0.1,1.2-0.1,1.8c0,0.6,0,1.1,0,1.7c0,0.5-0.1,1-0.1,1.6c0,1.3,0,2.5,0,3.8c0,0.4,0,0.8,0,1.1
		c0,0.7,0.1,1.3,0.1,2c0,0.1-0.1,0.3-0.1,0.4c0,0.9,0,1.8,0.1,2.7c0,0.3,0,0.6,0,0.9c0,1.7,0,3.4,0.1,5c0,0.3,0,0.6-0.1,0.9
		c0,0.7,0,1.5-0.1,2.2c0,0.5-0.1,1-0.1,1.5c0,0.7,0.2,0.8,0.8,0.7c0.5-0.1,1-0.2,1.4-0.3c1-0.1,2.1,0.5,2.6,1.3c0.4,0.7,0.3,1.3,0,2
		c-0.4,1-1.2,1.6-2.3,1.8c-0.6,0.1-1.3,0.2-1.9,0.3c-0.2,0-0.4,0-0.6,0c-0.6,0.1-0.9,0.6-0.7,1.3c0,0.2,0,0.4-0.1,0.6
		c0,1.5,0,3.1,0,4.6c0,0.6-0.1,1.3-0.2,1.9c0,0.5-0.1,1.1-0.1,1.6c0,0.4-0.1,0.7-0.1,1.1c0,0.5,0,1.1,0,1.6c0,0.5-0.1,1.1-0.1,1.6
		c0,0.2,0,0.4,0,0.7c0,0.9-0.1,1.8-0.1,2.8c-0.1,0.7-0.1,0.7-1,0.9c-0.5,0.1-0.7,0.4-0.8,1c0,0.5,0,0.9,0,1.4c0,0.5-0.1,1-0.2,1.4
		c0,0.2-0.1,0.5,0.2,0.7c0.1,0.1,0.3,0.2,0.1,0.4c-0.2,0.2-0.2,0.5-0.4,0.7c0,0.1-0.1,0.1-0.2,0.1c-0.7-0.1-1.4,0-2,0.5
		c-0.3,0.2-0.8,0.3-1.2,0.3c-1.1,0-2.1,0-3.2,0c-0.9,0-1.7,0.1-2.6,0.2c-0.6,0-1.1,0.1-1.7,0.1c-0.8,0.1-1.6,0.2-2.4,0.3
		c-0.1,0-0.2-0.1-0.4-0.1c-0.8,0-1.5,0-2.3,0.1c-0.3,0-0.5,0-0.8,0c-1.5,0-3.1,0.1-4.6,0.1c-0.7,0-1.4,0-2.2-0.1
		c-0.7,0-1.4-0.1-2-0.1c-0.5,0-1-0.1-1.6-0.2c-0.5-0.1-1.1-0.1-1.6-0.1c-0.4,0-0.8-0.1-1.2-0.1c-0.2,0-0.4,0-0.6,0
		c-0.5,0-0.9,0-1.4,0c-1-0.1-2,0-2.7-0.8c-0.6-0.6-1.1-1.3-1.4-2.1c-0.2-0.6-0.4-1.2-0.6-1.8c0-0.1,0-0.2,0-0.3c0-0.9,0-1.8,0-2.6
		c0-0.1,0-0.2,0-0.3C0.3,177,0.3,175,0.3,173 M9.2,123.1c0,0.7,0,1.3,0,2c0,1,0,2-0.1,3c0,0.7,0,1.4,0,2.1c0,0.5,0,1,0,1.5
		c0,0.8-0.1,1.6-0.1,2.4c0,0.5,0,1.1,0,1.6c0,0.6,0,1.3-0.1,1.9c0,0.4,0,0.9,0,1.3c0,0.4,0,0.7,0,1.1c-0.1,0.5-0.2,1-0.3,1.5
		c-0.1,0.6-0.1,1.1-0.2,1.7c0,0.4-0.1,0.8-0.1,1.1c0,0.5,0,1,0,1.5c0,0.8-0.1,1.6-0.1,2.3c0,2.8,0,5.5,0,8.3c0,0.8,0,1.7,0,2.5
		c0,0.8,0,1.6,0,2.3c0,0.1,0,0.3,0.1,0.4c0,0.4,0,0.9,0.1,1.3c0,0.5,0.1,1,0.1,1.4c0,0.5-0.2,1.1-0.2,1.6c-0.1,1-0.1,1.9-0.2,2.9
		c0,0.2,0,0.5,0,0.7c-0.1,0.7-0.1,1.4-0.2,2c0,0.4-0.1,0.9-0.1,1.3c-0.1,0.8-0.2,1.5-0.3,2.3c-0.1,0.4-0.1,0.8-0.2,1.2
		c0,0.4-0.1,0.8-0.1,1.2c0.1,0.7,0.6,1.2,1.3,1.4c0.7,0.2,1.5,0.4,2.2,0.5c0.9,0.1,1.9,0.2,2.9,0.2c0.6,0,1.2,0,1.8-0.1
		c0.7,0,1.4-0.1,2.1-0.2c0.9-0.1,1.8-0.2,2.8-0.3c0.7,0,1.4,0,2.1-0.1c0.6,0,1.3-0.1,1.9-0.1c0.7,0,1.4-0.1,2.2-0.1
		c0.4,0,0.9,0,1.3-0.1c0.4,0,0.8-0.1,1.2-0.1c0.5,0,1,0,1.5-0.1c0.8-0.1,1.7-0.2,2.5-0.3c0.5-0.1,1-0.1,1.6-0.1
		c0.2,0,0.5-0.1,0.7-0.2c0.4-0.2,0.6-0.7,0.6-1.1c0-1.6,0-3.3,0-4.9c0-1.6,0-3.2,0-4.8c0-0.4,0-0.8,0.1-1.2c0-0.4,0.1-0.9,0.1-1.3
		c0-0.5,0-0.9,0.1-1.4c0-0.5,0.1-1,0.1-1.5c0.1-0.5,0.1-1.1,0.2-1.6c0.1-0.6,0.2-1.1,0.2-1.7c0-0.4,0-0.7,0.1-1.1
		c0.1-0.5,0.1-0.9,0.2-1.4c0.1-0.7,0.1-1.3,0.2-2c0-0.5,0.1-1,0.1-1.4c0-0.6,0-1.2,0-1.9c0-0.5,0-1.1,0.1-1.6c0-0.5,0-1,0.1-1.4
		c0-0.6,0-1.1,0.1-1.7c0-0.8,0.1-1.6,0.1-2.4c0-0.3,0-0.7,0-1.1c0-0.5,0.1-1,0.1-1.5c0-0.1-0.1-0.2-0.1-0.3c0-0.8,0.1-1.6,0.1-2.3
		c0-1.5,0-2.9,0-4.4c0-0.4,0-0.7-0.1-1.1c0-0.5,0-1-0.1-1.5c0-0.7,0-1.4-0.1-2.1c0-0.7,0-1.5-0.1-2.2c0-0.8,0-1.7-0.1-2.5
		c0-0.4-0.1-0.7-0.1-1.1c0-0.5,0-1,0-1.5c0-0.5-0.1-0.9-0.1-1.4c0-1.4,0-2.7,0.1-4.1c0-0.4,0-0.7,0-1.1c0-1,0-2,0-3
		c0-0.5-0.1-1.1-0.1-1.6c-0.1-0.7-0.1-1.5-0.2-2.2c-0.1-0.9-0.2-1.9-0.1-2.8c0-0.2,0-0.3,0-0.5c0-0.3,0.1-0.6,0.1-0.9
		c0.1-0.5,0.1-1,0.1-1.4c0.1-0.6,0.2-1.3,0.2-1.9c0-0.6,0-1.2,0-1.8c0-0.7,0.1-1.3,0.1-2c0-0.9,0.1-1.7,0.1-2.6c0-0.8,0-1.5-0.1-2.3
		c0-0.5,0-0.9-0.1-1.4c0-0.8-0.1-1.6-0.1-2.5c0-0.8,0-1.7,0-2.5c0-0.1-0.1-0.3-0.1-0.4c0.1-0.8,0.2-1.6,0.3-2.4c0.1-0.8,0-1.7,0-2.5
		c0-1,0-2,0.1-3c0.1-1.2,0.2-2.4,0.3-3.6c0-1.1,0-2.2-0.1-3.3c0-2.9-0.1-5.8-0.1-8.6c0-0.6,0.1-1.2,0.1-1.8c0-3,0.1-5.9,0.1-8.9
		c0-1.3,0-2.7-0.1-4c0-0.6,0-1.1,0.1-1.7c0-0.5,0-1.1,0.1-1.6c0-0.7,0.1-1.3,0.1-2c0-0.3,0-0.7,0-1c0-0.3,0.1-0.7,0.1-1
		c0-0.6,0-1.2,0-1.7c0-0.6,0.1-1.3,0.1-1.9c0-0.4,0-0.7,0.1-1.1c0-0.4,0.1-0.7,0.1-1.1c0-0.5,0-1.1,0-1.6c0-0.7,0.1-1.3,0.1-2
		c0-0.3,0-0.7,0-1c0-0.4,0.1-0.8,0.1-1.2c0-0.6,0-1.1,0-1.7c0-0.8,0.1-1.5,0.2-2.3c0-0.7,0.1-1.3,0.1-2c0-0.1-0.1-0.3-0.1-0.4
		c0-0.8,0.1-1.5,0.1-2.2c0-0.2,0-0.3,0.1-0.5c0-0.3,0.1-0.7-0.1-1c-0.3-0.4-1.3-1-1.8-0.8c-0.8,0.2-1.5,0.3-2.3,0.4
		c-1,0.1-2.1,0.3-3.1,0.4c-0.7,0.1-1.4,0.1-2,0.1c-0.7,0-1.3,0.1-2,0.1c-0.7,0-1.4,0.1-2.2,0.1c-0.9,0-1.8,0-2.8,0.1
		c-0.1,0-0.3,0-0.4,0c-0.8,0-1.6-0.1-2.3-0.1c-0.3,0-0.6,0-0.9,0.1c-0.4,0-0.8,0-1.2,0c-0.7,0.1-1.4,0.2-2.1,0.4
		c-0.3,0.1-0.6,0.1-0.8,0.2c-0.4,0.2-0.6,0.6-0.6,1.1c-0.1,0.4-0.1,0.9-0.1,1.3c-0.1,0.5-0.2,1-0.3,1.6c-0.1,0.5-0.1,0.9-0.1,1.4
		c0,0.4-0.1,0.7-0.1,1.1c0,0.6,0,1.2,0,1.7c0,0.6-0.1,1.2-0.1,1.8c0,0.2,0,0.3,0,0.5c0,0.8-0.1,1.6-0.1,2.4c0,1.2,0,2.4,0,3.7
		c0,1.8,0,3.5-0.1,5.3c0,0.6,0,1.3-0.1,1.9c0,0.5-0.1,1-0.1,1.5c0,0.4,0,0.8-0.1,1.2c0,0.6-0.1,1.2-0.1,1.8c0,0.4,0,0.9-0.1,1.3
		c0,0.4-0.1,0.8-0.1,1.2c0,0.6,0,1.2,0,1.7c0,0.9-0.1,1.7-0.2,2.6c0,0.4,0,0.8-0.1,1.1c0,0.4-0.1,0.8-0.1,1.1c0,0.4,0,0.7-0.1,1.1
		c0,0.3-0.1,0.6-0.1,0.8c-0.1,0.5-0.1,1.1-0.1,1.6C12.1,61.3,12,62,12,62.8c-0.1,0.5-0.1,1.1-0.1,1.6c-0.1,0.6-0.2,1.2-0.2,1.8
		c0,0.6,0,1.2,0,1.8c0,0.9,0,1.8,0,2.7c0,0.1,0.1,0.3,0.1,0.4c0,0.6-0.1,1.1-0.1,1.7c0,0.3,0,0.5-0.1,0.8c-0.1,0.6-0.1,1.2-0.2,1.8
		c-0.1,0.5-0.1,1-0.1,1.5c0,0.5-0.1,0.9-0.1,1.4c0,0.4,0,0.8,0,1.3c-0.1,1.1-0.1,2.2-0.2,3.3c0,0.2,0.1,0.4,0.1,0.5
		c0,0.6,0,1.1,0,1.7c0,0.4,0.1,0.7,0.1,1.1c0,0.8,0,1.6-0.1,2.4c0,0.4,0,0.8,0,1.2c0,0.4,0,0.8-0.1,1.1c0,0.6-0.1,1.1-0.1,1.7
		c0,0.6-0.1,1.2-0.1,1.8c-0.1,0.7-0.2,1.3-0.2,2c-0.1,0.8-0.1,1.6-0.2,2.5c0,0.6-0.1,1.2-0.2,1.8c0,0.2,0,0.4-0.1,0.6
		c0,0.5-0.1,1-0.1,1.5c0,0.4,0,0.8-0.1,1.2c0,0.5-0.1,1.1-0.1,1.6c0,0.4,0,0.9-0.1,1.3c0,0.3-0.1,0.7-0.1,1c0,0.5,0,1.1,0,1.6
		c0,0.6-0.1,1.2-0.1,1.9c0,0.2,0,0.4,0,0.6c0,0.8,0,1.6-0.1,2.4c0,0.3,0,0.6,0,1c0,1.4,0,2.8-0.1,4.2c0,1.1,0,2.1,0,3.2
		C9.2,122.9,9.2,123,9.2,123.1 M1.9,167.1c0,0.2,0.1,0.4,0.1,0.6c0,0.5-0.1,1-0.1,1.5c0,0.1,0.1,0.2,0.1,0.3c0,0.7-0.1,1.3-0.1,2
		c0,0.1,0.1,0.3,0.1,0.4c0,0.7-0.1,1.4-0.1,2.2c0,0.2,0,0.5,0,0.7c0,0.7,0,1.5-0.1,2.2c0,0.3,0,0.6,0,1c0,1.4,0,2.8,0,4.2
		c0,0.8,0.2,0.8,0.8,1c0.1,0,0.2,0.1,0.3,0.1c0.8,0.2,1.5,0.5,2.3,0.6c0.9,0.2,1.9,0.3,2.9,0.4c1,0.1,1.9,0.2,2.9,0.2
		c0.5,0,1.1-0.1,1.6-0.1c0.7,0,1.5-0.1,2.2-0.1c0.7,0,1.4-0.1,2.1-0.1c0.7,0,1.4,0,2.1-0.1c0.4,0,0.8-0.1,1.2-0.1c0.6,0,1.3,0,1.9,0
		c0.3,0,0.5,0,0.8,0.1c0.3,0,0.6,0.1,0.8,0.1c0.7,0,1.4-0.1,2-0.1c0.6,0,1.2,0,1.8-0.1c0.7,0,1.3-0.1,2-0.2c0.6-0.1,1.1-0.1,1.7-0.1
		c0.6-0.1,1.2-0.1,1.9-0.2c0.4,0,0.6-0.2,0.7-0.6c0.1-0.4,0-0.9,0.1-1.3c0-0.2-0.1-0.4-0.3-0.4c-0.3,0-0.5,0-0.8,0
		c-0.4,0-0.8,0-1.2,0.1c-0.3,0-0.6,0.1-0.9,0.2c-0.6,0.1-1.2,0.1-1.8,0.1c-0.5,0-1,0.1-1.4,0.1c-1.3,0-2.7,0-4,0
		c-0.5,0-1.1,0-1.6,0.1c-0.6,0-1.2,0-1.7,0.1c-0.6,0-1.2,0-1.8,0.1c-0.6,0-1.2,0-1.8,0.1c-0.4,0-0.8,0.1-1.2,0.1c-0.5,0-1,0-1.5,0
		c-0.6,0-1.1,0.1-1.7,0.1c-0.6,0-1.1,0-1.7,0c-0.5,0-0.9-0.1-1.2-0.3c-0.9-0.6-1.7-1.2-2.5-1.8c-0.2-0.1-0.4-0.4-0.4-0.6
		c-0.1-0.3,0-0.6,0-0.9c0-0.6,0.1-1.3,0.1-1.9c0-0.1-0.1-0.3-0.1-0.4c0-0.6,0.1-1.3,0.1-1.9c0-0.1-0.1-0.2-0.1-0.3
		c0-0.5,0.1-1,0.1-1.5c0-0.1,0-0.2,0-0.4c0-0.4,0.1-0.8,0.1-1.2c0-0.5,0.1-1,0.1-1.6c0-0.4,0-0.7,0.1-1.1c0-0.5,0-0.9,0.1-1.4
		c0-0.4,0.1-0.9,0.1-1.3c0-0.5,0-1,0-1.5c0-0.6,0.1-1.1,0.1-1.7c0-0.1,0-0.2,0-0.4c0-0.7,0.1-1.4,0.1-2.2c0-0.1,0-0.3,0-0.4
		c0-0.7,0-1.4,0.1-2.1c0-0.5,0-1.1,0-1.6c0-0.9,0.1-1.9,0.1-2.8c0-2.1,0-4.1,0-6.2c0-0.6,0-1.1,0.1-1.7c0.1-1,0.2-1.9,0.3-2.9
		c0-0.2,0-0.5,0.1-0.7c0-0.3,0.1-0.5,0.1-0.8c0-0.5,0-1,0.1-1.5c0-0.4,0.1-0.8,0.1-1.2c0-0.6,0-1.2,0-1.7c0-0.4,0.1-0.9,0.1-1.3
		c0-0.1,0-0.2,0-0.4c0-0.5,0.1-0.9,0.1-1.4c0-0.6,0-1.2,0-1.9c0-0.6,0.1-1.2,0.1-1.7c0-0.1-0.1-0.3,0-0.4c0-0.7,0.1-1.5,0.1-2.2
		c0-0.5-0.1-0.9-0.1-1.4c0-0.9,0-1.8,0.1-2.7c0-0.5,0-1,0-1.4c0-1.3,0-2.6,0.1-4c0-0.3,0-0.6,0-1c0-1.3,0-2.6,0.1-3.9
		c0-0.3,0-0.5,0-0.8c0-0.4,0-0.7,0-1.1c0-0.6,0.1-1.1,0.1-1.7c0-0.1-0.1-0.2-0.1-0.4c0-0.5,0.1-1,0.1-1.4c0-0.1-0.1-0.2,0-0.4
		c0-0.6,0.1-1.2,0.1-1.8c0-0.1,0-0.2,0-0.3c0.1-0.5,0.1-1,0.2-1.6c0-0.5,0-1,0.1-1.5c0-0.2,0-0.4,0.1-0.6c0-0.5,0.1-1,0.1-1.6
		c0-0.4,0.1-0.7,0.1-1.1c0.1-0.7,0.2-1.4,0.3-2c0.1-0.5,0.1-0.9,0.1-1.4c0-0.5,0.1-1,0.1-1.5c0-0.7,0.1-1.4,0.1-2
		c0-1.5,0-3.1,0.1-4.6c0-0.4,0-0.8,0-1.2c0-1.4,0-2.7,0.1-4.1c0-0.1,0-0.2,0-0.4c0-0.7,0.1-1.5,0.1-2.2c0-0.2,0-0.3,0-0.5
		c0-0.9,0-1.7,0.1-2.6c0-0.4,0-0.8,0-1.1c0-0.5,0.1-1,0.1-1.5c0-0.1,0-0.2,0-0.3c0-0.5,0.1-1,0.1-1.4c0-0.1,0-0.2,0-0.3
		c0-0.4,0.1-0.8,0.1-1.2c0-0.5,0-1,0.1-1.5c0-0.6,0.1-1.3,0.1-1.9c0-0.7,0.1-1.3,0.1-2c0-0.8,0.1-1.6,0.1-2.4c0-0.5,0.1-1,0.1-1.5
		c0.1-0.6,0.1-1.3,0.2-1.9c0-0.4,0-0.8,0.1-1.3c0-0.2,0-0.5,0.1-0.7c0-0.3,0.1-0.6,0.1-0.9c0.1-0.5,0.1-1,0.1-1.5
		c0-0.4,0.1-0.8,0.1-1.3c0-0.6,0.1-1.1,0.1-1.7c0-0.6,0.1-1.2,0.2-1.8c0-0.2,0-0.5,0.1-0.7c0-0.5,0.1-1,0.1-1.5c0-0.4,0-0.9,0.1-1.3
		c0-0.3,0.1-0.6,0.1-0.9c0-0.5,0-0.9,0-1.4c0-0.5,0.1-1.1,0.1-1.6c0-0.4,0-0.8,0-1.2c0-0.7,0.1-1.3,0.1-2c0-0.5,0-0.9,0-1.4
		c0-0.6,0.1-1.2,0.1-1.8c0-0.1-0.1-0.2-0.1-0.4c0-0.8,0.1-1.6,0.1-2.4c0-0.2,0-0.4,0-0.7c0-0.9,0-1.8,0.1-2.7c0-0.3,0-0.5,0-0.8
		c0-1.1,0-2.2,0.1-3.2c0-0.4,0-0.7,0.1-1.1c0-0.6,0.1-1.1,0.1-1.7c0-0.4,0.1-0.8,0.1-1.1c0-0.3,0.1-0.6,0.1-0.9
		c0.1-0.9,0.5-1.6,1.3-2c1.1-0.5,2.2-0.8,3.4-0.8c1.1,0,2.2,0,3.3,0c0.4,0,0.9,0,1.3,0c0.8,0,1.6-0.1,2.4-0.1c0.5,0,1-0.1,1.6-0.1
		c0.6,0,1.2-0.1,1.8-0.1c0.5,0,1-0.1,1.4-0.1c0.2,0,0.5,0,0.7-0.1c0.7-0.1,1.4-0.1,2.1-0.2c0.4,0,0.8-0.1,1.1-0.1
		c0.4,0,0.7-0.1,1.1-0.1c0.2,0,0.5,0.1,0.7,0.1c0.5-0.1,1-0.2,1.5-0.4c0.4-0.1,0.8-0.4,0.8-0.9c0.1-0.4,0.1-0.8,0.1-1.3
		c0-0.5,0.1-1,0.1-1.5c0.1-0.6,0.1-1.3,0.2-1.9c0-0.2,0-0.4,0.1-0.6c0.1-0.7,0.2-1.4,0.2-2.1c0-0.8,0-1.7-0.1-2.5c0-0.4,0-0.8,0-1.2
		c0-0.4,0-0.7,0-1.1c0-0.4,0-0.8,0-1.1c-0.1-0.5-0.8-1.3-1.5-1.2c-0.3,0-0.7,0.1-1,0.1c-0.8,0-1.7,0-2.5,0c-0.3,0-0.5,0.1-0.8,0.1
		c-0.3,0-0.7,0-1,0c-0.2,0-0.4-0.1-0.6-0.1c-0.5,0-0.9,0.1-1.4,0.1c-0.2,0-0.5,0.1-0.7,0.2c-0.1,0-0.2,0-0.3,0
		c-0.6-0.3-1.1-0.5-1.8-0.4c-0.6,0.1-1.1,0.2-1.7,0.4c-0.5,0.1-0.9,0.2-1.4,0.3c-0.5,0-0.9-0.1-1.4-0.1C21.9,2,21.4,2,21,2
		c-0.7,0.1-1.4,0.1-2.2,0.3c-1.1,0.2-2.1,0.5-3.2,0.6c-0.7,0-1.3,0.2-2,0.2c-0.5,0-0.9-0.1-1.4-0.1c-0.6-0.1-1.1-0.2-1.7-0.3
		C10,2.5,9.4,2.3,8.8,2.4C8.3,2.4,7.9,2.6,7.5,3C7.3,3.4,7.1,3.7,7,4.1C7,4.6,6.9,5,6.9,5.5c0,0.5,0,0.9,0,1.4c0,0.3-0.1,0.7-0.1,1
		c0,0.6,0,1.1-0.1,1.7c0,0.2,0,0.5-0.1,0.7c0,0.6-0.1,1.3-0.1,1.9c0,0.7,0,1.3,0.1,2c0,0.3-0.1,0.6-0.1,0.9c0,0.2,0.1,0.4,0.1,0.7
		c0,0.3,0,0.6-0.1,1c0,0.3,0,0.6-0.1,1c-0.1,0.7-0.2,1.4-0.3,2.1c-0.1,0.5-0.1,1.1-0.1,1.6c-0.1,0.9-0.2,1.9-0.3,2.8
		c0,0.5,0,1.1,0.1,1.6c0,0.8,0,1.6,0,2.4c0,0.9,0,1.8,0.1,2.7c0.1,0.8,0,1.5,0.1,2.3C6,33.4,6,33.7,6,34c0,1,0,2,0,3
		c0,1,0.1,1.9,0.1,2.9c0,1,0,2,0,2.9c0,0.7,0,1.3,0.1,2c0,0.6,0,1.1,0,1.7c0,0.4,0.1,0.7,0.1,1.1c0,1.4,0,2.8-0.1,4.3
		c0,0.7,0,1.4,0,2.1c0,0.9-0.1,1.7-0.1,2.6c0,0.7-0.1,1.3-0.1,2c-0.1,0.6-0.1,1.2-0.2,1.8c0,0.4-0.1,0.7-0.1,1.1
		c-0.1,0.7-0.2,1.4-0.3,2.1c-0.1,0.5-0.1,1-0.1,1.4c0,0.5-0.1,1-0.1,1.5c0,0.5,0,1.1-0.1,1.6c0,0.2,0,0.4-0.1,0.7
		c0,0.6-0.1,1.2-0.1,1.9c0,0.4,0,0.9-0.1,1.3c0,0.3,0,0.6-0.1,0.9c0,0.2,0,0.5,0,0.7c0,0.6-0.1,1.1-0.1,1.7c0,0.7,0.2,1.5,0.2,2.2
		c0,0.5,0,1-0.1,1.5c0,0.7,0,1.4-0.1,2.1c0,0.1,0.1,0.3,0.1,0.4c0,0.7-0.1,1.3-0.1,2c0,0.2,0,0.4,0,0.7c0,0.8-0.1,1.6-0.1,2.3
		c0,0.7,0.1,1.3,0.2,2c0,0.4,0.1,0.8,0.1,1.2c0,0.5-0.1,1-0.1,1.4c0,0.1,0.1,0.2,0.1,0.4c0,0.5-0.1,1-0.1,1.6c0,0.1,0.1,0.2,0.1,0.4
		c0,0.7-0.1,1.5-0.1,2.2c0,0.3,0,0.6,0,0.8c0,1.6,0,3.3-0.1,4.9c0,0.3,0,0.6,0,1c0,0.8-0.1,1.7-0.1,2.5c0,0.6,0.1,1.1,0.1,1.7
		c0,1-0.1,2-0.1,3c0,0.2,0.1,0.4,0.1,0.7c0,0.9-0.1,1.9-0.1,2.8c0,0.2,0.1,0.3,0.1,0.5c0,0.6-0.1,1.2-0.1,1.8c0,0.6-0.1,1.3-0.1,1.9
		c-0.1,0.7-0.2,1.4-0.2,2.1c0,0.4,0.1,0.8,0.1,1.3c0,0.5,0,1-0.1,1.5c0,0.1,0.1,0.3,0,0.4c-0.1,0.6-0.2,1.2-0.2,1.9
		c-0.1,0.5-0.1,1.1-0.1,1.6c0,0.5-0.1,1.1-0.1,1.6c0,0.5-0.1,1-0.1,1.5c0,0.7-0.1,1.4-0.1,2c0,1.5,0,3.1,0,4.6c0,0.9,0,1.8,0.1,2.7
		c0,0.4,0,0.9,0.1,1.3c0,0.5,0,0.9,0.1,1.4c0,0.6,0.1,1.2,0.1,1.8c0,0.8,0,1.6,0.1,2.4c0,0.9,0,1.9,0.1,2.8c0,0.2,0,0.4,0,0.6
		c-0.1,0.7-0.3,1.4-0.8,1.9c-0.2,0.2-0.3,0.5-0.3,0.7c-0.1,0.7-0.1,1.4-0.1,2.1c0,0.5,0,1.1,0,1.6c0,0.9,0,1.8-0.1,2.7
		c0,0.1,0.1,0.3,0.1,0.4c0,0.6-0.1,1.3-0.1,1.9c0,0.1,0.1,0.2,0.1,0.4c0,0.7-0.1,1.3-0.1,2c0,0.1,0.1,0.2,0.1,0.3
		c0,0.5-0.1,1-0.1,1.6c0,0.1,0,0.2,0,0.3c0,0.5-0.1,1-0.1,1.4C1.9,166.2,1.9,166.7,1.9,167.1 M39.9,141.5c0-0.3-0.1-0.7-0.1-1
		c0-1.4,0-2.8,0-4.3c0-1,0-2-0.1-3c0-0.8,0-1.5-0.1-2.3c0-0.8,0.1-1.5,0.1-2.3c0-0.6,0.1-1.2,0.1-1.7c0-0.4,0-0.8,0-1.2
		c0-0.6,0.1-1.1,0.1-1.7c0-0.3-0.1-0.7-0.1-1c0-0.6,0-1.2,0-1.8c0-0.7-0.1-1.4-0.2-2.1c-0.1-0.6-0.1-1.3-0.1-1.9
		c-0.1-0.8-0.2-1.6-0.3-2.4c-0.1-0.7-0.1-1.4-0.1-2.1c0-0.5,0.1-1.1,0.1-1.6c0-0.9,0-1.8,0-2.7c0-1.6,0-3.3,0-4.9
		c0-0.7,0-1.5-0.1-2.2c0-0.3,0-0.5,0-0.8c0-0.8-0.1-1.6-0.1-2.5c0-1.3,0-2.6,0.1-4c0-0.1-0.1-0.3-0.1-0.4c0-0.7,0.1-1.4,0.1-2.1
		c0-0.1-0.1-0.3-0.1-0.4c0-0.7,0.1-1.4,0.1-2.1c0-0.1-0.1-0.2-0.1-0.3c0-0.6,0.1-1.3,0.1-1.9c0-0.1-0.1-0.2,0-0.4
		c0-0.6,0.1-1.3,0.1-1.9c0-0.1-0.1-0.2-0.1-0.3c0-0.6,0.1-1.2,0.1-1.9c0-0.1-0.1-0.3-0.1-0.4c0-0.5,0.1-1,0.1-1.5c0-2.6,0-5.1,0-7.7
		c0-0.1-0.1-0.3-0.1-0.4c0-0.4,0.1-0.8,0.1-1.3c0-0.7,0.1-1.4,0.1-2.1c0-1,0-2,0-2.9c0-0.6-0.2-1.3-0.2-1.9c-0.1-0.5,0-1-0.1-1.5
		c0-0.7-0.1-1.5-0.1-2.2c0-0.4,0-0.8,0.1-1.2c0-0.3,0-0.5,0-0.8c0-3.6,0-7.2,0.1-10.9c0-0.6,0-1.1,0-1.7c0-0.2,0-0.5,0.1-0.7
		c0-0.5,0-1,0.1-1.4c0-0.5,0.1-1,0.2-1.5c0.1-0.6,0.1-1.1,0.1-1.7c0-0.5,0.1-1,0.1-1.4c0-0.4,0-0.8,0.1-1.3c0.1-0.9,0.2-1.7,0.3-2.6
		c0.1-1.7,0.1-3.4,0.1-5.1c0-2.8,0-5.6,0-8.4c0-0.2,0-0.4,0.2-0.4c0.2-0.1,0.4,0.1,0.5,0.3c0.2,0.7,0.4,1.3,0.6,2
		c0.1,0.3,0.2,0.3,0.4,0.3c0.4-0.1,0.8-0.2,1.1-0.3c0.6-0.2,1.2-0.6,2-0.6c0.2,0,0.4-0.3,0.5-0.5c0.1-0.1,0-0.3,0-0.4
		c0-0.3,0-0.7-0.1-1c0-0.4-0.3-0.5-0.6-0.5c-0.3-0.1-0.6,0-0.8,0c-0.7,0.1-1.5,0.3-2.2,0.2c-0.3,0-0.7-0.1-1-0.3
		c-0.3-0.1-0.5-0.3-0.7-0.5c-0.1,0-0.2-0.1-0.3,0c0,0-0.1,0.1-0.1,0.2c0,0.3,0,0.6-0.1,0.9c-0.2,0.7-0.2,1.4-0.3,2.1
		c0,0.2,0,0.4-0.1,0.6c0,0.5,0,1-0.1,1.4c0,0.7-0.1,1.4-0.1,2.1c0,0.5,0,1-0.1,1.5c0,0.4-0.1,0.7-0.1,1.1c0,0.5,0,1,0,1.6
		c0,0.5-0.1,1-0.1,1.5c0,0.1,0.1,0.2,0.1,0.3c0,0.5-0.1,1.1-0.1,1.6c0,0.1,0,0.2,0,0.3c0,0.4-0.1,0.9-0.1,1.3c0,0.5,0,1-0.1,1.5
		c0,0.7-0.1,1.3-0.1,2c0,0.4,0,0.9-0.1,1.3c0,0.6-0.1,1.3-0.1,1.9c0,0.5,0,1,0,1.6c0,0.7-0.1,1.3-0.1,2c0,0.4,0,0.9,0,1.3
		c0,0.7-0.1,1.3-0.1,2c0,0.1,0.1,0.3,0.1,0.4c0,0.7-0.1,1.3-0.1,2c0,0.7,0.1,1.4,0.2,2.2c0,0.7,0.1,1.3,0.1,2c0,1.9,0,3.7,0,5.6
		c0,0.2,0.1,0.3,0.1,0.5c0,0.5,0,1,0,1.6c0,0.6,0.1,1.2,0.2,1.8c0,0.3,0,0.6,0.1,0.9c0,0.4,0.1,0.7,0.1,1.1c0,0.8-0.1,1.6-0.1,2.4
		c-0.1,0.8-0.1,1.5-0.2,2.3c0,0.2,0,0.3,0,0.5c0,0.3-0.1,0.6-0.1,0.9c0,0.5,0,0.9-0.1,1.4c0,0.3,0,0.6-0.1,1c0,0.5-0.1,1-0.1,1.5
		c0,0.5,0,1.1,0,1.6c0,0.7-0.1,1.3-0.1,2c0,0.1,0.1,0.2,0.1,0.3c0,0.7-0.1,1.3-0.1,2c0,0.2,0,0.4,0,0.6c0,0.7,0,1.5-0.1,2.2
		c0,0.2,0,0.4,0,0.7c0,0.8,0,1.7-0.1,2.5c0,0.5,0,0.9,0,1.4c0,2.3,0,4.5-0.1,6.8c0,0.1,0,0.2,0,0.3c0,0.2,0.1,0.4,0.1,0.5
		c0,0.7-0.1,1.4-0.1,2.1c0,0.1,0.1,0.2,0,0.3c0,0.5-0.1,1-0.1,1.5c0,0.5,0,1.1,0,1.6c0,1.1,0,2.2,0.1,3.3c0,0.7,0,1.3,0.1,2
		c0,0.5,0.1,1,0.1,1.5c0,0.6,0.1,1.3,0.1,1.9c0,0.6,0,1.3,0.1,1.9c0,0.5,0,1.1,0.1,1.6c0,0.6,0,1.2,0.1,1.8c0,0.4,0.1,0.7,0.1,1.1
		c0,0.4,0,0.9,0,1.3c0,0.6,0.1,1.3,0.1,1.9c0,5.6,0,11.2-0.1,16.8c0,0.1,0.1,0.3,0.1,0.4c0,0.6-0.1,1.1-0.1,1.7c0,0.5,0,1,0,1.5
		c0,0.6,0,1.1,0,1.7c0,0.5-0.1,1-0.1,1.5c0,0.1,0.1,0.2,0,0.4c0,0.7-0.1,1.3-0.1,2c0,0.1,0,0.2,0,0.3c0,0.6-0.1,1.2-0.1,1.7
		c0,0.2,0,0.4,0,0.5c0,1,0,1.9-0.1,2.9c0,0.5,0,1-0.1,1.5c0,0.2,0,0.5-0.1,0.7c0,0.5-0.1,1-0.1,1.5c-0.1,0.5-0.1,1-0.2,1.5
		c-0.1,0.4-0.1,0.9-0.1,1.3c0,0.5,0.2,0.6,0.7,0.6c0.5,0,1.1-0.1,1.6-0.1c0.6-0.1,1.1-0.1,1.7-0.2c0.7-0.1,1.4-0.2,2.1-0.3
		c0.5,0,0.9-0.3,1-0.7c0-0.4,0.1-0.8-0.1-1.3c-0.1-0.3-0.2-0.6-0.6-0.7c-0.5-0.1-0.9-0.2-1.4-0.2c-1.1-0.1-2.3,0.1-3.4-0.1
		c-0.2,0-0.3-0.1-0.5-0.1c0.1-0.1,0.2-0.3,0.4-0.4c0.5-0.4,0.8-0.9,0.8-1.5c0-0.7,0-1.4,0-2.2c0-0.9,0-1.8,0.1-2.7
		c0-0.2,0-0.5,0-0.7c0-0.7,0-1.4,0.1-2c0-0.1-0.1-0.3-0.1-0.4c0-0.7,0.1-1.5,0.1-2.2C39.9,144.1,39.9,142.8,39.9,141.5 M3.4,185.3
		c0.2,0.1,0.3,0.3,0.5,0.4c0.7,0.1,1.3,0.2,2,0.3c0.4,0,0.7,0,1.1,0.1c0.6,0,1.1,0.1,1.7,0.1c0.4,0,0.8,0,1.2,0.1
		c0.6,0,1.2,0.1,1.8,0.1c0.3,0,0.7,0,1,0c0.5,0,1.1,0.1,1.6,0.1c0.4,0,0.9,0,1.3-0.1c0.6,0,1.2,0,1.7-0.1c0.7,0,1.3,0,2-0.1
		c0.6,0,1.2,0,1.8-0.1c0.4,0,0.9,0,1.3-0.1c0.5,0,0.9-0.1,1.4-0.1c0.9,0,1.7,0,2.6,0c0.7,0,1.5-0.1,2.2-0.1c0.8,0,1.7,0,2.5,0
		c0.8,0,1.5,0,2.3-0.1c0.4,0,0.7,0,1-0.3c0.1-0.1,0.2-0.2,0-0.3c-0.2-0.3-0.5-0.3-0.8-0.3c-0.5-0.1-1-0.1-1.5-0.2
		c-0.5,0-0.9,0-1.4,0c-0.7,0-1.3,0-2,0.1c-0.4,0-0.9,0.1-1.3,0.1c-0.3,0-0.6,0.1-0.8,0.1c-0.4,0-0.7,0.1-1.1,0.1
		c-0.7,0-1.5-0.1-2.2-0.1c-0.9,0-1.8,0-2.7,0c-0.5,0-1,0-1.5,0.1c-0.6,0-1.3,0-1.9,0.1c-0.5,0-1,0.1-1.5,0.1c-2.3,0-4.6,0-6.9,0
		c-0.5,0-0.9-0.1-1.4-0.1c-0.5-0.1-1-0.1-1.5-0.2c-0.5-0.1-1-0.1-1.5-0.1c-0.4,0-0.9-0.1-1.3-0.1c-0.1,0-0.1,0.1-0.2,0.1
		c0,0,0.1,0.1,0.1,0.1C3.2,185.1,3.3,185.2,3.4,185.3 M38,161.9c-0.5,0.2-0.7,0.6-0.7,1.1c0,1.8,0,3.7,0.1,5.5c0,0.5,0,1.1,0,1.6
		c0,0.4,0,0.7,0,1.1c-0.1,0.7-0.2,1.4-0.2,2.1c0,0.6,0,1.1,0,1.7c0,0.5,0.1,0.9,0.3,1.3c0.1,0.5,0.3,1,0.5,1.5
		c0.1,0.1,0.2,0.3,0.4,0.1c0.1-0.1,0.1-0.4,0.1-0.6c0-0.3,0-0.6-0.1-0.8c0-0.4-0.1-0.7-0.1-1.1c0-0.5,0-0.9,0-1.4
		c0-0.5,0.1-1.1,0.2-1.6c0-0.5,0-0.9,0-1.4c0-0.6,0.1-1.3,0.1-1.9c0-0.3,0-0.6,0-1c0-0.4,0.1-0.7,0.1-1.1c0-0.5,0-1,0-1.4
		c0-0.5,0-1,0.1-1.5c0-0.3,0.1-0.6,0.1-0.9C39.1,162.2,38.8,161.8,38,161.9 M15.5,180.5c-0.3,0-0.7,0-1,0.1
		c-0.7,0.1-1.4,0.1-2.1,0.1c-0.4,0-0.8,0.1-1.3,0c-0.6-0.1-1.2-0.2-1.9,0c-0.1,0-0.3,0.1-0.4,0.2c0.1,0.1,0.1,0.2,0.2,0.3
		c0,0,0.1,0,0.1,0.1c0.4,0.3,0.9,0.2,1.4,0.2c0.6,0,1.2-0.1,1.8-0.1c0.6,0,1.3,0,1.9-0.1c0.7,0,1.5,0,2.2-0.1c0.5,0,1,0,1.4-0.1
		c0.6,0,1.2,0,1.8-0.1c0.6,0,1.2,0,1.8-0.1c0.5,0,1.1,0,1.6-0.1c0.6,0,1.2,0,1.8-0.1c0.5,0,1-0.1,1.5-0.1c0.7-0.1,1.5-0.1,2.2-0.1
		c0.7,0,1.5,0,2.2-0.1c0.5,0,1.1,0,1.6-0.1c0.3-0.1,0.6-0.2,0.9-0.4c0.1,0,0.1-0.1,0.1-0.1c0-0.1-0.1-0.1-0.2-0.1
		c-0.6-0.1-1.2-0.1-1.9-0.1c-0.5,0-1,0.1-1.5,0.1c-0.4,0-0.8,0-1.3,0.1c-0.5,0-1,0.1-1.5,0.1c-0.5,0-1,0-1.5,0.1
		c-0.4,0-0.9,0.1-1.3,0.1c-0.6,0-1.1,0-1.7,0.1c-0.6,0-1.2,0.1-1.8,0.1c-0.5,0-1,0-1.5,0c-0.6,0-1.3,0.1-1.9,0.1
		C16.9,180.4,16.2,180.4,15.5,180.5 M35.9,181c-0.2-0.1-0.4-0.3-0.7-0.4c-0.1-0.1-0.3-0.1-0.3,0.1c0,0.5-0.1,1,0,1.4
		c0.2,0.9,0.4,1.8,0.6,2.7c0,0.2,0.5,0.5,0.7,0.4c0.3-0.1,0-0.3,0.1-0.4c0-0.1,0-0.1,0-0.2c0-0.7,0-1.4,0-2.2c0-0.2-0.1-0.3-0.1-0.5
		C36.3,181.7,36.2,181.3,35.9,181 M37.8,179.4c-0.1,0-0.2,0-0.2,0c0,0-0.1,0.1-0.1,0.1c0.1,0.1,0.1,0.1,0.2,0.1
		C37.7,179.6,37.7,179.5,37.8,179.4 M35.2,179.6c0-0.1,0.1-0.1,0.1-0.2c-0.1,0-0.1,0-0.2,0C35.1,179.4,35.1,179.5,35.2,179.6z"/>
	<path class="st0" d="M45.3,71.6c-0.1,0.2-0.2,0.3-0.3,0.4c-0.3,0.6-0.7,0.9-1.4,1c-0.7,0.1-1.4,0.2-2.1,0.3
		c-0.6,0.1-1.1,0.1-1.6-0.2c0,0-0.1,0-0.1,0c0,0,0.1-0.1,0.1-0.1c0.6-0.3,1.2-0.5,1.8-0.6c0.6-0.1,1.2-0.2,1.8-0.4
		c1-0.3,1.1-0.8,0.8-1.7c-0.1-0.2-0.2-0.4-0.3-0.5c-0.3-0.4-0.5-0.5-1-0.3c-0.7,0.2-1.4,0.3-2.1,0.4c-0.3,0-0.6-0.1-0.9-0.2
		c-0.1,0-0.2-0.1,0-0.2c1-0.5,2.1-0.8,3.1-1.1c0.3-0.1,0.6-0.2,0.9,0.1c0.3,0.2,0.5,0.4,0.7,0.7c0.5,0.5,0.3,1.2,0.3,1.8
		c0,0.1,0,0.3,0,0.4C45.3,71.3,45.3,71.4,45.3,71.6z"/>
	<path class="st0" d="M27.1,139.4c-0.3,0-0.5,0-0.7,0c-0.5-0.1-0.9-0.5-0.9-1c-0.1-0.7,0.2-1.3,0.4-1.9c0-0.1,0.1-0.3,0.1-0.4
		c0-0.1,0-0.3-0.1-0.4c-0.2,0-0.4,0-0.5,0c-0.5,0.4-0.9,0.9-1.3,1.3c-0.8,0.8-1.5,1.7-2.3,2.4c-0.8,0.6-1,0.5-1.7-0.3
		c-0.7-0.8-1.3-1.7-1.9-2.5c-0.4-0.5-0.8-0.9-1.2-1.3c-0.3-0.3-0.5-0.3-0.6,0.1c-0.1,0.2-0.1,0.5-0.1,0.7c0,0.5,0,0.9-0.1,1.4
		c-0.1,0.8-0.2,1.7-0.3,2.5c0,0.2-0.2,0.4-0.4,0.5c-0.3,0.2-0.7,0.3-1.1,0.2c-0.4-0.1-0.8,0-1.2-0.1c-0.6-0.1-1.3-0.2-1.9-0.3
		c-0.8-0.1-1.3-0.7-1.4-1.4c-0.2-0.7-0.1-1.4,0-2.2c0.1-0.5,0.1-1,0.2-1.5c0.1-0.4,0.1-0.9,0.1-1.3c0-0.5,0-1.1,0.1-1.6
		c0-0.5,0.1-1,0.1-1.5c0-0.4,0-0.8,0.1-1.3c0.1-0.6,0.2-1.3,0.3-1.9c0.1-0.5,0.2-0.9,0.2-1.4c0.2-1.1,0.3-2.3,0.8-3.4
		c0.2-0.4,0.5-0.5,0.9-0.3c0.2,0.1,0.4,0.2,0.6,0.4c1,0.9,1.9,1.9,2.9,2.8c1.1,1,2.1,2,3.2,3.1c0.3,0.3,0.5,0.6,0.8,0.9
		c0.4,0.5,0.9,0.4,1.2,0c0.5-0.7,0.9-1.4,1.4-2.1c0.4-0.5,0.9-0.9,1.3-1.3c0.5-0.5,1-0.9,1.5-1.4c1-1,2.1-1.9,3.1-2.8
		c0.2-0.2,0.5-0.4,0.7-0.5c0.6-0.4,1-0.2,1,0.5c0.1,0.7,0.1,1.4,0.2,2.1c0.1,0.6,0.1,1.2,0.1,1.8c0.1,0.6,0.1,1.2,0.2,1.8
		c0,0.4,0,0.7,0,1.1c0,0.7,0,1.5,0.1,2.2c0,0.2,0,0.4,0,0.7c0,0.7,0.1,1.5,0.1,2.2c0,0.1-0.1,0.3-0.1,0.4c0,0.6,0.1,1.3,0.1,1.9
		c0,0.7-0.1,1.3-0.2,2c-0.1,0.5-0.5,0.6-0.9,0.7c-0.9,0.2-1.7,0.4-2.6,0.6C27.3,139.4,27.2,139.4,27.1,139.4 M13.9,124.9
		c-0.2-0.2-0.5-0.5-0.7-0.7c-0.2-0.2-0.4-0.2-0.6,0.1c-0.1,0.2-0.2,0.4-0.2,0.7c-0.1,0.4-0.1,0.9-0.1,1.3c-0.1,0.6-0.2,1.3-0.3,1.9
		c-0.1,0.4-0.1,0.9-0.1,1.3c0,0.3-0.1,0.6-0.1,0.9c-0.1,0.5-0.1,1.1-0.1,1.6c-0.1,0.5-0.1,1-0.2,1.5c0,0.4,0,0.8-0.1,1.2
		c0,0.3-0.1,0.7-0.1,1c0,0.4,0,0.7,0,1.1c0,0.5,0,1-0.1,1.5c0,0.2,0,0.3,0.1,0.5c0.1,0.4,0.5,0.6,0.8,0.6c0.6,0.1,1.1,0.2,1.7,0.3
		c0.2,0,0.5,0,0.7-0.1c0.4-0.1,0.6-0.7,0.6-1.2c0-0.4,0-0.7,0-1.1c0.1-0.7,0.2-1.4,0.3-2.1c0.1-0.6,0.2-1.1,0.3-1.7
		c0.1-0.6,0.4-0.6,0.8-0.2c0.6,0.6,1.2,1.2,1.8,1.9c0.3,0.3,0.6,0.6,0.9,1c0.2,0.2,0.3,0.4,0.5,0.6c0.4,0.5,0.9,1,1.4,1.5
		c0.2,0.2,0.4,0.2,0.6,0c0.1-0.1,0.3-0.3,0.4-0.4c0.5-0.6,1-1.3,1.5-1.9c0.4-0.4,0.7-0.8,1.1-1.3c0.4-0.6,0.9-0.9,1.6-1.1
		c0.1,0,0.2,0,0.2,0c0.3,0.4,0.4,0.8,0.5,1.2c0,0.4,0,0.8-0.1,1.2c-0.1,0.6-0.2,1.2-0.2,1.8c0,0.2,0.2,0.4,0.4,0.6
		c0.1,0.1,0.3,0,0.4,0c0.4-0.1,0.8-0.3,1.2-0.5c0.9-0.4,1.4-0.5,1.3-1.8c0-0.4-0.1-0.9-0.1-1.3c0-1.1,0-2.1,0-3.2c0-0.5,0-1,0-1.5
		c0-2.2,0-4.5-0.1-6.7c0-0.2,0-0.5-0.1-0.7c0-0.1-0.1-0.2-0.2-0.1c-0.4,0.2-0.9,0.4-1.3,0.7c-0.6,0.6-1.2,1.2-1.8,1.8
		c-1,1-1.9,2-2.9,3c-0.4,0.4-0.7,0.8-1,1.2c-0.4,0.6-0.9,1.2-1.3,1.7c-0.4,0.5-0.9,0.4-1.2,0c-0.6-0.6-1.1-1.2-1.7-1.8
		C16.9,127.9,15.4,126.5,13.9,124.9z"/>
	<path class="st0" d="M16.6,95.2C17,95,17.5,95,18,95c0.6,0,1.2-0.1,1.8-0.2c0.5,0,1,0,1.4-0.1c0.3,0,0.6,0,0.8-0.1
		c0.5,0,1,0,1.5-0.1c0.4,0,0.7,0,1.1-0.1c0.5,0,1.1,0,1.6-0.1c0.3,0,0.6-0.1,0.8-0.1c0.7,0,1.1,0.3,1.1,1.1c0,0.6,0,1.2,0.1,1.8
		c0,1.1-0.7,1.8-1.7,1.9c-0.8,0.1-1.6,0.3-2.4,0.4c-0.7,0.1-1.4,0.2-2,0.3c-0.4,0.1-0.8,0.1-0.9,0.6c-0.1,0.3,0.1,0.7,0.5,0.7
		c0.3,0,0.7,0,1-0.1c0.5-0.1,1-0.2,1.4-0.2c0.6,0,1.3,0,1.9,0c1,0,1.2,0.4,1.5,1.1c0.3,0.8,0.3,1.6,0.3,2.4c-0.1,0.6-0.5,1-1.1,1.1
		c-0.9,0.2-1.8,0.3-2.7,0.4c-0.5,0.1-1.1,0-1.6,0c-0.5,0-1,0.1-1.5,0.2c-0.3,0.1-0.5,0.3-0.4,0.6c0,0.2,0,0.4,0,0.6
		c0,0.3,0.2,0.4,0.5,0.4c0.3,0,0.6,0,0.9,0c0.3,0,0.7-0.1,1-0.1c0.4-0.1,0.9-0.1,1.3-0.2c0.4,0,0.7-0.1,1.1-0.1
		c0.5-0.1,1-0.1,1.5-0.2c0.4,0,1,0.4,1.1,0.8c0.2,0.9,0.2,1.8-0.3,2.6c-0.3,0.5-0.7,0.7-1.2,0.9c-0.8,0.2-1.6,0.1-2.4,0.1
		c-1.3,0-2.5,0.1-3.8,0.1c-1,0-2,0-3.1-0.1c-0.8,0-1.5-0.2-1.9-0.8c-0.2-0.3-0.4-0.6-0.4-1c-0.1-0.5,0-1,0.1-1.5
		c0.1-0.6,0.2-1.2,0.3-1.8c0.1-0.5,0.1-1,0.1-1.5c0-0.8,0-1.6,0.1-2.4c0-0.8,0.1-1.6,0.1-2.3c0-0.6,0.1-1.2,0.1-1.9
		c0-0.8,0.1-1.5,0.2-2.3C15.8,95.7,16.2,95.4,16.6,95.2 M16.1,109.1c0,0.2,0,0.4,0,0.5c-0.2,0.9,0.2,1.5,1.1,1.5
		c0.5,0,1-0.2,1.6-0.2c0.8-0.1,1.6-0.1,2.4-0.1c0.7,0,1.5,0,2.2-0.1c0.4,0,0.8,0,1.2-0.1c0.4,0,0.9,0,1.3-0.1c0.3,0,0.6-0.2,0.7-0.5
		c0.3-0.5,0.5-1.1,0.7-1.7c0,0-0.1-0.2-0.1-0.2c-0.4-0.1-0.7-0.1-1.1-0.1c-0.5,0-1.1-0.1-1.6-0.1c-0.6,0-1.2,0.2-1.8,0.3
		c-0.3,0.1-0.7,0.1-1,0.2c-0.5,0.1-1.1,0.5-1.6-0.1c0,0-0.1-0.1-0.2-0.1c-0.3-0.2-0.6-0.3-0.5-0.8c0-0.2,0-0.5,0-0.7
		c0-0.3,0-0.7,0.1-1c0.1-0.5,0.6-0.6,1-0.7c0.4-0.1,0.9-0.2,1.4-0.2c0.5-0.1,1-0.1,1.5-0.1c0.3,0,0.5,0,0.8-0.1
		c0.7-0.1,1.5-0.1,2.2-0.2c0.4,0,0.8-0.5,0.7-0.8c-0.1-0.4-0.3-0.8-0.4-1.1c-0.1-0.2-0.3-0.4-0.4-0.4c-0.4-0.1-0.7-0.1-1.1-0.1
		c-1.4,0-2.9,0-4.3,0c-0.4,0-0.6-0.2-0.5-0.6c0.1-0.5,0-1,0.1-1.4c0.1-0.4,0.1-0.8,0.4-1.1c0.3-0.3,0.6-0.3,1-0.4
		c0.5-0.1,1.1,0,1.6-0.1c0.6,0,1.1-0.1,1.7-0.2c0.5-0.1,1.1-0.1,1.6-0.2c0.4-0.1,0.8-0.4,0.8-0.7c0-0.5-0.1-1-0.1-1.4
		c0-0.4-0.2-0.4-0.5-0.4c-0.6,0.1-1.1,0.1-1.7,0.1c-0.7,0-1.4,0.1-2.1,0.1c-0.7,0-1.4,0.1-2,0.1c-0.2,0-0.5,0.1-0.7,0.1
		c-0.6,0.1-1.1,0.1-1.7,0.2c-0.3,0-0.6,0-0.8,0.1c-0.6,0.2-0.9,0.8-0.8,1.3c0,0.3,0,0.7,0,1.1c0,0.3,0,0.7,0,1
		c0,0.5-0.1,0.9-0.1,1.4c0,0.4-0.1,0.7-0.1,1.1c0,0.6,0,1.1,0,1.7c0,0.4-0.1,0.9-0.1,1.3c0,0.5,0,0.9,0,1.4c0,0.5-0.1,0.9-0.1,1.4
		C16.2,108.3,16.1,108.7,16.1,109.1z"/>
	<path class="st0" d="M16.7,158.5c0.8-1.6,1.5-3.1,2.3-4.6c0.4-0.7,0.7-1.5,1.3-2c0.2-0.2,0.5-0.4,0.8-0.5c0.3-0.1,0.7,0.1,1,0.6
		c0.4,0.8,0.7,1.6,1.1,2.4c0.2,0.6,0.5,1.1,0.7,1.7c0.5,1.1,1,2.3,1.5,3.4c0.3,0.8,0.7,1.6,1,2.4c0.4,1,0.8,2,1.3,3
		c0.5,1.2,1.1,2.3,1.6,3.4c0.2,0.5,0.4,0.9,0.4,1.5c0,0.3-0.3,0.6-0.6,0.6c-0.7,0-1.4,0.2-2.1,0.4c-0.6,0.1-1.3,0.3-1.9,0
		c-0.4-0.3-0.8-0.6-1-1.1c-0.5-1.3-1.4-1.8-2.7-2.2c-1.4-0.4-2.6,0.2-3.8,0.8c-0.3,0.2-0.5,0.6-0.7,0.9c-0.4,0.6-0.8,1.3-1.2,1.9
		c-0.4,0.7-0.9,0.9-1.7,0.6c-0.8-0.3-1.5-0.6-2.2-0.9c-0.5-0.2-0.6-0.5-0.4-1c0.3-0.7,0.6-1.4,1-2.2c0.7-1.6,1.5-3.2,2.2-4.7
		C15.3,161.5,16,160,16.7,158.5 M14.5,166.3c-0.1,0.3-0.3,0.6-0.4,0.9c-0.4,0.8-0.8,1.7-1.1,2.6c-0.2,0.5-0.1,0.8,0.4,0.9
		c0.7,0.2,1.5-0.3,1.8-0.9c0.1-0.3,0.3-0.7,0.5-0.9c0.5-0.6,1-1.2,1.6-1.8c0.3-0.3,0.8-0.5,1.2-0.7c0.8-0.3,1.6-0.2,2.4-0.3
		c0.8,0,1.7,0,2.5,0c0.5,0,0.8,0.2,1.2,0.5c0.3,0.3,0.4,0.8,0.4,1.2c0.1,0.5,0.1,0.9,0.4,1.3c0.1,0.2,0.3,0.4,0.6,0.3
		c0.4-0.1,0.9-0.2,1.4-0.3c0.4-0.1,0.5-0.3,0.4-0.7c0-0.1-0.1-0.2-0.1-0.3c-0.3-0.8-0.7-1.7-1-2.5c-0.4-0.9-0.7-1.9-1.1-2.8
		c-0.4-0.9-0.7-1.8-1.1-2.8c-0.5-1.1-0.9-2.3-1.4-3.4c-0.4-0.9-0.7-1.8-1.1-2.7c-0.1-0.4-0.3-0.7-0.5-1.1c-0.2-0.5-0.3-0.5-0.6-0.1
		c-0.4,0.7-0.7,1.5-1.1,2.3c-0.7,1.5-1.4,3.1-2.1,4.6c-0.5,1-1,2-1.5,3.1C15.5,164,15,165.1,14.5,166.3z"/>
	<path class="st0" d="M19,85.2c-0.5,0-1.1,0-1.6,0c-0.6,0-1.3-0.2-1.8-0.7c-0.3-0.3-0.5-0.7-0.5-1.2c0-0.7,0-1.4,0.1-2.1
		c0-0.8,0-1.5,0.1-2.3c0-0.8,0.1-1.6,0.1-2.4c0-0.5,0.1-1,0.1-1.6c0-0.5,0-1,0.1-1.5c0.1-0.7,0.2-1.3,0.3-2c0.1-0.3,0.2-0.6,0.2-0.9
		c0.2-0.8,1-1,1.7-0.6c1.6,1,3.1,2.1,4.6,3.1c0.7,0.4,1.3,0.9,2,1.3c0.1,0.1,0.2,0.1,0.4,0.1c0.2,0,0.3-0.1,0.3-0.3
		c0-0.9-0.1-1.7-0.1-2.6c0-0.6,0.2-1.2,0.3-1.8c0.1-0.3,0.6-0.6,1-0.6c0.6,0,1.2-0.2,1.8-0.1c0.7,0.1,1.5,0,2,0.7
		c0.2,0.3,0.3,0.6,0.3,0.9c-0.1,0.9-0.2,1.7-0.3,2.6c-0.1,0.7-0.2,1.5-0.3,2.2c-0.1,0.6-0.1,1.2-0.2,1.8c-0.1,0.7-0.1,1.4-0.1,2.1
		c0,0.5,0.1,1.1,0,1.6c-0.1,0.8,0,1.6-0.2,2.4c-0.2,0.7-0.5,0.9-1.2,0.6c-0.6-0.2-1.1-0.7-1.6-1.1c-0.7-0.6-1.3-1.1-2-1.7
		c-0.6-0.5-1.2-1-1.8-1.5c-0.6-0.5-1.2-0.9-1.8-1.4c-0.2-0.2-0.4-0.1-0.4,0.2c-0.1,0.5-0.2,1-0.2,1.5c0,0.9,0,1.8-0.1,2.6
		c0,0.5,0,0.9-0.1,1.4C20.1,84.8,19.8,85.1,19,85.2 M28.5,81c0-0.2,0-0.4,0-0.6c0-0.5,0.1-1,0.1-1.5c0-0.1-0.1-0.2,0-0.4
		c0.1-0.9,0.1-1.8,0.2-2.7c0-0.3,0-0.7,0.1-1c0.1-0.5,0.1-1,0.2-1.4c0.2-0.9,0.4-1.8,0.7-2.7c0.1-0.3,0.1-0.4-0.3-0.4
		c-0.8,0-1.5,0-2.3,0c-0.5,0-0.8,0.3-0.8,0.8c0,1.5,0,3,0,4.5c0,0.7-0.3,0.9-0.9,0.7c-0.2-0.1-0.5-0.2-0.7-0.3
		c-1.1-0.7-2.3-1.3-3.4-2c-0.8-0.5-1.6-1.1-2.4-1.6c-0.4-0.2-0.7-0.5-1-0.8c-0.4-0.3-0.6-0.2-0.7,0.2c-0.2,1.1-0.3,2.2-0.5,3.2
		c-0.1,0.8-0.2,1.6-0.2,2.4c-0.1,1.2-0.1,2.4-0.1,3.6c0,0.1,0.1,0.2,0.1,0.3c0,0.8-0.1,1.7-0.1,2.5c0,0.4,0.2,0.6,0.5,0.7
		c0.6,0,1.1,0.1,1.7,0c0.3,0,0.5-0.3,0.6-0.6c0.1-0.8,0.1-1.6,0.2-2.4c0-0.4,0-0.8,0-1.2c0-0.5,0.1-1,0.1-1.5c0-0.3,0-0.7,0.1-1
		c0-0.2,0.1-0.5,0.4-0.5c0.4-0.1,0.7-0.1,1,0.1c0.7,0.5,1.3,1,2,1.5c1.1,0.8,2.2,1.7,3.3,2.5c0.6,0.5,1.2,0.9,1.8,1.4
		c0.1,0,0.2,0.1,0.2,0.1c0.1-0.1,0.1-0.2,0.1-0.3C28.4,82,28.4,81.5,28.5,81z"/>
	<path class="st0" d="M21.7,23.1c0.8-0.2,1.5-0.4,2.3-0.6c0.3-0.1,0.6,0,0.8,0.1c0.7,0.1,1.3,0.2,1.9,0.4c1.2,0.3,2.3,0.7,3.5,1.1
		c0.6,0.2,1,0.7,1.2,1.3c0.1,0.2,0,0.4,0,0.6c-0.2,0.7-0.5,1.1-1,1.5c-0.3,0.3-0.7,0.2-1.1,0.1c-0.6-0.2-1.1-0.6-1.7-0.8
		c-0.6-0.2-1.3-0.5-1.9-0.6c-1.2-0.1-2.3,0.2-3.3,1c-0.9,0.6-1.5,1.4-1.8,2.5c-0.2,0.6-0.1,1.2,0.1,1.8c0.2,0.4,0.4,0.9,0.6,1.3
		c0.3,0.5,0.7,0.8,1.3,0.9c0.8,0.1,1.5-0.1,2.2-0.3c0.9-0.2,1.8-0.4,2.8-0.7c0.5-0.1,1.1-0.3,1.6-0.3c0.7-0.1,1.6,0.5,1.8,1.3
		c0.3,1.1,0.2,2.2-0.4,3.2c-0.2,0.4-0.6,0.7-1,0.9c-0.8,0.5-1.6,0.8-2.5,1.1c-0.4,0.1-0.9,0.2-1.3,0.2c-0.8,0-1.7,0-2.5,0
		c-0.2,0-0.4-0.1-0.6-0.1c-0.1,0-0.2-0.1-0.2-0.1c0.1-0.1,0.1-0.2,0.2-0.2c0.4-0.1,0.7-0.2,1.1-0.2c0.5,0,1.1,0,1.7-0.1
		c1.4-0.1,2.6-0.7,3.8-1.5c0.1-0.1,0.2-0.1,0.3-0.1c0.4-0.1,0.5-0.4,0.6-0.7c0-0.1,0-0.1,0-0.2c-0.1,0-0.2-0.1-0.3,0
		c-0.7,0.3-1.4,0.7-2.1,1c-0.8,0.4-1.7,0.7-2.6,0.8c-0.6,0.1-1.2,0-1.8-0.1c-0.1,0-0.3,0-0.4,0c-0.7,0-1.5,0-2.2,0
		c-0.2,0-0.5,0-0.7-0.1c-0.5-0.1-0.9-0.1-1.4-0.3c-0.9-0.2-1.5-0.9-1.9-1.6c-0.4-0.8-0.7-1.6-0.7-2.5c0-0.3-0.1-0.7-0.2-1
		c0-0.2,0-0.4,0.1-0.6c0.1-1.2,0.4-2.5,1-3.6c0.3-0.6,0.7-1.2,1.2-1.8c0.6-0.7,1.4-1.4,2.1-2C20.7,23.6,21.2,23.4,21.7,23.1
		 M18.5,27.2c-0.3,0.7-0.7,1.4-1,2.1C17,30.2,17,31.1,17,32.1c0,0.4,0.1,0.8,0.3,1.2c0.4,1.3,1,2.3,2.2,2.8c1,0.5,2.1,0.6,3.2,0.7
		c0.4,0,0.9-0.1,1.3,0c0.6,0.1,1.1-0.1,1.7-0.2c1.3-0.4,2.5-1,3.6-1.7c0.3-0.2,0.6-0.4,0.8-0.6c0.1-0.1,0.1-0.4,0.1-0.4
		c-0.5-0.5-1-0.8-1.8-0.8c-0.6,0-1.1,0.4-1.7,0.6c-0.6,0.2-1.3,0.4-1.9,0.6c-0.5,0.1-1,0.2-1.6,0.2c-0.5,0-1,0-1.4-0.2
		c-0.5-0.2-0.9-0.6-1.2-1c-0.6-0.9-1-1.8-1.1-2.8c0-0.3,0.1-0.7,0.3-1c0.5-1.5,1.5-2.8,3-3.5c1-0.5,2.1-0.8,3.3-0.4
		c0.7,0.2,1.4,0.4,2.1,0.7c0.9,0.4,1.7,0.3,2.5-0.3c0.4-0.3,0.4-0.4,0.1-0.7c-0.5-0.3-1-0.6-1.5-0.9c-1.1-0.6-2.2-0.8-3.4-0.8
		c-0.7,0-1.3,0-2,0.1c-0.8,0.1-1.6,0.3-2.3,0.7C20.2,24.8,19.3,25.9,18.5,27.2z"/>
	<path class="st0" d="M21.3,51.8c0-0.7,0-1.3,0.1-1.9c0.1-1,0.1-1.9,0.4-2.9c0.3-0.7,0.7-1.2,1.5-1.3c0.8-0.1,1.5,0.1,2,0.7
		c0.4,0.4,0.7,1,0.7,1.6c0,1.1,0,2.1,0.1,3.2c0,0.4,0,0.8-0.1,1.3c0,0.7-0.1,1.3-0.1,2c0,0.3,0,0.7-0.1,1c-0.1,0.9-0.1,1.8-0.2,2.7
		c0,0.4-0.1,0.7-0.1,1.1c0,0.7-0.6,1.1-1.2,1.3c-0.5,0.1-1.1,0.1-1.6,0c-0.3-0.1-0.7-0.1-1-0.1c-0.5-0.1-0.9-0.6-0.9-1.2
		c0-0.5,0-1.1,0.1-1.6c0-0.7,0.1-1.4,0.1-2.1c0-0.5,0-1,0.1-1.5c0-0.4,0.1-0.9,0.1-1.3C21.3,52.4,21.3,52.1,21.3,51.8 M22.1,54.3
		c0,0.6,0,1.3-0.1,1.9c0,0.1,0.1,0.3,0.1,0.4c0,0.8-0.1,1.7-0.1,2.5c0,0.1,0.1,0.3,0.3,0.4c0.5,0.3,1.1,0.4,1.7,0.3
		c0.4,0,0.5-0.2,0.5-0.4c0.1-0.7,0.1-1.3,0.2-2c0-0.5,0.1-0.9,0.1-1.4c0-0.3,0.1-0.6,0.1-0.9c0.1-0.6,0.1-1.3,0.2-1.9
		c0.1-0.6,0.2-1.1-0.1-1.7C25,51.3,25,51,25,50.7c0.1-0.7,0.2-1.4,0.2-2.1c0-0.4-0.1-0.7-0.4-0.9c-0.4-0.3-0.8-0.6-1.2-0.8
		c-0.4-0.2-0.9,0-1,0.4c-0.1,0.7-0.2,1.4-0.3,2.2c0,0.3,0,0.6,0,0.8c0,0.9-0.1,1.9-0.1,2.8C22.1,53.5,22.1,53.9,22.1,54.3z"/>
	<path class="st0" d="M19.3,160.8c0.2-0.3,0.3-0.5,0.5-0.8c0.3-0.4,0.7-0.4,0.9,0c0.3,0.6,0.6,1.3,0.9,1.9c0.1,0.2,0.2,0.4,0.2,0.6
		c0,0.1,0,0.2-0.1,0.2c-0.5,0-0.9,0.1-1.4,0.1c-0.4,0-0.7-0.1-1.1-0.2c-0.4-0.1-0.5-0.4-0.4-0.8C19,161.6,19.2,161.2,19.3,160.8z"/>
</g>
</svg>
