<?xml version="1.0" encoding="utf-8"?>
<!-- Generator: Adobe Illustrator 26.1.0, SVG Export Plug-In . SVG Version: 6.00 Build 0)  -->
<svg version="1.1" id="Layer_1" xmlns="http://www.w3.org/2000/svg" xmlns:xlink="http://www.w3.org/1999/xlink" x="0px" y="0px"
	 viewBox="0 0 80.3 26.8" style="enable-background:new 0 0 80.3 26.8;" xml:space="preserve">
<style type="text/css">
	.st0{stroke:#a747dd;stroke-width:0.5987;stroke-miterlimit:10;}
	.st1{stroke:#a747dd;stroke-width:0.25;stroke-miterlimit:10;}
</style>
<g style='fill:#a747dd;'>
	<path d="M60.6,20.4c-0.5,0-1,0-1.4,0c-1.4,0-2.8-0.2-4.1-0.1c-1.2,0-2.4,0.2-3.6,0.3c-0.2,0-0.4,0.1-0.6,0
		c-1.3-0.5-1.9,0.3-2.5,1.3c-0.4,0.7-0.8,0.7-1.4,0.3c-1.8-1.2-2.2-0.8-3.8,0c-0.7,0.4-1.4,0.6-2.3,0.5c-0.3,0-0.6-0.1-0.3,0.4
		c0.1,0.1-0.2,0.7-0.3,0.7c-0.3,0-0.8-0.1-1-0.4c-0.9-1.4-2.3-1.8-3.8-1.8c-1.2,0-2.5,0.3-3.8,0.5c-1,0.2-2.1,0.3-3.1,0.5
		c-1.4,0.4-2.7,1.1-3.8,2c-0.8,0.7-1.8,1.2-2.6,1.9c-0.7,0.6-1.3,0.2-1.7-0.2c-0.4-0.3-0.5-0.9-0.8-1.3c-0.3-0.6-0.5-1.2-1.3-1.3
		c-0.5-0.1-1-0.5-1.5-0.7c-0.9-0.5-1.8-0.9-2.7-1.4c-0.1-0.1-0.3,0-0.4,0c0.1,0.1,0.1,0.3,0.2,0.4c1.1,0.7,2,1.7,3.4,1.9
		c0.4,0.1,1,0.6,1,0.8c-0.1,0.7-0.8,0.4-1.2,0.3c-1.8-0.5-3.4-1.4-4.8-2.5c-1.1-0.8-2.1-1.7-3.3-2.3c-1.4-0.7-2.9-1.1-4.3-1.5
		c-1.5-0.5-2.9-1-3.9-2.2c-0.1-0.1-0.2-0.2-0.2-0.2c0-0.4,0-0.8,0-1.2C1.2,15,1.5,15,1.9,15.1c0.2,0.1,0.4,0.2,0.5,0.4
		c1,1.4,2.6,1.7,4.2,2.1c0.1,0,0.3-0.1,0.5-0.2c-0.1-0.1-0.1-0.2-0.2-0.3c-1.3-0.9-2.7-1.8-4-2.6c-0.7-0.4-1.4-0.7-2.1-1.1
		c-0.3-0.2-0.5-0.7-0.7-1c0.4-0.1,0.8-0.2,1.2-0.2c0.2,0,0.4,0.1,0.6,0.3c2.2,1.5,4.5,3,6.7,4.5c1.5,1,3,2,4.5,3
		c0.1,0.1,0.4,0,0.6,0c-0.1-0.2-0.1-0.4-0.2-0.5c-3.2-2.4-6.3-4.8-9.6-7.1c-0.9-0.6-1.9-1-2.8-1.6c-0.3-0.2-0.5-0.4-0.7-0.7
		c0.3-0.2,0.5-0.6,0.8-0.7c1.8-0.7,3.7-1.2,5.5-1.9c2.3-0.9,4.5-1.9,6.8-2.8c0.8-0.3,1.7-0.4,2.5-0.7c1.2-0.5,2.5-1,3.8-1.2
		c0.9-0.1,1.9-0.3,2.8-0.4C24.3,2,26.2,2.2,28,2.9c1.6,0.5,3,1.4,4.6,2c0.8,0.3,1.8,0.5,2.6,0.5c0.3,0,0.7-0.3,1-0.6
		c1-1.2,2.2-2.1,3.7-2.6c0.9-0.3,1.6-0.9,2.5-1.1c1.2-0.4,2.5-0.6,3.8-0.9C47,0,47.9-0.1,48.8,0c1.8,0.2,3.6,0.5,5.4,0.7
		c0.8,0.1,1.6,0.1,2.4,0.2c2.5,0.1,5,0.2,7.6,0.3c0.6,0,1.3-0.2,1.9-0.3c1.1-0.3,1.5,0,1.3,1c-0.1,1,0.6,1.6,1.3,2.2
		c0.5,0.5,1.1,1,1.7,1.5c2.1,1.8,4,3.9,6.5,5.3c0.8,0.4,1.5,0.8,2.4,0.8c0.3,0,0.7,0.4,1,0.6c-0.3,0.2-0.5,0.5-0.8,0.7
		c-0.2,0.1-0.6,0.1-0.8,0.1c-1.2-0.4-2,0.4-2.9,0.9c-0.1,0.1-0.2,0.3-0.3,0.4c0.2,0.1,0.4,0.2,0.5,0.2c0.3,0,0.6,0,0.9,0
		c0.2,0,0.4,0.2,0.7,0.3c-0.1,0.3-0.2,0.7-0.4,0.8c-0.6,0.3-1.2,0.5-1.9,0.7c-0.1,0-0.2,0.1-0.3,0.1c0.1,0.1,0.2,0.1,0.3,0.2
		c0.2,0,0.3,0.1,0.5,0c0.6-0.3,1-0.1,1,0.5c0,0.4-0.4,0.9-0.7,1c-1.4,0.4-2.7,1.1-4.2,1c-0.4,0-0.7,0.2-1.1,0.3
		c-1.1,0.2-2.3,0.5-3.4,0.6C65.2,20.2,62.9,20.3,60.6,20.4 M42.7,16c0.3,0.6,0.8,1,1.5,0.6c0.7-0.3,1.3-0.9,2-1.1
		c2.3-0.6,4.7-1.1,7.2-1.1c0.8,0,1.6,0.2,2.3,0c1.9-0.5,3.8-0.2,5.6-0.3c0.6,0,1.1-0.1,1.7-0.1c1.6-0.2,3.2-0.3,4.8-0.5
		c0.7-0.1,1.4-0.1,2-0.2c0.5-0.1,1.1-0.2,1.6-0.3c1-0.2,2-0.4,3-0.6c0.7-0.2,0.8-0.9,0.2-1.4c-1.5-1.3-3.1-2.5-4.5-3.8
		c-1.4-1.3-2.8-2.6-4.2-3.9c-0.4-0.4-0.8-0.6-1.4-0.6c-0.9,0-1.8,0-2.7,0c-1.4-0.1-2.7-0.2-4.1-0.3c-1.1-0.1-2.3-0.1-3.4-0.3
		c-2.1-0.5-4.2-0.7-6.3-0.7c-0.7,0-1.4,0-2.1,0.2c-0.8,0.1-1.5,0.3-2.3,0.5c-0.5,0.2-1.1,0.3-1.6,0.6c-1,0.4-1.9,0.8-2.8,1.3
		c-0.9,0.5-1.8,1-1.7,2.2c0,0.3-0.2,0.6-0.3,0.8c-0.6,0.9-0.6,1.4,0.1,2.3c0.9,1.2,1.8,2.4,2.7,3.5C40.9,13.9,41.8,14.9,42.7,16
		 M4.5,11.1c0.6,0.3,1.1,0.6,1.6,1c1.3,0.9,2.6,1.8,3.8,2.7c1.2,0.9,2.2,1.9,3.4,2.8c1.7,1.4,3.3,2.7,5,4.1c0.6,0.5,0.7,0.4,1.3-0.1
		c0.9-1,1.9-1.9,3-2.8c0.7-0.5,1.5-0.9,2.2-1.3c0.7-0.4,1.4-0.8,2.1-1c1.2-0.3,2.5-0.3,3.8-0.5c1.6-0.2,3.1-0.5,4.7-0.4
		c1.7,0.2,3.3,0.5,5,0.9c0.2,0.1,0.4,0,0.6,0c-0.1-0.2-0.1-0.3-0.2-0.5c-1.1-1.5-2.3-3-3.3-4.5c-0.9-1.2-1.9-2.4-2.3-3.9
		c-0.2-0.7-0.7-1-1.5-1.2c-0.7-0.1-1.4-0.4-2-0.7C30.9,5.5,30,5,29.1,4.6c-1.4-0.6-2.9-1.2-4.5-1.1c-1,0-1.9,0.3-2.8,0.4
		c-1.5,0.1-3,0.2-4.4,1.1c-0.9,0.5-2,0.6-2.9,1.1c-3,1.4-6,2.8-9.3,3.5c-0.5,0.1-0.8,0.5-1.2,0.8C4,10.6,4.2,10.8,4.5,11.1
		 M30.2,19.2c1-0.1,2.1-0.2,3.1-0.1c1.2,0.1,2.4,0.3,3.5,0.5c0.7,0.1,1.4,0.4,2.1,0.5c0.6,0.1,1.6-0.4,1.7-1c0-0.3-0.2-0.8-0.5-1
		c-0.5-0.3-1.2-0.4-1.8-0.5c-0.9-0.1-1.8-0.3-2.7-0.3c-1.1-0.1-2.2-0.1-3.3,0c-0.9,0-1.8,0.2-2.7,0.3c-1.7,0.1-3.2,0.4-4.6,1.4
		c-0.3,0.2-0.7,0.4-1,0.6c-1,0.8-2,1.6-3,2.4c-0.1,0.1-0.1,0.4-0.1,0.6c0.2,0,0.5,0.1,0.7,0c0.6-0.4,1.2-0.8,1.8-1.3
		c1.5-1.2,3.1-1.9,5.1-1.9C29.2,19.5,29.6,19.3,30.2,19.2 M51,18.5c0,0-0.1,0.1-0.1,0.1c-0.2,0.1-0.4,0.2-0.6,0.3
		c0.2,0.3,0.4,0.3,0.7,0.1c0.1-0.1,0.3-0.1,0.4-0.1c2.9,0,5.7,0.1,8.6,0.1c1.8,0,3.5,0,5.3,0c0.4,0,0.8-0.2,1.2-0.3
		c0.4-0.1,0.8-0.3,1.2-0.4c0-0.1-0.1-0.2-0.1-0.2c-0.3,0-0.6,0-0.9,0c-1.5-0.1-3-0.3-4.4-0.5c-0.7-0.1-1.5-0.1-2.3-0.2
		c-1.1,0-2.2-0.2-3.3-0.1C54.9,17.8,53,18.2,51,18.5 M60.6,16c0.2,0,0.3,0,0.5,0C63,16.8,65,16.9,67,17c0.2,0,0.5-0.1,0.6-0.2
		c0.3-0.6-0.2-1-0.5-1.4c-0.1-0.1-0.3-0.1-0.5-0.1c-1.1,0.1-2.1,0.3-3.2,0.3c-1,0.1-1.9,0-2.9,0c-0.1,0-0.2,0.1-0.3,0.1
		C60.4,15.8,60.5,15.9,60.6,16 M53.3,16c-0.2,0-0.3-0.2-0.5-0.1c-1,0.2-2,0.4-2.9,0.6c-1.2,0.3-2.3,0.7-3.4,1.1
		c-0.6,0.2-0.5,0.8-0.2,1.2c0.3,0.4,0.7,0.4,1.2,0.1c0.4-0.3,0.7-0.6,1.2-0.8c1.5-0.6,3.1-1,4.6-1.6C53.2,16.5,53.3,16.3,53.3,16
		 M25.2,21.7c-0.3,0.2-0.5,0.4-0.8,0.5c-0.9,0.7-1.7,1.3-2.6,2c-0.1,0.1-0.1,0.4-0.2,0.7c0.2,0,0.4,0,0.6-0.2
		c1.1-0.8,2.2-1.6,3.4-2.5c0.2-0.1,0.4-0.3,0.6-0.4c1.2-0.4,2.4-0.9,3.7-1c0.2,0,0.4-0.2,0.5-0.3c-0.2-0.1-0.3-0.2-0.5-0.3
		c-0.1,0-0.3,0-0.5,0C27.9,20.8,26.6,21.2,25.2,21.7 M49,19.9c-0.2-0.1-0.4-0.3-0.5-0.2c-0.2,0.1-0.4,0.3-0.6,0.4
		c0,0,0.1,0.2,0.1,0.2C48.3,20.2,48.8,20.6,49,19.9 M73.3,17.4c0.2-0.1,0.5-0.2,0.7-0.4c0,0-0.1-0.1-0.1-0.1
		c-0.3,0.1-0.6,0.1-0.8,0.2c-0.1,0-0.1,0.1-0.2,0.2C73,17.4,73.1,17.5,73.3,17.4 M71.5,16c0.2,0,0.4,0,0.5,0c0.1,0,0.2-0.1,0.2-0.1
		c0-0.1-0.1-0.2-0.1-0.2C72,15.8,71.7,15.9,71.5,16z"/>
</g>
</svg>
