<?xml version="1.0" encoding="utf-8"?>
<!-- Generator: Adobe Illustrator 26.1.0, SVG Export Plug-In . SVG Version: 6.00 Build 0)  -->
<svg version="1.1" id="Layer_1" xmlns="http://www.w3.org/2000/svg" xmlns:xlink="http://www.w3.org/1999/xlink" x="0px" y="0px"
	 viewBox="0 0 185.9 83.7" style="enable-background:new 0 0 185.9 83.7;" xml:space="preserve">
<style type="text/css">
	.st0{stroke:#2760FF;stroke-width:0.5987;stroke-miterlimit:10;}
	.st1{stroke:#2760FF;stroke-width:0.25;stroke-miterlimit:10;}
</style>
<g style='fill:#2760FF;'>
	<path d="M47.2,81.3c-0.4,0-0.8,0-1.1,0c-2,0-4,0-6.1,0c-1,0-1.9,0.1-2.9,0.2c-1.1,0-2.1,0-3.2,0c-0.7,0-1.4,0.1-2.1,0.1
		c-0.7,0-1.4,0.1-2.1,0.1c-0.6,0-1.2,0-1.9,0c-0.8,0-1.6,0-2.4,0.1c-0.4,0.1-0.8,0.4-1.1,0.6c-0.4,0.3-0.7,0.8-1.3,0.9
		c-0.4,0.1-0.8,0-1-0.3c-0.7-0.7-1.5-0.7-2.4-0.5c-0.8,0.2-1.7,0.2-2.5,0.3c-1.1,0.2-2.2,0.4-3.3,0.5c-1,0.1-2,0-3,0
		c-0.8,0-1.6-0.1-2.4-0.2C6,83,3.7,82.8,1.5,81.8c-0.3-0.1-0.6-0.2-0.8-0.4c-0.2-0.3-0.2-0.7-0.3-1c0-0.2,0.1-0.5,0.2-0.7
		c0.8-1,0.9-2.1,0.6-3.2c-0.2-1,0-1.9,0.3-2.8c0.1-0.2,0.1-0.3,0.2-0.5c0.1-0.6-0.1-0.8-0.7-0.9c-0.3,0-0.6-0.1-0.9-0.1
		c-0.1,0-0.2-0.1-0.2-0.2c0-0.6-0.1-1.2,0.6-1.4c0.5-0.2,0.6-0.6,0.6-1.1c0.1-1.3,0.3-2.6,0.4-3.9c0,0,0-0.1,0-0.1
		c0-1.1,0-2.3,0.1-3.4c0.1-1.5,0.3-3.1,0.4-4.6c0.1-0.8,0.1-1.7,0.2-2.5c0.1-1,0.3-2.1,0.4-3.1c0.1-1.3,0.2-2.6,0.3-3.9
		c0-0.2,0-0.4-0.1-0.5c-0.6-1-0.1-1.9,0-2.8c0.1-0.8,0.2-1.5,0.3-2.3c0.2-1.6,0.4-3.2,0.6-4.7c0.1-0.9-0.3-1.5-1.1-2.1
		c-0.3-0.2-0.5-0.4-0.7-0.6c0.2-0.2,0.5-0.4,0.7-0.5c0.8-0.4,1.2-1.1,1.1-2.1c-0.1-0.7,0.1-1.4,0.1-2C4,30.3,4,30.2,4,30
		c0.1-1.2,0.2-2.4,0.2-3.6c0-0.9,0.1-1.8,0.1-2.6c0.1-1,0.1-1.9,0.2-2.9c0-0.7,0-1.4,0.1-2c0.2-1.6,0.5-3.2,0.7-4.8
		c0.2-1.3,0.4-2.5,0.7-3.8c0.3-1.5,0.5-3.1,0.8-4.6C7.1,4.3,7.3,3,7.6,1.6C7.8,0.8,8.9,0,9.8,0c0.6,0.1,1.2,0.1,1.9,0.1
		c0.3,0,0.5-0.1,0.8-0.1c1.2-0.2,2.3,0.3,3.5,0.6c0.7,0.1,1.5,0.1,2.2,0c1-0.1,1.9-0.3,2.9-0.4c0.8-0.1,1.2,0.4,1.4,1.2
		c0.1,0.3,0,0.6,0,0.9c0,0.9,0,1.9,0,2.8c0,1,0.1,2,0.1,3.1c0,1,0,2.1,0.1,3.1c0.2,1.3,0,2.6-0.2,3.9c-0.1,0.4,0.2,0.6,0.6,0.6
		c1.4-0.2,2.9-0.3,4.3-0.4c0.6-0.1,1,0.1,1.5,0.5c0.9,0.8,2,0.7,3.1,0.4c1.9-0.6,3.9-1.1,5.8-1.7c0.1,0,0.3,0,0.4,0
		c3.6,0,7.3,0,10.9,0c1.7,0,3.4,0.1,5,0.1c0.5,0,0.9,0.1,1.4,0c0.2-0.1,0.5-0.4,0.5-0.6c0.2-0.8,0.3-1.6,0.5-2.4
		c0.1-0.3,0.2-0.8,0.7-0.8c0.3,0,0.7,0.6,0.7,1c0,0.7-0.1,1.5-0.1,2.2c0,0.9,0.2,0.9,0.9,0.9c1.2-0.1,2.4-0.1,3.7-0.1
		c0.7,0,1.5,0,2.2-0.3c0.7-0.3,1.5-0.8,2.1-1.3c1.1-0.9,2.4-1.3,3.7-1.5c0.8-0.1,1.6-0.3,2.4-0.5c0.9-0.2,1.9-0.2,2.8,0
		c0.8,0.1,1.6,0.2,2.4,0.4c1.3,0.2,2.5,0.4,3.8,0.7c1.6,0.3,3.1,0.6,4.7,0c0.1,0,0.3,0,0.4,0c1.1,0,2.2,0.1,3.3,0.1
		c1.6,0,3.1-0.1,4.7-0.2c0.7,0,1.4-0.2,2.1-0.3c0.6-0.1,0.9-0.5,0.9-1.1c0-0.7,0-1.3,0-2c0-0.9,0.3-1.7,0.8-2.4
		c0.2-0.2,0.3-0.3,0.5,0c0.5,0.6,1.1,1.2,1.3,2c0,0.1,0.1,0.2,0.2,0.3c0.6,0.6,0.6,1.4,0.3,2.1c-0.2,0.6-0.1,0.7,0.5,0.7
		c0.9-0.1,1.7-0.2,2.6-0.3c0.7-0.1,1.5-0.3,2.2-0.4c1.1-0.2,2.3-0.4,3.4-0.5c1.1-0.2,2.1-0.3,3.2-0.4c1.4-0.1,2.7-0.1,4.1-0.2
		c1.2-0.1,2.4-0.2,3.6-0.4c1.4-0.2,2.8-0.6,4.3-0.8c1.1-0.2,2.2-0.3,3.4-0.4c1.5-0.2,2.9-0.3,4.4-0.4c0.5-0.1,1.1-0.1,1.6-0.1
		c1.2-0.1,2.4-0.1,3.7-0.2c1-0.1,1.9-0.1,2.9-0.2c1.3-0.1,2.6-0.2,3.9-0.3c0.8-0.1,1.6-0.2,2.4-0.3c0.4-0.1,0.6-0.3,0.6-0.7
		c0.1-0.9,0.1-1.9,0.2-2.8c0.1-0.5,0.4-0.9,0.8-1.3c0.2-0.2,0.9,0.3,1,0.7c0.1,0.3,0.1,0.7,0.1,1c0,1,0,1.9,0,2.9
		c0,0.4,0.2,0.6,0.6,0.6c1.2,0,2.3,0.1,3.5,0.1c1.4,0,2.9,0,4.3,0c2-0.1,4.1-0.4,6.1-0.9c0.9-0.2,1.8-0.4,2.7-0.5
		c1.4-0.2,2.7-0.4,4.1-0.5c0.7-0.1,1.4-0.1,2.1-0.1c0.7,0,1.5-0.1,2.2-0.1c1.1,0,2.1,0,3.2,0.1c1.3,0.2,1.9-0.4,2.2-1.5
		c0.2-0.9,0.5-1.8,0.8-2.7c0.1-0.4,0.7-0.5,0.9-0.1c0.3,0.4,0.3,0.9,0.4,1.4c0,0.7,0,1.5,0.1,2.2c0.1,1-0.8,1.9-1.8,1.8
		c-1-0.1-1.9,0.1-2.9,0.1c-0.1,0-0.3,0-0.4,0c-1.1,0-2.1,0-3.2,0c-1.7,0.1-3.4,0.1-5,0.2c-1.4,0.1-2.9,0.3-4.3,0.5
		c-0.2,0-0.4,0.2-0.5,0.3c0.1,0.1,0.2,0.3,0.3,0.3c0.6,0.2,1.3,0.3,1.9,0.4c1.1,0.2,2.2,0.3,3.2,0.6c1,0.3,1.9,0.8,2.6,1.5
		c0.8,0.8,1.5,1.7,2.3,2.5c0.3,0.3,0.8,0.6,1.2,0.8c0.5,0.3,0.8,0,0.8-0.5c0-1.4,0.2-2.7,0.5-4c0.3-1.1,1.9-1.8,2.7-1.7
		c0.8,0.1,1.6,0.1,2.4,0.2c1,0.3,1.5,1.1,1.7,2c0.3,1.6,0.4,3.2,0.6,4.8c0.2,1.4,0.3,2.8,0.4,4.2c0.1,1.5,0.2,3,0.3,4.5
		c0.1,1.1,0.1,2.1,0.1,3.2c0,1.2,0.1,2.4,0.1,3.7c0,0.6-0.1,1.1-0.1,1.7c0,1.2,0.1,2.4,0.1,3.6c0,1-0.2,2-0.2,3
		c0,1.3,0.2,2.5,0.2,3.8c0,1.2-0.2,2.3-0.2,3.5c0,0.6,0.1,1.2,0.1,1.8c0,0.3-0.1,0.5-0.1,0.8c0,0.9,0.1,1.8,0.1,2.6
		c-0.1,1.7-0.2,3.5-0.3,5.2c-0.1,1.3-0.3,2.6-0.4,3.9c-0.1,0.9-0.2,1.7-0.2,2.6c0,0.7,0.2,1.4,0.2,2c0,1.2-0.1,2.5-0.1,3.7
		c0,1.2,0,2.5,0.1,3.7c0.1,0.9,0.3,1.8,0.4,2.8c0.1,0.6-0.2,1-0.6,1.3c-1.4,0.9-2.7,1.9-4.3,2.3c-0.7,0.2-1.4,0.3-2.1,0.4
		c-1.8,0.1-3.5,0.1-5.3,0.1c-0.4,0-0.8,0-1.2,0c-1.7,0.1-3.4,0.1-5.1,0.2c-0.3,0-0.6-0.1-0.9-0.1c-0.9,0-1.9,0.1-2.8,0.2
		c-1.1,0-2.1,0-3.2,0.1c-0.7,0-1.4,0.2-2.1,0.2c-0.8,0-1.6-0.1-2.5-0.2c-1.5-0.2-3-0.4-4.5-0.2c-1.4,0.2-2.8,0.4-4.1,0.7
		c-1.6,0.3-3.2,0.7-4.8,1.1c-0.4,0.1-0.8,0.3-1.1,0.4c-0.9,0.2-1.5,0.8-2.1,1.5c-0.5,0.6-1.3,0.6-1.8,0.2c-0.9-0.8-1.7-1.6-2.6-2.4
		c-0.4-0.4-0.9-0.7-1.5-0.7c-1.3,0-2.6,0.1-3.9,0.1c-1.2,0-2.4,0-3.6,0c-1.5,0.1-2.9,0.3-4.4,0.4c-1.3,0.2-2.7,0.3-4,0.5
		c-1.5,0.3-2.9,0.6-4.4,0.9c-0.6,0.1-1.3,0.3-1.9,0.3c-0.8,0.1-1.7,0-2.5,0c-0.9,0-1.5,0.4-1.9,1.1c-0.5,0.8-1.1,1-1.7,0.3
		c-0.7-0.8-1.5-0.8-2.3-0.5c-0.6,0.2-1.1,0.2-1.7,0.2c-1.2,0-2.3-0.1-3.5,0.1c-1.3,0.2-2.3-0.2-3.3-0.9c-0.4-0.3-0.8-0.4-1.3-0.4
		c-1.7,0.1-3.4,0.2-5,0.2c-1,0-1.9,0-2.9,0c-0.7,0-1.5,0-2.2,0.1c-1,0.1-2.1,0.4-3.1,0.5c-0.7,0.1-1.5-0.1-2.2-0.1
		c-0.2,0-0.3-0.1-0.5-0.1c-1,0-2-0.1-3-0.1c-1.5-0.1-3-0.2-4.4-0.2c-1,0-2,0-3,0.1c-1.2,0.1-2.4,0.4-3.6,0.6
		c-0.9,0.1-1.9,0.1-2.8,0.1c-0.6,0-1.2-0.1-1.8-0.1c-1.6-0.1-3.3-0.3-4.9-0.4c-1.3-0.1-2.6-0.3-3.9-0.5
		C48.4,81.7,47.8,81.5,47.2,81.3 M48.7,30.2c0.2,1.4,0.3,2.8,0.6,4.1c0.4,2.1,0.8,4.3,1.2,6.4c0.3,1.3,0.6,2.7,0.8,4
		c0.3,1.4,0.5,2.9,0.8,4.4c0.2,1.2,0.3,2.4,0.6,3.6c0.3,1.7,0.7,3.4,1,5c0.3,1.7,0.4,3.4,0.6,5.2c0.1,0.9,0.1,1.8,0.2,2.7
		c0,0.2-0.1,0.4-0.1,0.5c0.4,1.2,0.2,2.4-0.1,3.6c-0.3,1.3-0.7,2.7-0.4,4.1c0,0.2-0.2,0.4-0.3,0.7c-0.1-0.1-0.2-0.2-0.3-0.4
		c-0.1-0.2-0.2-0.3-0.3-0.5c-0.1-0.1-0.2-0.3-0.4-0.4c-0.1,0.2-0.3,0.3-0.3,0.5c-0.1,1.6-0.3,3.1-0.3,4.7c0,0.7-0.2,1.4-0.8,1.9
		c-0.2,0.1-0.2,0.5-0.2,0.7c0.2,0,0.3,0.1,0.5,0.1c0.6-0.1,1.2-0.2,1.9-0.2c1.1,0,2.1,0.1,3.2,0.2c0.7,0.1,1.5,0.3,2.2,0.4
		c1.4,0.3,1.8-0.2,1.8-1.6c0-0.9-0.1-1.9-0.1-2.8c0-1.2,0-2.4,0-3.6c0-2.1-0.1-4.1-0.1-6.2c0-0.4,0-0.8,0-1.2c0-1.4-0.1-2.7-0.1-4.1
		c0-1.1-0.1-2.1-0.1-3.2c-0.1-1.2-0.1-2.3-0.2-3.5c-0.1-1.2-0.1-2.3-0.2-3.5c-0.1-1.4-0.2-2.9-0.3-4.3c-0.1-1.1-0.2-2.1-0.3-3.2
		c-0.1-1.3-0.3-2.5-0.4-3.8c-0.1-0.5,0-1-0.1-1.5c-0.2-1.4-0.2-2.9,0-4.3c0.3-1.7,0.7-3.4,1.1-5.1c0.3-1.1,0.6-2.3,1.1-3.3
		c0.6-1.2,1.4-2.4,2.2-3.5c0.7-0.9,1.4-1.8,2.3-2.6c1.4-1.3,3.1-2.3,4.9-3c1.1-0.4,2.1-0.8,3.3-0.8c1,0,2-0.1,3.1-0.2
		c1.4-0.1,2.7-0.5,4.1-0.2c1.2,0.2,2.4,0.3,3.6,0.5c1.9,0.3,3.7,1,5.4,1.9c2,1.1,3.4,2.7,4,5c0.4,1.6,0.8,3.1,1.1,4.7
		c0.4,1.9,0.6,3.9,0.9,5.8c0.1,1,0.1,2.1,0.1,3.1c0.1,1.2,0.2,2.3,0.2,3.5c0,0.2-0.1,0.5-0.1,0.7c0.3,1.4,0.2,2.8,0.1,4.1
		c-0.1,1.5-0.3,3-0.3,4.4c0,1.4,0.3,2.7,0.4,4.1c0.2,1.5,0.4,3,0.5,4.5c0.1,1.2,0.2,2.4,0.3,3.6c0.1,1.5,0.3,3,0.4,4.4
		c0.1,1.3,0.2,2.6,0.3,3.9c0,0.5,0.1,0.9,0.1,1.4c0.1,1.1,0.2,2.1,0.3,3.2c0,1.2,0,2.4-0.1,3.6c0,0.6,0,1.3-0.1,1.9
		c-0.1,0.9,0.3,1.5,1.1,1.4c1.2-0.2,2.4-0.3,3.6-0.4c0.9-0.1,1.3-0.5,1.2-1.4c-0.2-1.1-0.3-2.3-0.4-3.4c-0.1-0.7,0-1.4,0-2
		c0-1.6-0.1-3.2-0.1-4.8c0.1-1.6,0.3-3.2,0.4-4.8c0.1-0.8,0-1.5,0-2.3c0-5.6,0-11.3,0-16.9c0-0.2-0.1-0.4-0.1-0.7c0-0.7,0-1.4,0-2.1
		c-0.1-1.4-0.3-2.7-0.4-4.1c-0.1-1.4,0-2.8,0-4.2c0-0.8-0.1-1.6-0.1-2.4c0.1-1.3,0.4-2.6,0.5-4c0.1-1.2,0.4-2.3,1-3.3
		c0.8-1.6,1.6-3.1,2.5-4.7c0.5-0.8,1.1-1.6,2.1-2c1.1-0.4,2.1-1,3.1-1.4c1.6-0.7,3.3-1.4,4.9-2c1.8-0.7,3.6-1.5,5.6-1
		c0.9,0.2,1.9,0.5,2.8,1c1.1,0.5,2,1.4,2.8,2.4c1,1.3,2.2,2.5,3.2,3.8c0.3,0.3,0.7,0.7,0.3,1.2c-0.4,0.4-0.3,0.8-0.2,1.2
		c0.3,0.9,0.6,1.8,0.8,2.7c0.4,1.6,0.6,3.2,0.9,4.8c0.1,0.8,0.2,1.6,0.3,2.4c0.2,1.2,0.4,2.4,0.5,3.5c0.1,0.8,0.1,1.6,0.2,2.4
		c0.1,1.2,0.3,2.5,0.4,3.7c0.1,0.8,0.1,1.7,0.2,2.5c0.1,1,0.3,2,0.4,3c0.1,0.9,0.1,1.8,0.2,2.7c0.3,2,0.5,4.1,0.4,6.1
		c0,0.6,0.1,1.2,0.2,1.9c0.2,1.4,0.5,2.7,0.7,4.1c0.2,1,0.3,2,0.4,3c0.2,1.2,0.4,2.5,0.5,3.7c0.1,1.1,0.1,2.2,0.2,3.2
		c0.2,1.8,0.5,3.6,0.7,5.4c0.1,0.8,0.6,1.3,1.2,1.1c1.8-0.5,3.7-0.9,5.5-1.4c0.5-0.1,1-0.8,0.9-1.2c-0.2-0.7-0.4-1.4-0.6-2.1
		c-0.5-1.8-1-3.6-0.9-5.5c0.1-1.1,0.1-2.3,0.1-3.4c0-0.9,0-1.7,0-2.6c0-0.1,0-0.3,0-0.4c0-1.1,0.1-2.2,0.1-3.4
		c-0.1-1.1-0.4-2.1-0.4-3.1c0-1.5,0.1-2.9,0.1-4.4c0-0.2-0.1-0.4-0.1-0.6c0.1-1.4,0.1-2.8,0.2-4.2c0-0.6,0-1.2,0.2-1.8
		c0.4-1.7,1-3.3,0.7-5.1c-0.2-0.9-0.2-1.9-0.3-2.9c-0.2-1.3-0.5-2.7-0.5-4c0-1.3,0.1-2.6,0.3-3.8c0.2-1.1,0.4-2.2,0.7-3.3
		c0.3-1.3,0.8-2.6,1.1-3.9c0.6-2.2,1.3-4.3,2.8-6.1c1.2-1.5,2.6-2.5,4.4-3.2c1.9-0.7,3.9-1.3,5.9-1.2c0.6,0,1.1,0.1,1.7,0.1
		c0.7,0,1.3,0.1,2,0.1c1,0.1,2,0.3,3,0.2c1.2-0.1,2.4,0.1,3.6,0.3c0.8,0.2,1.6,0.3,2.4,0.5c0.2,0,0.4-0.1,0.6-0.1
		c-0.1-0.2-0.1-0.6-0.2-0.7c-0.9-0.7-1.7-1.3-2.6-1.9c-1-0.6-2.2-0.5-3.3-0.8c-0.9-0.2-1.9-0.3-2.9-0.4c-1-0.1-2-0.4-3-0.4
		c-1.1,0-2.2,0.1-3.3,0.2c-0.6,0-1.2,0.1-1.8,0.2c-2.3,0.6-4.6,1.2-6.6,2.4c-1.1,0.6-2.1,1.3-2.7,2.5c-0.2,0.5-0.4,1-0.7,1.4
		c-0.7,0.8-1.4,1.5-2.1,2.2c-0.5,0.5-0.8,1.2-1,1.9c-0.1,0.6-0.3,1.1-0.4,1.7c-0.1,0.4-0.5,0.5-0.8,0.2c-0.5-0.4-1-0.8-1.3-1.2
		c-1-1.5-2.1-2.8-3.6-3.8c-1.5-1-3.1-2-4.8-2.6c-1.7-0.6-3.3-1.1-5-1.6c-2-0.7-4.1-1-6.3-1.1c-1.2-0.1-2.5,0-3.7-0.2
		c-0.4-0.1-0.7-0.1-1.1-0.1c-0.5,0-1.1,0.1-1.6,0.2c-1.2,0.1-2.4,0.4-3.5,0.9c-1.8,0.9-3.4,2.1-4.8,3.6c-1.9,1.9-3.7,3.9-5.5,5.9
		c-0.5,0.5-1.2,0.7-1.8,0c-0.5-0.6-1-1.2-1.6-1.8c-1.2-1.3-2.7-2.1-4.4-2.6c-2.2-0.8-4.5-1.5-6.7-2.1c-1.9-0.5-3.9-0.8-5.8-1.2
		c-0.7-0.1-1.5-0.3-2.2-0.4c-1.2-0.2-2.5-0.3-3.7-0.1c-1.3,0.2-2.7,0.5-4,0.9c-1.1,0.3-2.3,0.6-3.4,1c-2,0.9-3.6,2.5-5.2,3.9
		c-1.3,1.1-2.3,2.5-3.2,3.9c-0.6,1-1.3,2-2,2.9c-0.2,0.3-0.5,0.5-0.8,0.3c-0.3-0.2-0.5-0.5-0.3-1c0.3-0.8,0.3-1.5-0.5-2.1
		c-0.5-0.3-0.9-0.7-1.3-1.1c-1.8-1.4-3.7-2.7-5.5-4.1c-1.1-0.8-2.3-1.6-3.6-2.1c-0.3-0.1-0.6,0-0.9,0c0.1,0.2,0.1,0.5,0.2,0.6
		c0.1,0.1,0.3,0.2,0.5,0.3c0.5,0.2,1,0.4,1.5,0.7c0.2,0.1,0.4,0.3,0.6,0.5c-0.3,0-0.6,0.1-0.8,0.1c-0.9-0.3-1.9-0.6-2.8-0.9
		c-1.3-0.4-2.7-0.9-4.1-0.5c-2.2,0.6-4.4,0.9-6.7,0.9c-0.2,0-0.4,0-0.6,0.1c-0.9,0.4-1.8,0.7-2.8,1.1c-1.4,0.6-2.6,1.5-3.6,2.7
		c-1.1,1.4-2,3-2.4,4.8c-0.4,1.7-0.7,3.4-0.9,5.1c-0.1,0.8,0,1.7,0,2.5c0,1.1-0.1,2.2-0.2,3.4c0,0.2,0.1,0.4,0.1,0.6
		c-0.1,1-0.2,2-0.2,3c-0.1,1.1-0.1,2.2-0.1,3.3c0,0.8-0.1,1.6-0.2,2.5c-0.1,1.2-0.3,2.5-0.4,3.7c-0.1,0.8-0.2,1.7-0.2,2.5
		c-0.1,1.6-0.2,3.2-0.3,4.8c-0.1,1.1,0,2.3,0,3.4c0,1.5,0.1,3.1,0.1,4.6c0,0.9-0.1,1.9-0.1,2.8c0,0.2,0.1,0.4,0.1,0.7
		c0,0.6-0.2,1.1-0.2,1.7c0,1.1,0,2.3,0,3.4c0,0.2,0.1,0.4,0.1,0.7c0,0.9,0.1,1.7,0.1,2.6c0,0.6,0.1,1.1,0.1,1.7
		c0,0.3-0.4,0.7-0.7,0.6c-1.8-0.7-3.7-0.7-5.6-0.4c-0.5,0.1-1,0.3-1.4,0.5c-0.4,0.2-0.5,0.6-0.2,1c0.6,0.8,1.3,1.1,2.3,1
		c1.5-0.2,3.1-0.5,4.6-0.8c0.9-0.2,1.9-1.1,1.8-2.1c-0.1-1.6-0.2-3.2-0.3-4.8c-0.1-0.9-0.1-1.7-0.2-2.6c0-0.6-0.1-1.1-0.1-1.7
		c0.1-0.8,0.3-1.5,0.4-2.3c0.3-1.4,0.5-2.8,0.9-4.1c0.5-1.8,1.2-3.6,1.7-5.4c0.4-1.4,0.8-2.8,0.7-4.2c0-1-0.1-1.9-0.1-2.9
		c0-1.3,0.1-2.5,0.1-3.8c0-0.1,0-0.3,0-0.4c-0.1-1-0.2-2-0.2-3c0-1.1,0.3-2.2,0.4-3.3c0.1-1.4,0.2-2.9,0.1-4.3c-0.1-1-0.2-2-0.2-3
		c0-0.5,0-1.1,0.1-1.6c0.2-1.3,0.8-2.4,1.4-3.6c0.4-0.9,0.8-1.9,0.3-2.9c-0.1-0.2,0.1-0.4,0.1-0.6c0.2,0.1,0.4,0.2,0.5,0.3
		c0.1,0.1,0.2,0.1,0.2,0.2c0.3,0.4,0.5,0.4,0.9,0c0.5-0.5,0.9-1.1,1.5-1.6c1-0.9,2-1.7,3-2.6c1.6-1.3,3.6-2,5.6-2c1,0,2,0.3,3,0.5
		c0.9,0.1,1.8,0.4,2.6,0.9c0.7,0.5,1.5,1.1,2.2,1.6c0.6,0.4,1.1,0.9,1.3,1.7c0.5,1.8,1.4,3.5,1.3,5.4C48.7,29.3,48.7,29.7,48.7,30.2
		 M168.3,46.2c0.8,0,1.7,0,2.5-0.1c1,0,2.1-0.1,3.1-0.1c1.1,0,2.1,0.1,3.2,0.1c0.6,0,0.9-0.2,0.9-0.8c0-0.9-0.1-1.9-0.1-2.8
		c0-0.5-0.1-1.1-0.1-1.6c-0.1-1.2-0.2-2.5-0.3-3.7c-0.1-0.9-0.1-1.9-0.1-2.8c0-0.4,0-0.7-0.1-1.1c-0.1-0.2-0.3-0.5-0.5-0.6
		c-0.3-0.1-0.7,0-1.1,0c-1.3,0.1-2.7,0.2-4,0.3c-1,0.1-2.1,0.1-3.1,0.2c-1.6,0.1-3.1,0.2-4.7,0.3c-1.4,0.1-2.8,0.1-4.2,0.1
		c-0.5,0-1,0.1-1.4,0.1c-1,0-2-0.1-3-0.1c-1.6,0-3.2,0-4.8,0c-0.2,0-0.4-0.1-0.6-0.1c-0.1,0-0.3,0.1-0.3,0.2c-0.1,0.5-0.2,1-0.3,1.5
		c-0.1,0.4-0.3,0.9-0.3,1.3c-0.2,1.6-0.4,3.2-0.7,4.7c-0.2,1.4-0.5,2.7-0.8,4.1c-0.1,0.6,0,0.8,0.7,0.8c0.5,0,1-0.2,1.5-0.2
		c1.6,0,3.3,0.1,4.9,0.1c0.5,0,1,0,1.5,0c0.9,0.1,1.9,0.2,2.8,0.2c2.4,0,4.8,0,7.2,0C166.7,46.2,167.5,46.2,168.3,46.2 M63.2,41.8
		c-0.1,1-0.1,2.1-0.2,3.1c0,0.6-0.1,1.3-0.1,1.9C62.8,47.7,63,48,63.8,48c0.1,0,0.2-0.1,0.3-0.1c1,0,1.9,0.1,2.9,0.1
		c1.2,0,2.3,0,3.5,0c0.1,0,0.3,0,0.4,0c1.1-0.1,2.2-0.2,3.3-0.2c1.2,0,2.4,0.1,3.6,0.2c0.3,0,0.7,0,1,0.2c1.5,0.7,3.1,0.5,4.6,0.3
		c0.7-0.1,1.4-0.1,2.1-0.1c0.4,0,0.8,0.1,1.2,0.2c1.8,0.2,3.5-0.3,5.3-0.6c0.5-0.1,0.9-0.4,0.9-0.9c0-1.1,0-2.3-0.1-3.4
		c-0.1-1.1-0.4-2.2-0.5-3.3c-0.2-1.2-0.3-2.5-0.6-3.7c-0.1-0.5-0.4-1-1-1.1c-0.5-0.1-1,0-1.5,0c-1.4,0.1-2.9,0.2-4.3,0.3
		c-0.9,0.1-1.8,0.2-2.7,0.2c-1.5,0.1-3,0.2-4.4,0.2c-1,0-2-0.1-2.9-0.1c-1.5,0-3.1-0.1-4.6-0.1c-1.2,0-2.4,0-3.6,0
		c-0.2,0-0.3-0.1-0.5-0.1c-0.7-0.2-1.6,0.2-1.8,0.8c-0.2,0.8-0.4,1.6-0.6,2.3C63.6,40,63.4,40.9,63.2,41.8 M114.2,34.3
		c-1,0.1-2.1,0.3-3.1,0.4c-0.8,0.1-1.7,0.2-2.5,0.3c-0.6,0.1-1.1,0.4-1.3,1.1c-0.2,1.1-0.4,2.3-0.6,3.5c-0.1,0.8-0.2,1.6-0.2,2.4
		c-0.1,1.6-0.3,3.1-0.4,4.7c-0.1,0.7,0.3,1,1,1c0.8,0,1.5-0.2,2.3-0.2c0.9,0,1.7,0.1,2.6,0.2c1.4,0.1,2.8,0.1,4.2,0.2
		c1.2,0.1,2.3,0.1,3.5,0.2c1,0.1,2.1,0.1,3.1,0.2c1.4,0.1,2.8,0.2,4.1,0.3c1.4,0.1,2.8,0.1,4.2,0.1c0.1,0,0.3-0.1,0.4-0.1
		c0.9-0.3,1-1.1,1-1.8c0-1.2-0.2-2.4-0.3-3.6c-0.1-0.7-0.1-1.4-0.2-2c-0.1-1.1-0.3-2.2-0.4-3.4c-0.1-0.8-0.1-1.6-0.2-2.4
		c-0.1-0.3-0.4-0.6-0.6-0.8c-0.3-0.2-0.6-0.2-1-0.2c-1.1,0-2.1,0.2-3.2,0.2c-1.2,0-2.4-0.1-3.7-0.1c-0.4,0-0.8,0-1.2-0.1
		c-1.2-0.1-2.4-0.2-3.5-0.2C116.8,34.2,115.5,34.2,114.2,34.3 M73.6,81c2-0.1,4-0.2,6-0.3c1-0.1,2-0.1,3-0.1c1.2,0,2.5-0.1,3.7-0.1
		c1.3,0,2.7,0,4,0c0.3,0,0.7-0.1,0.7-0.4c0-1.1,0.1-2.2-0.1-3.2c-0.5-2-1.8-3.5-3.4-4.7c-1.4-1-3-1.8-4.6-2.3
		C81.2,69.3,79.6,69,78,69c-0.6,0-1.1-0.1-1.7-0.1c-1.3-0.1-2.5,0.1-3.8,0.4c-1.5,0.4-2.9,0.9-4.3,1.7c-1.2,0.7-2.3,1.6-3,2.8
		c-1,1.6-1.2,3.3-0.9,5.1c0.1,0.9,0.6,1.5,1.4,1.6c1.2,0.1,2.5,0.2,3.7,0.3c0.8,0.1,1.7,0.1,2.5,0.1C72.5,80.9,73,80.9,73.6,81
		 M169.4,31c1.1-0.1,2.2-0.2,3.3-0.2c1.2-0.1,2.3-0.1,3.5-0.1c0.4,0,0.8-0.2,0.8-0.7c0-1-0.1-2-0.6-3c-0.6-1-1.1-2.1-1.8-3.1
		c-1.3-1.9-3.1-3.2-5.4-3.8c-2-0.5-4-0.6-6.1-0.7c-1.4-0.1-2.7,0.2-4,0.6c-2,0.6-3.5,1.8-5,3.1c-1.3,1.2-2.2,2.8-2.7,4.5
		c-0.3,1-0.7,1.9-1,2.8c-0.2,0.5,0.2,1.2,0.8,1.2c1.1,0,2.3,0.1,3.4,0.1c1.5,0,3,0,4.5-0.1c1.7-0.1,3.3-0.2,5-0.3
		c1.2-0.1,2.3-0.1,3.5-0.2C168.1,31.1,168.7,31,169.4,31 M28.4,75.5c0,0.1,0,0.1,0,0.2c-0.3,1.2-0.6,2.4-0.9,3.5c-0.2,0.7,0,1,0.7,1
		c0.9,0,1.8-0.1,2.6-0.1c0.9,0,1.9-0.1,2.8-0.1c1.1,0,2.2-0.1,3.3-0.1c0.7,0,1.4,0,2.1,0c1.8,0,3.6-0.1,5.3-0.1c1,0,2.1,0,3.1,0
		c0.5,0,0.8-0.5,0.8-1c-0.1-1-0.3-2-0.3-3.1c-0.1-1.3-0.2-2.7-0.4-4c-0.4-1.7-1.3-2.9-3-3.4c-1.3-0.3-2.5-0.6-3.8-1
		c-1.4-0.4-2.8-0.7-4.2-0.7c-0.4,0-0.9,0.1-1.3,0.1c-0.4,0-0.9,0-1.3,0.1c-0.6,0.1-1.1,0.3-1.6,0.8c-0.3,0.4-0.8,0.6-1.1,0.9
		c-0.6,0.6-1.3,1.2-1.5,2.1C29.3,72.2,28.9,73.8,28.4,75.5 M26.9,38.7c0,0.2,0,0.4,0,0.6c-0.5,1.8-0.4,3.7-0.5,5.5
		c-0.1,0.8,0,1.6,0,2.5c0,0.4,0.2,0.5,0.4,0.5c0.6,0.1,1.1,0.2,1.7,0.2c1.3,0.1,2.6,0.1,3.9,0.1c0.2,0,0.4-0.1,0.7-0.1
		c1.2,0.1,2.4,0.1,3.6,0.2c0.2,0,0.4-0.1,0.6-0.1c1.3,0.1,2.6,0.2,3.8,0.2c1.7,0,3.3,0,5,0c0.5,0,0.6-0.2,0.6-0.6
		c0-1.5-0.1-2.9-0.1-4.4c0-1.3-0.1-2.7-0.1-4c0-0.4-0.1-0.9-0.1-1.3c-0.1-0.6-0.6-1.1-1.2-1.1c-1.2,0-2.4,0.1-3.6,0.1
		c-1.1,0-2.2,0.1-3.3,0.1c-1,0-2,0.1-3,0.1c-1.9,0-3.7-0.1-5.6-0.2C28.2,37.1,27.6,37.4,26.9,38.7 M179.9,73.1
		c-0.1,0.6-0.2,1.2-0.1,1.7c0,0.2,0.3,0.4,0.4,0.6c0.1-0.2,0.3-0.3,0.3-0.5c0.2-1.3,0.3-2.5,0.4-3.8c0.1-0.8,0.2-1.5,0.3-2.3
		c0.1-0.7,0.2-1.4,0.3-2.2c0.1-1,0.2-2,0.3-3.1c0.1-1.6,0.2-3.2,0.3-4.7c0.1-1.1,0-2.2,0-3.2c0-1.6,0.1-3.2,0.2-4.8
		c0-0.3,0.1-0.7,0.2-1c0.2-0.7,0.6-1.4,0.8-2.1c0.2-1.1,0.2-2.1,0.2-3.2c0-1.1,0-2.3,0.1-3.4c0-0.9,0.1-1.8,0.2-2.7c0-1,0-2,0-3.1
		c0-2,0-4,0-5.9c0-0.9,0-1.8,0-2.7c0-0.6,0.1-1.2,0.1-1.8c0-0.9,0.1-1.7,0-2.6c-0.1-1.1-0.5-2.2-0.4-3.3c0.1-0.9,0-1.8-0.1-2.6
		c-0.1-0.8-0.2-1.5-0.3-2.3c-0.2-1.3-0.4-2.7-0.6-4c-0.1-0.9-0.2-1.4-1.2-1.6c-1.1-0.2-2.1,0-2.2,1.6c-0.1,1-0.3,2-0.5,3
		c-0.1,0.6-0.3,1.3-0.3,1.9c0,0.9,0.3,1.8,0.4,2.8c0.1,1,0.3,2,0.2,3c-0.1,1.2,0,2.5,0.1,3.8c0.1,1.4,0.1,2.8,0.2,4.2
		c0,0.5,0.1,1,0.1,1.6c0.1,0.7,0.1,1.5,0.2,2.2c0.1,0.9,0.1,1.8,0.2,2.6c0.2,1.4,0.4,2.7,0.5,4.1c0.1,1.5,0.1,3,0.1,4.5
		c0,0.4,0,0.8-0.1,1.3c-0.3,1.5-0.4,3-0.2,4.5c0,0.3,0,0.6,0,0.9c0.1,1.1,0.2,2.2,0.2,3.4c0,1.2-0.1,2.4-0.2,3.6
		c0,0.2,0.1,0.4,0.1,0.6c-0.1,0.9-0.2,1.8-0.2,2.7C180,64.9,180.2,69,179.9,73.1 M123.8,69.2c-0.9-0.1-1.8-0.3-2.6-0.3
		c-0.6,0-1.3,0-2,0.1c-0.9,0-1.8,0-2.7,0.2c-1.6,0.3-3.2,0.9-4.6,1.7c-1.1,0.6-2.1,1.5-2.6,2.6c-0.4,0.9-0.6,1.9-0.9,2.9
		c-0.3,1.3-0.5,2.6-0.2,3.9c0,0.1,0.2,0.3,0.3,0.3c0.2,0,0.4,0,0.6,0c1.8-0.3,3.6-0.6,5.4-0.9c1.2-0.2,2.4-0.4,3.5-0.5
		c1.8-0.3,3.6-0.5,5.3-0.8c0.5-0.1,1-0.1,1.5-0.1c1.6-0.1,3.2-0.3,4.8-0.4c0.7-0.1,1.3-0.1,2-0.1c0.5,0,0.9-0.1,1.4-0.1
		c0.6,0,0.7-0.2,0.5-0.7c-0.2-0.5-0.5-1-0.7-1.6c-0.7-2.1-2-3.7-4-4.7C127.2,69.9,125.5,69.7,123.8,69.2 M173.7,77.1
		c0.5-0.1,0.5-0.4,0.4-0.8c-0.6-1.4-1.1-2.8-1.9-4.1c-1-1.7-2.5-2.9-4.5-3.5c-1.5-0.4-2.9-0.9-4.4-1.3c-1.1-0.3-2.3-0.8-3.5-0.7
		c-0.9,0-1.7,0.1-2.6,0.3c-2.1,0.6-3.8,1.6-5.1,3.4c-1.1,1.5-1.6,3.3-2.1,5c-0.3,0.8-0.2,1,0.6,1.3c0.7,0.3,1.4,0.4,2.1,0.5
		c0.9,0.1,1.7,0.1,2.6,0.2c1.3,0.1,2.6,0.4,4,0.4c1.3,0.1,2.7-0.1,4.1-0.1c1.2,0,2.3-0.1,3.5-0.1c0.6,0,1.3-0.1,1.9-0.1
		C170.4,77.5,172,77.3,173.7,77.1 M93.9,56c-0.1-0.8-0.2-1.5-0.2-2.3c0-1.1-0.1-2.1-0.4-3.1c-0.2-0.6-0.3-1.2-1.1-1.2
		c-0.7,0-1.4,0-2.2,0c-1.5,0.1-2.9,0.3-4.4,0.4c-1,0.1-2,0.1-3,0.1c-0.6,0-1.1,0-1.7,0c-0.4,0-0.7,0.1-1.1,0.1
		c-1.1-0.1-2.3-0.4-3.4-0.4c-4.2-0.1-8.3,0-12.5,0c-0.8,0-0.9-0.1-1.2,0.9c0,0.1,0,0.3,0,0.4c0,0.7,0.1,1.5,0.1,2.2
		c0,0.8-0.1,1.7-0.2,2.5c-0.1,1.1-0.2,2.1-0.3,3.2c0,0.3,0,0.7,0.2,0.8c0.3,0.2,0.4-0.2,0.5-0.5c0.9-1.7,2.2-2.7,4-3.2
		c1.9-0.6,3.7-1.1,5.5-1.7c1.4-0.5,2.9-0.8,4.4-0.7c1.2,0,2.4,0.3,3.6,0.4c1.7,0.2,3.3,0.7,4.8,1.5c1.4,0.7,2.8,1.4,4.2,2.2
		c0.8,0.5,1.6,1,2.3,1.6c0.7,0.6,1.1,1.5,1.5,2.3c0.3,0.7,0.8,1.3,1.2,2c0.1,0.1,0.2,0.1,0.3,0.2c0-0.1,0.1-0.2,0-0.3
		c-0.1-1.3-0.3-2.6-0.4-3.9C94.2,58.4,94.1,57.2,93.9,56 M87.4,57.9c-1.3-0.6-2.7-1.2-4-1.7c-1.6-0.7-3.2-1.1-4.9-1
		c-0.2,0-0.4,0-0.6,0c-1.4-0.2-2.8-0.2-4.1,0.1c-1.7,0.4-3.5,0.9-5.2,1.4c-1.6,0.5-2.9,1.4-3.9,2.9c-1,1.6-1.4,3.4-1.5,5.2
		c0,0.7,0,1.3,0.1,2c0,0.2,0.2,0.4,0.2,0.6c0.1-0.2,0.3-0.4,0.4-0.6c0.2-0.8,0.4-1.6,0.7-2.3c0.2-0.7,0.6-1.1,1.4-1
		c0.2,0,0.4,0,0.5,0c1.7-0.6,3.4-1.1,5.2-1.2c1.5-0.1,3-0.3,4.6-0.4c0.8-0.1,1.5-0.2,2.3-0.3c0.5-0.1,1-0.3,1.5-0.2
		c1.4,0.1,2.6,0.9,3.8,1.4c0.8,0.3,1.6,0.8,2.4,1.1c1.6,0.7,3.1,1.4,4.1,2.9c0.2,0.3,0.6,0.5,0.9,0.6c0.9,0.2,1.4,0.7,1.7,1.5
		c0.3,0.7,0.5,1.5,0.8,2.2c0.1,0.1,0.2,0.2,0.3,0.4c0.1-0.2,0.2-0.3,0.2-0.5c0.1-1-0.1-1.9-0.4-2.8c-0.6-1.6-1.2-3.3-1.8-4.9
		c-0.5-1.3-1.2-2.5-2.2-3.4C89,59.1,88.2,58.6,87.4,57.9 M170.6,47.8c-1.4,0-2.7,0.1-4.1,0.1c-0.8,0-1.6-0.1-2.4-0.1
		c-1.3,0-2.6-0.1-3.8-0.1c-1.8,0-3.6,0.1-5.3,0.1c-2.1,0-4.2,0-6.4,0c-0.1,0-0.3,0-0.4,0c-0.3-0.2-0.5-0.1-0.7,0.2
		c-0.2,0.2-0.3,0.4-0.4,0.6c0,0.1,0.1,0.2,0.1,0.3c0,0.2,0.1,0.5,0.1,0.7c-0.1,0.3-0.3,0.7-0.3,1c-0.1,0.9-0.1,1.9-0.1,2.8
		c0,1.6-0.1,3.1-0.1,4.7c0,0.4,0.2,0.7,0.6,0.7c0.2,0,0.6-0.2,0.7-0.4c0.4-0.6,0.8-1.3,1.2-1.9c0.8-1.2,1.9-2.1,3.2-2.7
		c2-0.9,4-1.8,6.2-2.2c1.3-0.2,2.6-0.4,3.9-0.1c1.3,0.2,2.6,0.5,3.9,0.8c0.9,0.2,1.8,0.2,2.7,0.5c1.6,0.6,3.2,1.3,4.7,2.1
		c0.8,0.4,1.5,1.2,2.1,1.9c0.4,0.5,0.7,1.1,1.1,1.6c0.2,0.2,0.4,0.3,0.6,0.4c0.1-0.2,0.2-0.4,0.2-0.6c0-0.2,0-0.5,0-0.8
		c0-1.6-0.1-3.2,0-4.8c0.1-1.2,0.3-2.4,0.4-3.6c0.1-0.5-0.3-0.9-0.8-0.9c-1.6-0.1-3.1-0.2-4.7-0.2C172.2,47.6,171.4,47.7,170.6,47.8
		 M68.6,30c-1.1,1.3-2.1,2.6-3.2,4c-0.1,0.2-0.1,0.5-0.2,0.7c0.2,0,0.4,0.1,0.7,0.1c4.4-0.1,8.8,0.2,13.1-0.2
		c0.8-0.1,1.7-0.1,2.5-0.2c1.3-0.1,2.6-0.3,3.8-0.3c1.1-0.1,2.2,0,3.3,0c0.5,0,0.9,0,1.4,0c0.3,0,0.6-0.1,0.3-0.5
		c-0.2-0.3-0.3-0.6-0.4-0.9c-0.7-1.4-1.2-2.9-2.5-3.9c-0.6-0.5-1.2-1-1.8-1.4c-1.7-1.3-3.6-1.9-5.7-2c-1,0-1.9,0.1-2.9,0.2
		c-1.4,0.1-2.8,0.5-4,1.2c-1,0.5-1.9,1.2-2.8,1.8C69.7,28.9,69.2,29.4,68.6,30 M105.7,53c0,1.4,0,2.7,0,4.1c0,0.7,0.2,0.9,0.8,0.5
		c0.2-0.1,0.3-0.3,0.5-0.4c0.7-0.5,1.3-1.1,2.3-1.1c0.9,0,1.7-0.2,2.6-0.3c1.2-0.1,2.4-0.3,3.6-0.4c0.8-0.1,1.5-0.1,2.3-0.1
		c0.5,0,1-0.1,1.5-0.1c1.6-0.1,3.1-0.3,4.7-0.1c1.5,0.1,2.9,0.3,4.3,0.7c1.3,0.4,2.4,0.9,3.2,2c0.3,0.5,0.7,0.9,1.3,1.1
		c0.3,0.1,0.6,0.1,0.5-0.4c-0.1-1-0.1-2-0.2-3c-0.1-1.3-0.2-2.6-0.3-3.9c0-0.6-0.5-1.1-1.1-1.1c-1,0-2-0.1-2.9-0.1
		c-0.6,0-1.2,0-1.9,0c-0.7,0-1.5-0.1-2.2-0.1c-0.5,0-1-0.1-1.5-0.1c-0.6,0-1.2,0-1.8-0.1c-0.9-0.1-1.7-0.3-2.6-0.4
		c-0.7-0.1-1.3-0.2-2-0.3c-0.9-0.1-1.8-0.2-2.7-0.2c-0.9,0-1.9,0.2-2.8,0.2c-1.4,0.1-2.9,0.1-4.3,0.1c-0.7,0-1.2,0.5-1.2,1.3
		C105.7,51.3,105.7,52.1,105.7,53 M175.9,59.5c-0.2-0.3-0.4-0.7-0.6-1c-1.2-1.9-2.8-3.3-4.9-4c-1-0.4-2-0.6-3-0.9
		c-1.4-0.3-2.8-0.6-4.2-0.7c-1.3-0.1-2.6,0-3.9,0.1c-1.5,0.1-3,0.6-4.4,1.1c-2.1,0.9-3.7,2.2-5.1,3.9c-0.1,0.1-0.1,0.2-0.1,0.3
		c0.1,0,0.2,0.1,0.3,0.1c0.8,0,1.5,0,2.3-0.1c1.7-0.1,3.4-0.3,5-0.4c0.9-0.1,1.9,0.1,2.8,0.1c0.6,0,1.2,0,1.8,0
		c0.4,0,0.8,0.1,1.2,0.2c1.3,0.3,2.7,0.6,4,1c1.4,0.4,2.8,0.8,4.1,1.4c1.2,0.5,2.2,1.3,3.2,2c0.7,0.5,1.3,1.2,1.4,2.1
		c0.2,1.2,0.4,2.4,0.7,3.6c0.2,0.8,0.4,1.6,0.5,2.4c0,0.1,0.1,0.2,0.2,0.2c0.1,0,0.2-0.1,0.3-0.2c0.1-0.1,0.1-0.3,0.1-0.5
		c0-1.4-0.1-2.9-0.1-4.3c0-0.8,0-1.6-0.2-2.3C177,62.3,176.5,60.9,175.9,59.5 M31.7,35.9c0.7,0.1,1.4,0.2,2.1,0.2
		c1.2,0,2.4-0.1,3.7-0.1c0.4,0,0.8-0.1,1.2-0.1c1.2-0.1,2.3-0.3,3.5-0.3c0.9,0,1.8,0.1,2.6,0.1c1,0,1.4-0.5,1.2-1.4
		c-0.5-1.6-0.9-3.3-1.4-4.9c-0.5-1.7-2.1-3-4.1-2.9c-0.7,0-1.4,0.1-2.1,0.1c-1,0.1-1.9,0.1-2.9,0.2c-2.2,0.3-4,1.1-4.9,3.3
		c-0.7,1.6-1.6,3.1-2.4,4.7c-0.3,0.6-0.1,0.8,0.5,0.8c0.6,0,1.2,0.1,1.8,0.1C30.7,35.7,31.1,35.8,31.7,35.9 M47.3,53.3
		c0-1-0.1-2-0.1-3c0-0.4-0.2-0.6-0.6-0.7c-0.9-0.1-1.9-0.2-2.8-0.2c-1.3,0-2.6,0-3.9,0c-0.7,0-1.4,0-2,0c-1.2,0.1-2.5,0.2-3.7,0.2
		c-1.1,0-2.3-0.1-3.4-0.2c-0.9-0.1-1.9-0.1-2.8-0.1c-0.6,0-1.4,0.3-1.4,0.8c-0.1,0.7-0.1,1.5-0.1,2.3c0,0.2,0.1,0.5,0,0.7
		c-0.1,1.2-0.2,2.3-0.3,3.5c-0.1,0.5,0.2,0.5,0.5,0.4c0.5-0.2,1.1-0.4,1.6-0.6c1.7-0.8,3.6-1.3,5.5-1.3c0.4,0,0.8,0.1,1.3,0.1
		c0.7,0,1.5,0,2.2,0c1.1,0.1,2.2,0.2,3.3,0.3c0.3,0,0.7,0,1,0.1c1.5,0.4,3,0.8,4.4,1.6c0.4,0.2,0.8,0.4,1.2,0.5
		c0.4,0.2,0.7-0.1,0.6-0.5C47.5,56,47.4,54.7,47.3,53.3 M144.6,13.8c0.1-0.1,0.2-0.3,0.3-0.4c0.5-0.5,1-1,1.5-1.4
		c0.9-0.7,1.7-1.3,2.7-1.9c1-0.6,2.1-1,3.2-1.5c0.1-0.1,0.2-0.1,0.3-0.2c-0.1-0.1-0.2-0.1-0.3-0.2c-0.8-0.2-1.6-0.4-2.5-0.3
		c-0.9,0.1-1.9,0-2.9,0c-1.4,0-2.8,0.1-4.3,0.1c-0.7,0-1.4,0.1-2,0.1c-1.5,0.1-3,0.2-4.4,0.3c-1.1,0.1-2.3,0.1-3.4,0.2
		c-0.4,0-0.8,0.1-1.3,0.1c-1.6,0.1-3.3,0.3-4.9,0.4c-0.4,0-0.8,0.2-1.2,0.3c-0.1,0-0.2,0.2-0.2,0.3c0,0.1,0.1,0.2,0.2,0.2
		c1.3,0.4,2.5,0.7,3.8,1.1c1.4,0.5,2.9,0.9,4.2,1.5c1.4,0.7,2.7,1.6,4.1,2.4c0.9,0.6,1.9,1.2,2.8,1.7c0.9,0.5,1.8,0.1,2.3-0.5
		C143.3,15.5,143.9,14.7,144.6,13.8 M45,61.6c0.7,0.3,1.3,0.6,2,0.9c0.3,0.1,0.7,0.2,1,0.2c0.1,0,0.3-0.3,0.2-0.4
		c-0.4-1.6-1.1-2.8-2.5-3.8c-1.2-0.8-2.4-1.2-3.8-1.6c-1.4-0.4-2.8-0.6-4.2-0.7c-2.7-0.1-5.4,0.1-8,0.6c-1.2,0.2-2.3,0.5-3.2,1.5
		c-1.3,1.5-1.8,3.3-1.9,5.2c-0.1,0.9,0,1.8,0,2.6c0,0.2,0.1,0.5,0.1,0.7c0.3-0.1,0.6-0.2,0.8-0.3c0.3-0.3,0.6-0.6,0.9-0.9
		c0.7-0.5,1.3-1,2-1.4c1-0.5,2-1,3-1.4c2-0.8,3.8-1.8,6-2.1c1.6-0.2,3.2-0.2,4.8,0.1C43.3,61.1,44.1,61.4,45,61.6 M4.7,49.6
		c0,0-0.1,0.1-0.1,0.1c0,1.6,0,3.2-0.2,4.7c-0.2,1.4-0.4,2.8-0.5,4.2c0,0.4,0,0.7,0.5,0.8c0.7,0,1.4,0.2,2.1,0.1
		c1.2-0.1,2.5-0.4,3.7-0.7c0.6-0.1,1.4-0.3,1.4-1.2c0-0.7,0.3-1.4,0.4-2.1c0.1-0.9-0.7-1.7-1.6-1.7c-0.6,0-1.3,0-1.9,0
		c-0.9,0-1.7,0.1-2.6,0.1c-0.1,0-0.3-0.1-0.4-0.1c0.1-0.1,0.1-0.2,0.2-0.3c0.5-0.7,1.3-0.8,2.1-0.8c1.1-0.1,2.3-0.1,3.4-0.1
		c0.5,0,0.9-0.3,0.9-0.9c0-0.5,0.1-0.9,0.1-1.4c0-1.1,0.7-1.8,1.4-2.5c0.2-0.1,0.4-0.2,0.6-0.4c0,0.2,0.1,0.4,0.1,0.7
		c0,0.1,0,0.2,0,0.3c0.1,0.8,0.2,1.6,0,2.4c-0.2,0.9,0.1,1.3,1,1.2c0.9,0,1.8-0.1,2.7-0.2c0.3,0,0.6-0.3,0.7-0.6
		c0.1-0.3,0.1-0.7,0.2-1.1c0.1-1,0.3-1.9,0.4-2.9c0.1-0.5-0.3-0.8-0.8-0.9c-0.8,0-1.5,0-2.3,0c-0.9,0-1.8,0.1-2.7,0.2
		c-0.5,0-1,0.1-1.5,0.1c-1.2,0.1-2.5,0.3-3.7,0.4c-0.9,0.1-1.9,0.2-2.8,0.3c-0.3,0.1-0.6,0.3-0.6,0.7C4.8,48.6,4.8,49.1,4.7,49.6
		 M126.4,17.4c-0.1-0.2-0.2-0.5-0.3-0.6c-0.7-0.8-1.6-1.1-2.6-1.4c-0.6-0.2-1.3-0.4-1.8-0.3c-2.4,0.6-4.8,1.3-7,2.5
		c-1.2,0.6-2.4,1.2-3.7,1.5c-1.5,0.3-2.1,1.6-1.9,2.8c0.2,1.5,0.5,3.1,0.8,4.6c0.1,0.4,0.4,0.6,0.7,0.4c0.5-0.2,1.1-0.5,1.6-0.8
		c0.4-0.2,0.6-0.6,0.5-1c-0.2-1.1-0.3-2.1-0.5-3.2c-0.1-0.9-0.4-1.8,0.5-2.5c0.2-0.2,0.2-0.2,0.4,0c0.6,0.6,0.9,1.4,0.9,2.2
		c0,1,0.1,2,0.1,3c0,0.4,0.2,0.6,0.6,0.5c0.7-0.2,1.5-0.4,2.2-0.7c0.6-0.2,0.9-0.7,1-1.3c0.2-1.2,0.4-2.5,0.7-3.7
		c0.1-0.4,0.4-0.8,0.7-1.1c0.1-0.1,0.3-0.1,0.4-0.1c0.3,0.4,0.5,0.7,0.4,1.2c-0.2,0.8-0.2,1.6-0.3,2.3c0,0.3,0,0.7-0.1,1
		c-0.2,0.7,0.1,1.3,0.8,1.4c0.4,0.1,0.9,0.1,1.3,0.1c0.5,0,0.7-0.2,0.6-0.7c0-0.4-0.1-0.8-0.1-1.2c0-1.5,0.1-3,0.1-4.5
		c0-0.3,0.2-0.7,0.6-0.6c0.2,0.1,0.5,0.4,0.6,0.6c0.1,1.1,0.2,2.2,0.2,3.3c0,0.8,0,1.5,0,2.3c0,1.1,0.7,1.4,1.7,1.6
		c0.4,0.1,0.6-0.1,0.6-0.5c-0.1-0.5-0.2-1-0.2-1.4c0.1-0.8,0.3-1.6,0.5-2.4C126.4,19.6,126.9,18.5,126.4,17.4 M127.4,33.2
		c0.2,0,0.4-0.1,0.6-0.1c0.9,0,1.8,0,2.7,0c0.1,0,0.2-0.2,0.1-0.3c0-0.1-0.2-0.2-0.3-0.3c-1.7-1.4-3.4-2.9-5.1-4.2
		c-1.7-1.3-3.5-2.4-5.9-2.1c-0.9,0.1-1.8,0.2-2.7,0.3c-1.6,0.3-3,1-4.1,2.1c-1.4,1.3-2.8,2.6-4.2,3.9c-0.1,0.1-0.2,0.2-0.3,0.4
		c0,0.3,0,0.6,0,0.9c0,0,0.4,0.1,0.6,0c1.1-0.2,2.1-0.4,3.2-0.5c1-0.2,2.1-0.2,3.1-0.5c1.1-0.3,2.2-0.1,3.2-0.1
		c1.6,0.1,3.2,0.3,4.8,0.4C124.5,33.2,125.9,33.2,127.4,33.2 M126.3,60.2c0.4,0.1,0.7,0.3,1.1,0.4c1.9,1,3.3,2.4,4.5,4.1
		c0.4,0.6,0.8,1.1,1.2,1.7c0.1,0.1,0.5,0.2,0.7,0.1c0.2-0.1,0.3-0.5,0.2-0.6c-0.7-1.6-1-3.4-1.9-4.9c-1-1.6-2.3-2.9-4-3.8
		c-1.6-0.8-3.2-1.4-5-1.1c-0.8,0.1-1.5,0-2.3,0.1c-1.5,0.2-2.9,0.5-4.4,0.6c-1.6,0.1-3.2,0.1-4.8,0.1c-1,0-1.9,0.2-2.8,0.7
		c-2.1,1.2-2.9,3.1-2.9,5.4c0,0.3,0.2,0.7,0.3,1c0.3-0.2,0.5-0.3,0.8-0.5c0.1,0,0.1-0.1,0.2-0.2c1-1.5,2.4-2.5,4-3.1
		c1.9-0.7,3.9-0.9,5.9-1c1.5-0.1,3,0.1,4.4,0.2C123.2,59.6,124.7,59.8,126.3,60.2 M64.1,24.6c0,0.2,0,0.4,0,0.7
		c0.2,1.3,0.4,2.6,0.5,4c0.1,0.7,0,1.3,0,2c0,0.1,0.2,0.2,0.3,0.2c0.2-0.1,0.3-0.2,0.5-0.3c0.5-0.6,1-1.2,1.5-1.7
		c1.3-1.4,3.1-2.2,4.7-3.1c0.9-0.6,1.9-1.1,2.8-1.6c0.2-0.1,0.4-0.4,0.4-0.5c0-1-0.1-2-0.2-3c0-0.6,0-1.1,0.4-1.6
		c0.2-0.2,0.3-0.2,0.5-0.1c0.4,0.3,0.6,0.7,0.7,1.3c0,0.9,0.1,1.8,0.2,2.7c0,0.2,0.3,0.4,0.4,0.4c0.9,0,1.9,0,2.8,0
		c0,0,0.2-0.2,0.1-0.2c-0.2-0.4-0.5-0.7-0.6-1.1c-0.2-1-0.3-2-0.3-3c-0.1-1.3-0.5-1.7-1.7-1.7c-1.6,0.1-3.2,0.3-4.8,0.4
		c-1.3,0.1-2.6,0.5-3.7,1.3c-1,0.7-1.8,1.5-2.8,2.2C64.8,22.3,64.2,23.3,64.1,24.6 M12.5,35.2c-1.9,0-3.8,0-5.7,0
		c-0.9,0-1.1,0.2-1.2,1.1c0,1.5,0,3.1-0.2,4.6c-0.2,1.4-0.3,2.9-0.4,4.3C5,45.5,5,46.1,5.6,46c0.5-0.1,1.1,0,1.6,0
		c1.3-0.1,2.6-0.4,3.9-0.5c0.9-0.1,1.1-0.2,1.4-1.1c0.2-0.5,0.3-1,0.4-1.5c0-0.2,0-0.4,0-0.7c0-0.9-0.1-1.8,0-2.7
		c0.1-1.1,0.4-2.1,0.5-3.2C13.6,35.5,13.1,35.2,12.5,35.2 M164,65c-0.2-0.4-0.4-0.7-0.5-1.1c-0.2-0.8-0.5-1.7-0.3-2.6
		c0.1-0.4,0.3-1-0.2-1.2c-0.9-0.4-1.8-0.8-2.8-0.8c-1.8,0-3.5,0.2-5.3,0.4c-1,0.1-2,0.3-3,0.4c-0.5,0.1-0.9,0.2-1.1,0.8
		c-0.2,0.5-0.4,1.1-0.5,1.6c-0.2,0.8-0.4,1.7-0.1,2.6c0.2,0.5,0,0.8-0.5,0.9c-0.2,0-0.4,0.1-0.7,0.1c-1,0.3-1.3,0.6-1.2,1.7
		c0,0.2,0,0.4,0,0.7c0,1.8,0,3.6,0,5.4c0,0.2,0.3,0.5,0.5,0.6c0.2,0.1,0.5,0,0.6-0.4c0.2-0.7,0.5-1.5,0.7-2.2c0.3-1.2,0.7-2.4,0-3.7
		c-0.1-0.2,0.2-0.6,0.3-0.9c0.2,0.1,0.3,0.1,0.4,0.2c0.2,0.2,0.3,0.4,0.4,0.6c0.2,0.1,0.4,0.4,0.6,0.3c0.6-0.2,1.2-0.5,1.7-0.8
		c0.4-0.2,0.4-0.7,0.1-1.1c-0.3-0.5-0.5-0.9-0.7-1.5c-0.2-0.6-0.2-1.3-0.3-1.9c-0.2-0.7,0.1-1.2,0.4-1.8c0.1-0.1,0.2-0.3,0.4,0
		c0.8,1.2,1.1,2.5,1.3,3.8c0.1,0.4,0.2,0.8,0.7,0.9c0.4,0.1,1.1-0.3,1-0.8c0-0.9-0.1-1.8-0.3-2.6c-0.2-0.8-0.2-1.2,0.4-1.7
		c0.1-0.1,0.3-0.1,0.4,0c0.7,0.8,1.1,1.7,1,2.9c0,1,0.2,1.2,1.2,1.2c0.1,0,0.3,0,0.4,0c0.7,0,0.7-0.1,0.4-0.7
		c-0.5-1.1-0.6-2.2,0.1-3.3c0.2-0.3,0.3-0.2,0.4,0c0.5,0.8,0.9,1.6,0.9,2.6c0,0.9,0.3,1.3,1.1,1.6c0.4,0.1,0.8,0.3,1.2,0.4
		c0.2,0.1,0.4,0.1,0.6,0.1c0-0.2-0.1-0.4-0.1-0.6C164,65.2,164,65.2,164,65 M91,23.6c0-0.6,0-1.1,0-1.7c0-0.8-0.5-1.4-1.1-1.8
		c-0.4-0.3-0.6-0.2-0.6,0.2c0,0.8,0,1.7,0.1,2.5c0.1,0.8-0.1,1.5-0.3,2.2c-0.1,0.2-0.4,0.5-0.6,0.5c-0.2,0-0.4-0.3-0.6-0.5
		c-0.1-0.2-0.2-0.4-0.2-0.6c-0.1-1.4-0.2-2.9-0.2-4.3c0-0.6-0.3-1.2-1.1-1.3c-1.6-0.3-3.3-0.7-4.9-1.1c-0.9-0.2-1.2,0.1-1.2,1
		c0,0.6,0.1,1.1,0.2,1.7c0.1,1.1,0.3,2.1,0.4,3.2c0.1,0.3,0.3,0.6,0.7,0.6c0.5,0,0.9,0,1.4,0c0.2,0,0.5-0.2,0.5-0.4
		c0-1.1-0.1-2.1-0.1-3.2c0-0.5,0-1.1,0.1-1.6c0-0.2,0.2-0.4,0.5-0.1c0.5,0.5,0.8,1.1,1,1.8c0.2,1,0.4,1.9,0.2,3
		c-0.1,0.8,0,1.6,0.7,2.2c0.6,0.4,1.2,0.8,1.7,1.3c0.8,0.7,1.6,1.4,2.4,2.2c0.5,0.5,1,1.1,1.4,1.7c1,1.5,1.2,3.4,2,5
		c0.1,0.2,0.2,0.3,0.4,0.4c0.1-0.2,0.2-0.3,0.2-0.5c-0.1-0.9-0.1-1.9-0.2-2.8c-0.1-1.5-0.2-3.1-0.3-4.6c-0.1-0.9-0.2-1.7-0.3-2.6
		c0-0.1-0.2-0.3-0.3-0.3c-0.1,0-0.3,0.2-0.4,0.3c-0.1,0.2-0.1,0.4-0.1,0.5c-0.2,0.5-0.3,1.1-0.5,1.6c-0.1,0.2-0.1,0.1-0.3,0.1
		c-0.7-0.2-0.6-0.7-0.5-1.2C90.8,25.8,90.9,24.8,91,23.6 M7.9,33.9c1.4,0,2.8,0,4.1,0c1,0,1.4-0.4,1.4-1.4c0-1.7,0-3.3,0-5
		c0-0.8,0.1-1.7,0.2-2.5c0.1-1.1-0.4-1-1.2-0.8c-1.7,0.4-3.3,0.9-5,1.4c-0.9,0.3-1.6,0.7-1.6,1.9c0,0.8,0,1.6-0.1,2.4
		c0,0.6-0.2,1.3-0.2,1.9c-0.1,0.7-0.1,1.4-0.1,2.1c0,0.4,0,0.6,0.6,0.4C6.6,34.2,7.2,34.1,7.9,33.9 M170.1,61.7
		c-0.6-0.2-1.1-0.4-1.7-0.5c-1.1-0.3-2.2-0.5-3.3-0.7c-0.2,0-0.6,0-0.7,0.2c-0.1,0.1-0.1,0.5,0,0.7c0.7,1,0.9,2.2,0.9,3.4
		c0,0.9,0.2,1.7,1.3,2c0.4,0.1,0.7,0.3,1,0.5c1.2,0.6,2.4,1.2,3.6,1.9c1.3,0.8,2.4,1.8,3.1,3.2c0.5,1.1,0.9,2.2,1.3,3.3
		c0.1,0.3,0.3,0.6,0.5,0.9c0,0,0.2,0,0.2-0.1c0.1-0.3,0.2-0.5,0.2-0.8c-0.1-0.6-0.2-1.3-0.3-1.9c-0.3-1.4-0.6-2.9-0.9-4.3
		c-0.2-1-0.4-1.9-0.7-2.9c-0.2-0.8-0.4-1.7-0.9-2.5C172.8,62.9,171.5,62.3,170.1,61.7 M106.1,14c0.1-0.1,0.3-0.1,0.4-0.2
		c0.8-0.5,1.5-1,2.3-1.5c0,0,0.1-0.1,0.1-0.1c0,0-0.1-0.1-0.1-0.1c-0.6,0-1.2-0.1-1.8,0c-1.8,0.3-3.7,0.7-5.5,1.1
		c-1,0.2-2,0.3-3.1,0.3c-1.8,0.1-3.6,0.2-5.4,0.3c-1.1,0.1-2.2,0.1-3.2,0.2c-0.2,0-0.3,0.2-0.5,0.3c0.1,0.1,0.3,0.3,0.4,0.3
		c1.3,0.4,2.6,0.9,3.9,1.3c1.6,0.6,3.1,1.4,4.4,2.6c1.2,1.1,2.7,1.2,3.7-0.2C102.9,16.7,104.4,15.2,106.1,14 M48.7,47.9
		c0.1,1.4,0.2,2.7,0.3,4.1c0.2,1.5,0.4,3,0.5,4.5c0.2,1.5,0.2,3,0.5,4.4c0.1,1,0.4,1.9,0.8,2.8c0.7,1.7,1.7,3.2,1.7,5.2
		c0,0.2,0.2,0.4,0.4,0.6c0.1-0.2,0.4-0.4,0.4-0.6c0.1-1,0.1-2.1,0.1-3.1c0-0.9-0.2-1.7-0.3-2.6c-0.2-1-0.4-2-0.5-2.9
		c-0.2-1-0.3-2-0.4-3c-0.2-1.1-0.4-2.2-0.5-3.3c-0.2-1-0.3-1.9-0.5-2.9c-0.2-1.5-0.5-3-0.7-4.5c-0.1-0.8-0.2-1.7-0.3-2.5
		c-0.2-1.2-0.4-2.4-0.7-3.6c-0.1-0.6-0.3-1.2-0.5-1.8c0,0-0.2-0.1-0.2-0.1c-0.1,0.3-0.4,0.6-0.4,0.9c0,1,0,1.9,0.1,2.9
		c0.1,1,0.1,2.1,0.2,3.1C48.5,46.2,48.6,47,48.7,47.9 M127.5,64.5c0,0.7,0.1,1.4,0.1,2.1c0,0.3-0.4,0.5-0.6,0.8
		c-0.2-0.2-0.5-0.3-0.7-0.5c-0.2-0.3-0.2-0.8-0.2-1.2c-0.3-1.2-0.5-2.4-0.8-3.5c-0.3-1-0.8-1.1-1.6-1.1c-0.6,0-1,0.4-0.9,0.9
		c0.1,0.8,0.3,1.7,0.5,2.5c0.1,0.7,0.3,1.4,0,2c-0.1,0.2-0.3,0.4-0.5,0.5c-0.3-0.3-0.8-0.6-0.9-1c-0.3-1.2-0.5-2.4-0.7-3.6
		c-0.1-1.1-0.3-1.4-1.2-1.5c-0.6-0.1-1.2,0.4-1.2,1c0,0.6,0.1,1.2,0.2,1.8c0.1,0.9,0.2,1.8,0.3,2.7c0.1,0.4,0.3,0.8,0.8,0.9
		c0.4,0.1,0.8,0.1,1.2,0.2c1.2,0.2,2.4,0.5,3.7,0.8c0.6,0.1,1.2,0.5,1.9,0.4c1.2,0,2.2,0.4,3.2,1c1,0.7,1.9,1.4,2.8,2.1
		c0.3,0.3,0.6,0.2,0.6-0.2c0-0.2,0-0.4-0.1-0.6c-0.5-1.1-1.1-2.2-1.6-3.4c-0.2-0.4-0.5-0.5-0.8-0.1c-0.2,0.2-0.4,0.5-0.6,0.7
		c-0.2,0.2-0.3,0.2-0.4,0c-0.3-0.4-0.6-0.9-0.5-1.5c0.1-0.5,0.1-1,0-1.5c-0.1-0.7-0.3-1.5-1-1.8c-0.3-0.1-0.6-0.2-0.9-0.3
		c-0.1,0.3-0.1,0.6-0.2,0.9C127.5,64.1,127.5,64.2,127.5,64.5 M18.8,33.6c0.8-0.4,1.4-1.2,1.1-1.9c-0.3-1-0.2-1.9-0.1-2.9
		c0.2-1.7,0.4-3.3,0.7-4.9c0.1-0.6,0.4-1.1,0.6-1.6c0.1-0.2,0.1-0.5,0.2-0.7c-0.2,0-0.4-0.1-0.6,0c-1.3,0.3-2.6,0.5-3.9,0.9
		c-0.9,0.3-1.4,0.5-1.4,1.8c0,1.2,0,2.4,0,3.7c0,0.1,0,0.3,0,0.4c0.1,0.7,0.2,1.4,0.2,2.1c0,0.9,0,1.8,0,2.7c0,0.2,0.3,0.4,0.4,0.4
		C16.9,33.5,17.8,33.6,18.8,33.6 M63.1,16.5c0-0.5-0.4-0.6-0.7-0.6c-0.8,0-1.6,0.1-2.4,0.1c-0.2,0-0.3,0-0.5,0c-1,0.1-2,0.2-3,0.2
		c-1.4,0-2.7-0.1-4.1-0.1c-0.8,0-1.5-0.1-2.3-0.2c-0.5,0-1.1,0-1.6,0.1c-0.3,0-0.4,0.2-0.2,0.5c0.2,0.5,0.7,0.7,1.1,0.9
		c1.5,0.8,2.8,1.9,4.1,3c0.7,0.6,1.5,1.2,2.2,1.8c0.4,0.3,1.2,0.4,1.5,0c0.4-0.4,0.9-0.9,1.3-1.3c0.9-0.9,1.9-1.8,2.8-2.7
		C61.8,17.7,62.4,17.1,63.1,16.5 M7.8,60.6C6.9,60.8,6,60.9,5.1,61c-0.7,0.1-1.5,0.5-1.4,1.5c0,0.5,0,1,0,1.4c0,1.3,0.1,2.6,0.1,3.9
		c0,0.5,0.3,0.6,0.7,0.6c0.8,0,1.7-0.1,2.5-0.1c0.8,0,1.5,0,2.3,0c0.5,0,0.8-0.3,1-0.8c0.2-0.9,0.4-1.9,0.6-2.8
		c0.1-0.5,0.2-1,0.2-1.5c0.1-0.8,0.1-1.6,0.1-2.4c0-0.1-0.3-0.4-0.5-0.4c-0.5,0-0.9,0-1.4,0.1C8.8,60.4,8.3,60.5,7.8,60.6 M175.3,23
		c0.2,0.3,0.4,0.6,0.7,0.8c0.2,0.1,0.5,0.1,0.7,0.1c0.1,0,0.2-0.3,0.2-0.5c-0.1-1.2-0.2-2.3-0.4-3.5c-0.3-1.4-1-2.7-2-3.7
		c-0.3-0.4-0.5-0.3-0.6,0.1c-0.2,0.5-0.3,1-0.4,1.6c-0.1,0.2-0.2,0.4-0.3,0.6c-0.1-0.2-0.2-0.3-0.3-0.5c-0.4-0.6-0.5-1.2-0.1-1.8
		c0.2-0.4,0.2-0.7-0.2-0.9c-0.3-0.2-0.6-0.4-0.9-0.5c-1.3-0.7-2.8-0.6-4.3-0.7c-0.8-0.1-1.6,0-2.5,0.1c-0.7,0-1.1,0.5-1,1.2
		c0.1,0.3,0.1,0.6,0.2,0.9c0.3,1.4,2,2.5,3.2,2.2c1.1-0.3,2.1-0.1,3,0.5c0.9,0.7,1.9,1.3,2.8,2C174,21.4,174.6,22.2,175.3,23
		 M5.1,79.1C6.4,79,7.7,78.9,9,78.8c0.7-0.1,1.2-0.6,1.2-1.3c-0.1-1.9,0.1-3.7,0.4-5.5c0.1-0.5-0.1-0.8-0.6-1
		c-0.2-0.1-0.4,0.1-0.7,0.1c-1.5,0.1-3,0.3-4.4,0.4c-0.8,0.1-1.5,0.3-1.4,1.5c0.1,1.7,0,3.4,0,5.2C3.5,79,4.1,79.5,5.1,79.1 M6.4,21
		c0,1-0.1,2-0.1,3c0,0.4,0.2,0.6,0.6,0.5c1.9-0.7,3.8-1.4,5.6-2c0.5-0.2,0.7-0.5,0.7-1.1c0-1.3-0.1-2.6,0.4-3.8
		c0.3-0.7-0.1-1.1-0.9-1.1c-0.8,0-1.6-0.2-2.4-0.2c-0.9-0.1-1.8-0.1-2.7-0.1c-0.5,0-0.9,0.3-1,0.8c-0.1,0.6-0.2,1.3-0.2,2
		C6.5,19.6,6.5,20.3,6.4,21 M19.6,39.1c0-1,0-2,0-3c0-0.6-0.3-1-0.9-1.1c-0.8-0.1-1.7-0.1-2.5-0.1c-0.4,0-0.8,0.3-0.9,0.8
		c-0.1,0.8-0.2,1.7-0.2,2.5c-0.1,1.5-0.1,2.9-0.2,4.4c0,0.6-0.1,1.1-0.2,1.7c0,0.4,0.1,0.7,0.6,0.6c1-0.1,2.1-0.2,3.1-0.4
		c0.3-0.1,0.7-0.4,0.8-0.6c0.2-0.4,0.1-0.8,0.2-1.2C19.4,41.6,19.5,40.4,19.6,39.1 M162.7,14.3c-0.3-0.4-0.8-0.4-1.2-0.4
		c-1.1,0.1-2.3,0.1-3.4,0.2c-0.4,0-0.8-0.1-1.1,0c-1.4,0.5-2.8,0.9-4.1,1.5c-0.5,0.2-1.1,0.6-1.2,1.3c0,0.6-0.1,1.1,0,1.6
		c0.1,0.7,0.2,1.4,0.4,2.1c0.1,0.4,0.4,0.8,0.9,0.6c0.8-0.3,1.1-0.3,1.1-1.1c-0.1-1-0.2-2-0.2-3c0-0.2,0.2-0.4,0.3-0.6
		c0.2,0.1,0.4,0.2,0.5,0.4c0.3,0.5,0.6,1.1,0.9,1.7c0.2,0.5,0.5,0.5,0.9,0.4c0.6-0.3,1.3-0.5,1.9-0.8c0.1-0.1,0.3-0.2,0.4-0.3
		c0.1-0.6,0.1-1.2,0.1-1.8c0-0.5,0-0.9,0-1.4c0-0.1,0.1-0.5,0.4-0.2c0.3,0.3,0.6,0.6,0.6,1c0.2,1.1,0.7,1.9,1.9,2.2
		c0.7,0.2,1.6-0.2,1.5-0.8C163.2,16.1,162.9,15.2,162.7,14.3 M18.1,60.3c0.1-0.1,0.1-0.2,0.2-0.4c0.1-0.2,0.2-0.6,0.1-0.7
		c-0.1-0.2-0.5-0.3-0.7-0.3c-1,0.1-2,0.2-2.9,0.4c-0.5,0.1-1,0.4-1.1,1c0,0.4-0.1,0.9-0.1,1.3c-0.1,1-0.1,2-0.2,3.1
		c0,0.5-0.1,1-0.2,1.4c-0.2,1.1,0.2,1.7,1,1.9c0.9,0.2,1.7,0.3,2.6,0.4c1,0.1,1.4-0.2,1.4-1.2c0-0.6,0-1.3,0-1.9
		c0-0.8-0.2-1.6-0.2-2.4C18,62.3,18.1,61.4,18.1,60.3 M63.8,71.7c0,0.1,0,0.2,0,0.3c0,0.2,0.1,0.3,0.1,0.5c0.2-0.1,0.4-0.1,0.6-0.2
		c0.5-0.3,0.9-0.7,1.4-1.1c1.5-1.1,3-2.2,4.8-2.7c1-0.3,1.4-1,1.1-1.9c-0.3-0.7-0.2-1.3,0.2-1.9c0.1-0.2,0.2-0.3,0.4-0.1
		c0.6,0.6,1,1.2,0.9,2c-0.1,0.7,0.3,1.1,0.9,1c0.4-0.1,0.8-0.1,1.2-0.2c0.9-0.2,1-0.5,0.8-1.3c-0.1-0.7-0.1-1.4,0-2.1
		c0.1-0.5,0-0.7-0.5-0.7c-0.6,0-1.2,0.1-1.8,0.2c-0.9,0.1-1.8,0.2-2.7,0.3c-0.4,0.1-0.8,0.3-0.7,0.8c0.1,0.4,0.1,0.8,0.2,1.1
		c0,0.7,0.4,1.4-0.2,2c-0.2,0.3-0.5,0.5-0.8,0.1c-0.2-0.3-0.3-0.6-0.4-1c-0.1-0.6-0.1-1.2-0.1-1.9c0-0.2-0.2-0.4-0.3-0.4
		c-0.8-0.1-1.7,0.1-2.1,1c-0.4,0.8-0.6,1.7-0.9,2.5c-0.1,0.4-0.4,0.7-0.8,0.9c-0.2,0.1-0.5,0.3-0.7,0.5
		C63.8,70.2,63.8,70.9,63.8,71.7 M12.6,74.7c0,1,0,1.9,0,2.9c0,0.6,0.4,0.9,1,0.7c1.1-0.4,2.3-0.5,3.4-0.6c0.5,0,0.9-0.4,0.9-0.8
		c0-0.8,0-1.7,0-2.5c0-0.4-0.1-0.8-0.1-1.2c0.1-0.8,0.2-1.7,0.3-2.5c0-0.3-0.1-0.3-0.3-0.3c-0.4,0-0.8,0.1-1.2,0.1
		c-0.6,0-1.2,0.1-1.9,0.1c-0.3,0-0.7,0.1-1,0.1c-0.7,0-1.1,0.7-1.1,1.8C12.8,73.2,12.7,73.9,12.6,74.7 M26.9,71.8
		c0.1,0,0.1,0,0.2-0.1c0.1-0.5,0.3-1,0.3-1.5c0-0.9,0-1.8,0.3-2.6c0.2-0.3,0.4-0.6,0.6-0.9c0.2,0.2,0.4,0.4,0.6,0.7
		c0.6,0.9,1.4,0.8,1.9-0.1c0.3-0.6,0.4-1.2,0.6-1.8c0.1-0.3,0.2-0.5,0.6-0.2c0.6,0.4,1.4,0.7,2.1,0.1c0.4-0.4,0.8-0.9,1.1-1.4
		c0.5-0.7,0.4-0.7,0.9-0.1c0.1,0.2,0.2,0.3,0.3,0.5c0.3,0.5,0.7,0.8,1.3,0.8c0.3,0,0.5-0.1,0.6-0.5c0.1-0.6,0.4-1.2,0.6-1.8
		c0.1-0.3,0.2-0.3,0.5-0.1c0.5,0.4,0.7,1,0.9,1.6c0.3,1.3,1.1,1.5,2.1,1.1c0.2-0.1,0.4-0.3,0.3-0.6c-0.3-0.6-0.3-1.3-0.2-2
		c0.1-0.4-0.2-0.9-0.7-0.9c-0.7-0.1-1.3-0.1-2-0.1c-0.7,0-1.3,0.1-2,0.1c-0.8,0-1.5,0.3-2.2,0.7c-0.5,0.3-1.1,0.6-1.7,0.8
		c-2,0.8-4.1,1.6-5.9,2.8c-1.3,0.9-2.5,2-2.3,3.8C25.6,70.8,26.2,71.7,26.9,71.8 M63.8,32.8c0.1-0.6,0.2-1.3-0.2-1.8
		c-0.6-0.6-0.3-1.3-0.4-1.9c-0.1-0.8,0-1.6-0.1-2.4c0-0.2-0.3-0.4-0.5-0.6c-0.1,0.1-0.4,0.3-0.4,0.4c-0.3,1.1-0.6,2.2-0.8,3.3
		c-0.2,0.8-0.2,1.6-0.4,2.3c-0.7,2.3-0.9,4.6-1,7c0,0.7,0,1.5,0.1,2.2c0.1,0.8,0.2,1.5,0.4,2.3c0,0.2,0.2,0.3,0.3,0.4
		c0.1-0.2,0.2-0.3,0.3-0.5c0.1-0.6,0.1-1.2,0.2-1.8c0.2-1.4,0.4-2.8,0.7-4.3c0.2-1.2,0.6-2.3,1.2-3.4C63.4,33.7,63.5,33.3,63.8,32.8
		 M17.4,8.6c1,0.1,2,0.2,3,0.2c0.3,0,0.4-0.4,0.1-0.6c-0.6-0.6-1.4-0.4-2.2-0.5c-0.5-0.1-1.1,0-1.6-0.1c-0.2,0-0.4-0.2-0.7-0.3
		c0.3-0.2,0.6-0.4,0.8-0.6c0.1-0.1,0.2,0,0.3,0c0.9,0,1.7,0,2.6,0c0.4,0,0.7-0.1,0.6-0.6c0-0.2,0-0.4,0-0.6c0.1-1.1,0.2-2.2,0.2-3.3
		c0-0.5-0.2-0.6-0.7-0.5C19.8,1.8,19.5,2,19.3,2c-0.9,0.1-1.9,0.2-2.8,0.2c-0.7,0-1.3,0.7-1.2,1.2c0,0.3,0.1,0.5,0.1,0.8
		c0,1.3,0,2.5,0,3.8c0,0.4,0.2,0.6,0.6,0.6C16.4,8.6,16.8,8.6,17.4,8.6 M39.4,22.5c0.1-0.5,0.2-1,0.2-1.4c0-0.2-0.3-0.6-0.5-0.7
		c-1.1-0.1-2.2-0.2-3.2,0.4c-1.6,0.9-3.1,1.8-4.7,2.8c-0.3,0.2-0.6,0.4-0.7,0.6c-0.2,0.9-0.3,1.8-0.5,2.8c-0.1,0.4,0.4,0.7,0.7,0.5
		c0.5-0.4,1-0.9,1.4-1.4c0.1-0.1,0.2-0.5,0.1-0.6c-0.3-0.6,0.1-1,0.2-1.5c0.1-0.3,0.2-0.1,0.2,0c0.3,0.4,0.7,0.8,0.6,1.3
		c0,0.3,0.1,0.5,0.4,0.5c1,0,1.5-0.5,1.5-1.5c0-0.8,0.2-1.6,0.7-2.2c0.1-0.1,0.3-0.1,0.3-0.1c0.2,0.4,0.5,0.9,0.6,1.3
		c0.1,0.5,0.1,1,0.2,1.5c0.1,0.5,0.6,0.6,1,0.5c0.2-0.1,0.5-0.3,0.6-0.5C39.1,24,39.3,23.3,39.4,22.5 M15.1,12.3
		c-0.2,0.8-0.3,1.6,0,2.4c0.2,0.4,0.5,0.6,1,0.6c1-0.1,2-0.1,3-0.1c0.6,0,1.2-0.4,1.3-0.8c0.1-1.3,0.2-2.5,0.3-3.8
		c0-0.5-0.4-0.8-0.9-0.6c-0.9,0.2-1.9,0.3-2.9,0.2c-0.6-0.1-1.4-0.2-1.8,0.5C15.1,11,15.1,11.7,15.1,12.3 M7.3,13.5
		c-0.1,0.4-0.1,0.9-0.2,1.3c0,0.3,0,0.5,0.1,0.8c0.3-0.1,0.5-0.1,0.8-0.2c0,0,0,0,0.1,0c0.8-0.6,1.6-0.5,2.5-0.3
		c0.6,0.1,1.2,0.2,1.8,0.2c0.4,0,0.8-0.4,0.8-0.8c0.1-0.9,0.2-1.9,0.3-2.8c0.1-0.7-0.2-1.3-0.7-1.3c-1.4,0-2.7,0-4.1,0.1
		c-0.4,0-0.9,0.1-1,0.7C7.5,11.9,7.4,12.6,7.3,13.5 M107.6,30.3c0.2-0.3,0.3-0.6,0.5-0.9c0.4-0.7,0.6-1.5,0.5-2.3
		c0-1-0.2-1.9-0.3-2.9c-0.1-0.6-0.3-1.1-0.4-1.6c0-0.1-0.2-0.2-0.2-0.1c-0.2,0.2-0.5,0.3-0.7,0.6c-1.3,2.1-1.8,4.3-2.1,6.7
		c-0.1,1.2-0.2,2.5-0.2,3.7c0,0.4-0.3,0.9,0.2,1c0.5,0.1,0.8-0.4,1-0.8C106.4,32.5,106.8,31.3,107.6,30.3 M147.5,35.5
		c0.1-0.1,0.2-0.3,0.3-0.4c0.4-0.4,0.7-0.8,0.3-1.4c-0.1-0.2-0.1-0.5,0-0.7c0.1-0.7,0.3-1.4,0.4-2.1c0.3-2,0.9-3.9,1.8-5.7
		c0.2-0.5,0.5-1.1,0.5-1.7c0-1.2-0.2-2.3-0.3-3.5c0-0.3-0.3-0.4-0.4-0.2c-0.4,0.5-0.8,1-1,1.7c-0.4,1.6-0.8,3.3-1.2,4.9
		c-0.4,1.7-1.2,3.4-0.9,5.3c0.2,1.1,0.1,2.3,0.2,3.5C147.1,35.3,147.3,35.4,147.5,35.5 M107.6,67.2c0,1.1,0.1,2.2,0.1,3.2
		c0,0.2-0.2,0.5-0.2,0.7c-0.2-0.1-0.3-0.3-0.5-0.4c-0.1,0-0.1-0.1-0.2-0.2c-0.2-0.2-0.5-0.4-0.7-0.5c0,0.3-0.1,0.6-0.1,0.9
		c0,1.4,0,2.8,0,4.2c0,0.2-0.2,0.6,0.2,0.7c0.1,0,0.2-0.4,0.3-0.7c0.2-0.7,0.3-1.5,0.7-2c0.8-1,1.7-1.8,2.6-2.7
		c0.4-0.4,0.7-0.9,0.5-1.3c-0.6-1.1-0.6-2.3-0.6-3.6c0-0.4,0-0.7-0.1-1.1c0-0.1-0.2-0.3-0.3-0.3c-0.6-0.1-1.5,0.6-1.6,1.2
		C107.7,65.9,107.7,66.5,107.6,67.2 M129.2,21.3c-0.2-0.4-0.4-0.9-0.6-1.3c-0.3-0.4-0.6-0.4-0.7,0.2c-0.1,0.8-0.3,1.6-0.3,2.5
		c0,0.8,0,1.5,0.1,2.3c0.1,0.9,0.2,1.7,0.6,2.5c0.7,1.2,1.7,2,2.6,2.9c0.1,0.1,0.5,0.1,0.8,0.1c0-0.2,0.1-0.4,0.1-0.6
		c0-0.1,0-0.2-0.1-0.3c-0.6-1.8-1.3-3.5-1.7-5.4C129.6,23.3,129.4,22.3,129.2,21.3 M19,16.5c-0.9,0-1.8,0-2.7,0c-0.5,0-0.9,0-1.4,0
		c-0.3,0-0.7,0.1-0.3,0.5c0.2,0.2,0.3,0.4,0.3,0.7c0.1,0.6,0.1,1.2,0.1,1.7c0,1,0.6,1.5,1.3,1.4c0.8-0.2,1.6-0.3,2.4-0.6
		c0.8-0.2,1.5-0.6,1.7-1.4c0.1-0.5,0.1-1,0.1-1.6c0-0.6-0.2-0.8-0.8-0.8C19.5,16.5,19.3,16.5,19,16.5 M88,66.6
		c-0.3-0.3-0.6-0.6-1-0.8c-0.4-0.2-0.8,0-0.8,0.3c0,0.8,0,1.6,0,2.4c0,0.6,0.2,1.2,0.7,1.5c0.6,0.4,1.2,0.6,1.8,1
		c1.2,0.7,2.3,1.5,2.9,2.8c0.3,0.6,0.8,1.2,1.1,1.8c0,0.1,0.1,0.1,0.2,0.1c0-0.1,0.1-0.2,0.1-0.3c-0.1-0.6,0-1.2-0.2-1.7
		c-0.4-1.2-1-2.4-1.5-3.5c-0.2-0.5-0.6-0.9-0.9-1.3c-0.2-0.4-0.5-0.3-0.7,0c-0.2,0.2-0.4,0.4-0.5,0.5c-0.4,0.4-0.6,0.2-0.8-0.2
		c-0.1-0.5-0.3-0.9-0.3-1.4C88,67.5,88,67.1,88,66.6 M22.6,22.8c0.2-0.2,0.5-0.4,0.7-0.7c0.7-0.8,1.2-1.7,2-2.4
		c0.8-0.7,1.7-1.2,2.6-1.7c0.5-0.3,0.7-1.1,0.2-1.5c-0.1-0.1-0.2-0.1-0.4-0.2c0,0.1-0.2,0.3-0.1,0.4c0.1,0.4-0.1,0.6-0.4,0.6
		c-0.5,0.1-0.9,0.1-1.4,0.2c-0.9,0.2-1.6,0-2.3-0.5c-0.3-0.2-0.6-0.5-0.9-0.8c0,0-0.1,0-0.2,0c-0.1,1.2-0.3,2.3-0.3,3.5
		c-0.1,0.9,0,1.9,0,2.8c0,0.1,0,0.2,0.1,0.3C22.3,23,22.4,22.9,22.6,22.8 M8.8,2.9c0,0.6,0,1.2,0.1,1.7c0,0.1,0.2,0.2,0.3,0.2
		c1,0.3,2.1,0.5,3.1,0.8c0.9,0.2,1.4-0.2,1.2-1.1c-0.2-0.8-0.1-1.5,0.2-2.2c0.2-0.4,0.1-0.6-0.3-0.6c-1.2-0.2-2.4-0.3-3.6-0.4
		c-0.1,0-0.2,0-0.3,0.1C9,1.8,8.8,2.3,8.8,2.9 M17.2,53.5c-0.6,0-1.3-0.1-1.9-0.1c-0.3,0-0.8,0.3-0.8,0.6c-0.2,1.1-0.3,2.2-0.5,3.3
		c-0.1,0.5,0.3,0.7,0.8,0.6c0.8-0.2,1.7-0.3,2.5-0.5c0.7-0.2,1-0.2,0.9-1.1c0-0.6,0-1.3,0-1.9C18.2,53.7,18.2,53.5,17.2,53.5
		 M112.7,61.7c-0.3,0-0.5-0.1-0.8,0c-0.2,0.1-0.6,0.2-0.6,0.4c-0.2,0.7-0.4,1.5-0.3,2.2c0.1,1.1,0.4,2.2,0.6,3.3
		c0.1,0.6,0.3,0.7,0.9,0.7c0.2,0,0.4,0,0.7,0c0.7,0,1.1-0.6,1-1.2c-0.2-1.2-0.4-2.5-0.7-3.7C113.4,62.8,113.5,62,112.7,61.7
		 M115.6,65.7c0.1,0.5,0.2,1,0.3,1.4c0.1,0.2,0.4,0.5,0.7,0.5c0.6,0.1,1.1,0,1.7,0c0.3,0,0.4-0.1,0.3-0.4c-0.9-1.7-1.2-3.6-1.5-5.5
		c-0.1-0.4-0.2-0.8-0.7-0.9c-0.3,0-0.6,0-0.9,0c-0.7,0.1-1,0.4-0.8,1.1C114.9,63.1,115.3,64.3,115.6,65.7 M13.2,8.8
		c0.2-0.6,0.1-1.3-0.3-1.5c-1.2-0.5-2.5-1-3.8-1.5c-0.5-0.2-0.8,0-0.9,0.5C7.8,7.1,7.8,7.9,7.9,8.6c0,0.2-0.1,0.5,0,0.6
		c0.2,0.2,0.5,0.2,0.7,0.2c0.9,0,1.8-0.1,2.6-0.2C11.9,9.2,12.5,9,13.2,8.8 M79.8,67.3c0.1-0.2,0.2-0.5,0.2-0.7c0-0.8,0-1.6,0-2.3
		c0-1.3-0.8-1.9-2.1-1.5c-0.5,0.2-0.8,0.5-0.8,1c0.2,1.2,0.4,2.3,0.7,3.5c0,0.2,0.4,0.5,0.6,0.4C78.9,67.6,79.3,67.4,79.8,67.3
		 M83.7,64.1c-0.4-0.2-0.8-0.4-1.2-0.6c-0.4-0.2-0.7,0-0.7,0.5c0,0.5,0,1,0,1.5c0,0.6,0,1.3,0,1.9c0,0.5,0.3,0.8,0.6,0.7
		c0.5-0.1,1-0.1,1.4-0.2c0.4-0.1,0.7-0.2,0.6-0.7c-0.1-0.3,0-0.6,0-0.9C84.4,65.5,84.5,64.7,83.7,64.1 M27.2,29.7
		c-0.4,1.2-0.9,2.3-1.3,3.5c-0.2,0.6-0.2,1.3,0.2,1.8c0.1,0.2,0.2,0.2,0.2,0c0.2-0.6,0.5-1.2,0.6-1.8c0.2-1,0.4-2,1.1-2.7
		c1-1,1.3-2.2,1.2-3.6c0-0.3-0.2-0.5-0.3-0.7c-0.2,0.2-0.5,0.3-0.7,0.5c-0.1,0.1-0.2,0.3-0.2,0.4C27.8,28,27.5,28.8,27.2,29.7
		 M25.1,80.3c0.1-0.3,0.3-0.6,0.4-0.9c0.1-0.4,0.1-0.8,0.2-1.2c0.1-0.9,0.3-1.8,0.3-2.6c0-0.7-0.1-1.5-0.2-2.2
		c-0.1-0.3-0.4-0.5-0.6-0.7c-0.1-0.1-0.3-0.2-0.3,0.2c0,0.5-0.2,1-0.2,1.4c0,1.8,0,3.5,0.1,5.3C24.8,79.8,25,80,25.1,80.3 M9.4,81.7
		c0.4,0.1,0.5-0.1,0.5-0.5c0-1,0-1.2-1.1-1.2c-1.2,0-2.5,0-3.7,0c-0.4,0-0.8,0.3-1.2,0.4c0,0,0,0.3,0.1,0.4c0.1,0.1,0.3,0.1,0.5,0.1
		c0.6,0.1,1.2,0.1,1.8,0.2C7.3,81.4,8.3,81.6,9.4,81.7 M45.4,23.6c-0.3-0.4-0.6-0.8-0.9-1.1c-0.1-0.1-0.3-0.2-0.4-0.2
		c-0.1,0-0.2,0.2-0.2,0.3c-0.1,0.9-0.2,1.7-0.2,2.6c0,0.5,0.2,0.9,0.6,1.2c0.3,0.2,0.7,0.4,0.9,0.3c0.3-0.1,0.5-0.5,0.6-0.8
		C45.8,25.1,45.9,24.3,45.4,23.6 M40.9,24.9c0.7,0.2,1.5-0.1,1.5-0.9c0-0.7-0.1-1.3-0.1-2c0-1-0.1-1-0.8-1.2
		c-0.2-0.1-0.5-0.1-0.6,0.1c-0.1,0.1-0.1,0.4-0.1,0.6c0.2,0.6,0.1,1.3,0,1.9C40.7,23.9,40.8,24.4,40.9,24.9 M44.2,65.8
		c0.2,0.4,0.5,0.7,0.9,0.8c0.1,0,0.4-0.1,0.4-0.2c0.1-0.6,0.2-1.2,0.2-1.8c0-0.6-0.3-1.2-0.9-1.5c-0.5-0.2-0.8-0.1-0.8,0.5
		C44,64.4,44.1,65.1,44.2,65.8 M48.1,65.5c-0.2-0.1-0.3-0.3-0.5-0.4c-0.1,0-0.3,0.1-0.3,0.2c-0.3,1.1,0.3,1.8,0.8,2.7
		c0.1,0.1,0.3,0.1,0.5,0.1c0-0.1,0.1-0.3,0.1-0.4C48.4,67,48.3,66.3,48.1,65.5 M6.9,69.8c-0.1,0-0.3-0.1-0.4-0.1
		c-0.9,0-1.8,0-2.7,0.1c-0.1,0-0.2,0.3-0.3,0.5c0,0,0.1,0.2,0.1,0.2c0.3,0.1,0.5,0.1,0.8,0.1c0.9-0.2,1.8-0.3,2.7-0.5
		c0.1,0,0.2-0.1,0.3-0.2C7.2,69.8,7.1,69.8,6.9,69.8 M47.4,27.9c-0.2-0.3-0.3-0.6-0.5-0.9c-0.1-0.2-0.3-0.3-0.3,0.1
		c0,0.3-0.1,0.5-0.2,0.8c-0.1,0.5-0.1,1-0.1,1.6c0,0.2,0.3,0.3,0.4,0.5c0.1-0.1,0.3-0.2,0.3-0.4C47.2,29,47.3,28.5,47.4,27.9
		 M23.1,69.6c0-0.4,0.1-0.8,0.1-1.2c0-0.1-0.1-0.2-0.1-0.3c-0.1,0.1-0.2,0.2-0.3,0.2c0,0.4,0,0.7,0,1.1C22.8,69.6,23,69.6,23.1,69.6
		 M47.5,33.5c0,0.4,0.1,0.8,0.1,1.2c0,0.1,0.1,0.2,0.1,0.2c0.1-0.1,0.2-0.2,0.2-0.3c0-0.4-0.1-0.9-0.2-1.3c0,0-0.1-0.1-0.2-0.1
		C47.5,33.3,47.5,33.4,47.5,33.5z"/>
	<path d="M53.8,79.1c0,0.2,0.1,0.3,0.1,0.4c0,0.1,0,0.2-0.1,0.2c-0.1,0-0.3,0-0.3,0c-0.1-0.1-0.1-0.3,0-0.3
		C53.6,79.2,53.7,79.2,53.8,79.1z"/>
	<path d="M26.9,24.9c-0.2,0-0.4,0-0.5,0c0-0.2,0.1-0.3,0.1-0.5c0.1,0.1,0.1,0.2,0.2,0.3C26.8,24.8,26.8,24.8,26.9,24.9z"/>
	<path d="M70.7,21.2c0.4-0.6,0.3-0.6,0.8-0.1c0.4,0.5,0.6,1.1,0.5,1.8c0,0.8,0.1,1.5,0.1,2.3c0,0.2,0,0.4-0.1,0.6
		c-0.1,0.2-0.2,0.4-0.3,0.5c-0.2-0.2-0.5-0.3-0.5-0.5c-0.2-0.5-0.3-1-0.4-1.5c-0.1-0.6-0.2-1.3-0.2-2C70.5,22,70.6,21.6,70.7,21.2z"
		/>
	<path d="M67.5,25.1c0-0.4-0.1-0.8-0.1-1.2c0-0.3,0.3-0.6,0.5-0.8c0,0,0.2,0,0.3,0.1c0.5,0.3,0.5,0.9,0.6,1.4c0.2,1,0.2,2.1,0.3,3.2
		c0,0.1,0,0.2,0,0.3c-0.1,0.5-0.4,0.6-0.7,0.3c-0.4-0.3-0.7-0.8-0.7-1.3c0-0.5-0.1-1-0.1-1.5C67.4,25.3,67.5,25.2,67.5,25.1z"/>
	<path d="M171.4,69c-0.9-0.4-0.8-1.2-1-1.8c-0.1-0.5-0.2-1-0.2-1.5c0-0.3,0.3-0.6,0.5-0.9c0.1,0,0.1,0.1,0.2,0.1
		c0.7,0.4,0.8,1.1,0.9,1.8c0,0.5,0.1,1,0,1.5C171.8,68.5,171.6,68.7,171.4,69z"/>
	<path d="M167.4,63.2c0.2,0,0.4,0.1,0.4,0.2c0.6,1,0.9,2,0.5,3.1c-0.2,0.5-0.4,0.5-0.7,0.2C166.7,65.6,166.7,64.6,167.4,63.2z"/>
	<path d="M168.3,16.3c0.4-0.9,0.7-1,1.2-0.2c0.4,0.6,0.4,1.9-0.2,2.3c-0.1,0-0.3,0.1-0.3,0c-0.3-0.7-0.6-1.3-0.8-2
		C168.2,16.5,168.3,16.4,168.3,16.3z"/>
</g>
</svg>
