<?xml version="1.0" encoding="utf-8"?>
<!-- Generator: Adobe Illustrator 26.1.0, SVG Export Plug-In . SVG Version: 6.00 Build 0)  -->
<svg version="1.1" id="Layer_1" xmlns="http://www.w3.org/2000/svg" xmlns:xlink="http://www.w3.org/1999/xlink" x="0px" y="0px"
	 viewBox="0 0 159.5 467.8" style="enable-background:new 0 0 159.5 467.8;" xml:space="preserve">
<style type="text/css">
	.st0{fill:transparent;}
	.st1{fill:#2760FF;}
	.st2{fill:transparent;}
</style>
<g>
	<g>
		<circle class="st1" cx="79.7" cy="50.7" r="50.7"/>
		<path class="st2" d="M79.7,10.1c22.4,0,40.6,18.2,40.6,40.6s-18.2,40.6-40.6,40.6S39.1,73.1,39.1,50.7S57.4,10.1,79.7,10.1
			 M79.7,0C51.7,0,29,22.7,29,50.7s22.7,50.7,50.7,50.7s50.7-22.7,50.7-50.7S107.8,0,79.7,0L79.7,0z"/>
	</g>
	<g>
		<path class="st1" d="M79.7,467.8h46.1V319.9c22.8,0,33.6-32.9,33.6-32.9v-174H79.7H0v174c0,0,10.8,32.9,33.6,32.9v147.9H79.7z"/>
		<path class="st2" d="M149.3,123.2v162.1c-2.9,7.7-11.8,24.5-23.5,24.5h-10.1v10.1v137.7h-36h-36V319.9v-10.1H33.6
			c-11.7,0-20.6-16.8-23.5-24.5V123.2h69.6H149.3 M159.5,113.1H79.7H0v174c0,0,10.8,32.9,33.6,32.9v147.9h46.1h46.1V319.9
			c22.8,0,33.6-32.9,33.6-32.9V113.1L159.5,113.1z"/>
	</g>
</g>
</svg>
