<?xml version="1.0" encoding="utf-8"?>
<!-- Generator: Adobe Illustrator 26.1.0, SVG Export Plug-In . SVG Version: 6.00 Build 0)  -->
<svg version="1.1" id="Layer_1" xmlns="http://www.w3.org/2000/svg" xmlns:xlink="http://www.w3.org/1999/xlink" x="0px" y="0px"
	 viewBox="0 0 1630.1 98.6" style="enable-background:new 0 0 1630.1 98.6;" xml:space="preserve">
<style type="text/css">
	.st0{fill:#FFFFFF;}
	.st1{fill:#2760FF;}
</style>
<path class="st0" d="M0,98.5L542.7,4.6C560.5,1.6,578.7,0,597,0h437.9c18.3,0,36.6,1.6,54.5,4.7l540.7,93.9"/>
<g>
	<path class="st1" d="M479.3,98.5L686.7,5.6c0.9-0.4,0.6-1.8-0.4-1.8h-2.7c-0.1,0-0.2,0-0.4,0.1L453.8,98.5"/>
	<path class="st1" d="M72.4,98.5L572.8,3.9c0.1,0,0.1,0,0.2,0h0.9c1.1,0,1.3,1.6,0.2,1.9L110.3,98.5"/>
	<path class="st1" d="M824.4,98.5l-6.6-93.8c0-0.5-0.4-0.9-0.9-0.9h-3.5c-0.5,0-0.9,0.4-0.9,0.9l-6.5,93.8"/>
	<path class="st1" d="M1150.8,98.5L943.5,5.6c-0.9-0.4-0.6-1.8,0.4-1.8h2.6c0.1,0,0.2,0,0.4,0.1l229.5,94.6"/>
	<path class="st1" d="M1557.7,98.5L1057.4,3.9c-0.1,0-0.1,0-0.2,0h-1c-1.1,0-1.3,1.6-0.2,1.9l463.9,92.8"/>
</g>
</svg>
