<?xml version="1.0" encoding="utf-8"?>
<!-- Generator: Adobe Illustrator 26.1.0, SVG Export Plug-In . SVG Version: 6.00 Build 0)  -->
<svg version="1.1" id="Layer_1" xmlns="http://www.w3.org/2000/svg" xmlns:xlink="http://www.w3.org/1999/xlink" x="0px" y="0px"
	 viewBox="0 0 1485.3 172.2" style="enable-background:new 0 0 1485.3 172.2;" xml:space="preserve">
<style type="text/css">
	.st0{fill:#FFFFFF;}
	.st1{fill:#2760FF;}
	.st2{fill:#2D65FA;}
</style>
<path class="st0" d="M-72.4,172.2L470.3,52.4c17.8-3.9,36-5.9,54.3-5.9h437.9c18.3,0,36.6,2,54.5,6l540.7,119.8"/>
<g>
	<polyline class="st1" points="406.9,172.2 618.3,51.4 611,51.4 381.4,172.2 	"/>
	<polyline class="st1" points="0,172.2 500.5,51.4 511,51.4 37.9,172.2 	"/>
	<polyline class="st1" points="752,172.2 745.3,51.4 740,51.4 733.4,172.2 	"/>
	<polyline class="st1" points="1078.4,172.2 867.1,51.4 874.3,51.4 1104,172.2 	"/>
	<polyline class="st1" points="1485.3,172.2 984.9,51.4 974.3,51.4 1447.5,172.2 	"/>
</g>
</svg>
