<?xml version="1.0" encoding="utf-8"?>
<!-- Generator: Adobe Illustrator 26.1.0, SVG Export Plug-In . SVG Version: 6.00 Build 0)  -->
<svg version="1.1" id="Layer_1" xmlns="http://www.w3.org/2000/svg" xmlns:xlink="http://www.w3.org/1999/xlink" x="0px" y="0px"
	 viewBox="0 0 201.3 228.2" style="enable-background:new 0 0 201.3 228.2;" xml:space="preserve">
<style type="text/css">
	.st0{fill:#2760FF;}
	.st1{fill:#FFFFFF;}
	.st2{fill:#2D65FA;}
</style>
<g>
	<path class="st0" d="M60.6,228.2H19.1C8.6,228.2,0,219.6,0,209.1l0-190C0,8.6,8.6,0,19.1,0h41.5c10.6,0,19.1,8.6,19.1,19.1v190
		C79.8,219.6,71.2,228.2,60.6,228.2z"/>
	<path class="st0" d="M182.1,228.2h-41.5c-10.6,0-19.1-8.6-19.1-19.1v-190C121.5,8.6,130,0,140.6,0h41.5c10.6,0,19.1,8.6,19.1,19.1
		v190C201.3,219.6,192.7,228.2,182.1,228.2z"/>
</g>
</svg>
