<?xml version="1.0" encoding="utf-8"?>
<!-- Generator: Adobe Illustrator 26.1.0, SVG Export Plug-In . SVG Version: 6.00 Build 0)  -->
<svg version="1.1" id="Layer_1" xmlns="http://www.w3.org/2000/svg" xmlns:xlink="http://www.w3.org/1999/xlink" x="0px" y="0px"
	 viewBox="0 0 12.5 102.7" style="enable-background:new 0 0 12.5 102.7;" xml:space="preserve">
<style type="text/css">
	.st0{fill:#D68E8E;}
</style>
<g>
	<g>
		<path class="st0" d="M6.4,11.6c0.5-0.2,0.9-0.1,1.4,0.1c0.4,0.2,0.7,0.3,0.9,0.6c0.2,0.2,0.4,0.4,0.6,0.7c0.1,0.1,0.1,0.3,0.2,0.4
			c0,0.1,0.1,0.2,0.2,0.3c0.3,0.2,0.3,0.5,0.2,0.8c-0.2,0.6-0.3,1.3-0.7,1.9c-0.2,0.3-1,0.5-1.3,0.4c0,0,0-0.2,0-0.2
			c0.2-0.3,0.4-0.5,0.7-0.8c0.3-0.2,0.3-0.5,0.2-0.7c-0.1-0.4-0.3-0.7-0.5-1.1c-0.5-0.7-1.7-0.8-2.4-0.4c-0.3,0.2-0.5,0.5-0.6,0.8
			c-0.3,0.8-0.8,1.4-1.4,1.9c-0.2,0.2-0.5,0.2-0.8,0.3c-0.4,0.1-0.9,0.1-1.3-0.1c0,0-0.1-0.1-0.1-0.1c-0.6,0.1-0.8-0.3-1-0.7
			c0-0.1-0.1-0.2-0.1-0.2c0-0.4-0.1-0.9-0.1-1.3c-0.1-0.7,0.1-1.3,0.2-2c0-0.1,0.2-0.3,0.3-0.3C1,11.7,1.1,11.8,1.1,12
			c0,0.2,0.1,0.3,0.1,0.5C1,13,1.2,13.6,1.1,14.1c0,0.3,0.3,0.5,0.5,0.6c0.7,0.4,1.5,0.5,2.2-0.1c0.3-0.2,0.4-0.5,0.5-0.7
			C4.7,13.2,5,12.5,5.6,12C5.9,11.8,6.1,11.7,6.4,11.6z"/>
		<path class="st0" d="M2.2,7.6c0,0.6,0,1.2-0.1,1.7C2,9.6,1.9,9.9,1.6,10c-0.1,0-0.2,0-0.3,0c-0.1,0-0.1-0.1-0.1-0.2
			c0-0.2,0-0.7-0.1-0.9c0-0.1-0.1-0.3,0-0.4c0.1-0.4,0.1-0.8,0-1.3C1.1,6.6,1.1,6,1.3,5.4C1.4,5,1.6,4.6,1.3,4.1
			c-0.1-0.1,0-0.3,0-0.5c0-0.2,0.1-0.4,0.3-0.5c0.2,0,0.4,0.1,0.5,0.2c0.3,0.4,0.5,0.9,0.3,1.4c0,0.1,0.1,0.3,0.2,0.3
			c0.4,0,0.8,0.1,1.1,0.1C4.9,5.1,6,5.2,7.1,5.1c0.3,0,0.6,0,0.8,0c0.3,0,0.6,0,0.9-0.1C9.1,5,9.3,5,9.6,5c0.2,0,0.4,0,0.5,0.1
			c0.1,0,0.3,0.1,0.4,0.2c0.1,0.2,0.2,0.5,0,0.7C10.3,6.4,10,6.7,9.7,6.6C9,6.4,8.4,6.5,7.7,6.6c-0.1,0-0.2,0-0.3,0
			c-1.2,0-2.5,0-3.7,0c-0.3,0-0.6-0.1-0.8,0.1c-0.1,0.1-0.3,0-0.4,0c-0.2-0.1-0.3,0-0.3,0.2C2.1,7.1,2.2,7.3,2.2,7.6z"/>
		<path class="st0" d="M9.6,1.3C9.5,1,9.4,0.8,9.4,0.6c0-0.3,0.2-0.6,0.5-0.6c0.2,0,0.6,0.3,0.5,0.6c0,0.3-0.5,0.7-0.7,0.8
			C9.6,1.3,9.6,1.3,9.6,1.3z"/>
	</g>
	<g>
		<path class="st0" d="M5.6,34.7c-0.7,0.5-1.4,1-2,1.5c-0.2,0.1-0.4,0.2-0.6,0.3c0,0-0.1,0.1-0.1,0.1c0.1,0,0.1,0.1,0.2,0.1
			c0.6,0,1.2,0,1.8,0.1c0.5,0.1,1.1,0.1,1.6,0.1c0.5-0.1,0.9-0.1,1.3-0.1c0.1,0,0.3,0.1,0.4,0.1C8.5,36.9,8.7,37,9,37
			c0.2,0,0.3,0,0.5,0c0.5,0,0.7,0.1,0.7,0.5c0,0.4-0.3,0.8-0.7,0.8c-1.7,0-3.4,0-5.1,0c-0.7,0-1.3,0-2-0.1c-0.5,0-1-0.2-1.4-0.3
			c-0.5-0.1-0.7-0.8-0.4-1.2c0-0.1,0.1-0.1,0.2-0.1c0.8-0.2,1.5-0.7,2.1-1.2C3,35,3.5,34.8,3.9,34.5c0.6-0.4,1.1-0.8,1.7-1.2
			c0.4-0.3,0.7-0.6,1.1-0.9c0.1-0.1,0.1-0.1,0.2-0.2c-0.1,0-0.2-0.1-0.2,0c-0.3,0.1-0.5,0-0.7,0c-0.5,0-1,0-1.4,0
			c-0.4,0.1-0.9,0-1.3,0c-0.5,0-0.9,0-1.4,0c-0.4,0-0.7,0-1.1-0.1c-0.2,0-0.3-0.1-0.3-0.4c0-0.4,0-0.7,0.4-1c0.1,0,0.2-0.1,0.3-0.1
			c0.5,0.2,1,0.2,1.4-0.1c0.1-0.1,0.2,0,0.3,0c0.9,0,1.9,0.1,2.8,0.1c0.3,0,0.7-0.1,1-0.1c0.3,0,0.7,0.1,1-0.1
			c0.1-0.1,0.3,0.1,0.5,0.1c0.6,0,1.2,0,1.7-0.2c0.1,0,0.3-0.1,0.3,0.2c0,0,0,0,0,0c0.3,0.5,0.3,0.6,0.2,0.9
			c-0.1,0.3-0.3,0.6-0.6,0.7c-0.2,0.1-0.4,0.3-0.6,0.4c-0.4,0.3-0.8,0.5-1.2,0.7C7.1,33.7,6.3,34.1,5.6,34.7z"/>
		<path class="st0" d="M2.1,75.2c-0.2,0-0.3,0-0.4,0c-0.2,0-0.2-0.1-0.2-0.3c0.1-0.3,0.1-0.7,0.2-1c0.1-0.2,0.4-0.5,0.6-0.6
			c0.6-0.4,1.2-0.8,1.7-1.1c0.4-0.2,0.7-0.5,1.1-0.8c0.1-0.1,0.3-0.2,0.4-0.3c0.6-0.2,1.1-0.6,1.6-1c0.2-0.1,0.4-0.2,0.6-0.3
			c0.1,0,0.1-0.1,0.2-0.2c-0.1,0-0.2-0.1-0.2,0c-0.5,0.2-1.1,0.1-1.6,0.1c-0.9,0-1.8,0.1-2.7,0c-0.7,0-1.3-0.1-2-0.1
			c-0.5,0-0.7-0.2-0.7-0.7c0-0.3,0-0.3,0.4-0.4c0.2,0,0.5-0.2,0.7-0.2c0.1,0,0.3,0,0.5,0c0,0,0.1,0,0.1,0c0.9,0,1.7,0.1,2.6,0.1
			c0.3,0,0.5-0.1,0.8-0.1c1,0.2,2.1,0,3.1,0.1c0.3,0,0.6,0.1,0.9,0.1c0.2,0,0.4,0,0.6,0c0.4,0,0.5,0.2,0.5,0.5c0,0.5-0.2,0.8-0.6,1
			c-0.8,0.5-1.6,0.8-2.5,1.1c-0.4,0.2-0.7,0.5-1.1,0.7c-0.7,0.4-1.3,0.8-2,1.2c-0.4,0.2-0.7,0.5-1.1,0.7c0,0-0.1,0.1-0.1,0.2
			c0.1,0,0.1,0.1,0.2,0.1c0.5,0,0.9,0,1.4,0c1.3,0,2.7,0.1,4,0.1c0.2,0,0.5-0.1,0.7-0.1c0.2,0,0.4,0.1,0.7,0c0.1,0,0.4,0.1,0.5,0.3
			c0.1,0.2,0.1,0.4,0,0.6c-0.1,0.2-0.4,0.4-0.6,0.6c0,0-0.1,0.1-0.1,0c-0.3-0.2-0.6,0-0.8,0c-0.2,0-0.4-0.1-0.5-0.1
			c-0.7,0.2-1.5,0.2-2.2,0c0,0-0.1,0-0.2,0c-1.1,0-2.2-0.1-3.4-0.1C2.8,75.4,2.5,75.3,2.1,75.2z"/>
		<path class="st0" d="M4.3,50.8c-0.2-0.1-0.4-0.1-0.6-0.1c-0.2,0-0.4-0.1-0.6-0.1c-0.2,0-0.3-0.1-0.5-0.2c-0.2-0.1-0.3-0.2-0.5-0.3
			c-0.3-0.1-0.6,0-0.5-0.4c0,0-0.1-0.1-0.1-0.1c-0.6-0.3-0.8-0.9-0.9-1.5c-0.1-0.2-0.2-0.5-0.3-0.7c-0.1-0.2-0.2-0.4-0.2-0.7
			c0-0.4-0.1-0.9-0.1-1.3c0-0.4,0.1-0.8,0.5-1c0.3-0.2,0.5-0.6,0.8-0.8c0.2-0.1,0.5-0.2,0.7-0.3C2.7,43,3.4,43,4.1,42.8
			c0.3-0.1,0.7,0,1.1,0c1-0.2,1.8,0.3,2.6,0.7c0.5,0.3,0.9,0.8,1.3,1.3c0.4,0.5,0.4,1.1,0.6,1.6c0,0,0,0.1,0,0.2
			c0.4,1-0.1,1.8-0.7,2.5c-0.2,0.2-0.4,0.5-0.6,0.7c-0.2,0.3-0.5,0.5-0.8,0.6c-0.7,0.4-1.5,0.5-2.3,0.4C5,50.9,4.6,50.9,4.3,50.8
			 M7.2,44.9c-0.8-0.4-1.7-0.6-2.6-0.6c-0.2,0-0.5,0.1-0.7,0.1c-1,0.1-2,0.3-2.8,1c-0.2,0.2-0.3,0.2-0.3,0.5c0,0.2,0,0.5,0.3,0.5
			c0.1,0,0.1,0.1,0.1,0.1c0.1,0.4,0.2,0.7,0.6,0.9c0,0.2,0.1,0.3,0.2,0.4c0.2,0.2,0.3,0.4,0.4,0.6c0.1,0.4,0.4,0.5,0.8,0.6
			c0.4,0.1,0.9,0.1,1.2,0.3c0.8,0.3,1.5,0.2,2.2,0c0.6-0.1,1.1-0.5,1.6-1c0.6-0.6,0.6-1.3,0.2-2c-0.1-0.2-0.3-0.5-0.4-0.6
			C7.8,45.5,7.5,45.2,7.2,44.9z"/>
		<path class="st0" d="M7.9,102.4c-0.2,0.1-0.4,0.1-0.6,0.1c-0.5,0.2-1,0.1-1.5,0.2c-0.4,0.1-0.9,0.1-1.3-0.1
			c-0.6-0.1-1.1-0.3-1.7-0.5c-0.5-0.2-0.9-0.6-1.3-1c-0.2-0.3-0.5-0.6-0.6-0.9c-0.2-0.4-0.3-0.8-0.5-1.2c0.2-0.6-0.1-1.3,0.2-1.9
			c0.1-0.2,0.3-0.4,0.4-0.4c0.3,0,0.2,0.3,0.3,0.5c0.1,0.3,0,0.6,0,0.9c0,0.8,0.3,1.4,0.7,2c0.4,0.5,0.8,0.9,1.4,1.1
			c0.2,0.1,0.4,0.2,0.6,0.2c0.5,0.1,1.1,0.2,1.7,0.2c0.4,0,0.8-0.2,1.3-0.2c0.4,0,0.8-0.2,1.2-0.3c0.5-0.1,0.9-0.4,1.3-0.7
			c0.6-0.4,1.1-1,1.3-1.7c0.2-0.6,0.2-1.3-0.3-1.8c-0.1-0.1-0.1-0.2-0.2-0.3c-0.1-0.2-0.2-0.3-0.4-0.3c-0.4,0-0.5-0.4-0.3-0.7
			c0,0,0.1-0.1,0.2-0.1c0.3,0,0.6-0.1,0.8,0.1c0.6-0.1,0.8,0.4,1,0.8c0.2,0.5,0.4,1,0.4,1.5c0,0.5-0.2,0.9-0.3,1.4
			c-0.1,0.6-0.4,1.1-0.8,1.5c-0.4,0.4-0.8,0.9-1.3,1.1C8.9,101.9,8.4,102.2,7.9,102.4z"/>
		<path class="st0" d="M10.1,58.7c-0.3,0.3-0.6,0.4-1,0.4c-0.7,0.1-1.4,0-2.1,0.1c-0.8,0.1-1.7,0-2.5,0.1c-0.3,0-0.6,0-0.9,0
			c-0.3,0-0.5,0-0.8,0c-0.2,0-0.5,0.1-0.7,0c-0.3-0.1-0.4,0-0.4,0.3c0,0.2,0,0.3,0,0.5c0,0.5,0,0.9-0.2,1.4
			c-0.1,0.3-0.2,0.6-0.2,0.8c0,0.2-0.1,0.3-0.3,0.3c-0.2,0-0.4-0.1-0.4-0.3c-0.1-0.4-0.3-0.9,0-1.3c0.1-0.1,0.1-0.2,0.1-0.3
			c0-0.4,0-0.9,0-1.3c0.2-1.3,0.1-2.6,0.1-3.9c0-0.2,0-0.5,0.1-0.7c0-0.1,0.2-0.3,0.3-0.4c0.1-0.1,0.2-0.1,0.4-0.1
			c0.2,0,0.1,0.2,0.2,0.3c0,0.3,0.1,0.5,0.1,0.8c0,0.7,0,1.3,0,2c0,0.2,0,0.3,0.3,0.3c0,0,0,0,0.1,0c0.6,0,1.2,0,1.7,0.1
			c0.2,0,0.3-0.1,0.5,0c0.3,0,0.6,0.1,0.9,0.1c0.7,0,1.4,0,2-0.2c0,0,0.1,0,0.1,0c0.7,0,1.4,0,2.1-0.1c0.4,0,0.6,0.2,0.8,0.5
			C10.4,58.2,10.3,58.4,10.1,58.7C10.1,58.6,10.1,58.6,10.1,58.7z"/>
		<path class="st0" d="M5.6,89c0.5,0.1,1,0,1.5,0.2c0.1,0,0.2,0,0.4,0c1,0,1.9-0.1,2.9-0.1c0.2,0,0.2-0.1,0.2-0.2c0-0.6,0-1.3,0-1.9
			c0-0.4,0-0.7,0.1-1.1c0.1-0.3-0.1-0.7-0.1-1c0-0.4,0.2-0.7,0.7-0.7c0.1,0,0.2,0.1,0.3,0.2c0.2,0.5,0.3,0.9,0.3,1.4
			c-0.1,0.4-0.3,0.9,0,1.4c0,0.1,0,0.2,0,0.3c-0.1,0.4,0,0.8,0,1.2c0,0.1,0,0.2,0.1,0.3c0.2,0.4,0,1.1-0.4,1.3
			c-0.4,0.2-0.7,0.2-1.2,0.2c-0.7,0-1.5,0-2.2,0c-1.4-0.1-2.7-0.1-4.1-0.1c-0.7,0-1.4-0.1-2.1-0.2c-0.3,0-0.6-0.2-0.9-0.2
			c0,0-0.1-0.1-0.2-0.2c0-0.3,0-0.6,0.2-0.8c0.2-0.2,0.4-0.2,0.7-0.1c0.6,0.1,1.2,0.2,1.8,0.2c0.2,0,0.5,0.1,0.7,0
			c0.2-0.1,0.4,0,0.7,0.1C5,89.1,5.2,89,5.6,89z"/>
		<path class="st0" d="M2.2,79.9c1.4,0.1,2.7,0.2,4.1,0.1c1.4-0.1,2.8,0,4.2-0.1c0.2,0,0.4,0,0.6,0.1c0.4,0.2,0.4,0.5,0.2,0.8
			c-0.3,0.5-0.8,0.5-1.3,0.5c-1,0.1-1.9,0-2.9,0c-0.2,0-0.4,0.1-0.7,0.1c-0.2,0-0.4-0.1-0.6-0.1c-0.6,0-1.2,0.1-1.8,0.1
			c-0.4,0-0.8-0.1-1.2-0.1c-0.3,0-0.6,0-0.8,0c-0.2,0-0.5-0.1-0.7-0.1c0,0-0.1,0-0.1-0.1C1,81.2,0.9,80.6,1,80.4
			c0.1-0.3,0.5-0.6,0.7-0.6C1.8,79.9,2,79.9,2.2,79.9z"/>
		<path class="st0" d="M6.3,66.6c0.1,0,0.1,0,0.2,0.1c-0.1,0-0.2,0.1-0.2,0.1c-0.1-0.1-0.2-0.2-0.4-0.3c0,0,0.1,0,0.1,0
			C6.1,66.5,6.1,66.6,6.3,66.6z"/>
		<path class="st0" d="M3.1,67.6c-0.1,0.1-0.2,0.2-0.2,0c0-0.1,0-0.1,0.1-0.2C3,67.4,3,67.5,3.1,67.6z"/>
		<path class="st0" d="M12.5,77.5c-0.2,0.1-0.2-0.1-0.2-0.2c0,0,0-0.1,0-0.1C12.5,77.4,12.5,77.4,12.5,77.5z"/>
		<path class="st0" d="M9.6,76.7c0-0.1,0.1-0.1,0.1-0.2c0,0,0,0.1,0,0.1C9.7,76.7,9.7,76.7,9.6,76.7z"/>
		<path class="st0" d="M4.5,100C4.5,100,4.5,100,4.5,100C4.5,100,4.5,100,4.5,100z"/>
		<path class="st0" d="M11.1,75.7C11.2,75.7,11.2,75.7,11.1,75.7C11.2,75.7,11.2,75.7,11.1,75.7z"/>
	</g>
</g>
</svg>
