<?xml version="1.0" encoding="UTF-8"?><svg id="a" xmlns="http://www.w3.org/2000/svg" viewBox="0 0 364.51 397.96"><g id="b"><path d="M308.42,182.51c-1.02,0-1.85-.83-1.85-1.86,0-4.15-.04-8.17,.01-12.2,.11-9.44-2.52-17.88-9.76-24.22-8.98-7.86-19.46-9.59-30.3-4.91-10.73,4.63-17.13,13.03-17.62,25.11-.22,5.33-.08,10.67-.05,16.04,0,1.03-.83,1.86-1.85,1.86h-5.14c-1.02,0-1.86-.84-1.85-1.86,.03-8.17,.24-16.05-.06-23.91-.54-14.18-10.82-27.23-23.8-30.77-21.35-5.83-41.78,9.51-42.08,31.65-.11,7.66-.03,15.33-.02,23.02,0,1.02-.83,1.86-1.85,1.86h-4.96c-1.02,0-1.85-.83-1.85-1.86,0-1.58,0-3.02,0-4.45,0-46,0-92-.01-138,0-2.99,.11-6.05-.4-8.97-2.35-13.37-9.6-23.14-22.68-27.3-13.05-4.14-24.65-.84-34.17,9.2-6.6,6.96-8.7,15.4-8.69,24.77,.08,74.67,.05,149.33,.04,224,0,.22,0,.44-.01,.66-.05,1.74-2.28,2.45-3.33,1.05l-.02-.03c-11.98-16.01-23.88-32.07-35.95-48.01-9.09-11.99-22.72-16.78-36.2-13.04-22.37,6.2-31.27,32.95-17.08,51.96,32.99,44.19,66.1,88.28,99.19,132.39,6.77,9.02,15.79,13.29,27.14,13.27,61.33-.09,122.66-.03,184-.06,9.94,0,15.38-4.39,17.8-14.06,5.9-23.57,11.86-47.13,17.7-70.72,5-20.19,11.01-40.24,11.42-61.25,.41-21.16,.32-42.32,.4-63.49,.01-3.16,.06-6.37-.43-9.47-2.87-17.99-22.96-27-37.89-17.08-6.86,4.56-10.25,11.12-11.19,19.08-.11,.92-.9,1.61-1.83,1.61h-4.74Z"/></g></svg>